<?xml version="1.0" encoding="UTF-8"?>
<svg width="1093px" height="200px" viewBox="0 0 1093 200" version="1.1" xmlns="http://www.w3.org/2000/svg" xmlns:xlink="http://www.w3.org/1999/xlink">
    <!-- Generator: Sketch 57.1 (83088) - https://sketch.com -->
    <title>Electricity / Full / Horizontal / Color</title>
    <desc>Created with Sketch.</desc>
    <g id="Electricity-/-Full-/-Horizontal-/-Color" stroke="none" stroke-width="1" fill="none" fill-rule="evenodd">
        <path d="M121.50197,164.9521 L132.766886,152.47321 L144.48717,162.7063 L133.482548,175 L121.50197,164.9521 Z M336.350926,162.735107 L345.423026,152.685444 L357.032846,162.822705 L346.132224,175 L334.375511,165.14023 L325.549603,175 L313.682426,165.046753 L324.840992,152.685444 L336.350926,162.735107 Z M441.9933,162.735107 L451.065987,152.685444 L462.67522,162.822705 L451.774598,175 L440.018473,165.14023 L431.192565,175 L419.324801,165.046753 L430.483954,152.685444 L441.9933,162.735107 Z M473.183345,93.6003137 C472.909536,87.5295975 475.322692,84.0727108 479.357543,75.7608973 C482.565095,78.3612051 489.791634,97.040739 489.980244,106.995162 C490.165917,116.824948 486.393709,132.034662 478.436819,135.819012 C469.627363,140.008429 440.148913,140.641604 439.671806,116.192949 C409.796157,121.86389 406.040402,169.224413 404.153123,167.22906 C402.265257,165.233707 399.664666,127.090373 427.83107,106.043342 C428.601963,102.498269 422.475358,100.951489 419.727287,100.74631 C416.979804,100.540543 411.44547,107.556024 411.513628,104.609439 C411.583549,101.588191 413.667665,85.0221788 421.23852,83.0303537 C428.809376,81.0391164 455.329404,80.9991388 455.319416,91.6731582 C455.305902,106.418426 444.94467,107.895246 444.253686,112.361567 C443.687855,116.021281 448.98246,119.003727 452.625402,119.661594 C458.801951,120.776264 478.116005,123.602327 481.312981,119.051348 C484.510543,114.49978 473.509447,100.815683 473.183345,93.6003137 Z M389.416248,103.243146 C390.812318,98.4875754 391.735392,95.341691 393.338287,89.8782815 C395.246718,91.3797932 401.52903,104.410139 400.866837,112.250452 C400.198181,120.163078 401.063673,138.358177 372.439552,138.750898 C362.516061,138.887293 343.905329,135.346923 342.597983,121.72338 C334.101703,137.404006 316.24835,139.578082 303.564449,137.812601 C302.260629,147.190875 295.385458,160.21887 286.597154,164.295409 C277.809439,168.371361 257.12458,165.958007 251.384596,162.234211 C256.641009,159.891994 289.609632,155.98242 297.530093,140.826794 C300.016107,136.068872 292.883579,132.290401 292.266042,126.956918 C291.584459,121.067277 291.394674,106.376097 293.440009,105.488359 C295.485345,104.600621 298.16702,120.342977 304.201377,121.211902 C317.220193,123.085558 340.150161,119.353531 347.79035,105.35608 C347.630531,120.041969 366.30002,121.578167 373.215734,121.856247 C381.415878,122.18665 402.04668,122.021448 389.416248,103.243146 Z M147.72175,104.130884 C148.349864,99.4346918 149.156599,95.579205 149.8893,87.9329009 C154.353667,92.5579566 158.31801,99.1354477 158.418485,109.183935 C158.575366,124.825172 152.089167,131.432646 142.211507,136.415736 C137.116089,138.986061 109.023719,137.667976 93.5253524,138.252942 C91.4177343,147.677074 82.0900406,161.760947 73.3992741,165.641714 C58.7058797,166.786955 48.7300949,164.960331 40.8736796,163.202492 C36.5755959,160.632756 76.8724078,157.338719 85.6648241,141.191884 C88.773076,135.484493 82.4537472,130.026963 81.1652034,126.989253 C80.757429,120.928531 79.966558,112.195777 82.5360072,104.800509 C83.6700197,111.245721 87.7348376,117.158291 94.0835451,121.84978 C97.0554805,124.045608 114.74255,123.223128 123.975058,123.289561 C133.964357,123.361874 148.4474,121.544657 150.735403,114.152916 C151.61676,111.306863 150.204238,107.005156 147.72175,104.130884 Z M835.579081,103.662911 L839.23965,94.435728 C839.23965,94.435728 845.785194,109.083991 844.921464,121.059634 C844.281011,129.847064 838.323039,134.16876 834.2923,134.434493 C827.964158,134.851907 822.082569,129.142165 822.082569,129.142165 C822.082569,129.142165 819.755787,134.234605 811.529789,134.697875 C804.995997,135.066492 799.114409,125.972176 799.114409,125.972176 C793.174063,134.338665 783.332245,135.586789 773.666698,134.199919 C773.666698,134.199919 769.060139,154.52265 757.31459,160.813831 C748.777179,165.384799 728.118174,161.976709 722.406981,158.750281 C727.983032,157.813159 767.338555,147.107981 767.068272,137.361677 C766.909628,131.587853 764.788496,127.850535 762.038663,122.724584 C759.83527,117.339366 762.896517,103.097933 762.896517,103.097933 C762.896517,103.097933 766.116407,118.397008 781.575407,119.020777 C798.826499,119.716269 803.603453,106.536007 803.603453,106.536007 C803.603453,106.536007 802.945373,121.010838 813.10448,120.225396 C820.813415,119.629259 822.435112,104.909859 822.435112,104.909859 C822.435112,104.909859 822.576129,120.875032 833.816367,120.440569 C845.033103,120.006107 835.579081,103.662911 835.579081,103.662911 Z M592.207067,88.6748381 C591.537235,93.9818646 590.021301,99.2042327 590.37972,103.134384 C590.691133,106.571281 595.585601,110.773045 592.371586,114.766102 C586.737953,121.758654 572.715565,124.035026 564.831534,121.619909 C562.782673,102.796338 551.704605,97.5892552 546.257819,97.3000055 C533.470506,96.6215621 534.478778,122.932115 534.727908,128.266185 C534.857174,131.047568 537.785042,133.52853 540.442039,134.355126 C544.587354,135.644404 547.287832,136.318732 559.600387,136.003614 C556.703661,150.23564 525.75687,153.489699 513.832699,152.610192 C518.961021,158.925477 532.448132,163.936787 541.720594,162.1813 C551.312107,160.366434 564.365003,151.355601 566.029592,136.50745 C570.334139,138.314084 582.747169,138.43872 588.258588,134.481526 C594.05204,130.32268 600.991257,124.968033 600.791483,111.554372 C600.621087,100.01084 594.087295,90.2216186 592.207067,88.6748381 Z M510.770866,94.6226821 C513.24219,97.3194064 518.985112,110.504372 518.554422,120.127803 C517.624884,140.893815 512.360833,148.939895 503.660666,154.361564 C496.339528,155.716687 470.627997,154.921838 465.374523,152.548462 C479.864617,149.684772 509.400649,138.874947 512.155183,129.016941 C514.31627,121.282451 508.207292,112.765458 506.085572,108.398493 C505.845256,104.177329 508.300128,91.9259577 510.770866,94.6226821 Z M64.9018186,106.236175 C65.849571,116.87492 51.6491489,133.97769 30.1857585,131.509662 C2.17682425,128.289113 4.18984337,102.562351 11.3159076,79.8897604 C11.4281337,79.5329015 9.45213155,78.2594973 7.74582462,80.8886125 C5.96607128,83.6317814 -15.438562,136.089448 21.6853651,149.510164 C35.727143,154.586144 48.5814394,146.206721 55.0899662,141.371195 C67.4183863,132.212209 71.6477242,118.285894 70.7317006,97.1459742 C70.2498922,86.0257342 59.6571576,71.3568942 49.6038134,71.9383332 C38.4599369,72.582678 38.3482984,97.8132474 41.7280082,103.052665 C45.1635374,108.37968 54.8525874,107.132144 64.9018186,106.236175 Z M281.176809,119.522848 C273.849208,141.071363 239.214821,140.453474 229.612731,141.765092 C234.310363,148.040399 260.58655,152.744235 270.600527,147.805825 C280.614504,142.866828 287.150059,121.581695 287.007279,110.432647 C286.864499,99.3035888 275.932736,84.6435674 265.878804,85.2250064 C254.734928,85.8693512 254.623877,111.099921 258.003587,116.339926 C261.439116,121.666353 271.128166,120.419405 281.176809,119.522848 Z M248.075983,82.6123526 C251.972168,75.2311941 256.395992,56.5140342 245.914896,56.0631103 C231.628101,55.4481608 212.317571,91.4403475 213.794138,102.547654 C214.269483,106.125649 215.381168,109.474361 218.68038,110.934131 C225.178918,113.809579 230.021093,113.107619 236.276377,112.976516 C237.35457,120.302411 211.807559,131.794208 200.736542,130.126319 C151.563291,122.718117 180.551706,78.699251 181.664566,72.0835459 C173.775247,74.6074259 164.166694,96.8055767 164.06857,109.872961 C163.847055,139.526346 184.397948,148.89933 198.281081,148.707673 C216.078027,148.461928 246.305043,134.844852 247.213428,104.682928 C247.657632,89.944127 223.050735,98.0701622 222.712294,92.699054 C222.373266,87.3273578 234.477821,72.6696881 244.537629,71.9689043 C248.974379,71.6596658 248.075983,82.6123526 248.075983,82.6123526 Z M769.03076,53.0224611 C773.966359,42.7564483 789.84841,23.7182918 780.77631,25.0681237 C771.710085,26.4185436 715.062341,56.2635862 715.091719,63.7252878 C715.126973,70.8559984 714.927199,73.8443241 715.168103,80.4053539 C717.536016,86.8529178 744.011976,102.545302 742.566551,108.728896 C740.016492,119.642193 714.745052,119.084858 705.044251,118.210054 C702.19453,117.953727 698.02865,114.422765 700.954755,100.876825 C697.441079,117.146533 676.176875,121.609914 654.460241,122.100228 C597.177919,123.391857 623.648004,84.7246985 620.810035,88.4990543 C601.214534,114.531527 614.04709,136.02713 633.95988,137.733821 C681.359253,141.796251 691.653502,129.073967 695.378703,125.216717 C695.7665,135.154678 711.771942,135.042976 718.675904,134.283989 C724.904159,133.597903 752.173341,134.810753 748.559778,101.783376 C747.396387,91.1752019 726.719754,76.84382 720.350482,69.1616536 C721.40811,64.0656854 762.267815,43.5995054 770.01788,40.6823164 C774.025116,39.1719861 769.03076,53.0224611 769.03076,53.0224611 Z M813.827193,87.5307733 L821.759405,78.7439318 L831.912636,87.6066131 L822.382231,98.2535889 L812.105609,89.6331248 L804.384923,98.2535889 L794.008415,89.5514058 L803.767973,78.7439318 L813.827193,87.5307733 Z M659.372337,87.5307733 L667.304549,78.7439318 L677.45778,87.6066131 L667.927374,98.2535889 L657.644877,89.6331248 L649.930067,98.2535889 L639.553558,89.5514058 L649.313117,78.7439318 L659.372337,87.5307733 Z M573.357781,72.8184283 L583.402311,81.8956953 L573.27082,93.5121278 L561.100457,82.6047098 L570.954614,70.8418887 L561.100457,62.0109543 L571.048038,50.136431 L583.402311,61.3019398 L573.357781,72.8184283 Z M376.029613,78.2459755 L387.295116,65.767085 L399.014813,76.0007629 L388.01019,88.2938751 L376.029613,78.2459755 Z M805.771591,72.0159368 L815.172731,61.5970685 L824.961668,70.1411049 L815.772054,80.4053539 L805.771591,72.0159368 Z M501.189341,69.0152651 L512.454257,56.5363746 L524.174541,66.7694646 L513.169919,79.0631647 L501.189341,69.0152651 Z M40.5434646,57.1848348 L48.4756766,48.3979933 L58.62597,57.2606746 L49.0949767,67.9076504 L38.8165927,59.2871863 L31.1000194,67.9076504 L20.7240985,59.2054673 L30.4807192,48.3979933 L40.5434646,57.1848348 Z" id="Shape-4" fill="#000000"></path>
        <path d="M993.000326,0 C1048.19197,0 1093,44.8080305 1093,99.9996744 C1093,155.191318 1048.19197,200 993.000326,200 C937.808682,200 893,155.191318 893,99.9996744 C893,44.8080305 937.808682,0 993.000326,0 Z" id="Shape-1" fill="#FFF400"></path>
        <path d="M993.000326,0 C1018.56373,0 1041.89952,9.61272277 1059.58709,25.4175672 L1059.58525,25.4152013 L1059.82508,25.6308979 C1060.38652,26.1357912 1060.94222,26.6469438 1061.49207,27.1642455 L1059.58525,25.4152013 C1060.31807,26.0701237 1061.0412,26.7356673 1061.7544,27.41159 C1062.96868,28.5625858 1064.153,29.7421519 1065.30737,30.9505684 C1065.40776,31.0557911 1065.50721,31.1603502 1065.60643,31.2651235 C1066.78019,32.5043185 1067.92315,33.7742862 1069.03344,35.0729956 C1069.14978,35.2094016 1069.26525,35.3451974 1069.38036,35.4813044 C1071.01109,37.4091243 1072.56993,39.3993958 1074.05305,41.448005 C1074.15259,41.5853551 1074.25283,41.7245434 1074.35273,41.8639987 C1074.77378,42.4520909 1075.18744,43.04303 1075.59483,43.6385914 C1075.66086,43.7345849 1075.72689,43.8314592 1075.79276,43.9284551 C1086.65266,59.9253392 1093,79.2270547 1093,99.9996744 C1093,119.500722 1087.40597,137.705514 1077.73642,153.095474 C1077.61922,153.282271 1077.50111,153.468875 1077.38239,153.655061 C1076.69668,154.730338 1075.99138,155.791298 1075.26664,156.837788 C1075.10854,157.066043 1074.95018,157.292682 1074.79091,157.518633 C1074.61542,157.767642 1074.43926,158.015166 1074.26201,158.261851 C1074.08299,158.510897 1073.90333,158.758523 1073.72256,159.005292 L1073.69531,159.042579 C1073.37639,159.477534 1073.05404,159.909819 1072.72831,160.339396 C1072.54252,160.584257 1072.35639,160.827402 1072.16917,161.069665 C1071.40141,162.063334 1070.61471,163.042822 1069.81022,164.006955 C1069.64767,164.201581 1069.48547,164.394482 1069.32255,164.58676 C1068.43084,165.639391 1067.51765,166.673315 1066.58377,167.687904 C1066.48569,167.794298 1066.38774,167.900259 1066.28956,168.006007 C1065.91794,168.406433 1065.54239,168.804395 1065.16363,169.199259 C1065.05751,169.309732 1064.95082,169.420448 1064.84389,169.530918 C1063.94139,170.463334 1063.02177,171.377313 1062.08478,172.273276 C1061.95231,172.399797 1061.81904,172.526529 1061.68543,172.652897 L1061.49207,172.835448 C1061.03613,173.264403 1060.57617,173.68913 1060.11224,174.109565 C1060.0275,174.186186 1059.94424,174.261384 1059.86086,174.336444 C1058.88885,175.211615 1057.89782,176.069334 1056.89008,176.907638 L1056.5666,177.175341 C1056.41634,177.299272 1056.26572,177.422773 1056.11473,177.545842 C1055.74456,177.847847 1055.37129,178.147708 1054.99583,178.444932 C1054.90373,178.517526 1054.81294,178.589141 1054.72202,178.660601 C1054.18187,179.0855 1053.63592,179.505637 1053.08556,179.920225 C1052.98232,179.997589 1052.88246,180.072515 1052.78245,180.147258 C1052.37294,180.453759 1051.95826,180.75878 1051.54116,181.060662 C1051.40931,181.155605 1051.27774,181.250341 1051.14592,181.344764 C1034.75677,193.086386 1014.6796,200 993.000326,200 C988.261357,200 983.598938,199.669643 979.034862,199.030723 L981.542074,199.349355 C980.666508,199.249289 979.794365,199.137898 978.925796,199.01533 C978.097501,198.898514 977.271908,198.771379 976.449697,198.634198 C976.419192,198.629042 976.387132,198.623677 976.355077,198.618297 C975.608553,198.493059 974.866395,198.359771 974.127116,198.218333 C974.010387,198.195922 973.893615,198.173363 973.776916,198.1506 C973.044447,198.007819 972.314891,197.856965 971.588277,197.698201 C971.427625,197.662987 971.267629,197.627608 971.107777,197.591847 C969.594186,197.253385 968.093135,196.88035 966.605861,196.473806 C966.505389,196.446077 966.405235,196.418525 966.305144,196.390822 C965.603889,196.197041 964.905509,195.995466 964.210305,195.786522 C964.144516,195.766347 964.079441,195.74671 964.014394,195.727009 C950.922986,191.762627 938.966828,185.186584 928.749362,176.605957 L930.521656,178.059789 C929.739228,177.432561 928.966418,176.79382 928.203483,176.143824 C926.943716,175.070876 925.711977,173.967896 924.508271,172.835448 L924.407862,172.740517 C924.288153,172.627586 924.168722,172.514363 924.04957,172.400849 C923.573449,171.947607 923.100205,171.487818 922.631527,171.023428 C922.557514,170.949766 922.481905,170.874614 922.406415,170.799343 C921.200029,169.596652 920.027549,168.36677 918.88667,167.107732 C918.764925,166.972989 918.644837,166.839742 918.525103,166.706172 C917.466402,165.52559 916.434217,164.317936 915.430769,163.085962 C915.365137,163.004823 915.29899,162.923348 915.232969,162.841768 C901.329805,145.662137 893,123.795987 893,99.9996744 C893,44.8080305 937.808682,0 993.000326,0 Z M977.461195,103.616525 L954.133744,140.615475 L989.461088,196.589911 C990.63564,196.632276 991.815507,196.653641 993.000326,196.653641 C1014.37739,196.653641 1034.14282,189.698725 1050.15539,177.930132 L1044.65576,120.785463 L1030.41826,156.327341 L1015.39009,156.327341 L1011.10717,131.330761 L1005.09766,149.177087 L989.757685,149.177087 L977.461195,103.616525 Z M941.697571,160.336883 L932.317846,175.211065 C940.872192,182.123607 950.627711,187.607608 961.220221,191.298883 L941.697571,160.336883 Z M896.346359,99.9996744 C896.346359,122.591906 904.114399,143.384084 917.122962,159.848691 L929.261561,140.615475 L901.822782,97.1023836 L896.389043,97.1023836 C896.360654,98.0647018 896.346359,99.0305319 896.346359,99.9996744 Z M1074.27066,47.6907695 L1074.20197,47.8445356 L1079.57384,142.995557 C1086.0249,130.042608 1089.65397,115.441617 1089.65397,99.9996744 C1089.65397,80.7313434 1084.00352,62.7723694 1074.27066,47.6907695 Z M926.67445,97.1100365 L941.697571,120.912303 L956.715481,97.1186661 L926.67445,97.1100365 Z M993.000326,3.34603361 C943.474181,3.34603361 902.598437,40.6762573 896.999973,88.7099568 L900.361111,88.6098085 L913.579328,76.3626742 L919.71991,86.0915722 L963.675394,86.0915722 L969.815976,76.3626742 L980.94512,86.676721 L994.65934,82.9764231 L999.320503,100.248307 L1009.87899,75.4453237 L1023.83366,75.4453237 L1028.41553,102.187378 L1058.24551,28.7151657 C1041.04669,12.96295 1018.13775,3.34603361 993.000326,3.34603361 Z" id="Shape-2" fill="#000000"></path>
        <path d="M1060.55285,31.0813008 C1064.14038,34.6111127 1067.45239,38.420118 1070.45507,42.4721059 L1076.37236,148.268455 C1070.3122,158.691545 1062.35772,167.879187 1052.98211,175.357724 L1046.40455,106.992683 L1028.03008,152.861789 L1017.96504,152.861789 L1011.97561,117.90374 L1002.60813,145.721301 L992.11626,145.721301 L981.044553,104.696585 L896.461138,104.696585 C896.381789,103.095122 896.363089,97.495122 896.406179,96.3193496 L978.78374,96.3193496 L977.314472,90.8749593 L992.22813,86.8500813 L998.485203,110.035285 L1011.86943,78.5943089 L1020.91268,78.5943089 L1026.95187,113.842114 L1060.55285,31.0813008 Z" id="Shape-3" fill="#DC1B1C"></path>
    </g>
</svg>