<?xml version="1.0" encoding="UTF-8"?>
<svg width="484px" height="308px" viewBox="0 0 484 308" version="1.1" xmlns="http://www.w3.org/2000/svg" xmlns:xlink="http://www.w3.org/1999/xlink">
    <!-- Generator: Sketch 57.1 (83088) - https://sketch.com -->
    <title>Electricity / Full / Vertical / Color</title>
    <desc>Created with Sketch.</desc>
    <g id="Electricity-/-Full-/-Vertical-/-Color" stroke="none" stroke-width="1" fill="none" fill-rule="evenodd">
        <path d="M242.000326,0 C297.19197,0 342,44.8080305 342,99.9996744 C342,155.191318 297.19197,200 242.000326,200 C186.808682,200 142,155.191318 142,99.9996744 C142,44.8080305 186.808682,0 242.000326,0 Z" id="Shape-1" fill="#FFF400"></path>
        <path d="M242.000326,0 C267.563725,0 290.899516,9.61272277 308.587095,25.4175672 L308.585255,25.4152013 L308.825077,25.6308979 C309.386519,26.1357912 309.942221,26.6469438 310.492074,27.1642455 L308.585255,25.4152013 C309.318075,26.0701237 310.041205,26.7356673 310.754403,27.41159 C311.968678,28.5625858 313.153,29.7421519 314.307373,30.9505684 C314.407763,31.0557911 314.507206,31.1603502 314.606426,31.2651235 C315.780193,32.5043185 316.923149,33.7742862 318.033444,35.0729956 C318.149779,35.2094016 318.265249,35.3451974 318.380362,35.4813044 C320.011086,37.4091243 321.569927,39.3993958 323.053048,41.448005 C323.152586,41.5853551 323.25283,41.7245434 323.352725,41.8639987 C323.773775,42.4520909 324.187438,43.04303 324.59483,43.6385914 C324.660858,43.7345849 324.726891,43.8314592 324.792758,43.9284551 C335.65266,59.9253392 342,79.2270547 342,99.9996744 C342,119.500722 336.405966,137.705514 326.736419,153.095474 C326.619224,153.282271 326.501106,153.468875 326.382389,153.655061 C325.696679,154.730338 324.991382,155.791298 324.266641,156.837788 C324.108544,157.066043 323.950183,157.292682 323.790912,157.518633 C323.615424,157.767642 323.439263,158.015166 323.262007,158.261851 C323.082989,158.510897 322.903325,158.758523 322.722558,159.005292 L322.695308,159.042579 C322.376391,159.477534 322.054045,159.909819 321.728308,160.339396 C321.542523,160.584257 321.356388,160.827402 321.169167,161.069665 C320.401405,162.063334 319.614708,163.042822 318.810215,164.006955 C318.647666,164.201581 318.485467,164.394482 318.322555,164.58676 C317.430838,165.639391 316.517649,166.673315 315.58377,167.687904 C315.485691,167.794298 315.387738,167.900259 315.289559,168.006007 C314.917945,168.406433 314.542388,168.804395 314.163626,169.199259 C314.057512,169.309732 313.950824,169.420448 313.843885,169.530918 C312.941392,170.463334 312.021771,171.377313 311.084782,172.273276 C310.952307,172.399797 310.819044,172.526529 310.685433,172.652897 L310.492074,172.835448 C310.036132,173.264403 309.576168,173.68913 309.112244,174.109565 C309.027503,174.186186 308.944243,174.261384 308.860856,174.336444 C307.88885,175.211615 306.897822,176.069334 305.890083,176.907638 L305.566599,177.175341 C305.416342,177.299272 305.265718,177.422773 305.114728,177.545842 C304.74456,177.847847 304.371286,178.147708 303.995831,178.444932 C303.903731,178.517526 303.812939,178.589141 303.722019,178.660601 C303.181871,179.0855 302.635923,179.505637 302.085564,179.920225 C301.982322,179.997589 301.882457,180.072515 301.782447,180.147258 C301.372941,180.453759 300.958262,180.75878 300.541165,181.060662 C300.409309,181.155605 300.277735,181.250341 300.145923,181.344764 C283.756774,193.086386 263.679603,200 242.000326,200 C237.261357,200 232.598938,199.669643 228.034862,199.030723 L230.542074,199.349355 C229.666508,199.249289 228.794365,199.137898 227.925796,199.01533 C227.097501,198.898514 226.271908,198.771379 225.449697,198.634198 C225.419192,198.629042 225.387132,198.623677 225.355077,198.618297 C224.608553,198.493059 223.866395,198.359771 223.127116,198.218333 C223.010387,198.195922 222.893615,198.173363 222.776916,198.1506 C222.044447,198.007819 221.314891,197.856965 220.588277,197.698201 C220.427625,197.662987 220.267629,197.627608 220.107777,197.591847 C218.594186,197.253385 217.093135,196.88035 215.605861,196.473806 C215.505389,196.446077 215.405235,196.418525 215.305144,196.390822 C214.603889,196.197041 213.905509,195.995466 213.210305,195.786522 C213.144516,195.766347 213.079441,195.74671 213.014394,195.727009 C199.922986,191.762627 187.966828,185.186584 177.749362,176.605957 L179.521656,178.059789 C178.739228,177.432561 177.966418,176.79382 177.203483,176.143824 C175.943716,175.070876 174.711977,173.967896 173.508271,172.835448 L173.407862,172.740517 C173.288153,172.627586 173.168722,172.514363 173.04957,172.400849 C172.573449,171.947607 172.100205,171.487818 171.631527,171.023428 C171.557514,170.949766 171.481905,170.874614 171.406415,170.799343 C170.200029,169.596652 169.027549,168.36677 167.88667,167.107732 C167.764925,166.972989 167.644837,166.839742 167.525103,166.706172 C166.466402,165.52559 165.434217,164.317936 164.430769,163.085962 C164.365137,163.004823 164.29899,162.923348 164.232969,162.841768 C150.329805,145.662137 142,123.795987 142,99.9996744 C142,44.8080305 186.808682,0 242.000326,0 Z M226.461195,103.616525 L203.133744,140.615475 L238.461088,196.589911 C239.63564,196.632276 240.815507,196.653641 242.000326,196.653641 C263.377387,196.653641 283.142817,189.698725 299.155388,177.930132 L293.655757,120.785463 L279.418262,156.327341 L264.390094,156.327341 L260.107171,131.330761 L254.097662,149.177087 L238.757685,149.177087 L226.461195,103.616525 Z M190.697571,160.336883 L181.317846,175.211065 C189.872192,182.123607 199.627711,187.607608 210.220221,191.298883 L190.697571,160.336883 Z M145.346359,99.9996744 C145.346359,122.591906 153.114399,143.384084 166.122962,159.848691 L178.261561,140.615475 L150.822782,97.1023836 L145.389043,97.1023836 C145.360654,98.0647018 145.346359,99.0305319 145.346359,99.9996744 Z M323.270659,47.6907695 L323.201967,47.8445356 L328.573841,142.995557 C335.024896,130.042608 338.653966,115.441617 338.653966,99.9996744 C338.653966,80.7313434 333.003525,62.7723694 323.270659,47.6907695 Z M175.67445,97.1100365 L190.697571,120.912303 L205.715481,97.1186661 L175.67445,97.1100365 Z M242.000326,3.34603361 C192.474181,3.34603361 151.598437,40.6762573 145.999973,88.7099568 L149.361111,88.6098085 L162.579328,76.3626742 L168.71991,86.0915722 L212.675394,86.0915722 L218.815976,76.3626742 L229.94512,86.676721 L243.65934,82.9764231 L248.320503,100.248307 L258.878989,75.4453237 L272.833659,75.4453237 L277.415527,102.187378 L307.245507,28.7151657 C290.046686,12.96295 267.137753,3.34603361 242.000326,3.34603361 Z" id="Shape-2" fill="#000000"></path>
        <path d="M309.552846,31.0813008 C313.140385,34.6111127 316.452388,38.420118 319.455073,42.4721059 L325.372358,148.268455 C319.312195,158.691545 311.357724,167.879187 301.982114,175.357724 L295.404553,106.992683 L277.030081,152.861789 L266.965041,152.861789 L260.97561,117.90374 L251.60813,145.721301 L241.11626,145.721301 L230.044553,104.696585 L145.461138,104.696585 C145.381789,103.095122 145.363089,97.495122 145.406179,96.3193496 L227.78374,96.3193496 L226.314472,90.8749593 L241.22813,86.8500813 L247.485203,110.035285 L260.869431,78.5943089 L269.912683,78.5943089 L275.95187,113.842114 L309.552846,31.0813008 Z" id="Shape-3" fill="#DC1B1C"></path>
        <path d="M69.5940279,302.239204 L76.0463585,295.08464 L82.7595152,300.951612 L76.4562761,308 L69.5940279,302.239204 Z M192.655441,300.968128 L197.851769,295.206321 L204.501654,301.018351 L198.257984,308 L191.523961,302.347065 L186.468648,308 L179.671354,302.293472 L186.06277,295.206321 L192.655441,300.968128 Z M253.165393,300.968128 L258.362057,295.206321 L265.011605,301.018351 L258.767936,308 L252.034249,302.347065 L246.978937,308 L240.181306,302.293472 L246.573058,295.206321 L253.165393,300.968128 Z M271.03046,261.330847 C270.873628,257.850303 272.255838,255.868354 274.566924,251.102914 C276.404149,252.593758 280.543374,263.303357 280.651406,269.010559 C280.757756,274.646304 278.597107,283.366539 274.039551,285.536233 C268.993661,287.938166 252.108963,288.301186 251.835685,274.283958 C234.72348,277.535297 232.572254,304.688663 231.491256,303.544661 C230.409922,302.400659 228.920353,280.531814 245.053536,268.464849 C245.495089,266.432341 241.985885,265.54552 240.411842,265.427884 C238.838136,265.309911 235.668175,269.33212 235.707214,267.642745 C235.747264,265.910563 236.941005,256.412716 241.277448,255.270736 C245.613891,254.129093 260.804061,254.106173 260.79834,260.225944 C260.790599,268.679898 254.855882,269.526607 254.4601,272.087298 C254.136002,274.185534 257.168651,275.89547 259.25526,276.272647 C262.79307,276.911724 273.855795,278.532001 275.686962,275.922773 C277.518465,273.313207 271.217245,265.467658 271.03046,261.330847 Z M223.050254,266.859404 C223.849896,264.132877 224.378615,262.329236 225.296723,259.196881 C226.389836,260.057748 229.988225,267.52848 229.608934,272.023593 C229.22594,276.560165 229.721678,286.992022 213.326323,287.217182 C207.642336,287.295381 196.982461,285.265569 196.233638,277.454738 C191.367129,286.444963 181.141067,287.691434 173.875969,286.679224 C173.129165,292.056102 169.191197,299.525485 164.157423,301.862701 C159.123986,304.19958 147.276091,302.815924 143.988337,300.680948 C146.99911,299.338077 165.882914,297.096588 170.419603,288.407362 C171.843545,285.679486 167.758168,283.513163 167.404455,280.4553 C167.014057,277.078572 166.905351,268.655629 168.076881,268.146659 C169.24841,267.637689 170.784423,276.663307 174.240789,277.16149 C181.69772,278.23572 194.831572,276.096025 199.207727,268.070819 C199.116186,276.490729 209.809716,277.371483 213.770905,277.530915 C218.467793,277.720346 230.284726,277.62563 223.050254,266.859404 Z M84.6122213,267.368374 C84.9719929,264.67589 85.4340756,262.465411 85.8537531,258.08153 C88.4108576,260.733228 90.6815584,264.504323 90.7391084,270.265456 C90.8289671,279.233098 87.1137951,283.021384 81.4560583,285.878355 C78.5374994,287.352008 62.4467221,286.596306 53.5695509,286.931687 C52.3623472,292.334856 47.0196209,300.40961 42.0417144,302.634583 C33.6256163,303.291187 27.9116757,302.243923 23.4116698,301.236096 C20.9498088,299.76278 44.0310596,297.874199 49.0671892,288.61668 C50.847537,285.344443 47.2279451,282.215459 46.4898917,280.473838 C46.2563262,276.999025 45.8033303,271.992246 47.2750621,267.752292 C47.924603,271.447547 50.2528537,274.83742 53.8892731,277.527207 C55.5915415,278.786149 65.7223603,278.314593 71.0105655,278.352682 C76.7322468,278.394141 85.0278601,277.35227 86.3383846,273.114338 C86.8432092,271.482602 86.0341437,269.016289 84.6122213,267.368374 Z M478.603876,267.100069 L480.700581,261.809817 C480.700581,261.809817 484.449744,270.208155 483.955016,277.07419 C483.588177,282.112317 480.175563,284.590089 477.866832,284.742443 C474.242192,284.98176 470.87333,281.708174 470.87333,281.708174 C470.87333,281.708174 469.540593,284.62784 464.828897,284.893448 C461.086465,285.104789 457.717602,279.890714 457.717602,279.890714 C454.315085,284.687501 448.677878,285.403092 443.141635,284.607954 C443.141635,284.607954 440.503086,296.259653 433.775457,299.866596 C428.88539,302.487285 417.052303,300.533313 413.78104,298.683495 C416.974897,298.146211 439.516995,292.008576 439.362182,286.420695 C439.271314,283.110369 438.056369,280.96764 436.481317,278.028761 C435.219255,274.941236 436.972679,266.776149 436.972679,266.776149 C436.972679,266.776149 438.816972,275.547618 447.671594,275.905245 C457.552693,276.303994 460.288842,268.747311 460.288842,268.747311 C460.288842,268.747311 459.911906,277.046214 465.73085,276.595894 C470.146382,276.254109 471.075259,267.814986 471.075259,267.814986 C471.075259,267.814986 471.156031,276.968352 477.594227,276.71926 C484.01896,276.470168 478.603876,267.100069 478.603876,267.100069 Z M339.204994,258.506907 C338.821328,261.549602 337.953029,264.54376 338.158325,266.797047 C338.336696,268.767535 341.140155,271.176546 339.299228,273.465898 C336.07239,277.474962 328.040631,278.780082 323.524808,277.395414 C322.351259,266.603234 316.005951,263.61784 312.886135,263.452003 C305.561805,263.063029 306.139324,278.147746 306.282021,281.205946 C306.356062,282.800605 308.033089,284.223024 309.554967,284.696939 C311.929325,285.436125 313.476107,285.82274 320.528506,285.642072 C318.869316,293.801767 301.14358,295.667428 294.313641,295.163177 C297.251046,298.78394 304.976208,301.657091 310.287299,300.650612 C315.781136,299.610089 323.257587,294.443878 324.211033,285.930938 C326.676596,286.966742 333.786544,287.0382 336.94338,284.769408 C340.26176,282.385003 344.236412,279.315005 344.121985,271.624506 C344.024386,265.006215 340.281953,259.393728 339.204994,258.506907 Z M292.55988,261.917004 C293.975408,263.463126 297.264845,271.022507 297.018154,276.539941 C296.485732,288.445788 293.470584,293.058873 288.487293,296.167296 C284.293883,296.944234 269.566806,296.48852 266.557715,295.127785 C274.857367,293.485936 291.775046,287.288303 293.352791,281.636379 C294.590621,277.201938 291.091514,272.318863 289.876233,269.815136 C289.738584,267.395002 291.144689,260.370882 292.55988,261.917004 Z M37.1745328,268.575407 C37.7173874,274.674954 29.5836545,284.480543 17.2898309,283.065539 C1.24684371,281.219091 2.39986295,266.469081 6.48153759,253.470129 C6.54581858,253.26553 5.41400198,252.535445 4.43666168,254.042804 C3.41725266,255.615555 -8.842916,285.691284 12.4209665,293.385827 C20.463831,296.296056 27.8265286,291.491853 31.5544895,288.719485 C38.6159751,283.468333 41.0384598,275.483913 40.5137788,263.363692 C40.2378081,256.988088 34.1704903,248.577953 28.4121251,248.911311 C22.0291236,249.280735 21.9651792,263.746262 23.901013,266.750194 C25.868819,269.80435 31.4185234,269.089096 37.1745328,268.575407 Z M161.052752,276.1931 C156.855641,288.547581 137.01772,288.193325 131.517825,288.945319 C134.208539,292.543162 149.259042,295.240028 154.994858,292.408673 C160.730674,289.576981 164.474117,277.373505 164.392335,270.981384 C164.310553,264.600724 158.049046,256.195645 152.290345,256.529004 C145.907343,256.898428 145.843735,271.363954 147.779569,274.368224 C149.747375,277.422042 155.29708,276.707125 161.052752,276.1931 Z M142.093226,255.031082 C144.324887,250.799218 146.858769,240.068046 140.855396,239.809517 C132.67219,239.456946 121.611485,260.092466 122.457234,266.460655 C122.729503,268.512039 123.366255,270.431967 125.255981,271.268902 C128.978221,272.917492 131.751727,272.515035 135.334635,272.439869 C135.952203,276.640049 121.319359,283.228679 114.97809,282.272423 C86.8125831,278.025054 103.416599,252.787571 104.054024,248.994566 C99.5351711,250.441591 94.031574,263.168531 93.9753702,270.660498 C93.848491,287.661772 105.619653,293.035616 113.571649,292.925732 C123.765403,292.784839 141.078865,284.977715 141.599171,267.684879 C141.853602,259.234633 127.759238,263.89356 127.565385,260.814124 C127.371196,257.734352 134.304456,249.330621 140.066523,248.928838 C142.60781,248.751542 142.093226,255.031082 142.093226,255.031082 Z M440.486258,238.066211 C443.313275,232.180364 452.410214,221.265154 447.213886,222.039058 C442.020925,222.813298 409.574169,239.924456 409.590997,244.202498 C409.611189,248.290772 409.496763,250.004079 409.634748,253.765736 C410.991043,257.46234 426.155972,266.459306 425.32806,270.004567 C423.867434,276.261524 409.392432,275.941985 403.835997,275.440431 C402.203731,275.29347 399.817594,273.269052 401.493611,265.502713 C399.481044,274.830679 387.301311,277.389684 374.862434,277.670797 C342.052205,278.411331 357.213768,256.24216 355.588233,258.406124 C344.364301,273.331409 351.714546,285.655555 363.120215,286.634058 C390.269679,288.963184 396.166029,281.669075 398.299754,279.457584 C398.521877,285.155349 407.689491,285.091306 411.64395,284.656154 C415.211376,284.262798 430.830647,284.958165 428.760867,266.022469 C428.094498,259.940449 416.251315,251.72379 412.603116,247.319348 C413.208906,244.39766 436.612571,232.663716 441.051662,230.991195 C443.34693,230.125272 440.486258,238.066211 440.486258,238.066211 Z M466.144806,257.850977 L470.688227,252.813188 L476.503806,257.894458 L471.04497,263.998724 L465.158716,259.056325 L460.736453,263.998724 L454.792985,259.009473 L460.383076,252.813188 L466.144806,257.850977 Z M377.675989,257.850977 L382.21941,252.813188 L388.034989,257.894458 L382.576153,263.998724 L376.686533,259.056325 L372.267636,263.998724 L366.324168,259.009473 L371.914259,252.813188 L377.675989,257.850977 Z M328.40848,249.415899 L334.161797,254.620199 L328.358671,261.280287 L321.387717,255.0267 L327.031992,248.282683 L321.387717,243.219614 L327.085503,236.411554 L334.161797,242.813112 L328.40848,249.415899 Z M215.382642,252.527693 L221.835309,245.373129 L228.548129,251.240437 L222.24489,258.288488 L215.382642,252.527693 Z M461.53071,248.955804 L466.915505,242.982319 L472.522423,247.8809 L467.258786,253.765736 L461.53071,248.955804 Z M287.071765,247.235419 L293.524095,240.080855 L300.237252,245.947826 L293.934013,252.996214 L287.071765,247.235419 Z M23.2225288,240.452639 L27.7659496,235.414849 L33.5798455,240.49612 L28.120673,246.600386 L22.2334093,241.657987 L17.8135022,246.600386 L11.8703712,241.611135 L17.4587788,235.414849 L23.2225288,240.452639 Z" id="Shape-4" fill="#000000"></path>
    </g>
</svg>