<?xml version="1.0" encoding="UTF-8"?>
<svg width="1144px" height="200px" viewBox="0 0 1144 200" version="1.1" xmlns="http://www.w3.org/2000/svg" xmlns:xlink="http://www.w3.org/1999/xlink">
    <!-- Generator: Sketch 57.1 (83088) - https://sketch.com -->
    <title>Water / Full / Horizontal / Mono</title>
    <desc>Created with Sketch.</desc>
    <g id="Water-/-Full-/-Horizontal-/-Mono" stroke="none" stroke-width="1" fill="none" fill-rule="evenodd">
        <path d="M570.376197,110.079254 L570.376197,110.04285 L573.07922,110.04285 C574.829364,110.04285 576.284449,109.618141 577.45559,108.767712 C578.111389,108.278285 578.819733,107.492574 579.566474,106.372151 C580.132341,105.521722 580.544615,105.097013 580.814412,105.097013 C581.136754,105.097013 581.406551,105.548014 581.664222,106.462149 C581.973428,107.582572 582.410964,108.406709 582.97683,108.947708 C583.941834,109.836563 585.448454,110.300709 587.494667,110.300709 C589.785416,110.300709 591.729571,109.669713 593.299851,108.394575 C594.277991,107.620998 595.216723,106.449003 596.118068,104.890726 C596.851673,103.615588 597.35388,102.984592 597.649949,102.984592 C598.112747,102.984592 598.448225,103.357729 598.641226,104.11816 C599.386957,107.209435 601.36951,108.754566 604.548467,108.754566 C605.012276,108.754566 605.256811,108.471427 605.256811,107.878857 C605.256811,107.325724 604.496933,106.192156 603.016586,104.479163 L606.33802,99.9964608 C606.659351,99.558606 606.865488,99.3138928 606.968557,99.2876013 C607.110023,99.3654646 607.289888,99.5970321 607.509161,99.9964608 C608.873304,102.353595 609.555375,104.632867 609.555375,106.823152 C609.555375,109.218712 609.027906,111.304842 607.985095,113.108844 C606.724022,115.272838 604.986003,116.354834 602.772051,116.354834 C599.863902,116.354834 597.611551,115.401261 596.001863,113.481981 C594.960063,115.246546 593.95565,116.496404 592.977509,117.204252 C591.638629,118.183105 589.888485,118.660397 587.713941,118.660397 C584.071175,118.660397 581.316618,117.037402 579.463406,113.765121 C578.999597,115.001833 578.086127,116.135401 576.721985,117.140546 C575.357843,118.156814 574.020983,118.659386 572.708375,118.660397 L572.708375,118.734216 L567.30233,118.734216 C564.470976,118.734216 562.579366,119.095218 561.601225,119.829358 C561.099019,120.215641 560.841347,120.486646 560.841347,120.628215 C560.841347,120.808211 561.163689,121.014498 561.819488,121.246066 C564.111247,121.813356 566.015994,122.289636 567.560001,122.689065 C570.083159,123.333207 571.357369,124.054201 571.357369,124.839913 C571.357369,129.167899 567.611535,132.91545 560.107742,136.071442 C553.904431,138.699582 548.279112,140 543.233807,140 C534.881214,140 530.71098,136.367727 530.71098,129.090036 C530.71098,124.466775 532.499522,119.945647 536.116015,115.489237 C536.696028,114.755097 537.185099,114.329377 537.5711,114.200953 C537.905568,114.084664 538.085433,114.200953 538.085433,114.57409 C538.085433,114.831949 537.982364,115.153515 537.789363,115.489237 C536.116015,118.477368 535.267216,121.194494 535.267216,123.641627 C535.267216,129.193179 539.372779,131.962889 547.584915,131.962889 C549.476526,131.962889 552.565551,131.56346 556.825717,130.764603 C561.613351,129.863613 564.020304,129.038464 564.020304,128.279044 C564.020304,127.660182 562.501559,126.96548 559.464069,126.153477 C556.439715,125.354619 554.92097,124.839913 554.92097,124.582054 C554.92097,122.263345 555.989043,119.481501 558.138325,116.223377 C560.816086,112.113812 563.995042,110.079254 567.663069,110.079254 L570.376197,110.079254 Z M191.444744,131.200435 C189.565259,134.15014 188.201116,136.519409 187.326044,138.335545 C186.296369,137.601406 184.160224,136.352559 180.890324,134.600129 C182.229204,132.642423 183.541812,130.246862 184.829159,127.361875 C187.133043,128.971724 189.320723,130.260008 191.444744,131.200435 Z M460.214126,131.200435 C458.334641,134.15014 456.970499,136.519409 456.095427,138.335545 C455.065752,137.601406 452.929606,136.352559 449.659706,134.600129 C450.998587,132.642423 452.311195,130.246862 453.598541,127.361875 C455.902426,128.971724 458.090106,130.260008 460.214126,131.200435 Z M856.808696,110.096444 L856.808696,110.040828 L859.511719,110.040828 C861.261863,110.040828 862.729074,109.615108 863.900216,108.777824 C864.557025,108.276263 865.264358,107.490551 866.011099,106.369118 C866.577976,105.531834 866.98924,105.093979 867.260048,105.093979 C867.568243,105.093979 867.852186,105.558126 868.096721,106.460127 C868.418053,107.580549 868.855589,108.404687 869.40933,108.945685 C870.38747,109.847686 871.893079,110.297675 873.939293,110.297675 C876.231052,110.297675 878.16106,109.666679 879.744476,108.391541 C880.722617,107.618975 881.649223,106.446981 882.562693,104.888704 C883.284173,103.613565 883.798505,102.981558 884.094574,102.981558 C884.558383,102.981558 884.879714,103.368852 885.085851,104.115126 C885.832593,107.206401 887.80201,108.76569 890.994103,108.76569 C891.456901,108.76569 891.6883,108.469405 891.6883,107.876834 C891.6883,107.32269 890.942569,106.189122 889.462222,104.489275 L892.782645,99.9934271 C893.103976,99.5555724 893.310113,99.3108592 893.413182,99.2855789 C893.554649,99.362431 893.735524,99.6071442 893.953787,99.9934271 C895.317929,102.363708 896,104.630844 896,106.820118 C896,109.215679 895.472532,111.30282 894.429721,113.105811 C893.155511,115.269804 891.418503,116.351801 889.20455,116.351801 C886.308527,116.351801 884.056176,115.398228 882.447499,113.479959 C881.404688,115.244524 880.388149,116.49337 879.423145,117.20223 C878.084264,118.181083 876.320984,118.657364 874.158566,118.657364 C870.502664,118.657364 867.749118,117.034369 865.908031,113.763098 C865.445233,114.99981 864.530752,116.132368 863.16661,117.137512 C861.802468,118.154791 860.463587,118.657364 859.150979,118.657364 L859.080246,118.657364 L859.080246,118.734216 L857.252295,118.734216 C856.02962,118.734216 855.322287,119.391503 855.089877,120.705067 C854.39467,125.109906 852.785992,129.013184 850.27597,132.413889 C847.47089,136.199866 844.407127,138.107011 841.073567,138.107011 C838.074475,138.107011 835.204724,137.128158 832.450167,135.144161 C831.548823,134.500019 831.099161,134.036884 831.099161,133.792171 C831.099161,133.456448 831.716562,133.314879 832.926101,133.366451 C837.650075,133.521166 842.206311,131.56346 846.582681,127.480187 C848.268155,125.921909 849.645434,124.079481 850.714517,121.993351 C851.563317,120.33193 851.988727,119.133644 851.988727,118.41265 C851.988727,117.781654 850.533642,116.017089 847.612356,113.144237 L851.267247,107.01326 C851.331918,106.833264 851.448122,106.820118 851.589589,106.974833 C853.647928,108.893102 855.390999,109.939706 856.808696,110.096444 Z M101.684179,110.11768 L101.684179,110.113635 L109.316303,110.113635 C117.515303,110.113635 121.620866,109.264217 121.620866,107.550213 C121.620866,106.095079 119.497857,104.008949 115.237691,101.303958 C112.13553,99.3068143 109.316303,97.7616827 106.755757,96.64126 C105.82814,95.6492612 105.365342,93.6015573 105.365342,90.497137 C105.365342,89.4535664 105.481547,88.79729 105.69981,88.5262852 C108.840369,85.5765803 113.306672,82.6663127 119.098719,79.8197515 C124.015694,77.3978992 128.996329,75.4017671 134.041635,73.8171982 C132.329889,78.5446134 131.210282,81.2748853 130.682813,82.0090251 C126.293306,83.5157307 123.049679,84.6755906 120.926669,85.4865825 C117.245506,86.8780099 113.83414,88.3978613 110.668319,90.0592823 C110.230783,90.277704 109.998374,90.4455652 109.973112,90.5739891 C110.024646,90.6902785 110.217647,90.8318481 110.552114,90.9997093 C119.883858,95.3529761 124.543162,100.994527 124.543162,107.937507 C124.543162,112.457624 122.612143,115.536764 118.737979,117.198185 C116.344162,118.22861 112.882272,118.731182 108.326036,118.731182 L104.010294,118.731182 L104.010294,118.734216 L101.384068,118.734216 C97.7544386,118.734216 95.3606214,117.22751 94.18948,114.200953 C92.747531,117.22751 90.9589889,118.734216 88.7834345,118.734216 C86.5957544,118.734216 84.8062018,117.034369 83.4167976,113.621529 C81.8586439,117.034369 79.3496325,118.734216 75.886732,118.734216 C74.5225897,118.734216 73.132175,118.284226 71.7043727,117.382225 C70.2876856,116.46809 69.2842832,115.398228 68.7052805,114.174662 C68.0616074,115.269804 67.0966031,116.300229 65.7829845,117.22751 C64.367308,118.232655 63.0809723,118.734216 61.9088203,118.734216 L61.7895842,118.734216 L61.7895842,118.73826 L57.2970088,118.73826 C56.7180062,122.744682 55.0325326,126.608522 52.2648394,130.304501 C48.6998808,135.045062 44.516511,137.415343 39.6904786,137.415343 C37.9655965,137.415343 36.0608496,136.48705 33.9620914,134.632488 C32.0573445,132.957921 30.7316003,131.219648 29.9858691,129.455083 C29.7797321,128.990937 29.6897997,128.64308 29.6897997,128.424658 C29.6897997,127.922086 30.1909957,127.818943 31.1822725,128.128373 C31.6066723,128.283089 32.3402777,128.527802 33.4214868,128.900939 C34.708833,129.313514 36.3053847,129.519801 38.1969954,129.519801 C42.7795031,129.519801 46.5889969,128.308369 49.6264871,125.861236 C51.9950424,123.968248 53.3591847,121.945824 53.7583226,119.807111 C53.8098569,119.523972 53.8351188,119.137689 53.8351188,118.635117 C50.862299,118.635117 48.7645512,118.441975 47.5540012,118.081984 C45.2117184,117.373125 44.0405769,115.917991 44.0405769,113.68928 C44.0405769,111.473715 45.0318537,108.768723 47.0396691,105.575316 C49.2020873,102.123039 51.299835,100.396901 53.3207866,100.396901 C54.6849289,100.396901 55.8813322,101.736756 56.8988814,104.415456 C57.6446125,106.43788 58.1084209,108.330869 58.2498875,110.121725 L59.5281394,110.121725 L59.5281394,110.11768 L63.1830303,110.11768 C64.3804441,110.11768 65.9638597,109.38354 67.9322665,107.940541 C69.8855163,106.497541 70.7120854,105.775536 70.4240998,105.764413 L70.4170265,105.764413 C70.4190475,105.764413 70.4220789,105.764413 70.4240998,105.764413 C70.7292635,105.77048 70.9717777,106.169909 71.1506319,106.987979 C71.3436328,107.979978 71.6649641,108.714118 72.1287725,109.177253 C72.9139122,109.962964 74.2133841,110.375539 76.0413348,110.375539 C80.1468979,110.375539 82.7862607,109.228825 83.9311298,106.949553 C84.3434039,106.124404 84.651599,105.725987 84.8708722,105.725987 C85.2700102,105.725987 85.5398072,106.124404 85.7206824,106.936407 C85.925809,108.043684 86.1966165,108.804116 86.5179478,109.190399 C87.1232228,109.97611 88.1528976,110.375539 89.5948466,110.375539 C92.747531,110.375539 94.4340151,108.817261 94.627016,105.725987 C94.9483473,105.725987 95.2191548,106.11227 95.46369,106.87169 C95.7850213,107.825263 96.1841592,108.533111 96.6732295,108.970966 C97.5230396,109.731397 98.8619201,110.11768 100.68886,110.11768 L101.684179,110.11768 Z M646.194217,118.734216 L645.308029,118.734216 C641.653138,118.734216 639.053184,115.927092 637.496041,110.297675 C635.282089,115.604515 631.304856,118.257935 625.551207,118.257935 C619.849092,118.257935 617.004602,117.214364 617.004602,115.128234 C617.004602,113.234235 617.609877,110.890246 618.794155,108.03155 C619.180157,107.103257 619.52776,106.640122 619.82383,106.640122 C620.043103,106.640122 620.222968,106.936407 620.364434,107.515832 C620.853505,109.40882 623.041185,110.375539 626.941621,110.375539 C632.810465,110.375539 635.744886,108.301543 635.744886,104.19299 C635.744886,100.947 634.844553,95.8848735 633.041864,88.9813305 L637.057494,84.7817679 C637.353564,84.4602025 637.547575,84.3054871 637.637508,84.3054871 C637.740576,84.3317786 637.842634,84.5502003 637.971975,84.9627748 C638.795513,87.8477621 639.529118,91.8278917 640.159655,96.9021526 C640.76493,101.809564 641.305535,104.940275 641.768333,106.305411 C642.618143,108.842542 644.020683,110.11768 645.964839,110.11768 L648.526395,110.11768 L648.526395,110.122736 L649.656107,110.122736 C651.380989,110.122736 652.783529,109.671735 653.851602,108.822317 C654.470013,108.332891 655.10055,107.520888 655.75736,106.400465 C656.24643,105.537901 656.657693,105.099036 656.992161,105.099036 C657.314503,105.099036 657.738903,106.065754 658.279507,107.985034 C658.588713,108.731308 658.987851,109.247026 659.450649,109.530166 C660.107458,109.916449 661.252327,110.122736 662.913549,110.122736 L662.993377,110.122736 L662.993377,110.112624 L665.064852,110.112624 C668.527753,110.112624 670.959968,109.739487 672.375644,109.017481 C672.864715,105.346782 674.692665,101.71451 677.84636,98.0953826 C680.729248,94.7978208 683.046269,93.1495456 684.796413,93.1495456 C686.328294,93.1495456 687.100298,95.3003931 687.100298,99.5889424 C687.100298,102.873358 686.469761,105.514644 685.233949,107.510776 C684.435673,108.811194 683.033133,110.15105 681.025317,111.580903 C683.998137,110.60205 687.0619,110.112624 690.202458,110.112624 L693.62595,110.112624 L693.62595,110.118691 L693.92202,110.118691 C695.903563,110.118691 697.332375,109.719262 698.195322,108.933551 C698.761188,108.418844 699.674658,107.002136 700.936743,104.645001 C702.326147,102.08158 703.214355,100.536448 703.600357,99.9954495 C705.09384,97.9983062 706.650983,96.9810271 708.285933,96.9810271 C712.391496,96.9810271 714.450846,101.23115 714.450846,109.719262 C714.450846,110.389696 714.412448,111.175407 714.347777,112.051117 C714.296243,112.605261 713.58891,113.390972 712.223757,114.369825 C710.859615,115.348678 709.894611,115.85024 709.302472,115.85024 C708.594128,115.85024 707.114792,115.310252 704.862441,114.21511 C702.610091,113.133113 701.464211,112.592115 701.412677,112.592115 C700.948868,112.592115 699.93233,113.519396 698.348914,115.348678 C696.392633,117.614804 694.873888,118.736238 693.780553,118.736238 L691.257395,118.736238 L691.257395,118.72916 L691.039132,118.72916 C688.722111,118.72916 686.855762,118.883875 685.413814,119.18016 C686.160555,119.77273 686.791092,120.829446 687.280162,122.309861 C687.692436,123.546573 687.898573,124.628569 687.898573,125.55585 C687.898573,127.797707 687.241764,129.806985 685.929156,131.57155 C684.487207,133.489818 682.685529,134.456537 680.523111,134.456537 C677.833224,134.456537 675.644534,132.717253 673.945924,129.265987 C672.555509,126.43156 671.821904,123.315005 671.719846,119.901154 L669.737292,119.901154 L669.737292,118.149735 C668.090217,118.549164 666.7382,118.72916 665.695389,118.72916 L665.397299,118.72916 L665.397299,118.740283 L662.591207,118.740283 C661.200793,118.740283 659.83665,118.276137 658.510906,117.348855 C657.185162,116.433709 656.284828,115.326432 655.795758,114.012868 C655.087414,115.24958 654.096137,116.318431 652.835064,117.21942 C651.445659,118.237711 650.106779,118.739272 648.819433,118.740283 L646.194217,118.740283 L646.194217,118.734216 Z M402.18048,110.147005 C402.18048,116.124278 400.249461,121.714257 396.375297,126.917953 C392.990203,131.477507 389.348448,133.756778 385.448012,133.756778 C383.877732,133.756778 381.986122,132.997358 379.797431,131.489641 C377.751218,130.059788 376.270871,128.591508 375.382662,127.111094 C374.855194,126.260665 374.610659,125.642815 374.610659,125.281812 C374.610659,124.959236 374.790524,124.805531 375.151263,124.805531 C375.422071,124.805531 375.678732,124.830812 375.923267,124.907664 C377.995753,125.526525 380.209705,125.835956 382.565124,125.835956 C385.654149,125.835956 388.846242,124.650816 392.141403,122.280535 C395.037427,120.20654 397.108902,117.990975 398.344714,115.63384 C398.692318,114.977564 398.667056,114.358702 398.267918,113.767143 C396.736037,115.067562 395.294088,115.698558 393.929946,115.698558 C390.468056,115.698558 388.743173,113.470858 388.743173,108.97501 C388.743173,106.965733 389.515177,104.583318 391.047058,101.852034 C392.745668,98.8123317 394.508948,97.2924804 396.336899,97.2924804 C398.434647,97.2924804 400.018062,99.0186189 401.086135,102.509322 C401.819741,104.918029 402.18048,107.468305 402.18048,110.147005 Z M25.8580755,113.842984 C25.8580755,118.917245 24.4029904,123.283658 21.5069668,126.967502 C20.1296883,128.732067 18.5210108,130.251918 16.6940706,131.48863 C14.50538,132.995336 12.4591665,133.755767 10.5928177,133.755767 C7.83826072,133.755767 4.69770196,132.532201 1.17114144,130.071922 C0.386001753,129.530924 6.25277607e-13,129.106215 6.25277607e-13,128.745213 C6.25277607e-13,128.435782 0.347603672,128.281066 1.01653865,128.281066 C1.20953952,128.281066 1.48034704,128.307358 1.82795071,128.345784 C2.62521611,128.474208 3.42349198,128.538925 4.19549549,128.538925 C9.33174394,128.538925 14.0294459,126.091793 18.2633395,121.222808 C20.5682347,118.569388 21.72624,116.456967 21.72624,114.898689 C21.72624,113.546699 20.0013578,111.279562 16.5394678,108.111436 L20.1559606,101.490021 C20.3105634,101.220027 20.4904281,101.181601 20.7097014,101.336316 C24.1463295,103.989736 25.8580755,108.175142 25.8580755,113.842984 Z M684.861083,124.911709 C684.861083,123.598144 683.535339,122.439296 680.883851,121.434151 C678.669898,120.610014 676.765151,120.197439 675.181736,120.197439 C675.580874,121.782008 676.314479,123.315005 677.42095,124.808565 C678.75983,126.637847 680.110837,127.551983 681.475989,127.551983 C682.22172,127.551983 682.981598,127.281989 683.72834,126.779417 C684.487207,126.26471 684.861083,125.645848 684.861083,124.911709 Z M259.6751,118.734216 L258.46455,118.734216 C255.491731,118.734216 253.355585,117.034369 252.041966,113.646809 C251.308361,111.765955 250.022025,106.060698 248.167802,96.5158697 C247.241196,102.479997 246.327726,106.768546 245.401119,109.370394 C243.496373,114.71566 240.574077,118.477368 236.636252,120.666641 C235.413577,121.349209 233.27642,121.968071 230.23893,122.508058 C227.407577,123.01063 225.167352,123.243209 223.520277,123.165346 C222.078328,123.113774 221.370995,122.895352 221.370995,122.53435 C221.370995,122.224919 221.988395,121.773918 223.224207,121.220785 C226.853836,119.584645 230.754273,117.150658 234.91137,113.917814 C238.644068,111.006535 240.49728,108.880968 240.49728,107.515832 C240.49728,105.879691 238.630932,103.124139 234.872972,99.2340071 C231.127138,95.357021 228.437252,93.4124607 226.802302,93.4124607 C225.900958,94.2618786 225.361364,94.6875988 225.167352,94.6875988 C224.691418,94.6875988 223.302014,93.9271675 220.95872,92.4204619 C218.410301,90.7590409 217.072431,89.5223288 216.94309,88.6850454 C216.853157,87.9893317 216.853157,86.4047628 216.981488,83.9444845 C217.123965,81.2142126 217.380626,79.8490766 217.741366,79.8490766 C219.723919,79.8490766 222.979672,81.4204998 227.535907,84.5633461 C231.333275,87.1904744 234.267697,89.5860352 236.340183,91.7247481 C239.788937,95.3438752 242.041287,98.9630023 243.058837,102.621567 C244.834242,98.4867215 245.645655,90.8874648 245.504188,79.8490766 C246.31459,78.6770821 247.408935,76.8225197 248.786213,74.284378 C249.159079,73.6149558 249.403614,73.2286729 249.519819,73.1508096 C249.648149,73.1508096 249.764354,73.524958 249.879548,74.2590977 L253.509177,97.5978663 C254.037656,101.063289 254.603522,103.587274 255.182525,105.171843 C256.379939,108.469405 258.040151,110.11768 260.189433,110.11768 L261.901179,110.11768 L261.901179,110.121725 L262.737853,110.121725 C264.694134,110.121725 266.302811,109.68387 267.564895,108.820295 C268.350035,108.305588 269.070504,107.533022 269.752576,106.476306 C270.319452,105.600597 270.78225,105.175888 271.14299,105.175888 C271.515856,105.175888 271.786663,105.613742 271.979664,106.502598 C272.197927,107.571448 272.507133,108.318734 272.90627,108.756589 C273.678274,109.670724 275.712362,110.121725 278.994387,110.121725 C281.065862,110.121725 282.584608,109.632298 283.52435,108.653445 C285.081493,107.03045 287.939119,104.145463 292.109352,100.035898 C296.099721,96.1983492 300.037545,94.2790692 303.937982,94.2790692 C306.113536,94.2790692 307.850544,94.9484914 309.176289,96.288347 C310.502033,97.6019112 311.170968,99.35333 311.170968,101.530469 C311.170968,107.416733 307.580747,111.91157 300.398285,115.01599 C295.185241,117.244701 289.239601,118.468267 282.54621,118.661408 C281.787342,120.154968 280.757667,121.907398 279.470321,123.928811 C278.646783,123.568819 278.234509,123.053101 278.234509,122.383679 C278.234509,121.867961 278.595249,120.605969 279.328855,118.596691 L278.041508,118.596691 C276.342899,118.596691 274.707949,118.197262 273.150806,117.38627 C271.477458,116.535841 270.29318,115.376992 269.611109,113.920847 C267.345622,117.128411 264.861873,118.73826 262.15885,118.73826 L259.6751,118.73826 L259.6751,118.734216 Z M795.425323,110.114646 L795.425323,110.113635 L803.058458,110.113635 C811.257458,110.113635 815.363021,109.264217 815.363021,107.550213 C815.363021,106.095079 813.239001,104.008949 808.978835,101.303958 C805.876675,99.3068143 803.058458,97.7616827 800.496901,96.64126 C799.570295,95.6492612 799.106487,93.6015573 799.106487,90.497137 C799.106487,89.4535664 799.222691,88.79729 799.440954,88.5262852 C802.581513,85.5765803 807.047816,82.6663127 812.839863,79.8197515 C817.756838,77.3978992 822.737474,75.4017671 827.782779,73.8171982 C826.071033,78.5446134 824.951426,81.2748853 824.423958,82.0090251 C820.034451,83.5157307 816.791834,84.6755906 814.667814,85.4865825 C810.986651,86.8780099 807.576295,88.3978613 804.409464,90.0592823 C803.971928,90.277704 803.740529,90.4455652 803.714256,90.5739891 C803.765791,90.6902785 803.958792,90.8318481 804.294269,90.9997093 C813.625003,95.3529761 818.284307,100.994527 818.284307,107.937507 C818.284307,112.457624 816.354298,115.536764 812.480134,117.198185 C810.085306,118.22861 806.623416,118.731182 802.067181,118.731182 L797.616035,118.731182 L797.616035,118.732193 L795.170684,118.732193 C791.181325,118.732193 788.696565,117.315485 787.744697,114.455778 C787.126286,115.679345 784.6294,117.032346 780.266166,118.525906 C775.027859,120.290471 769.570279,121.192472 763.907573,121.192472 C748.783782,121.192472 741.228454,116.748196 741.228454,107.873801 C741.228454,106.714952 741.614456,104.937242 742.399596,102.541681 C743.287804,99.7982632 744.163887,98.4199815 744.987424,98.4199815 C745.283494,98.4199815 745.42496,98.6778406 745.42496,99.1925474 C745.42496,99.6304021 745.244085,100.402968 744.897492,101.524402 C744.549888,102.644824 744.356887,103.507388 744.356887,104.086813 C744.356887,107.693805 747.303435,110.257227 753.198551,111.789213 C756.854452,112.742786 761.166152,113.219066 766.133651,113.219066 C776.405138,113.219066 783.085393,111.982354 786.186543,109.48365 C786.547283,109.200511 786.869625,108.531088 787.139422,107.474372 C787.345559,106.637089 787.628492,106.21238 787.976096,106.21238 C788.259029,106.21238 788.5167,106.508665 788.734963,107.126515 C789.031033,107.925373 789.275568,108.466371 789.468569,108.711084 C790.228454,109.638365 791.875522,110.114646 794.437078,110.114646 L795.425323,110.114646 Z M213.106313,103.39211 C213.106313,105.413522 212.591981,107.590661 211.562306,109.93465 C210.76403,111.750787 210.055687,112.961207 209.451422,113.553778 C207.842745,115.061494 204.457651,116.529774 199.29614,117.971762 C193.066557,119.6979 186.540905,120.57361 179.719182,120.57361 C174.776945,120.57361 170.683508,119.917333 167.453017,118.62905 C162.87152,116.799767 160.592897,113.760065 160.592897,109.523087 C160.592897,107.84852 160.966773,106.006093 161.738776,103.996815 C162.497644,101.974391 163.463658,100.339262 164.608527,99.076258 C165.265337,98.3421182 165.586668,98.3684097 165.586668,99.1541213 C165.586668,99.4372606 165.458338,99.7982632 165.226939,100.249264 C164.493333,101.536536 164.119457,103.017962 164.119457,104.692528 C164.119457,106.637089 165.626077,108.337947 168.624158,109.819372 C172.048661,111.532365 176.513953,112.381783 182.023067,112.381783 C187.891911,112.381783 192.988751,111.930783 197.326723,111.029793 C205.743986,109.278374 209.965754,107.796949 209.965754,106.573382 C209.965754,105.516666 208.949216,103.803673 206.928264,101.408112 L209.090682,96.011275 C209.42515,95.1224198 209.747492,94.6845651 210.030425,94.6845651 C210.248688,94.6845651 210.519495,94.9808502 210.840826,95.5602745 C212.347446,98.3168379 213.106313,100.918686 213.106313,103.39211 Z M481.875696,103.39211 C481.875696,105.413522 481.361364,107.590661 480.331689,109.93465 C479.533413,111.750787 478.825069,112.961207 478.220805,113.553778 C476.612127,115.061494 473.227033,116.529774 468.065523,117.971762 C461.83594,119.6979 455.310287,120.57361 448.488565,120.57361 C443.546328,120.57361 439.452891,119.917333 436.222399,118.62905 C431.640902,116.799767 429.362279,113.760065 429.362279,109.523087 C429.362279,107.84852 429.736155,106.006093 430.508159,103.996815 C431.267026,101.974391 432.233041,100.339262 433.37791,99.076258 C434.034719,98.3421182 434.356051,98.3684097 434.356051,99.1541213 C434.356051,99.4372606 434.22772,99.7982632 433.996321,100.249264 C433.262716,101.536536 432.88884,103.017962 432.88884,104.692528 C432.88884,106.637089 434.395459,108.337947 437.393541,109.819372 C440.818043,111.532365 445.283336,112.381783 450.79245,112.381783 C456.661293,112.381783 461.758133,111.930783 466.096106,111.029793 C474.513369,109.278374 478.735137,107.796949 478.735137,106.573382 C478.735137,105.516666 477.718598,103.803673 475.697647,101.408112 L477.860065,96.011275 C478.194532,95.1224198 478.516874,94.6845651 478.799807,94.6845651 C479.01807,94.6845651 479.288878,94.9808502 479.610209,95.5602745 C481.116828,98.3168379 481.875696,100.918686 481.875696,103.39211 Z M499.586305,106.936407 C499.804568,110.903391 498.839563,114.419375 496.703417,117.485369 C496.046608,118.425796 495.58381,118.888931 495.351401,118.888931 C495.055331,118.888931 494.965399,118.257935 495.055331,117.021223 C495.299867,113.801524 495.081604,109.048829 494.399533,102.763136 C493.472926,94.2618786 492.957584,87.2683377 492.867651,81.7815024 C493.498188,80.6216425 494.940137,78.4960752 497.179352,75.4310922 C497.733092,74.6453807 498.092822,74.2590977 498.234288,74.2590977 C498.453562,74.2590977 498.518232,75.3795204 498.453562,77.6203658 C498.325231,81.5367891 498.711233,91.3121737 499.586305,106.936407 Z M331.07532,118.734216 L329.464622,118.734216 C324.76692,118.734216 322.090169,115.179806 321.43336,108.05683 C321.317155,106.446981 321.060494,103.535702 320.699754,99.3492852 C320.390549,95.9627368 319.683216,89.4191852 318.588871,79.745933 C319.477079,78.8439321 320.867493,77.2856547 322.745968,75.0963811 C323.13197,74.5290913 323.402777,74.2590977 323.544244,74.2590977 C323.724109,74.2590977 323.840313,74.6585264 323.917109,75.4695183 L325.924925,101.99057 C326.144198,104.913984 326.491802,106.84641 326.980872,107.760545 C327.711446,109.153995 329.07862,109.929594 331.07532,110.087343 L331.07532,110.08431 L335.347612,110.08431 C342.658404,110.08431 347.034775,108.860743 348.501985,106.425745 C348.591918,106.258896 348.643452,106.065754 348.643452,105.872613 C348.643452,104.867468 348.154382,103.888615 347.189377,102.909762 C345.451359,105.06061 343.534486,106.12946 341.448864,106.12946 C338.449772,106.12946 336.9573,104.584329 336.9573,101.493054 C336.9573,99.6769178 337.651496,97.3460746 339.041911,94.42165 C340.54752,91.265658 342.014731,89.6821003 343.45668,89.6821003 C344.654094,89.6821003 346.108168,90.9188123 347.83305,93.404371 C350.150071,96.727213 351.308077,100.91363 351.308077,105.975756 C351.308077,112.299875 347.948245,116.280005 341.229591,117.92828 C339.427913,118.366135 336.905765,118.623994 333.662138,118.66242 L333.377184,118.670509 L333.377184,118.734216 L331.247101,118.734216 L331.07532,118.740283 L331.07532,118.734216 Z M54.4141214,110.005435 C54.3241891,109.052874 54.0281196,108.150873 53.5390494,107.300444 C52.9337744,106.270019 52.2133051,105.768458 51.3897674,105.768458 C50.8239009,105.768458 50.3085583,106.309456 49.8578861,107.403587 C49.4587481,108.305588 49.2657472,109.104446 49.2657472,109.773868 C49.2657472,109.877011 49.2788834,109.967009 49.3051558,110.043861 C49.4718843,110.30172 50.1408193,110.456436 51.3129712,110.481716 C52.5356469,110.508008 53.5653217,110.340146 54.4141214,110.005435 Z M306.421732,104.145463 C306.421732,103.33346 305.624466,102.664038 304.014778,102.109893 C302.740568,101.672039 301.620961,101.453617 300.655957,101.453617 C298.120673,101.453617 295.391378,102.496176 292.470092,104.583318 C290.307674,106.128449 288.364529,107.983012 286.626511,110.121725 C291.350485,110.121725 295.97038,109.297587 300.476092,107.674592 C304.440189,106.244739 306.421732,105.059598 306.421732,104.145463 Z M397.907178,108.395586 C397.907178,107.519877 397.649507,106.631021 397.135175,105.768458 C396.556172,104.738033 395.860965,104.235461 395.062689,104.235461 C393.672274,104.235461 392.978077,104.982746 392.978077,106.502598 C392.978077,108.125593 393.543944,108.97501 394.663551,109.052874 C396.825969,109.194443 397.907178,108.97501 397.907178,108.395586 Z M709.959281,108.508842 C709.959281,107.233704 709.623803,106.010137 708.941732,104.811851 C708.13133,103.408289 707.15319,102.700441 705.982048,102.700441 C705.569774,102.700441 705.119102,103.008861 704.643168,103.666148 C704.167234,104.31029 703.934824,104.851289 703.934824,105.289143 C703.934824,106.53799 705.505104,107.69785 708.645662,108.766701 C709.354006,108.998268 709.753144,109.076132 709.856212,108.972988 C709.919872,108.90827 709.959281,108.753555 709.959281,108.508842 Z M683.405998,103.389076 C683.405998,102.848078 683.161463,102.33236 682.685529,101.830799 C682.22172,101.341372 681.707388,101.083513 681.17992,101.083513 C680.253314,101.083513 679.107434,102.049221 677.743292,103.968501 C676.700481,105.463072 675.915341,106.841354 675.399998,108.103346 C676.816685,107.742343 678.335431,107.149773 679.96937,106.338781 C682.261129,105.230493 683.405998,104.239506 683.405998,103.389076 Z M344.589423,99.2259174 C344.447957,98.7880626 344.125615,98.2339186 343.636544,97.5776421 C343.083814,96.8172108 342.620006,96.4440737 342.24714,96.4440737 C341.861139,96.4440737 341.462001,96.9072087 341.049726,97.8355011 C340.676861,98.6596387 340.495986,99.3159152 340.495986,99.8053417 C340.495986,100.217916 341.024465,100.437349 342.066265,100.437349 C343.212145,100.437349 344.048819,100.024775 344.589423,99.2259174 Z M659.373852,90.3383768 C658.344178,92.0129435 656.992161,94.4085043 655.318813,97.4997788 C653.929409,96.5472173 651.780127,95.323651 648.857831,93.8159342 C650.119915,91.9745175 651.432523,89.5526652 652.796665,86.539254 C655.165221,88.1743835 657.352901,89.437387 659.373852,90.3383768 Z M773.509114,90.4081504 C772.363234,91.7995778 771.076899,93.5125706 769.648086,95.5471288 C768.669945,94.8777066 767.344201,93.9757056 765.670853,92.8552829 C765.052442,93.6925663 764.242041,94.8524263 763.212366,96.3591319 C761.848223,95.328707 759.995011,93.9635711 757.651717,92.2505783 C758.463129,91.1291444 759.609009,89.3777255 761.127754,87.007445 C762.221089,87.9357375 763.636766,88.9782969 765.361648,90.1250111 C765.928525,89.3645798 766.713664,88.1288789 767.743339,86.4280207 C769.171141,87.4452998 771.102161,88.7851554 773.509114,90.4081504 Z M94.6654141,89.9733293 C93.5720793,91.3637455 92.3999274,93.0898841 91.1519898,95.1638795 C90.0839169,94.4813115 88.6288317,93.5924564 86.7756191,92.4841682 C85.5792158,93.9271675 84.651599,95.1123077 83.9958002,96.0395889 L78.4866862,91.9047438 C79.9023628,90.1270335 81.02197,88.4534779 81.8465182,86.8941893 C82.8883187,87.7830445 84.4333362,88.9166129 86.4795497,90.2948946 C87.1100866,89.6123267 88.0761015,88.234045 89.3755733,86.1347693 C90.3405777,86.9589069 92.103858,88.234045 94.6654141,89.9733293 Z M891.984369,89.9733293 C890.891034,91.3637455 889.719893,93.0898841 888.470945,95.1638795 C887.402872,94.4813115 885.935661,93.5924564 884.094574,92.4841682 C882.898171,93.9271675 881.971565,95.1123077 881.314755,96.0395889 L875.805641,91.9047438 C877.209192,90.1270335 878.341936,88.4534779 879.165473,86.8941893 C880.208284,87.7830445 881.752291,88.9166129 883.798505,90.2948946 C884.429042,89.6123267 885.395057,88.234045 886.694528,86.1347693 C887.660543,86.9589069 889.423824,88.234045 891.984369,89.9733293 Z M299.741476,83.9748208 C297.721535,87.246091 296.357393,89.6295173 295.649049,91.1362229 C294.361703,90.2342219 292.225557,89.0106556 289.226465,87.4523782 C290.539073,85.4299546 291.851681,83.0081023 293.1653,80.2131129 C295.48131,81.8239733 297.670001,83.0728199 299.741476,83.9748208 Z M89.1310382,81.9746439 L85.9652175,87.4746249 C84.8324742,86.7010479 82.9661254,85.4643358 80.3914331,83.7907803 C81.2159813,82.5924943 82.3224523,80.7632121 83.712867,78.3160795 C84.7546675,79.0633651 86.5694821,80.2869314 89.1310382,81.9746439 Z M886.449993,81.9746439 L883.284173,87.4746249 C882.151429,86.7010479 880.28508,85.4643358 877.710388,83.7907803 C878.534936,82.5924943 879.641407,80.7632121 881.031822,78.3160795 C882.073623,79.0633651 883.888437,80.2869314 886.449993,81.9746439 Z M348.386791,78.5021425 C346.532568,81.373984 345.15529,83.7695448 344.268092,85.7019706 C343.070678,84.8131154 340.921396,83.5632576 337.832372,81.9281281 C339.055047,80.2019896 340.380791,77.793283 341.809604,74.7272888 C343.984148,76.2350056 346.172839,77.496998 348.386791,78.5021425 Z M504.373939,61.0951424 C503.202798,64.3411323 501.272789,66.3635559 498.595028,67.161402 C497.410751,67.5224047 495.918278,67.7539722 494.141861,67.8186897 C492.919186,67.8702615 491.709646,67.9349791 490.48697,68.0118312 C489.173352,68.1796923 488.080017,68.6559731 487.203935,69.4679762 C486.844205,69.8795394 486.561272,70.0858266 486.368271,70.0858266 C486.097464,70.0858266 486.084327,69.6216804 486.328863,68.6559731 C487.037206,65.977273 488.233609,64.4958477 489.946366,64.1995627 C490.628437,64.0832733 492.210842,64.0064212 494.695602,63.9548494 C499.174031,63.8517058 502.289328,62.6797113 504.039472,60.4388659 C504.258745,60.1425809 504.412337,60 504.515406,60 C504.683145,60 504.644747,60.3610026 504.373939,61.0951424 Z" id="Shape-2" fill="#FFFFFF"></path>
        <path d="M951.730408,60.7773055 L974.786834,70.3514922 C967.122073,88.5847194 967.055787,109.090877 974.607861,127.369738 C990.320601,165.405547 1034.15528,183.61015 1072.43351,167.99293 C1110.29593,152.550707 1128.61647,109.843414 1113.84751,72.1003868 L1113.31887,70.7858339 L1136.43371,61.3568427 C1157.39963,112.104305 1132.99718,170.132696 1081.92239,190.965751 C1030.8853,211.786361 972.441959,187.513418 951.488877,136.799144 C941.420412,112.431202 941.507827,85.0830205 951.730408,60.7773055 Z M1065.205,146.425601 L1065.35083,146.553787 C1068.71693,149.372653 1072.291,151.930582 1076.33984,153.698232 C1077.35195,154.137137 1078.38933,154.529995 1079.43914,154.8739 C1069.17513,161.330949 1057.0029,165.076991 1043.96026,165.076991 C1041.46127,165.076991 1038.995,164.940507 1036.56644,164.671273 C1039.35336,163.446239 1042.0943,162.100899 1044.77682,160.660561 C1050.57148,157.560016 1056.1532,154.029278 1061.26842,149.906557 C1061.99757,149.30213 1062.71843,148.693968 1063.4306,148.068798 C1064.03049,147.530745 1064.62209,146.988544 1065.205,146.425601 Z M1066.65874,112.797924 C1069.89972,116.150694 1073.36152,119.300605 1077.19784,121.978839 C1082.05082,125.373093 1087.4577,127.951764 1093.23123,129.371775 C1096.20583,130.096093 1099.22973,130.505959 1102.27931,130.671482 C1098.12192,138.229526 1092.51493,144.898145 1085.83742,150.295681 L1085.47077,150.237603 C1083.89192,149.960487 1082.33833,149.567215 1080.82618,149.045756 C1078.09767,148.101986 1075.54855,146.731756 1073.19042,145.088558 C1071.42016,143.850663 1069.77046,142.468403 1068.13775,141.064985 C1067.02538,140.088442 1065.91757,139.103188 1064.80935,138.12623 L1062.42263,140.725643 L1062.03527,141.135509 C1057.98187,145.291417 1053.20387,148.714295 1048.27591,151.765059 C1042.01103,155.639703 1035.37909,158.950988 1028.46005,161.508917 C1027.65633,161.794744 1026.83976,162.042821 1026.04433,162.345242 C1025.91921,162.407054 1025.80238,162.473429 1025.68597,162.543953 C1017.01738,160.081023 1009.06511,155.904373 1002.23348,150.411423 C1005.69942,149.376801 1009.14424,148.279954 1012.56005,147.09184 C1020.19125,144.430201 1027.66047,141.301032 1034.77547,137.472021 C1041.48198,133.85458 1047.84712,129.619852 1053.75363,124.822595 C1057.56136,121.730347 1061.14786,118.406616 1064.60096,114.933956 C1065.63834,113.869881 1065.6342,113.87403 1066.65874,112.797924 Z M1084.24199,75.1056054 C1084.82945,75.0396452 1085.36264,75.540362 1085.23753,76.1116023 C1084.14215,81.1449056 1081.60504,101.162377 1110.31858,101.990406 C1109.96478,110.045434 1108.15682,117.727931 1105.14494,124.785259 C1101.83767,124.776962 1098.54242,124.470807 1095.30599,123.734044 C1089.79471,122.475822 1084.67119,120.000447 1080.10117,116.713638 C1076.38583,114.047849 1073.06157,110.902087 1069.94985,107.570059 C1068.84991,106.361618 1067.75039,105.156911 1066.65459,103.952204 C1063.90537,106.965631 1061.17272,109.970762 1058.24867,112.818666 C1053.71635,117.235097 1048.85094,121.316747 1043.67315,124.967375 C1036.56644,129.972055 1028.88511,134.115102 1020.87442,137.509357 C1014.42186,140.249817 1007.78205,142.480848 1001.08383,144.53806 C999.113471,145.121746 998.600995,145.278972 997.009711,145.742352 C991.523696,140.286738 986.987231,133.887768 983.679962,126.805135 C990.844676,125.079383 999.638375,122.537634 1007.04462,119.135082 C1042.4568,102.855356 1048.62184,79.1042875 1084.24199,75.1056054 Z M964.537738,48.6182254 C964.801641,48.6344043 965.063057,48.6659324 965.318259,48.7377005 C965.875063,48.8940967 966.382153,49.1998368 966.873914,49.4935464 L968.923402,50.7853709 C969.019931,50.8766366 969.035674,50.9475749 968.987617,51.0707836 L966.393753,55.135426 C966.180809,55.5552482 965.94135,55.9617954 965.743734,56.3890848 C965.501375,56.9130329 965.30293,57.4709982 965.190658,58.0376752 L965.165386,58.1787222 C965.123543,58.447956 965.075071,58.8329313 965.307902,59.0341307 C965.44006,59.1175143 965.585061,59.1772519 965.728819,59.2378191 C965.86802,59.2905043 966.007222,59.3373817 966.150151,59.3801106 C966.829585,59.5576639 967.524762,59.6675976 968.205025,59.8405876 C968.434127,59.9053032 968.663643,59.9729228 968.878244,60.0766339 C969.43422,60.3466974 969.860524,60.7756461 970.307542,61.1900754 L970.358499,61.2630879 L970.373828,61.35062 L970.350628,61.4364928 L970.293456,61.504942 L970.212669,61.5431077 L970.123183,61.5439374 L967.551691,61.0137666 C966.8561,60.8594446 966.158023,60.7134195 965.468646,60.5333772 C965.330273,60.4906483 965.196458,60.4425263 965.061814,60.3898411 C964.690611,60.2317855 964.308222,60.0666776 964.012006,59.7870727 C963.351215,59.1643917 963.229414,58.1687659 963.368201,57.3162613 C963.453544,56.7906539 963.639146,56.2849589 963.822261,55.7867312 L963.874462,55.651492 C963.630031,55.7307272 963.617603,55.715378 963.465144,55.7991765 C963.372343,55.8502023 963.282028,55.909525 963.206214,55.984197 C962.857382,56.3285175 963.038841,56.8209375 963.183428,57.2088167 L963.196685,57.2814144 C963.180113,57.3714356 963.159399,57.4058676 963.087313,57.4627013 L962.562408,57.7443804 C962.479965,57.7717601 962.440193,57.7713453 962.358993,57.7410617 C962.251692,57.652285 962.26122,57.6452327 962.170905,57.5394474 C961.945532,57.2552792 961.735488,56.9607399 961.601258,56.6218123 C961.520886,56.4197832 961.4662,56.2040643 961.443414,55.9875157 C961.424771,55.8062288 961.430571,55.6220381 961.467857,55.4432403 C961.497686,55.3005339 961.546157,55.1574127 961.617829,55.0296407 C961.715602,54.8549913 961.831188,54.6932022 961.972461,54.5504958 C962.463808,54.0530977 963.165613,53.8639288 963.840076,53.7722483 L964.894856,53.6394982 L966.737613,50.8152396 C966.579769,50.7260482 966.422339,50.6434942 966.257866,50.5671629 C966.099194,50.5024472 965.945078,50.4485175 965.776048,50.4182339 C965.409817,50.4277753 965.41106,50.4273604 965.044414,50.4468581 C964.836441,50.4642815 964.631782,50.4875128 964.424638,50.5115738 L964.346751,50.5061808 C964.276322,50.4721636 964.276322,50.4725784 964.223293,50.4149151 L963.335886,48.9866069 L963.3073,48.9090311 L963.311443,48.8268919 L963.347486,48.75222 L963.410458,48.6982903 L963.489173,48.6725699 C963.763432,48.6410418 963.761361,48.6410418 964.034377,48.6207144 C964.287094,48.6136621 964.285022,48.6132472 964.537738,48.6182254 Z M1127.82354,53.762292 L1127.89397,53.8133178 L1127.93705,53.8884046 L1127.94534,53.9742774 L1127.918,54.0564165 L1127.85917,54.1198876 L1125.53169,55.7585218 L1124.99146,56.1493049 C1124.11358,56.7255233 1123.2415,57.3079644 1122.35492,57.8696633 C1121.27819,58.5371475 1120.13599,59.2909192 1118.83305,59.3792809 C1118.54305,59.3987786 1118.25222,59.3938005 1117.96263,59.3697395 C1117.83089,59.3585387 1117.65689,59.3672505 1117.60303,59.2145878 C1117.59433,59.190112 1117.59516,59.1631472 1117.59143,59.1374268 L1117.60386,58.8354204 C1117.6254,58.7416656 1117.6486,58.7084781 1117.72814,58.6541335 C1118.10929,58.487781 1118.49292,58.3288957 1118.86868,58.1509276 C1119.13548,58.0190072 1119.39027,57.8684188 1119.64754,57.7190749 L1119.83646,57.607067 C1120.21264,57.3764137 1120.59461,57.1544721 1120.96498,56.9146922 C1122.51235,55.9115992 1124.01747,54.8554062 1125.54246,53.8216147 L1125.59466,53.7958944 L1125.65142,53.7855233 L1126.6888,53.7440389 C1127.06705,53.7440389 1127.45358,53.6838865 1127.82354,53.762292 Z M970.945547,52.9409007 L971.025504,52.9599836 L971.091791,53.0085203 L971.134462,53.078629 L971.650667,54.5272645 L971.662681,54.6073294 C971.637409,54.7060623 971.612552,54.7392498 971.524308,54.7915202 L970.467871,55.1640502 L970.930218,56.4293247 L970.942232,56.5093896 L970.922761,56.5882099 L970.874703,56.6529256 L970.804688,56.6948249 L969.217547,57.2619167 C969.087046,57.2814144 969.021588,57.2515456 968.951988,57.1395377 L968.418798,55.7240897 C968.397255,55.5938287 968.427498,55.5278685 968.540185,55.4581746 L969.599522,55.0586798 L969.138832,53.8241038 L969.125989,53.7444537 C969.149604,53.6457208 969.173633,53.6121185 969.260219,53.5586036 L970.863932,52.9541757 L970.945547,52.9409007 Z M1110.1392,50.8417897 C1110.2233,50.8451084 1110.26017,50.859628 1110.32438,50.9139725 C1110.52863,51.2591228 1110.62267,51.6582028 1110.76726,52.0319773 C1110.82816,52.1900329 1110.89486,52.3451846 1110.96405,52.4999215 C1111.11319,52.8143733 1111.26606,53.1491525 1111.49268,53.4175566 C1111.76445,53.7394756 1112.12696,53.9883821 1112.482,54.2090791 C1113.10344,54.595299 1113.77997,54.9072617 1114.49462,55.0765181 C1115.12309,55.225862 1115.88539,55.3266691 1116.49646,55.0545314 C1116.70071,54.9632657 1116.88755,54.8242929 1117.05617,54.6795123 C1117.67014,54.1510009 1117.9908,53.4200457 1118.17682,52.650095 L1118.20872,52.5795715 C1118.26506,52.5256418 1118.26465,52.5256418 1118.33673,52.4961879 L1119.87375,52.1771728 L1119.95536,52.1767579 L1120.03118,52.2070415 C1120.05023,52.2261244 1120.06971,52.2452072 1120.08918,52.26429 L1120.12066,52.338962 L1120.12066,52.4202714 C1119.98643,53.0931485 1119.67986,53.7220522 1119.39483,54.3422441 C1119.32067,54.4895137 1119.31901,54.4870246 1119.23864,54.6293162 C1119.11145,54.8301007 1118.9851,55.0317149 1118.82601,55.209683 C1118.35952,55.7323866 1117.72939,56.1157025 1117.11624,56.4450887 C1116.74379,56.6450436 1116.38295,56.8603477 1115.95747,56.9142774 C1115.6828,56.9491243 1115.40398,56.9346048 1115.12848,56.9159368 C1114.50788,56.8744524 1113.89887,56.7616148 1113.29815,56.6031443 C1112.73306,56.4546301 1112.16673,56.2808105 1111.64638,56.0115767 C1111.36549,55.8659664 1111.09248,55.6892428 1110.87912,55.4531965 C1110.62267,55.1694432 1110.45489,54.7906905 1110.29994,54.4467848 C1109.82558,53.3934956 1109.66194,52.2746611 1109.45562,51.1458704 L1109.45769,51.0624867 L1109.49291,50.9865702 L1109.55546,50.9305663 L1109.63501,50.9036014 L1110.1392,50.8417897 Z M1121.2786,48.7625911 C1121.78818,48.8206693 1122.29775,48.8787474 1122.80733,48.9364108 C1122.9341,48.9766507 1122.97926,49.0334843 1122.99044,49.1649899 L1122.79904,50.862117 L1122.77377,50.9401077 L1122.71991,51.0023343 L1122.64617,51.0388406 L1122.56414,51.0442336 L1121.02671,50.8372264 L1120.9509,50.811506 C1120.87425,50.745131 1120.85561,50.7086247 1120.84815,50.6078176 L1121.04784,48.943878 C1121.08886,48.8181802 1121.14603,48.7733771 1121.2786,48.7625911 Z M974.568918,34.8491353 C974.661719,34.8557728 974.75452,34.8628252 974.847321,34.8698775 C975.364768,34.9300299 975.880143,35.022955 976.353261,35.2482153 C976.63042,35.3805506 976.88148,35.5688898 977.120524,35.7584735 C977.414255,35.9912011 977.693486,36.2417669 977.966088,36.4981406 C978.478978,36.9806042 978.991039,37.4643124 979.503929,37.9476058 L979.550744,38.013566 C979.57353,38.1131286 979.566487,38.1533685 979.511801,38.2400709 L976.475062,41.4269031 C975.361453,42.7402995 974.160015,43.9844169 973.129678,45.3629438 C972.482973,46.2274789 971.863611,47.113171 971.19412,47.9602826 C971.105462,48.0565265 971.106705,48.0552819 971.009761,48.1453031 C970.873875,48.2531626 970.735088,48.3465025 970.576001,48.4174408 C970.444257,48.4763487 970.309199,48.5132698 970.168755,48.5431386 C969.907753,48.5991425 969.622308,48.5568284 969.403977,48.4016767 C969.26809,48.3054329 969.154161,48.1813945 969.02946,48.0714609 C968.79953,47.8690169 968.602742,47.6462457 968.403884,47.4122736 L968.367012,47.3483876 C968.354997,47.2762047 968.354997,47.2762047 968.369083,47.2040219 L968.489641,46.8937185 C968.541842,46.8107497 968.574571,46.7866887 968.669857,46.7617981 L969.168661,46.8874958 C969.229147,46.8908146 969.283419,46.8899849 969.342248,46.876295 C969.392377,46.8588716 969.428835,46.8314919 969.471921,46.7999637 C969.523707,46.7530864 969.565964,46.7045496 969.60905,46.6489605 L971.356107,44.29555 C970.764088,43.8790465 970.074297,43.4712548 969.334377,43.4102727 C968.996731,43.3824782 968.657428,43.4314298 968.334697,43.5305775 C968.026881,43.6251619 967.737707,43.7649644 967.458476,43.9234348 L967.37769,43.94957 L967.293175,43.9412731 L967.218603,43.9002036 L965.852277,42.7245354 L965.801734,42.6589901 L965.78102,42.5789252 L965.793034,42.4972009 L965.836535,42.4266774 L965.904478,42.3789703 C966.530883,42.103099 967.182974,41.9077074 967.871936,41.877009 C968.785444,41.8363542 969.665394,42.0811123 970.481957,42.4735548 C971.041662,42.7419589 971.562423,43.066367 972.032227,43.4712548 L974.164987,41.004177 C973.896942,40.7843096 973.594096,40.5914071 973.261422,40.4868664 C972.895191,40.4503602 972.896434,40.4503602 972.531031,40.4213211 C972.323886,40.41095 972.119642,40.4034828 971.912497,40.4034828 L971.834611,40.3881335 C971.76791,40.3454046 971.76791,40.3458194 971.722339,40.2811038 L971.03089,38.7494994 L971.012661,38.6690197 L971.027576,38.5877102 L971.073148,38.5188461 L971.14192,38.4732132 L971.223535,38.457864 C971.50028,38.4615976 971.498208,38.4611828 971.772467,38.4761172 C972.207057,38.5192609 972.634189,38.5860508 973.03812,38.7573814 C973.755255,39.061877 974.358459,39.6119603 974.949236,40.1031357 L977.360398,37.5734164 C977.103953,37.3381998 976.814779,37.1220661 976.486248,36.9988574 C976.123331,36.9395347 976.124988,36.9395347 975.759585,36.8897534 C975.553683,36.8673518 975.349853,36.848269 975.143537,36.8345791 L975.067308,36.8150814 C975.004336,36.7686189 975.004336,36.7686189 974.962907,36.7022438 L974.358874,35.1291551 L974.345202,35.0474308 L974.364674,34.9673659 L974.414389,34.9009908 L974.486475,34.8595064 L974.568918,34.8491353 Z M978.138018,43.7533488 C978.163704,43.7628902 978.18939,43.7728464 978.215076,43.7828027 L978.274319,43.8396363 L978.307048,43.9147231 L978.623565,45.41314 L978.624393,45.4936197 C978.586279,45.5882042 978.557693,45.6176581 978.463235,45.657898 L977.372826,45.889381 L977.654957,47.2048516 L977.6562,47.2853313 C977.6185,47.3799158 977.589914,47.4093697 977.496284,47.4500244 L975.8383,47.8142575 C975.705727,47.8171614 975.644413,47.7785809 975.590141,47.6582761 L975.252909,46.18475 C975.249181,46.0524147 975.288124,45.9914326 975.409096,45.937088 L976.520634,45.6815441 L976.233532,44.3909641 L976.231874,44.3108992 C976.268332,44.2163148 976.296503,44.186446 976.389304,44.1449616 L978.055575,43.7558378 L978.138018,43.7533488 Z M1118.72824,39.5269172 L1118.80612,39.5654977 L1118.86164,39.6318728 L1118.88484,39.7148416 L1118.872,39.8002995 L1118.82518,39.873312 L1116.81754,41.892773 L1116.34898,42.3669398 C1115.58793,43.0887685 1114.83848,43.8126715 1114.06417,44.5170767 C1113.29069,45.2069624 1112.49775,45.955756 1111.53535,46.3784821 C1110.9889,46.618262 1110.40683,46.7244621 1109.81398,46.7638723 L1109.73775,46.7551606 C1109.65282,46.7099426 1109.62631,46.6792441 1109.59441,46.5892229 L1109.54842,46.2955133 C1109.55215,46.1967804 1109.56872,46.1594445 1109.63998,46.0905803 C1109.98881,45.8628309 1110.33971,45.63923 1110.67984,45.3986204 C1111.32614,44.9144974 1111.94177,44.361925 1112.52882,43.8147457 C1113.87526,42.558183 1115.17447,41.259721 1116.49439,39.9770231 L1116.54121,39.9430058 L1116.59548,39.9230933 L1117.608,39.7028111 C1117.98045,39.6380954 1118.35041,39.5128125 1118.72824,39.5269172 Z M1104.87317,32.2501371 L1104.95313,32.2804207 L1105.01444,32.3397434 L1105.04593,32.4185638 L1105.12547,32.8657657 L1105.12506,32.9387783 C1105.09316,33.0238213 1105.06706,33.0536901 1104.9871,33.0976636 L1104.12786,33.3901287 C1103.79975,33.5299311 1103.50353,33.7087289 1103.23259,33.9410416 C1103.12777,34.0306479 1103.02296,34.1206691 1102.95501,34.2422184 C1102.77604,34.5616484 1102.85227,34.9690253 1102.95253,35.3000708 C1103.17997,36.0505238 1103.62077,36.707222 1104.15521,37.2755584 L1108.84123,42.1769412 C1109.1275,41.8985809 1109.41668,41.5911814 1109.61015,41.2398085 C1109.82807,40.8440472 1109.87571,40.3744437 1109.84422,39.9322199 L1109.8579,39.8426136 L1109.90885,39.7675268 L1109.98715,39.7210643 L1111.62442,39.1871599 L1111.70894,39.1776185 L1111.79014,39.2025091 L1111.85435,39.2576834 L1111.89123,39.3340147 L1111.89454,39.4182281 C1111.82494,39.8268495 1111.79304,40.3006014 1111.62235,40.6976072 C1111.42225,41.1630623 1111.09828,41.5716837 1110.77306,41.9558293 C1110.04723,42.8124824 1109.2,43.5629353 1108.38841,44.3349602 L1108.31964,44.378104 L1108.23927,44.3922087 L1108.15972,44.3743704 L1108.09344,44.3279078 L1104.17724,40.2863431 C1103.52986,39.607904 1102.88997,38.9226277 1102.26481,38.2238919 C1101.6239,37.4709499 1101.10273,36.6201047 1101.0149,35.6174266 C1100.97554,35.1693949 1101.02981,34.7055993 1101.25063,34.3069341 C1101.40516,34.0281589 1101.63509,33.8186626 1101.87455,33.6128999 C1102.09205,33.4258053 1102.31908,33.2499114 1102.55895,33.0918558 C1102.93844,32.8412899 1103.34362,32.6475577 1103.7811,32.5202006 L1104.78741,32.2547004 L1104.87317,32.2501371 Z M1102.91855,40.7963401 C1103.00928,40.844462 1103.03538,40.8759902 1103.06521,40.9738934 L1103.23631,42.675169 L1103.22803,42.7568933 L1103.18826,42.8286613 L1103.12363,42.880102 L1103.04408,42.9020887 L1101.49879,43.0136818 L1101.41883,43.0041403 C1101.33058,42.9551887 1101.30448,42.9228309 1101.27631,42.8261722 L1101.12178,41.1622326 C1101.13587,41.0311419 1101.18227,40.9755528 1101.30904,40.9373871 C1101.84513,40.8851168 1102.38246,40.7436549 1102.91855,40.7963401 Z M1119.23533,36.5275945 C1119.3186,36.5367211 1119.394,36.5487515 1119.47354,36.5761312 C1120.14593,36.8059549 1120.36344,37.5829578 1120.55069,38.1878005 C1120.60662,38.3553975 1120.66628,38.5192609 1120.73795,38.6806353 C1120.95007,39.1033614 1121.34696,39.3302811 1121.7223,39.5982704 L1121.77326,39.6497111 C1121.80268,39.7152564 1121.80268,39.7140119 1121.80806,39.7874393 L1121.77492,40.110188 C1121.73639,40.2354709 1121.68046,40.2815186 1121.54913,40.2952085 C1121.36726,40.2790295 1121.18787,40.256628 1121.00848,40.2234404 C1120.85851,40.1902529 1120.70895,40.1545763 1120.56768,40.0927646 C1119.95826,39.8251901 1119.59327,39.3190803 1119.3447,38.7237791 C1119.19017,38.316817 1119.05304,37.8953354 1118.85832,37.5045523 C1118.77091,37.364335 1118.58448,37.2884185 1118.45149,37.2158208 L1118.38396,37.156913 L1118.34751,37.0756035 L1118.34916,36.9868269 L1118.42001,36.688554 L1118.45895,36.6084891 L1118.52814,36.5516554 L1118.61514,36.5292539 C1118.82311,36.5222015 1119.02777,36.5180531 1119.23533,36.5275945 Z M973.777626,27.7901483 L973.855513,27.8291437 L976.082316,29.6034318 L976.609706,30.0066603 C977.412598,30.683271 978.219633,31.3507551 979.008854,32.0414705 C979.827489,32.7740852 980.716139,33.5332499 981.234829,34.5189194 C981.480502,34.9852042 981.615146,35.4933882 981.707532,36.0090394 L981.706704,36.0866152 C981.669418,36.1770512 981.640832,36.2060903 981.55176,36.246745 L981.2601,36.3168537 C981.163157,36.3218318 981.124628,36.3089716 981.050056,36.2475747 C980.784911,35.9273151 980.522251,35.6058109 980.247992,35.2930185 C980.001904,35.0212956 979.726402,34.7715595 979.453386,34.5255569 C979.125269,34.2293582 978.801709,33.9273518 978.466135,33.6390351 C976.684692,32.1103347 976.668535,32.1128237 975.213966,30.9529197 L974.21263,30.1236463 C974.172858,30.0805025 974.174101,30.0817471 974.148415,30.0307213 L973.817812,29.0537634 L973.525324,28.0477665 L973.51911,27.961479 L973.548939,27.8801695 L973.609425,27.8183577 L973.690626,27.7864147 L973.777626,27.7901483 Z M973.009534,32.913058 L973.083692,32.9483197 L973.138378,33.0097166 L973.164893,33.0872925 L973.360852,34.6147484 C973.351737,34.7458391 973.307408,34.8030876 973.182293,34.8462314 L971.51188,35.073566 C971.380136,35.0660988 971.322135,35.022955 971.277806,34.8993314 L971.052847,33.4009146 C971.059062,33.2689942 971.102562,33.2105012 971.227263,33.165698 C971.820525,33.0760917 972.410058,32.8840189 973.009534,32.913058 Z M982.784684,26.4821449 C983.049829,26.5107692 983.312074,26.5622099 983.568519,26.6364669 C984.513926,26.9094344 985.354104,27.4868973 986.045967,28.1730494 C986.244826,28.3705152 986.42877,28.5862341 986.616443,28.7936562 C987.100747,29.3288051 987.546936,29.8763993 988.013011,30.4347794 L988.051954,30.5057177 C988.062726,30.6073545 988.050711,30.6467647 987.986497,30.7259999 C986.975217,31.563985 985.999152,32.4463584 984.94893,33.2358067 C984.43314,33.5685116 983.628176,33.7630735 983.150915,33.2644309 C982.987271,33.0648909 982.826113,32.862447 982.68484,32.6471429 C982.572153,32.4471881 982.443724,32.2314691 982.404366,32.0033049 L982.425909,31.9199212 L982.479767,31.8523016 L982.721298,31.6535913 L982.800841,31.6129366 L982.889913,31.609203 C982.966142,31.6399015 982.965728,31.6382421 983.032429,31.6838749 C983.127301,31.7402937 983.227973,31.7896602 983.34066,31.7950531 C983.409017,31.7614508 983.471161,31.7199664 983.534961,31.678482 C984.225995,31.1922847 984.878915,30.6558913 985.534734,30.1240612 L985.999981,29.7419898 C985.464305,29.1329987 984.821329,28.5003614 983.999379,28.3165855 C983.702748,28.2506253 983.395346,28.240669 983.093329,28.2709526 C982.822798,28.2979175 982.546882,28.3501879 982.290437,28.440209 L982.201365,28.450995 L982.116021,28.4236153 L982.050149,28.3634629 L981.01277,26.8857882 L980.980041,26.8098718 L980.979212,26.7273178 L981.011112,26.6514013 L981.070356,26.593738 L981.147828,26.5634544 C981.688475,26.4688699 982.236579,26.4236519 982.784684,26.4821449 Z M993.934444,12.8312855 C994.005702,12.8673769 994.005287,12.866962 994.057902,12.9275293 L994.599378,13.8671511 L994.624649,13.9451418 L994.88358,13.6282009 C994.969752,13.5568478 995.072496,13.5170227 995.173997,13.5958431 C995.195125,13.6124369 995.208797,13.6364978 995.226197,13.6564103 L996.026189,15.0556794 L996.052289,15.1369889 L996.043175,15.2220319 L995.999675,15.296289 C995.409727,15.9475942 994.81688,16.5906026 994.243504,17.2547679 C993.883901,17.6808128 993.510626,18.1051983 993.211924,18.576876 L993.199081,18.600937 C993.222281,18.6146269 993.243824,18.624998 993.269096,18.6337097 L993.726885,18.728709 L994.768822,18.8689263 C995.231583,18.9485763 995.691858,19.0224186 996.150476,19.1194921 C996.639751,19.2211289 997.123226,19.3422634 997.593859,19.5102752 C998.48458,19.8284606 999.32973,20.2694399 1000.15706,20.7220348 L1000.20181,20.7548075 C1000.53904,21.1837563 1000.76027,21.6906958 1001.03619,22.1607141 L1001.0627,22.2374603 L1001.05731,22.3187697 L1001.02127,22.3913674 L1000.95913,22.4448823 L995.002067,25.8130014 C994.99751,25.8150757 994.998752,25.8134163 994.993367,25.8179796 L994.938266,25.8582194 C994.987981,26.0000961 994.986738,25.9980219 995.027338,26.1428025 C995.172339,26.8044788 995.145411,27.4781856 995.05261,28.1456697 C994.963952,28.7845296 994.830551,29.4254637 994.626307,30.0381884 C994.495391,30.4302161 994.331333,30.8234883 994.083174,31.1578526 C993.791514,31.5502951 993.345739,31.7921492 992.918193,32.0124315 C991.888685,32.5434319 990.76969,32.7699368 989.650281,33.0416596 L989.566181,33.0449784 L989.48788,33.0146948 L989.427808,32.9562017 L989.395908,32.8790407 L989.300014,32.3741755 C989.298136,32.2634121 989.32755,32.207823 989.420351,32.1468409 C989.874412,31.9460564 990.330958,31.7539836 990.777562,31.5390943 C991.135922,31.3573926 991.52121,31.1661495 991.816184,30.8890337 C992.123587,30.5998873 992.353931,30.228187 992.556104,29.8631242 C992.910321,29.2230198 993.180024,28.5347935 993.309696,27.8137945 C993.380954,27.4176184 993.412025,27.0102415 993.375568,26.6082575 C993.351539,26.3406831 993.295196,26.0697899 993.169666,25.83001 C993.066094,25.6317146 992.91405,25.4545761 992.758277,25.2956909 C992.191116,24.7173982 991.441667,24.4398675 990.656175,24.3025541 L990.582432,24.2747596 C990.524845,24.2216595 990.524845,24.2220744 990.490874,24.151136 L990.09067,22.6402739 L990.086113,22.5593793 L990.112628,22.483048 L990.1669,22.4224807 L990.240643,22.387219 L990.321844,22.3830705 C990.555917,22.4162581 990.553846,22.4162581 990.787505,22.4614761 C991.582939,22.6539637 992.33156,22.9879132 993.039994,23.3957049 C993.12368,23.4492198 993.195767,23.5081277 993.272824,23.5707691 C993.45594,23.7367068 993.62207,23.9130155 993.784886,24.0984508 L993.815543,24.1353719 L998.534295,21.4849331 C998.342065,21.4086018 998.146106,21.3443009 997.94849,21.2837337 C997.445543,21.1431016 996.938868,21.0398054 996.419764,20.9800678 L996.26482,20.9655483 L993.634084,21.0850234 C993.543355,21.0800453 993.45594,21.0593031 993.366868,21.0398054 C993.181267,20.9871202 993.005194,20.9199154 992.840721,20.8178638 C992.675005,20.7149825 992.52669,20.585966 992.398675,20.4399408 C991.742441,19.6911473 991.660826,18.6324651 991.962843,17.7140003 C992.234948,16.8859715 992.789962,16.1784799 993.346621,15.5050784 L993.729167,15.0361658 L993.244238,15.5738197 C993.034608,15.8322676 992.830364,16.0903006 992.626119,16.3520672 C992.50059,16.5126119 992.370917,16.666519 992.259888,16.8374348 C992.24663,16.8614957 992.244973,16.8594215 992.242073,16.8888755 C992.14513,17.1191139 991.970714,17.3468633 991.837313,17.5571893 L991.783041,17.6144378 C991.692726,17.656337 991.651711,17.6584112 991.557668,17.6264682 C991.488896,17.5675604 991.491382,17.5671455 991.435038,17.496622 C991.374966,17.4041118 991.322766,17.2991563 991.289209,17.1942007 C991.246123,17.0581318 991.207179,16.9179145 991.203865,16.7739636 C991.186051,16.0164583 991.668283,15.3722055 992.128972,14.8113363 L993.716528,12.8984902 L993.778257,12.8482941 C993.8549,12.8242331 993.854486,12.8246479 993.934444,12.8312855 Z M1091.20868,22.1706704 L1091.28573,22.1968055 L1091.34705,22.2503204 L1091.38309,22.323333 C1091.44275,22.5498379 1091.44233,22.5481785 1091.49163,22.7788318 C1091.54591,23.1032399 1091.58361,23.4251589 1091.58899,23.7545451 C1091.59604,24.2021618 1091.55171,24.6530974 1091.52229,25.0978102 C1091.50696,25.2226783 1091.50696,25.2206041 1091.48045,25.3454721 C1091.39883,25.63047 1091.28408,25.8955554 1091.15523,26.1623002 L1091.13742,26.1971471 C1091.52644,26.4701145 1091.85165,26.7061607 1092.26677,26.9106789 C1092.25144,26.8351773 1092.25476,26.7596756 1092.25641,26.6833443 C1092.26801,26.5373192 1092.2908,26.3759449 1092.39271,26.261033 C1092.45196,26.194658 1092.51203,26.1286978 1092.57169,26.0623227 L1092.64336,26.0112969 L1094.40243,25.2430057 C1094.52754,25.196958 1094.52547,25.1973728 1094.65225,25.1583775 C1094.77239,25.1301681 1094.88922,25.1056923 1095.01351,25.1023735 C1094.99279,25.0198195 1094.97622,24.936021 1094.97249,24.8513928 C1094.98533,24.6385778 1095.04955,24.4788629 1095.22894,24.3523354 C1095.41868,24.2399127 1095.60718,24.1274899 1095.80314,24.0254383 C1096.14244,23.8727756 1096.48382,23.7238466 1096.82478,23.5732582 L1096.90101,23.5558348 C1097.02736,23.5745027 1097.08039,23.6205504 1097.11644,23.7420998 L1097.22084,24.7916553 C1097.32151,26.0872134 1097.39691,27.3877496 1097.26641,28.6841373 C1097.21379,29.20933 1097.14751,29.7507015 1096.95859,30.2480996 C1096.82146,30.6098436 1096.58283,30.8989899 1096.27957,31.1400143 C1096.10101,31.2823059 1095.90423,31.4071739 1095.69957,31.5096404 C1095.50734,31.6062991 1095.30268,31.6913421 1095.08932,31.7295078 C1094.86436,31.7697477 1094.63733,31.7477068 1094.44593,31.6183296 C1094.36307,31.5623256 1094.2885,31.4810162 1094.22429,31.4067591 C1094.14971,31.3196418 1094.07887,31.2221535 1094.01507,31.1271542 C1093.79632,30.7998422 1093.61984,30.4451505 1093.45288,30.0892143 C1093.32321,29.8125133 1093.26728,29.6868155 1093.13636,29.3968395 L1092.97893,29.0429775 C1092.72829,29.0081306 1092.47889,28.9674759 1092.22948,28.9230875 C1092.00701,28.8778695 1091.78744,28.8285031 1091.56828,28.7695952 C1091.32136,28.6924342 1091.09143,28.5986795 1090.86564,28.4713223 C1090.62784,28.3373277 1090.40495,28.1734643 1090.17337,28.0295134 L1089.97699,27.9087938 C1089.86679,28.0083563 1089.86804,28.0062821 1089.75079,28.099622 C1089.60952,28.1991846 1089.61035,28.1983549 1089.46493,28.2900355 C1088.90109,28.607806 1088.29208,28.8152281 1087.66485,28.9720391 C1087.11509,29.1093525 1086.55414,29.2184565 1085.98905,29.2669933 C1085.57517,29.302255 1085.14763,29.3084777 1084.7408,29.2130636 C1084.31781,29.1139158 1083.97063,28.8575422 1083.63299,28.5953607 C1083.18845,28.2506253 1082.78535,27.8552789 1082.42161,27.4275746 C1082.00856,26.9413773 1081.63446,26.4078879 1081.25455,25.9021929 L1081.21892,25.8271061 L1081.21602,25.7441373 L1081.24627,25.6665615 L1081.30427,25.6072388 L1081.73347,25.3172627 C1081.79686,25.2886385 1081.79561,25.2886385 1081.86687,25.2824158 C1081.93606,25.2994245 1081.9344,25.2994245 1081.99282,25.3375901 C1082.35656,25.675688 1082.71078,26.0187641 1083.08654,26.3419276 C1083.25847,26.4829746 1083.43371,26.6173841 1083.61476,26.7464006 C1083.77177,26.8521859 1083.92589,26.960875 1084.1003,27.0363766 C1084.58088,27.2433838 1085.1265,27.2956542 1085.64187,27.3309159 C1086.36149,27.3802824 1087.10017,27.3155667 1087.79493,27.1214197 C1088.34097,26.9687571 1088.94127,26.7306365 1089.30916,26.2801159 C1089.41646,26.1486103 1089.49973,25.9971922 1089.57348,25.8457741 C1089.95255,25.0646227 1089.92479,24.2092142 1089.73298,23.3828448 L1089.73008,23.3048541 C1089.75659,23.2314267 1089.75618,23.2314267 1089.80838,23.1725188 L1091.05373,22.2125696 L1091.12706,22.1760633 L1091.20868,22.1706704 Z M1095.49905,28.6472162 C1095.42448,28.6928491 1095.34991,28.7384819 1095.27534,28.7836999 C1095.16306,28.8434375 1095.04251,28.8840922 1094.92071,28.9201836 L1094.8801,28.9293102 C1095.02676,29.2209456 1095.16721,29.5167294 1095.33499,29.797164 C1095.37228,29.8544125 1095.37021,29.853168 1095.40998,29.9083422 C1095.46177,29.8220547 1095.47254,29.6980163 1095.48414,29.6013576 C1095.51852,29.3159449 1095.5119,29.0259689 1095.50444,28.7393116 L1095.49905,28.6472162 Z M1094.3117,26.3825824 C1094.21766,26.3900496 1094.12734,26.4004207 1094.05277,26.4626473 C1094.02501,26.49542 1094.00761,26.5252887 1093.99435,26.5659434 C1093.9695,26.69496 1094.00347,26.8243913 1094.03786,26.9484297 C1094.0826,27.1102189 1094.1406,27.2674448 1094.20274,27.4234262 C1094.39953,27.4209371 1094.39787,27.4180332 1094.593,27.3989504 C1094.85815,27.3338199 1095.09512,27.1624892 1095.12122,26.870439 C1095.11956,26.8235616 1095.11086,26.7858108 1095.09222,26.7422522 C1094.99113,26.5667731 1094.80678,26.4667957 1094.61662,26.4124511 C1094.51429,26.3912941 1094.4161,26.3821675 1094.3117,26.3825824 Z M1072.9812,21.1700664 L1073.06199,21.1775336 C1073.13407,21.2148696 1073.13366,21.2148696 1073.18586,21.2770962 L1073.72982,22.272722 L1074.90599,21.6517004 L1074.98346,21.6284691 C1075.08496,21.6384254 1075.12142,21.6575082 1075.18646,21.7350841 L1076.01131,23.2335009 L1076.03575,23.3119064 L1076.02788,23.3936307 L1075.98853,23.4658136 L1075.9239,23.5168394 L1074.55757,24.2162665 L1074.4801,24.2386681 C1074.3786,24.2274673 1074.34214,24.2079697 1074.27793,24.1287344 L1073.75344,23.1389165 L1073.64116,23.1978243 L1073.69626,23.2276931 L1073.74722,23.2907494 L1074.54307,24.8053451 L1074.56586,24.8841655 L1074.55633,24.9650601 L1074.51614,25.0364133 L1074.4511,25.0866094 L1073.07235,25.7694428 L1072.99487,25.7905999 C1072.8942,25.7785694 1072.85816,25.7586569 1072.79477,25.6798365 L1072.01591,24.193865 C1071.97862,24.0673375 1072.00017,23.9980586 1072.10332,23.9150897 L1072.36723,23.7773615 L1072.31544,23.7491521 L1072.26407,23.6865106 L1071.47692,22.1922423 L1071.45413,22.1150813 C1071.46449,22.014689 1071.48396,21.9785975 1071.56226,21.9138819 L1072.90373,21.1937125 L1072.9812,21.1700664 Z M1067.4057,11.148263 L1067.48732,11.1511669 L1067.56147,11.1851841 L1067.61657,11.2453365 C1067.7392,11.4452914 1067.73796,11.443632 1067.85189,11.6502243 C1067.99689,11.9455933 1068.12615,12.2438662 1068.22475,12.558318 C1068.35774,12.9835332 1068.44598,13.4315648 1068.54707,13.8625879 C1068.56737,13.9878708 1068.56654,13.9857965 1068.57565,14.1131537 C1068.57731,14.4089375 1068.5421,14.6964245 1068.49611,14.9884747 L1068.48699,15.0365966 L1071.83859,16.3022859 C1071.89079,16.1301256 1071.93678,15.9596247 1071.97448,15.7841457 C1072.00141,15.615719 1072.01964,15.4551743 1072.01011,15.2846734 C1071.91399,14.9316411 1071.91482,14.9328856 1071.81125,14.5802681 C1071.74869,14.3861211 1071.68696,14.1936334 1071.61073,14.0040497 L1071.59623,13.9252293 C1071.61239,13.8464089 1071.61239,13.8468238 1071.65755,13.7804487 L1072.86147,12.5923353 L1072.93107,12.5471173 L1073.0131,12.5321829 L1073.0943,12.5508509 L1073.16183,12.5993876 L1073.2045,12.6703259 C1073.29689,12.9300183 1073.29606,12.9279441 1073.37768,13.1888811 C1073.48871,13.6062142 1073.57819,14.0268661 1073.55955,14.4612079 C1073.53096,15.1382334 1073.28446,15.8003246 1073.06282,16.4337915 L1072.99777,16.6154932 L1077.89674,18.8282716 C1077.73475,18.5345619 1077.55495,18.2487344 1077.37349,17.9666404 C1076.96956,17.3763173 1076.47532,16.8137887 1075.85098,16.4454071 C1075.58128,16.286107 1075.28258,16.1819811 1074.99133,16.0699732 C1074.78792,15.9919825 1074.7904,15.9890786 1074.58077,15.9260223 L1074.50496,15.8845379 L1074.45276,15.8160887 L1074.43287,15.732705 L1074.44861,15.6484916 L1074.4975,15.5775533 C1074.66073,15.424061 1074.82562,15.2747171 1075.00956,15.1461155 C1075.42385,14.8569691 1075.88993,14.6860534 1076.39701,14.6690448 L1076.58966,14.6752674 C1076.93186,14.7084549 1077.26536,14.8001355 1077.57111,14.9598505 C1078.38726,15.3858953 1078.90885,16.2583124 1079.31402,17.0456865 C1079.65913,17.7641965 1079.957,18.5046932 1080.31246,19.218225 C1080.56518,19.6903176 1080.87009,20.1462312 1081.36517,20.3893299 L1081.42855,20.4374518 C1081.47951,20.5229096 1081.48573,20.5635644 1081.46253,20.660223 L1080.79594,22.1213039 C1080.71888,22.2283337 1080.65135,22.254054 1080.52209,22.2254298 L1072.30633,18.6191901 L1067.83159,17.0411232 C1067.75619,17.1622577 1067.7566,17.1593538 1067.67499,17.2738508 C1067.2578,17.7961395 1066.72834,18.1997828 1066.15993,18.5494963 C1065.6719,18.8498435 1065.16025,19.1215663 1064.63162,19.3443376 C1064.18585,19.532262 1063.70941,19.6961254 1063.2218,19.7239199 C1062.78845,19.7483957 1062.38327,19.6027855 1061.98431,19.4484635 C1061.45941,19.2456047 1060.95895,18.9825936 1060.48749,18.6760238 C1059.95016,18.3267251 1059.44099,17.9176888 1058.93225,17.5364471 L1058.87632,17.4733908 L1058.85063,17.3937407 L1058.8585,17.310357 L1058.89869,17.2369296 L1059.22805,16.8519543 L1059.30014,16.7976098 L1059.38921,16.7793566 L1059.47745,16.8000988 C1059.97128,17.0382193 1060.46429,17.2908594 1060.96931,17.5082377 C1061.29369,17.6384987 1061.63383,17.778716 1061.9839,17.8210301 C1062.40357,17.8712263 1062.83858,17.8073403 1063.24914,17.7260308 C1064.01474,17.5750276 1064.76461,17.3340032 1065.43451,16.9291153 C1065.9532,16.6150784 1066.51705,16.1998194 1066.76148,15.6256752 C1066.84848,15.4219868 1066.88825,15.1946522 1066.91104,14.9756145 C1066.99555,14.1716467 1066.73041,13.4166305 1066.34056,12.7242557 L1066.31571,12.6508283 C1066.32026,12.5732524 1066.32026,12.5736673 1066.35299,12.5027289 L1067.2694,11.2320615 L1067.32906,11.1764724 L1067.4057,11.148263 Z M1067.49684,19.1062171 C1067.57183,19.1373304 1067.57142,19.1373304 1067.629,19.1945789 L1068.25955,20.1375195 L1069.37606,19.4185947 L1069.45105,19.3887259 C1069.55255,19.3895556 1069.59066,19.4057345 1069.66275,19.4770877 L1070.6123,20.8888021 L1070.64378,20.9643038 L1070.64295,21.0464429 L1070.61023,21.1215297 L1070.55098,21.1783633 L1069.24721,22.0022437 L1069.1714,22.0312827 C1069.06866,22.0292085 1069.03096,22.0126148 1068.9597,21.9387725 L1068.35898,21.0041288 L1067.21803,21.7309356 L1067.14221,21.7603896 C1067.03988,21.7587302 1067.00177,21.7421364 1066.93051,21.6691239 L1066.00996,20.253261 C1065.96107,20.1312968 1065.97599,20.0607733 1066.07045,19.9682631 L1067.34066,19.1365007 L1067.41606,19.1058023 L1067.49684,19.1062171 Z M1004.49674,14.5296571 C1005.18405,14.6001806 1005.87094,14.6707041 1006.55824,14.7412276 C1007.03385,14.8059433 1007.48874,14.9453309 1007.86325,15.2556343 C1008.22244,15.5530775 1008.44492,15.958795 1008.59447,16.3927219 C1008.7084,16.7229378 1008.77718,17.0714069 1008.7693,17.4215353 C1008.75522,18.042142 1008.4822,18.6519628 1008.02524,19.0763483 C1007.74311,19.3385298 1007.40629,19.5015635 1007.04918,19.6388769 C1006.47746,19.8591591 1005.78518,20.0682405 1005.22506,19.7035926 C1005.1567,19.6592043 1005.09332,19.6073488 1005.03615,19.5492706 C1004.72833,19.236893 1004.60694,18.7560887 1004.53859,18.3408298 C1004.44371,17.7650262 1004.4781,17.1759476 1004.48556,16.5959955 L1004.43833,16.5715197 L1004.3853,16.5055595 L1004.36334,16.4238352 L1004.26764,14.7474503 L1004.28173,14.6595033 L1004.33144,14.5860759 L1004.40808,14.5396134 L1004.49674,14.5296571 Z M1026.48886,8.41485532 L1026.56468,8.44472409 C1027.12479,8.8052236 1027.61117,9.24122473 1028.02919,9.75853531 C1028.29019,10.0816989 1028.62452,10.4326569 1028.80556,10.8255143 C1028.97957,11.2030224 1029.05082,11.6825822 1029.13037,12.0675575 C1029.16102,12.2181459 1029.18505,12.369564 1029.21032,12.5209821 C1029.28117,12.9408043 1029.34745,13.3705828 1029.2646,13.7937237 C1029.18878,14.1807733 1029.03218,14.5533033 1028.85404,14.9038465 C1028.60629,15.3908735 1028.30635,15.847202 1027.98154,16.2869367 C1027.67166,16.7067589 1027.34395,17.1174545 1026.96115,17.4746353 C1026.71962,17.7003105 1026.4524,17.9102216 1026.14914,18.0483647 C1025.75557,18.2279922 1025.28991,18.2508086 1024.86402,18.2707211 C1023.70525,18.3258954 1022.59454,18.0637139 1021.46312,17.8455059 L1021.38523,17.8131481 L1021.32682,17.7525808 L1021.29699,17.6741753 L1021.30113,17.5903768 L1021.43039,17.0938084 C1021.46478,17.0166474 1021.49171,16.9880232 1021.56669,16.9490278 C1022.06923,16.8722817 1022.59993,16.9627177 1023.11323,16.9527614 C1023.51758,16.935338 1023.94927,16.9162552 1024.33663,16.7880683 C1024.73725,16.6561479 1025.10306,16.4142938 1025.43864,16.1666319 C1026.03024,15.7302159 1026.56965,15.2224468 1026.99139,14.6192635 C1027.37502,14.0712544 1027.76943,13.3676789 1027.69486,12.6736447 C1027.58673,11.6680626 1026.85882,10.8811034 1026.06173,10.3281162 L1026.00704,10.2725271 C1025.9768,10.2007591 1025.9768,10.2007591 1025.97556,10.1227684 L1026.2465,8.58286717 L1026.27592,8.50736555 L1026.33226,8.44887253 L1026.40725,8.41651469 L1026.48886,8.41485532 Z M1005.77151,16.6673487 C1005.75908,16.7013659 1005.74624,16.7353831 1005.73381,16.7694004 C1005.68244,16.9224778 1005.61159,17.0846819 1005.60579,17.249375 C1005.59585,17.5331283 1005.7479,17.8919685 1006.06151,17.9409201 C1006.13733,17.9529505 1006.21521,17.9454833 1006.28937,17.9272302 C1006.38631,17.9031692 1006.47414,17.8608552 1006.56073,17.8127332 C1006.78569,17.6642191 1006.9862,17.4812728 1007.18838,17.3037195 C1007.26958,17.2228249 1007.34954,17.1444194 1007.40795,17.0448568 C1007.41624,17.0282631 1007.42369,17.012499 1007.42867,16.9946607 C1007.33296,16.8946833 1007.13369,16.8619106 1007.00692,16.8320418 C1006.60216,16.7370425 1006.18497,16.7013659 1005.77151,16.6673487 Z M1059.25208,9.18439109 C1059.44348,9.20637783 1059.61914,9.24039505 1059.79853,9.30925916 C1060.22027,9.47104836 1060.58982,9.88464791 1060.6735,10.3277014 C1060.72446,10.5973501 1060.65818,10.8640948 1060.60846,11.1291802 L1060.57242,11.2909694 C1060.47299,11.6361196 1060.4618,11.6311415 1060.31846,12.0418372 L1060.27952,12.1090419 C1060.17926,12.1878623 1060.10924,12.1949146 1059.9949,12.138081 C1059.8644,11.9924707 1059.77325,11.8091096 1059.65062,11.6543728 C1059.52882,11.5154 1059.40122,11.3863835 1059.24794,11.2818428 C1059.13815,11.206756 1059.01966,11.1449442 1058.89455,11.1001411 C1058.77689,11.057827 1058.6468,11.020491 1058.52044,11.0225652 C1058.36094,11.0254691 1058.20227,11.0756653 1058.05478,11.1324989 C1057.81657,11.2241795 1057.58995,11.3465585 1057.37121,11.4768195 C1057.30078,11.5187188 1057.23118,11.5618626 1057.1624,11.6066657 C1056.92419,11.7614026 1056.63129,11.9522308 1056.50783,12.220635 C1056.49001,12.2729053 1056.48504,12.3231014 1056.4867,12.3786906 C1056.49167,12.4044109 1056.49581,12.4293015 1056.51114,12.4512883 C1056.53434,12.4753492 1056.53269,12.4736899 1056.55879,12.4923578 C1056.64496,12.5359165 1056.74604,12.5479469 1056.84009,12.5674446 C1057.39523,12.6520728 1057.9537,12.7275744 1058.50429,12.8395823 C1058.73712,12.8926824 1058.96249,12.9569832 1059.19076,13.0283364 C1059.25084,13.0511528 1059.30511,13.0768732 1059.36062,13.109231 C1059.60588,13.2809764 1059.71732,13.5518696 1059.71691,13.8472386 C1059.69164,14.1189615 1059.64772,14.3886102 1059.6063,14.657844 C1059.47124,15.3597602 1059.01469,15.9065247 1058.46783,16.3483336 C1058.19854,16.5652971 1057.91185,16.7602738 1057.60238,16.91667 C1056.48711,17.4791986 1055.15642,17.6144378 1053.92474,17.5576041 C1053.45369,17.5356174 1052.98637,17.4821025 1052.52071,17.4103345 C1052.35748,17.3854438 1052.19549,17.3559899 1052.03434,17.3203133 C1051.06614,17.1054241 1049.97573,16.6225456 1049.56807,15.6538846 C1049.3311,15.0905263 1049.41769,14.5109892 1049.54612,13.9326965 C1049.6907,13.2813913 1049.91442,12.6653478 1050.20649,12.0654833 L1050.27609,11.9298293 C1050.42027,11.7008353 1050.55905,11.4685226 1050.70861,11.2428474 C1050.9779,10.8367151 1051.35946,10.3322647 1051.64366,9.94728937 L1051.69959,9.89543386 C1051.78866,9.85975727 1051.82968,9.85934242 1051.91958,9.89294479 L1052.38607,10.1742091 C1052.47597,10.2538591 1052.49627,10.3173303 1052.46892,10.4334866 C1052.39808,10.5392719 1052.39104,10.5305602 1052.30404,10.6226555 C1052.23278,10.6981572 1052.16981,10.7819557 1052.10559,10.8632651 C1051.76919,11.3146155 1051.47794,11.802887 1051.24636,12.3156343 C1051.09141,12.6587103 1050.96506,13.0158911 1050.888,13.3842726 C1050.85568,13.5381798 1050.82834,13.6933315 1050.83497,13.8509722 C1050.86935,14.6777565 1051.73149,15.1701764 1052.44614,15.3585156 C1052.59818,15.3987555 1052.75313,15.4306985 1052.9089,15.4531001 C1053.81909,15.5858502 1054.72763,15.5174009 1055.63285,15.3767688 C1056.47137,15.2460929 1057.29291,15.0448935 1058.05105,14.6586737 L1058.08337,14.6395908 C1057.38529,14.5582814 1056.68431,14.4533258 1055.99784,14.3106195 C1055.88764,14.2782616 1055.78821,14.240096 1055.68629,14.1878256 C1055.54419,14.1065162 1055.39298,13.9903598 1055.3068,13.848898 C1055.14772,13.5871314 1055.11913,13.2577452 1055.13197,12.9598871 C1055.14523,12.6562212 1055.19702,12.3679046 1055.32628,12.0916184 C1055.57029,11.5697446 1055.96925,11.1221278 1056.36904,10.7135064 C1057.03563,10.0323324 1057.79875,9.39845064 1058.75866,9.20679268 C1058.92645,9.18646532 1059.08346,9.17858328 1059.25208,9.18439109 Z M1018.25197,9.61499926 L1018.33524,9.61748832 L1018.41105,9.65275007 C1018.63353,9.81661348 1018.63187,9.81536895 1018.84689,9.98628471 C1019.17376,10.2692084 1019.48572,10.5678961 1019.71731,10.9346183 C1020.02347,11.419571 1020.17924,11.9982785 1020.33667,12.542554 C1020.54506,13.3191421 1020.74889,14.0969748 1020.95437,14.8743926 L1020.95934,14.9548723 L1020.93283,15.0312036 L1020.87856,15.0917709 L1020.80564,15.1270326 L1016.01812,16.3670016 C1014.95133,16.7270863 1013.8982,17.1311444 1012.81567,17.4414478 C1012.60231,17.4870806 1012.39268,17.5103119 1012.17476,17.4850064 C1012.03556,17.4688275 1011.89926,17.4364697 1011.76751,17.3887626 C1011.4713,17.2809031 1011.20408,17.0884155 1011.09429,16.7847496 C1011.03754,16.6283534 1011.01392,16.4624157 1010.97415,16.3010414 C1010.90124,16.0060872 1010.87638,15.7103034 1010.84406,15.4082969 L1010.84986,15.3332101 C1010.88218,15.2651757 1010.88218,15.2651757 1010.93687,15.2133202 L1011.2161,15.0312036 C1011.306,14.9938677 1011.34701,14.9934528 1011.43815,15.0270552 L1011.77373,15.4099563 C1011.82054,15.4464626 1011.86487,15.4767462 1011.92039,15.4987329 C1011.97217,15.5128376 1012.01775,15.5099337 1012.07202,15.5078595 C1012.1412,15.4991478 1012.205,15.4850431 1012.27253,15.4659602 L1015.06277,14.532561 C1014.79638,13.8173698 1014.44755,13.0519825 1013.81659,12.5803048 C1013.61441,12.4293015 1013.38821,12.3123155 1013.15124,12.2256131 C1012.79909,12.0961817 1012.43908,12.0517934 1012.06912,12.0028418 L1011.99164,11.9762918 L1011.93033,11.9219472 L1011.89512,11.8485198 L1011.44934,10.1103231 L1011.4452,10.0277691 L1011.47378,9.95019328 L1011.53096,9.89004088 L1011.60677,9.85685336 L1011.69004,9.85560883 C1012.36492,9.98296596 1013.01328,10.1928771 1013.5966,10.5616735 C1014.30545,11.0097051 1014.85604,11.6410978 1015.28317,12.3537999 C1015.63822,12.9457824 1015.91786,13.5639001 1016.08772,14.2322139 L1019.33326,13.4240977 C1019.2417,13.0934669 1019.11162,12.7603471 1018.90074,12.48655 C1018.6385,12.2600451 1018.37418,12.0385184 1018.10158,11.8244589 C1017.97066,11.7286299 1017.97646,11.7215775 1017.85881,11.6543728 L1017.79459,11.597954 L1017.75896,11.5203781 L1017.75772,11.4349203 L1018.08252,9.77927751 L1018.11442,9.7029462 L1018.17408,9.64486803 L1018.25197,9.61499926 Z M1042.34039,7.29104269 L1042.42117,7.30348801 L1042.49077,7.34580211 C1042.66436,7.50551708 1042.66312,7.50427255 1042.83008,7.67352893 C1043.16896,8.05062221 1043.46062,8.45219128 1043.70588,8.89565961 C1043.93001,9.30054744 1044.21836,9.72659232 1044.31489,10.1932919 C1044.33975,10.312767 1044.35135,10.4330718 1044.35673,10.5546211 C1044.38697,11.2328912 1044.39609,11.2304021 1044.39029,11.8211401 C1044.38615,12.2430365 1044.37869,12.6777931 1044.22623,13.077288 C1044.11023,13.3809539 1043.93913,13.6618033 1043.75353,13.9281332 C1043.40014,14.4346578 1042.97756,14.8876676 1042.53096,15.3128828 C1042.15188,15.6733823 1041.75665,16.0214365 1041.31709,16.3080937 C1041.04035,16.4889658 1040.74165,16.6499253 1040.41974,16.735798 C1039.99965,16.8482207 1039.53731,16.7909723 1039.11266,16.7370425 C1037.96177,16.5901877 1036.91403,16.1417413 1035.83853,15.7293862 L1035.76769,15.6841682 L1035.72088,15.6153041 L1035.70513,15.5335798 L1035.72295,15.4522704 L1035.93134,14.9847411 C1035.99306,14.891816 1036.04899,14.8627769 1036.16127,14.865266 C1036.65013,14.9590208 1037.12739,15.0610724 1037.61666,15.1336701 C1038.01728,15.184696 1038.44731,15.2477523 1038.85,15.1855256 C1039.2676,15.1212248 1039.66947,14.9432567 1040.04357,14.7569917 C1040.7433,14.4089375 1041.39912,13.9758403 1041.9377,13.4066742 C1042.36566,12.9540793 1042.82883,12.3567038 1042.87109,11.7107916 C1042.93821,10.6960829 1042.364,9.79919003 1041.66924,9.1138676 L1041.62491,9.04956677 C1041.60792,8.9736503 1041.60792,8.97406514 1041.61994,8.89690414 L1042.15313,7.42752639 L1042.19539,7.35824743 L1042.26126,7.31012552 L1042.34039,7.29104269 Z M1033.97423,1.47783251 L1034.05709,1.50396769 L1034.12172,1.56163102 L1034.15735,1.64086624 L1034.74854,4.41285442 L1034.89478,5.06125573 C1035.10441,6.20166212 1035.33434,7.34206851 1035.50089,8.49035694 C1035.64216,9.46524054 1035.79918,10.4870015 1035.58706,11.4639593 C1035.47562,11.9791957 1035.25894,12.452118 1035.00706,12.9130097 L1034.95734,12.9731621 C1034.87117,13.0204544 1034.83057,13.0258473 1034.73528,13.0013715 L1034.46061,12.8731847 C1034.38107,12.8159362 1034.35911,12.7815042 1034.34088,12.6856752 C1034.34088,12.3475772 1034.34254,12.0094793 1034.33674,11.6713814 C1034.30359,10.7910822 1034.16149,9.90539012 1034.01028,9.0404402 C1033.69459,7.23006061 1033.3209,5.43751931 1032.96171,3.63626629 L1032.9584,3.57818812 L1032.97165,3.52176932 L1033.3441,2.56140526 L1033.76212,1.60145605 L1033.81266,1.53093256 L1033.88765,1.48737393 L1033.97423,1.47783251 Z M1067.39907,6.79862276 C1067.42434,6.80774933 1067.45003,6.8168759 1067.4753,6.82641731 L1067.53537,6.88076189 L1068.55618,8.2547255 L1068.59098,8.32898259 L1068.5943,8.41070687 L1068.5653,8.48745303 L1068.50854,8.54677573 L1067.24661,9.43246786 L1067.17287,9.46524054 C1067.07095,9.46814445 1067.03243,9.45403975 1066.95785,9.38517563 L1065.96646,8.02739094 C1065.91095,7.90791584 1065.92213,7.83656266 1066.0112,7.7390743 L1067.24454,6.83678841 C1067.31787,6.80235635 1067.31746,6.80235635 1067.39907,6.79862276 Z M1016.39098,6.45015373 C1016.41749,6.4555467 1016.44401,6.46135452 1016.47052,6.46716233 L1018.05311,7.14584726 L1018.12105,7.19272464 L1018.16538,7.2620036 L1018.17905,7.3428982 L1018.15958,7.42296311 L1017.50997,8.81766892 C1017.43292,8.92345416 1017.36539,8.94875965 1017.23696,8.92013541 L1015.6958,8.24559893 C1015.58726,8.17009731 1015.56033,8.10289256 1015.5885,7.97387605 L1016.19668,6.5750218 C1016.25509,6.49080845 1016.28989,6.46840686 1016.39098,6.45015373 Z M1024.48536,4.58045143 C1024.51146,4.58833347 1024.53756,4.59621551 1024.56324,4.6036827 L1026.07954,5.40682085 L1026.14334,5.4590912 L1026.18146,5.53127408 L1026.1885,5.61299836 L1026.16323,5.69098905 L1025.40922,7.0238831 C1025.32429,7.12303083 1025.25511,7.14294335 1025.12958,7.10477769 L1023.64684,6.31864815 C1023.54368,6.23484964 1023.52255,6.16557068 1023.56067,6.03904324 L1024.28153,4.68955542 L1024.3329,4.62691397 L1024.40457,4.58833347 L1024.48536,4.58045143 Z" id="Shape-1" fill="#FFFFFF"></path>
    </g>
</svg>