<?xml version="1.0" encoding="UTF-8"?>
<svg width="365px" height="252px" viewBox="0 0 365 252" version="1.1" xmlns="http://www.w3.org/2000/svg" xmlns:xlink="http://www.w3.org/1999/xlink">
    <!-- Generator: Sketch 57.1 (83088) - https://sketch.com -->
    <title>Water / Full / Vertical / Mono</title>
    <desc>Created with Sketch.</desc>
    <g id="Water-/-Full-/-Vertical-/-Mono" stroke="none" stroke-width="1" fill="none" fill-rule="evenodd">
        <path d="M232.351911,240.031701 L232.351911,240.01714 L233.45303,240.01714 C234.16598,240.01714 234.758732,239.847256 235.235815,239.507085 C235.502965,239.311314 235.791521,238.99703 236.095718,238.54886 C236.326233,238.208689 236.494179,238.038805 236.604085,238.038805 C236.735396,238.038805 236.845302,238.219205 236.950269,238.58486 C237.076229,239.033029 237.254466,239.362684 237.484981,239.579083 C237.878091,239.934625 238.491837,240.120284 239.325395,240.120284 C240.258568,240.120284 241.050551,239.867885 241.690229,239.35783 C242.088691,239.048399 242.471098,238.579601 242.838275,237.95629 C243.137121,237.446235 243.341703,237.193837 243.462312,237.193837 C243.65084,237.193837 243.787502,237.343092 243.866124,237.647264 C244.16991,238.883774 244.977535,239.501827 246.272534,239.501827 C246.461474,239.501827 246.561089,239.388571 246.561089,239.151543 C246.561089,238.93029 246.251541,238.476862 245.648498,237.791665 L247.001537,235.998584 C247.132437,235.823442 247.21641,235.725557 247.258396,235.715041 C247.316025,235.746186 247.389296,235.838813 247.47862,235.998584 C248.034326,236.941438 248.312178,237.853147 248.312178,238.729261 C248.312178,239.687485 248.097306,240.521937 247.6725,241.243538 C247.158781,242.109135 246.450771,242.541934 245.548882,242.541934 C244.364201,242.541934 243.44667,242.160505 242.790938,241.392793 C242.366543,242.098618 241.95738,242.598562 241.558918,242.881701 C241.013504,243.273242 240.300555,243.464159 239.414719,243.464159 C237.93078,243.464159 236.808667,242.814961 236.053731,241.506048 C235.864791,242.000733 235.492675,242.454161 234.936969,242.856218 C234.381264,243.262725 233.836673,243.463754 233.301961,243.464159 L233.301961,243.493686 L231.099721,243.493686 C229.946324,243.493686 229.175746,243.638087 228.777285,243.931743 C228.572703,244.086256 228.467736,244.194658 228.467736,244.251286 C228.467736,244.323284 228.599047,244.405799 228.866198,244.498426 C229.799783,244.725342 230.575712,244.915855 231.204688,245.075626 C232.232537,245.333283 232.751607,245.62168 232.751607,245.935965 C232.751607,247.66716 231.225681,249.16618 228.16889,250.428577 C225.641872,251.479833 223.350308,252 221.295022,252 C217.892459,252 216.193647,250.547091 216.193647,247.636014 C216.193647,245.78671 216.922238,243.978259 218.395475,242.195695 C218.631753,241.902039 218.830983,241.731751 218.988227,241.680381 C219.124478,241.633865 219.197749,241.680381 219.197749,241.829636 C219.197749,241.93278 219.155762,242.061406 219.07714,242.195695 C218.395475,243.390947 218.049703,244.477798 218.049703,245.456651 C218.049703,247.677272 219.72217,248.785155 223.067516,248.785155 C223.838094,248.785155 225.096458,248.625384 226.831905,248.305841 C228.782224,247.945445 229.762736,247.615386 229.762736,247.311618 C229.762736,247.064073 229.14405,246.786192 227.90668,246.461391 C226.674661,246.141848 226.055975,245.935965 226.055975,245.832821 C226.055975,244.905338 226.491072,243.7926 227.366617,242.489351 C228.457446,240.845525 229.752445,240.031701 231.246675,240.031701 L232.351911,240.031701 Z M77.9880931,248.480174 C77.2224547,249.660056 76.6667494,250.607764 76.3102747,251.334218 C75.8908201,251.040562 75.0206268,250.541024 73.6885806,249.840052 C74.2339951,249.056969 74.7687071,248.098745 75.2931282,246.94475 C76.2316527,247.58869 77.1228393,248.104003 77.9880931,248.480174 Z M187.475621,248.480174 C186.709982,249.660056 186.154277,250.607764 185.797802,251.334218 C185.378348,251.040562 184.508154,250.541024 183.176108,249.840052 C183.721523,249.056969 184.256235,248.098745 184.780656,246.94475 C185.71918,247.58869 186.610367,248.104003 187.475621,248.480174 Z M349.034793,240.038578 L349.034793,240.016331 L350.135912,240.016331 C350.848862,240.016331 351.446554,239.846043 351.923637,239.51113 C352.191199,239.310505 352.479342,238.996221 352.783539,238.547647 C353.014466,238.212734 353.182001,238.037592 353.292318,238.037592 C353.417867,238.037592 353.533536,238.22325 353.633151,238.584051 C353.764051,239.03222 353.942288,239.361875 354.167863,239.578274 C354.566324,239.939074 355.179658,240.11907 356.013216,240.11907 C356.946801,240.11907 357.733021,239.866672 358.378051,239.356616 C358.776512,239.04759 359.15398,238.578792 359.526097,237.955481 C359.820003,237.445426 360.029525,237.192623 360.150133,237.192623 C360.339073,237.192623 360.469973,237.347541 360.553946,237.646051 C360.858143,238.88256 361.660417,239.506276 362.960767,239.506276 C363.149296,239.506276 363.24356,239.387762 363.24356,239.150734 C363.24356,238.929076 362.939774,238.475649 362.336731,237.79571 L363.689359,235.997371 C363.820258,235.822229 363.904231,235.724344 363.946218,235.714232 C364.003847,235.744972 364.077529,235.842858 364.166442,235.997371 C364.722147,236.945483 365,237.852338 365,238.728047 C365,239.686272 364.785127,240.521128 364.360321,241.242324 C363.841252,242.107922 363.133653,242.54072 362.231764,242.54072 C361.052023,242.54072 360.134491,242.159291 359.479171,241.391984 C359.054365,242.097809 358.640262,242.597348 358.247152,242.880892 C357.701737,243.272433 356.983437,243.462945 356.102541,243.462945 C354.613251,243.462945 353.491549,242.813747 352.741553,241.505239 C352.553025,241.999924 352.180496,242.452947 351.624791,242.855005 C351.069086,243.261916 350.523671,243.462945 349.988959,243.462945 L349.960145,243.462945 L349.960145,243.493686 L349.2155,243.493686 C348.717423,243.493686 348.42928,243.756601 348.334604,244.282027 C348.0514,246.043962 347.396079,247.605273 346.373582,248.965556 C345.230887,250.479946 343.982814,251.242805 342.624835,251.242805 C341.403107,251.242805 340.234067,250.851263 339.111954,250.057664 C338.744777,249.800008 338.5616,249.614754 338.5616,249.516868 C338.5616,249.382579 338.813108,249.325951 339.305834,249.34658 C341.23022,249.408466 343.086276,248.625384 344.869061,246.992075 C345.555666,246.368764 346.116722,245.631792 346.552231,244.797341 C346.898003,244.132772 347.071301,243.653458 347.071301,243.36506 C347.071301,243.112662 346.478548,242.406836 345.288516,241.257695 L346.777394,238.805304 C346.803739,238.733306 346.851077,238.728047 346.908705,238.789933 C347.747203,239.557241 348.457271,239.975883 349.034793,240.038578 Z M41.4226845,240.047072 L41.4226845,240.045454 L44.5317527,240.045454 C47.8717474,240.045454 49.5442145,239.705687 49.5442145,239.020085 C49.5442145,238.438032 48.6793724,237.60358 46.9439254,236.521583 C45.6802104,235.722726 44.5317527,235.104673 43.4886733,234.656504 C43.1107937,234.259704 42.9222655,233.440623 42.9222655,232.198855 C42.9222655,231.781427 42.9696034,231.518916 43.0585162,231.410514 C44.3378733,230.230632 46.1572936,229.066525 48.5167772,227.927901 C50.519786,226.95916 52.5487278,226.160707 54.6040142,225.526879 C53.9067069,227.417845 53.4506169,228.509954 53.2357442,228.80361 C51.4476081,229.406292 50.1262644,229.870236 49.2614223,230.194633 C47.7618412,230.751204 46.3721664,231.359145 45.0825184,232.023713 C44.9042811,232.111082 44.8096054,232.178226 44.7993145,232.229596 C44.8203079,232.276111 44.8989299,232.332739 45.0351806,232.399884 C48.8366164,234.14119 50.7346588,236.397811 50.7346588,239.175003 C50.7346588,240.98305 49.948027,242.214706 48.369824,242.879274 C47.3946641,243.291444 45.9844075,243.492473 44.1283519,243.492473 L42.3702649,243.492473 L42.3702649,243.493686 L41.3004293,243.493686 C39.8218416,243.493686 38.8466817,242.891004 38.3695984,241.680381 C37.7821974,242.891004 37.053606,243.493686 36.1673589,243.493686 C35.2761723,243.493686 34.5471693,242.813747 33.9811731,241.448611 C33.3464342,242.813747 32.3243481,243.493686 30.9136799,243.493686 C30.3579746,243.493686 29.7915668,243.313691 29.2099286,242.95289 C28.6328184,242.587236 28.2240662,242.159291 27.9882002,241.669865 C27.7259896,242.107922 27.3328796,242.520092 26.797756,242.891004 C26.2210574,243.293062 25.6970479,243.493686 25.2195529,243.493686 L25.1709802,243.493686 L25.1709802,243.495304 L23.3408574,243.495304 C23.1049914,245.097873 22.4183866,246.643409 21.2909223,248.1218 C19.8386791,250.018025 18.1345162,250.966137 16.1685544,250.966137 C15.4658959,250.966137 14.6899666,250.59482 13.8350037,249.852995 C13.0590745,249.183168 12.5190113,248.487859 12.2152257,247.782033 C12.1312525,247.596375 12.0946171,247.457232 12.0946171,247.369863 C12.0946171,247.168834 12.2987873,247.127577 12.7025998,247.251349 C12.8754859,247.313235 13.1743319,247.411121 13.6147798,247.560376 C14.1392009,247.725405 14.7895819,247.80792 15.56016,247.80792 C17.4269181,247.80792 18.9787766,247.323348 20.2161471,246.344495 C21.1810161,245.587299 21.7367214,244.77833 21.8993167,243.922845 C21.92031,243.809589 21.9306008,243.655076 21.9306008,243.454047 C20.7195749,243.454047 19.8650237,243.37679 19.3718867,243.232794 C18.4177201,242.94925 17.9406368,242.367196 17.9406368,241.475712 C17.9406368,240.589486 18.3444493,239.507489 19.1623652,238.230127 C20.043261,236.849216 20.8978123,236.15876 21.7210794,236.15876 C22.2767847,236.15876 22.7641588,236.694703 23.1786738,237.766183 C23.4824593,238.575152 23.6713991,239.332347 23.7290278,240.04869 L24.2497443,240.04869 L24.2497443,240.047072 L25.7386228,240.047072 C26.2264086,240.047072 26.8714384,239.753416 27.6733005,239.176216 C28.4689882,238.599017 28.8057045,238.310215 28.6883889,238.305765 L28.6855075,238.305765 C28.6863307,238.305765 28.6875656,238.305765 28.6883889,238.305765 C28.8127022,238.308192 28.9114943,238.467964 28.9843534,238.795192 C29.0629754,239.191991 29.1938749,239.485647 29.3828147,239.670901 C29.702654,239.985186 30.2320147,240.150216 30.9766598,240.150216 C32.6491269,240.150216 33.7243138,239.69153 34.1906946,238.779821 C34.3586411,238.449762 34.4841893,238.290395 34.5735138,238.290395 C34.7361091,238.290395 34.8460152,238.449762 34.9196976,238.774563 C35.0032592,239.217474 35.113577,239.521646 35.2444765,239.676159 C35.491045,239.990444 35.9104996,240.150216 36.4979007,240.150216 C37.7821974,240.150216 38.4692138,239.526905 38.5478358,238.290395 C38.6787352,238.290395 38.789053,238.444908 38.8886683,238.748676 C39.0195678,239.130105 39.1821631,239.413244 39.3813937,239.588386 C39.7275775,239.892559 40.272992,240.047072 41.0172255,240.047072 L41.4226845,240.047072 Z M263.237599,243.493686 L262.876597,243.493686 C261.387718,243.493686 260.328585,242.370837 259.694258,240.11907 C258.792369,242.241806 257.172179,243.303174 254.828338,243.303174 C252.505489,243.303174 251.346741,242.885746 251.346741,242.051294 C251.346741,241.293694 251.593309,240.356098 252.075744,239.21262 C252.232988,238.841303 252.37459,238.656049 252.495199,238.656049 C252.584523,238.656049 252.657794,238.774563 252.715422,239.006333 C252.914653,239.763528 253.80584,240.150216 255.394745,240.150216 C257.785513,240.150216 258.980897,239.320617 258.980897,237.677196 C258.980897,236.3788 258.614131,234.353949 257.879777,231.592532 L259.515609,229.912707 C259.636217,229.784081 259.715251,229.722195 259.751886,229.722195 C259.793873,229.732711 259.835448,229.82008 259.888137,229.98511 C260.223619,231.139105 260.522464,232.731157 260.779324,234.760861 C261.025892,236.723825 261.246116,237.97611 261.434644,238.522164 C261.780828,239.537017 262.352176,240.047072 263.144159,240.047072 L264.18765,240.047072 L264.18765,240.049094 L264.647856,240.049094 C265.350514,240.049094 265.921862,239.868694 266.356958,239.528927 C266.608878,239.333156 266.865738,239.008355 267.133299,238.560186 C267.33253,238.215161 267.500065,238.039614 267.636316,238.039614 C267.767627,238.039614 267.940513,238.426302 268.160737,239.194014 C268.286697,239.492523 268.449292,239.698811 268.63782,239.812066 C268.905382,239.966579 269.371763,240.049094 270.048488,240.049094 L270.081007,240.049094 L270.081007,240.045049 L270.924856,240.045049 C272.335524,240.045049 273.326326,239.895795 273.903025,239.606993 C274.102255,238.138713 274.846901,236.685804 276.131609,235.238153 C277.305999,233.919128 278.249875,233.259818 278.962824,233.259818 C279.586861,233.259818 279.901349,234.120157 279.901349,235.835577 C279.901349,237.149343 279.64449,238.205857 279.141062,239.00431 C278.815871,239.524478 278.244524,240.06042 277.426608,240.632361 C278.637634,240.24082 279.885707,240.045049 281.165064,240.045049 L282.559678,240.045049 L282.559678,240.047476 L282.680287,240.047476 C283.4875,240.047476 284.06955,239.887705 284.421085,239.57342 C284.6516,239.367538 285.023717,238.800854 285.537847,237.858001 C286.103843,236.832632 286.465669,236.214579 286.622913,235.99818 C287.231308,235.199322 287.865635,234.792411 288.531658,234.792411 C290.204125,234.792411 291.043034,236.49246 291.043034,239.887705 C291.043034,240.155878 291.027392,240.470163 291.001048,240.820447 C290.980054,241.042104 290.691911,241.356389 290.135794,241.74793 C289.580089,242.139471 289.186979,242.340096 288.945761,242.340096 C288.657206,242.340096 288.054575,242.124101 287.137044,241.686044 C286.219512,241.253245 285.75272,241.036846 285.731727,241.036846 C285.542787,241.036846 285.128683,241.407759 284.483654,242.139471 C283.686731,243.045922 283.068046,243.494495 282.622658,243.494495 L281.594809,243.494495 L281.594809,243.491664 L281.505897,243.491664 C280.562021,243.491664 279.801734,243.55355 279.214333,243.672064 C279.51853,243.909092 279.775389,244.331779 279.97462,244.923944 C280.142566,245.418629 280.226539,245.851428 280.226539,246.22234 C280.226539,247.119083 279.958978,247.922794 279.424266,248.62862 C278.836865,249.395927 278.102922,249.782615 277.222026,249.782615 C276.126258,249.782615 275.234659,249.086901 274.542703,247.706395 C273.976296,246.572624 273.67745,245.326002 273.635875,243.960462 L272.82825,243.960462 L272.82825,243.259894 C272.157287,243.419666 271.606521,243.491664 271.181715,243.491664 L271.060283,243.491664 L271.060283,243.496113 L269.917177,243.496113 C269.350769,243.496113 268.795064,243.310455 268.255001,242.939542 C267.714938,242.573483 267.348172,242.130573 267.148941,241.605147 C266.860386,242.099832 266.456574,242.527372 265.942855,242.887768 C265.376859,243.295084 264.831445,243.495709 264.307023,243.496113 L263.237599,243.496113 L263.237599,243.493686 Z M163.834682,240.058802 C163.834682,242.449711 163.048051,244.685703 161.469848,246.767181 C160.090875,248.591003 158.607348,249.502711 157.018442,249.502711 C156.378764,249.502711 155.608186,249.198943 154.716587,248.595857 C153.88303,248.023915 153.279986,247.436603 152.91816,246.844438 C152.703288,246.504266 152.603672,246.257126 152.603672,246.112725 C152.603672,245.983694 152.676943,245.922213 152.823896,245.922213 C152.934214,245.922213 153.038769,245.932325 153.138384,245.963065 C153.982645,246.21061 154.884534,246.334382 155.844052,246.334382 C157.102416,246.334382 158.402766,245.860326 159.745103,244.912214 C160.924845,244.082616 161.768694,243.19639 162.272121,242.253536 C162.413723,241.991025 162.403432,241.743481 162.240837,241.506857 C161.616801,242.027025 161.0294,242.279423 160.473694,242.279423 C159.063438,242.279423 158.360779,241.388343 158.360779,239.590004 C158.360779,238.786293 158.675267,237.833327 159.299304,236.740814 C159.99126,235.524933 160.70956,234.916992 161.454205,234.916992 C162.308757,234.916992 162.953787,235.607448 163.388883,237.003729 C163.687729,237.967211 163.834682,238.987322 163.834682,240.058802 Z M10.5337026,241.537194 C10.5337026,243.566898 9.94095032,245.313463 8.76120856,246.787001 C8.20015202,247.492827 7.54483141,248.100767 6.80059794,248.595452 C5.90899966,249.198134 5.07544172,249.502307 4.31515454,249.502307 C3.19304148,249.502307 1.91368439,249.01288 0.477083289,248.028769 C0.157244017,247.81237 0,247.642486 0,247.498085 C0,247.374313 0.141601942,247.312427 0.414103355,247.312427 C0.492725364,247.312427 0.603043156,247.322943 0.744645099,247.338314 C1.06942397,247.389683 1.39461448,247.41557 1.70910251,247.41557 C3.80143587,247.41557 5.71512026,246.436717 7.43986485,244.489123 C8.37880098,243.427755 8.85053304,242.582787 8.85053304,241.959476 C8.85053304,241.41868 8.14787456,240.511825 6.73761801,239.244574 L8.21085449,236.596008 C8.27383443,236.488011 8.3471052,236.47264 8.43642968,236.534527 C9.8363954,237.595894 10.5337026,239.270057 10.5337026,241.537194 Z M278.989169,245.964683 C278.989169,245.439258 278.449106,244.975718 277.368979,244.57366 C276.46709,244.244005 275.691161,244.078976 275.046131,244.078976 C275.208726,244.712803 275.507572,245.326002 275.958311,245.923426 C276.503726,246.655139 277.05408,247.020793 277.610197,247.020793 C277.913982,247.020793 278.223531,246.912796 278.527728,246.711767 C278.836865,246.505884 278.989169,246.258339 278.989169,245.964683 Z M105.782826,243.493686 L105.289689,243.493686 C104.078663,243.493686 103.208469,242.813747 102.673346,241.458724 C102.3745,240.706382 101.85049,238.424279 101.095143,234.606348 C100.717675,236.991999 100.345558,238.707419 99.9680899,239.748158 C99.1921607,241.886264 98.0017165,243.390947 96.3975805,244.266657 C95.8995039,244.539684 95.0288989,244.787228 93.7915285,245.003223 C92.6381313,245.204252 91.7255397,245.297284 91.054577,245.266138 C90.4671759,245.24551 90.1790324,245.158141 90.1790324,245.01374 C90.1790324,244.889968 90.4305405,244.709567 90.9339683,244.488314 C92.4125561,243.833858 94.0014616,242.860263 95.694922,241.567126 C97.2154964,240.402614 97.9704323,239.552387 97.9704323,239.006333 C97.9704323,238.351876 97.2101451,237.249656 95.6792799,235.693603 C94.1533544,234.142808 93.0575858,233.364984 92.3915628,233.364984 C92.0243856,233.704751 91.8045733,233.87504 91.7255397,233.87504 C91.5316603,233.87504 90.9656641,233.570867 90.0110859,232.968185 C88.9729461,232.303616 88.4279433,231.808932 88.3752542,231.474018 C88.3386188,231.195733 88.3386188,230.561905 88.3908962,229.577794 C88.4489366,228.485685 88.5534915,227.939631 88.7004447,227.939631 C89.5080697,227.939631 90.834353,228.5682 92.6904087,229.825338 C94.2373276,230.87619 95.4327114,231.834414 96.2769719,232.689899 C97.6818772,234.13755 98.5994084,235.585201 99.0139234,237.048627 C99.7371635,235.394689 100.067705,232.354986 100.010077,227.939631 C100.340207,227.470833 100.786006,226.729008 101.347062,225.713751 C101.498955,225.445982 101.59857,225.291469 101.645908,225.260324 C101.698186,225.260324 101.745524,225.409983 101.79245,225.703639 L103.271038,235.039147 C103.486322,236.425316 103.716837,237.43491 103.952703,238.068737 C104.440489,239.387762 105.116802,240.047072 105.992347,240.047072 L106.689654,240.047072 L106.689654,240.04869 L107.030487,240.04869 C107.827409,240.04869 108.48273,239.873548 108.99686,239.528118 C109.3167,239.322235 109.610194,239.013209 109.888047,238.590522 C110.118973,238.240239 110.307502,238.070355 110.454455,238.070355 C110.606348,238.070355 110.716665,238.245497 110.795287,238.601039 C110.8842,239.028579 111.01016,239.327494 111.172755,239.502635 C111.487243,239.86829 112.315862,240.04869 113.652847,240.04869 C114.496696,240.04869 115.115381,239.852919 115.498201,239.461378 C116.132528,238.81218 117.296628,237.658185 118.995439,236.014359 C120.62098,234.47934 122.225116,233.711628 123.814022,233.711628 C124.700269,233.711628 125.407867,233.979397 125.94793,234.515339 C126.487993,235.040764 126.760495,235.741332 126.760495,236.612188 C126.760495,238.966693 125.297961,240.764628 122.372069,242.006396 C120.248452,242.89788 117.8264,243.387307 115.099739,243.464563 C114.790603,244.061987 114.371148,244.762959 113.846727,245.571524 C113.511245,245.427528 113.343299,245.221241 113.343299,244.953472 C113.343299,244.747184 113.490252,244.242387 113.789098,243.438676 L113.264677,243.438676 C112.572721,243.438676 111.906698,243.278905 111.272371,242.954508 C110.590705,242.614336 110.108271,242.150797 109.830418,241.568339 C108.907536,242.851365 107.895741,243.495304 106.794621,243.495304 L105.782826,243.495304 L105.782826,243.493686 Z M324.029289,240.045858 L324.029289,240.045454 L327.138769,240.045454 C330.478764,240.045454 332.151231,239.705687 332.151231,239.020085 C332.151231,238.438032 331.285977,237.60358 329.55053,236.521583 C328.286815,235.722726 327.138769,235.104673 326.095278,234.656504 C325.71781,234.259704 325.52887,233.440623 325.52887,232.198855 C325.52887,231.781427 325.576208,231.518916 325.665121,231.410514 C326.944478,230.230632 328.763898,229.066525 331.123382,227.927901 C333.126391,226.95916 335.155332,226.160707 337.210619,225.526879 C336.513312,227.417845 336.057222,228.509954 335.842349,228.80361 C334.054213,229.406292 332.733281,229.870236 331.868027,230.194633 C330.368446,230.751204 328.979183,231.359145 327.689123,232.023713 C327.510886,232.111082 327.416622,232.178226 327.405919,232.229596 C327.426912,232.276111 327.505534,232.332739 327.642197,232.399884 C331.443221,234.14119 333.341263,236.397811 333.341263,239.175003 C333.341263,240.98305 332.555043,242.214706 330.97684,242.879274 C330.001269,243.291444 328.591012,243.492473 326.734956,243.492473 L324.921711,243.492473 L324.921711,243.492877 L323.925557,243.492877 C322.300428,243.492877 321.288221,242.926194 320.900462,241.782311 C320.648543,242.271738 319.631396,242.812938 317.853963,243.410362 C315.720054,244.116188 313.496821,244.476989 311.190027,244.476989 C305.029108,244.476989 301.951323,242.699278 301.951323,239.14952 C301.951323,238.685981 302.108568,237.974897 302.428407,237.016672 C302.790233,235.919305 303.147119,235.367993 303.4826,235.367993 C303.603209,235.367993 303.660838,235.471136 303.660838,235.677019 C303.660838,235.852161 303.587155,236.161187 303.445965,236.609761 C303.304363,237.05793 303.225741,237.402955 303.225741,237.634725 C303.225741,239.077522 304.426064,240.102891 306.827535,240.715685 C308.316825,241.097114 310.073265,241.287627 312.096856,241.287627 C316.281111,241.287627 319.00242,240.792942 320.265724,239.79346 C320.412677,239.680204 320.543988,239.412435 320.653894,238.989749 C320.737867,238.654835 320.853125,238.484952 320.994727,238.484952 C321.109984,238.484952 321.214951,238.603466 321.303863,238.850606 C321.424472,239.170149 321.524087,239.386548 321.602709,239.484434 C321.912258,239.855346 322.58322,240.045858 323.626712,240.045858 L324.029289,240.045858 Z M86.8122816,237.356844 C86.8122816,238.165409 86.6027601,239.036265 86.1833055,239.97386 C85.858115,240.700315 85.5695599,241.184483 85.323403,241.421511 C84.6680824,242.024598 83.28911,242.61191 81.1864858,243.188705 C78.6487649,243.87916 75.9904354,244.229444 73.2114973,244.229444 C71.1981976,244.229444 69.5306701,243.966933 68.2146776,243.45162 C66.3483311,242.719907 65.4200974,241.504026 65.4200974,239.809235 C65.4200974,239.139408 65.5724018,238.402437 65.8868899,237.598726 C66.1960267,236.789756 66.5895483,236.135705 67.0559292,235.630503 C67.323491,235.336847 67.4543904,235.347364 67.4543904,235.661649 C67.4543904,235.774904 67.402113,235.919305 67.3078489,236.099705 C67.0090029,236.614615 66.8566985,237.207185 66.8566985,237.877011 C66.8566985,238.654835 67.4704441,239.335179 68.6917609,239.927749 C70.086787,240.612946 71.9057957,240.952713 74.1500218,240.952713 C76.5407895,240.952713 78.6170691,240.772313 80.384212,240.411917 C83.8131195,239.71135 85.5329245,239.118779 85.5329245,238.629353 C85.5329245,238.206666 85.1188211,237.521469 84.295554,236.563245 L85.1764498,234.40451 C85.3127005,234.048968 85.4440116,233.873826 85.559269,233.873826 C85.6481819,233.873826 85.7584997,233.99234 85.8893991,234.22411 C86.5031448,235.326735 86.8122816,236.367474 86.8122816,237.356844 Z M196.299809,237.356844 C196.299809,238.165409 196.090288,239.036265 195.670833,239.97386 C195.345642,240.700315 195.057087,241.184483 194.810931,241.421511 C194.15561,242.024598 192.776637,242.61191 190.674013,243.188705 C188.136292,243.87916 185.477963,244.229444 182.699025,244.229444 C180.685725,244.229444 179.018198,243.966933 177.702205,243.45162 C175.835859,242.719907 174.907625,241.504026 174.907625,239.809235 C174.907625,239.139408 175.059929,238.402437 175.374417,237.598726 C175.683554,236.789756 176.077076,236.135705 176.543457,235.630503 C176.811018,235.336847 176.941918,235.347364 176.941918,235.661649 C176.941918,235.774904 176.88964,235.919305 176.795376,236.099705 C176.49653,236.614615 176.344226,237.207185 176.344226,237.877011 C176.344226,238.654835 176.957972,239.335179 178.179288,239.927749 C179.574315,240.612946 181.393323,240.952713 183.637549,240.952713 C186.028317,240.952713 188.104597,240.772313 189.871739,240.411917 C193.300647,239.71135 195.020452,239.118779 195.020452,238.629353 C195.020452,238.206666 194.606349,237.521469 193.783082,236.563245 L194.663977,234.40451 C194.800228,234.048968 194.931539,233.873826 195.046797,233.873826 C195.135709,233.873826 195.246027,233.99234 195.376927,234.22411 C195.990672,235.326735 196.299809,236.367474 196.299809,237.356844 Z M203.51451,238.774563 C203.603423,240.361357 203.210313,241.76775 202.34012,242.994148 C202.072558,243.370318 201.88403,243.555572 201.789354,243.555572 C201.668746,243.555572 201.63211,243.303174 201.668746,242.808489 C201.768361,241.52061 201.679448,239.619532 201.401595,237.105255 C201.024127,233.704751 200.814194,230.907335 200.777559,228.712601 C201.034418,228.248657 201.621819,227.39843 202.533999,226.172437 C202.759574,225.858152 202.906116,225.703639 202.963745,225.703639 C203.053069,225.703639 203.079414,226.151808 203.053069,227.048146 C203.000792,228.614716 203.158036,232.524869 203.51451,238.774563 Z M134.868852,243.493686 L134.212709,243.493686 C132.299024,243.493686 131.208607,242.071922 130.941045,239.222732 C130.893707,238.578792 130.789152,237.414281 130.642199,235.739714 C130.516239,234.385095 130.228096,231.767674 129.782297,227.898373 C130.144122,227.537573 130.71053,226.914262 131.475757,226.038552 C131.633001,225.811637 131.743319,225.703639 131.800948,225.703639 C131.874218,225.703639 131.921556,225.863411 131.95284,226.187807 L132.770756,236.796228 C132.860081,237.965594 133.001683,238.738564 133.200913,239.104218 C133.498524,239.661598 134.055465,239.971838 134.868852,240.034937 L134.868852,240.033724 L136.609239,240.033724 C139.587408,240.033724 141.370193,239.544297 141.967885,238.570298 C142.00452,238.503558 142.025513,238.426302 142.025513,238.349045 C142.025513,237.946987 141.826283,237.555446 141.433173,237.163905 C140.725163,238.024244 139.944294,238.451784 139.094682,238.451784 C137.872954,238.451784 137.264971,237.833731 137.264971,236.597222 C137.264971,235.870767 137.547764,234.93843 138.114171,233.76866 C138.727505,232.506263 139.325197,231.87284 139.912598,231.87284 C140.400384,231.87284 140.992725,232.367525 141.695383,233.361748 C142.639259,234.690885 143.110991,236.365452 143.110991,238.390302 C143.110991,240.91995 141.74231,242.512002 139.005358,243.171312 C138.271415,243.346454 137.243978,243.449597 135.922634,243.464968 L135.806554,243.468204 L135.806554,243.493686 L134.93883,243.493686 L134.868852,243.496113 L134.868852,243.493686 Z M22.1664669,240.002174 C22.1298315,239.621149 22.0092228,239.260349 21.8099922,238.920177 C21.5634237,238.508008 21.269929,238.307383 20.9344476,238.307383 C20.7039328,238.307383 20.4939997,238.523782 20.3104112,238.961435 C20.1478159,239.322235 20.0691939,239.641778 20.0691939,239.909547 C20.0691939,239.950805 20.0745451,239.986804 20.0852476,240.017545 C20.1531672,240.120688 20.4256686,240.182574 20.9031635,240.192686 C21.4012401,240.203203 21.8206947,240.136059 22.1664669,240.002174 Z M124.825817,237.658185 C124.825817,237.333384 124.501038,237.065615 123.845306,236.843957 C123.326236,236.668815 122.870146,236.581447 122.477036,236.581447 C121.444247,236.581447 120.332425,236.998471 119.142393,237.833327 C118.261497,238.45138 117.469925,239.193205 116.761916,240.04869 C118.686303,240.04869 120.568291,239.719035 122.403765,239.069837 C124.018604,238.497895 124.825817,238.023839 124.825817,237.658185 Z M162.093884,239.358234 C162.093884,239.007951 161.988917,238.652409 161.779396,238.307383 C161.54353,237.895213 161.260326,237.694184 160.935136,237.694184 C160.368728,237.694184 160.085936,237.993098 160.085936,238.601039 C160.085936,239.250237 160.31645,239.590004 160.77254,239.621149 C161.653436,239.677777 162.093884,239.590004 162.093884,239.358234 Z M289.213323,239.403537 C289.213323,238.893481 289.076661,238.404055 288.798808,237.924741 C288.468678,237.363316 288.070217,237.080176 287.593134,237.080176 C287.425187,237.080176 287.241598,237.203544 287.047719,237.466459 C286.85384,237.724116 286.759164,237.940515 286.759164,238.115657 C286.759164,238.615196 287.398842,239.07914 288.6782,239.50668 C288.966755,239.599307 289.12935,239.630453 289.171337,239.589195 C289.197269,239.563308 289.213323,239.501422 289.213323,239.403537 Z M278.396417,237.355631 C278.396417,237.139231 278.296801,236.932944 278.102922,236.73232 C277.913982,236.536549 277.704461,236.433405 277.489588,236.433405 C277.11212,236.433405 276.645328,236.819688 276.089622,237.5874 C275.664816,238.185229 275.344977,238.736541 275.135044,239.241338 C275.712154,239.096937 276.330839,238.859909 276.996451,238.535512 C277.930036,238.092197 278.396417,237.695802 278.396417,237.355631 Z M140.37404,235.690367 C140.316411,235.515225 140.1851,235.293567 139.985869,235.031057 C139.760706,234.726884 139.571766,234.577629 139.419873,234.577629 C139.262629,234.577629 139.100034,234.762883 138.932087,235.1342 C138.780194,235.463855 138.706512,235.726366 138.706512,235.922137 C138.706512,236.087166 138.921796,236.17494 139.346191,236.17494 C139.812983,236.17494 140.153816,236.00991 140.37404,235.690367 Z M268.606536,232.135351 C268.187081,232.805177 267.636316,233.763402 266.95465,234.999912 C266.388654,234.618887 265.51311,234.12946 264.322665,233.526374 C264.836796,232.789807 265.371508,231.821066 265.927213,230.615702 C266.892082,231.269753 267.783269,231.774955 268.606536,232.135351 Z M315.101369,232.16326 C314.634577,232.719831 314.110567,233.405028 313.528517,234.218852 C313.130056,233.951083 312.589993,233.590282 311.908328,233.142113 C311.656408,233.477027 311.326278,233.940971 310.906823,234.543653 C310.351118,234.131483 309.596182,233.585428 308.641604,232.900231 C308.972145,232.451658 309.438938,231.75109 310.057623,230.802978 C310.503011,231.174295 311.079709,231.591319 311.782368,232.050004 C312.013294,231.745832 312.333133,231.251552 312.752588,230.571208 C313.334226,230.97812 314.120858,231.514062 315.101369,232.16326 Z M38.5634778,231.989332 C38.1180903,232.545498 37.6405954,233.235954 37.132228,234.065552 C36.6971313,233.792525 36.104379,233.436983 35.3494431,232.993667 C34.8620689,233.570867 34.4841893,234.044923 34.2170391,234.415836 L31.972813,232.761898 C32.5495116,232.050813 33.0056016,231.381391 33.3414946,230.757676 C33.7658888,231.113218 34.3952765,231.566645 35.2288344,232.117958 C35.4856938,231.844931 35.8792154,231.293618 36.4085762,230.453908 C36.8016862,230.783563 37.5199868,231.293618 38.5634778,231.989332 Z M363.364168,231.989332 C362.918781,232.545498 362.441697,233.235954 361.932918,234.065552 C361.497822,233.792525 360.90013,233.436983 360.150133,232.993667 C359.662759,233.570867 359.285291,234.044923 359.01773,234.415836 L356.773503,232.761898 C357.345262,232.050813 357.806704,231.381391 358.142185,230.757676 C358.566991,231.113218 359.195967,231.566645 360.029525,232.117958 C360.286384,231.844931 360.679906,231.293618 361.209267,230.453908 C361.602788,230.783563 362.321089,231.293618 363.364168,231.989332 Z M122.104508,229.589928 C121.281652,230.898436 120.725947,231.851807 120.437392,232.454489 C119.912971,232.093689 119.042777,231.604262 117.821049,230.980951 C118.355761,230.171982 118.890473,229.203241 119.425596,228.085245 C120.36906,228.729589 121.260659,229.229128 122.104508,229.589928 Z M36.3089609,228.789858 L35.0193129,230.98985 C34.5578717,230.680419 33.7975846,230.185734 32.7487423,229.516312 C33.0846352,229.036998 33.535374,228.305285 34.1017818,227.326432 C34.5261759,227.625346 35.2654698,228.114773 36.3089609,228.789858 Z M361.109651,228.789858 L359.820003,230.98985 C359.358562,230.680419 358.598275,230.185734 357.549433,229.516312 C357.885326,229.036998 358.336064,228.305285 358.902472,227.326432 C359.326866,227.625346 360.06616,228.114773 361.109651,228.789858 Z M141.920958,227.400857 C141.165611,228.549594 140.604554,229.507818 140.24314,230.280788 C139.755354,229.925246 138.87981,229.425303 137.621446,228.771251 C138.119523,228.080796 138.659586,227.117313 139.241636,225.890916 C140.127471,226.494002 141.019069,226.998799 141.920958,227.400857 Z M205.46483,220.438057 C204.987747,221.736453 204.201527,222.545422 203.110698,222.864561 C202.628263,223.008962 202.020281,223.101589 201.296629,223.127476 C200.798552,223.148105 200.305827,223.173992 199.80775,223.204732 C199.272627,223.271877 198.827239,223.462389 198.470353,223.78719 C198.323811,223.951816 198.208554,224.034331 198.129932,224.034331 C198.019614,224.034331 198.014263,223.848672 198.113878,223.462389 C198.402433,222.390909 198.889807,221.798339 199.587526,221.679825 C199.865379,221.633309 200.509997,221.602568 201.522204,221.58194 C203.346564,221.540682 204.61563,221.071885 205.328579,220.175546 C205.417904,220.057032 205.480472,220 205.522459,220 C205.59079,220 205.575148,220.144401 205.46483,220.438057 Z" id="Shape-2" fill="#FFFFFF"></path>
        <path d="M88.846364,60.1889651 L112.248637,69.9067646 C104.468904,88.4134902 104.401624,109.227241 112.066979,127.780284 C128.01541,166.38663 172.507608,184.864303 211.360014,169.012824 C249.848459,153.315274 268.441894,109.85995 253.327008,71.5081997 L252.858649,70.3476214 L276.320213,60.7771953 C297.600626,112.285869 272.832137,171.184686 220.991223,192.330237 C169.188575,213.463156 109.868588,188.82612 88.6012106,137.351131 C78.3817177,112.61767 78.4704439,84.8592658 88.846364,60.1889651 Z M204.023072,147.121985 L204.171089,147.252094 C207.587679,150.113243 211.215361,152.70954 215.324941,154.503706 C216.35223,154.949194 217.405171,155.347945 218.470726,155.697009 C208.052756,162.250913 195.697947,166.053146 182.45966,166.053146 C179.923184,166.053146 177.419928,165.914615 174.954937,165.641342 C177.783663,164.397932 180.565713,163.032413 183.288472,161.570469 C189.170053,158.423416 194.835494,154.839717 200.027449,150.655156 C200.767535,150.041661 201.499211,149.424378 202.222056,148.78983 C202.830945,148.243706 203.431424,147.693372 204.023072,147.121985 Z M205.498618,112.989893 C208.788216,116.392955 212.301942,119.590114 216.195803,122.308521 C221.121579,125.753689 226.609568,128.37104 232.469703,129.812352 C235.488917,130.547534 238.558171,130.963548 241.653496,131.131554 C237.433745,138.802969 231.742653,145.571617 224.96498,151.050116 L224.592834,150.991167 C222.990296,150.709894 221.413408,150.310723 219.878571,149.781442 C217.109136,148.823515 214.521779,147.432732 212.128274,145.764887 C210.331463,144.508423 208.657019,143.105429 206.999815,141.68096 C205.870764,140.689769 204.746338,139.689735 203.621491,138.698123 L201.198972,141.336528 L200.805801,141.752541 C196.691596,145.970788 191.841931,149.44501 186.840044,152.541535 C180.481192,156.474298 173.749775,159.835253 166.726948,162.431551 C165.911172,162.721665 165.08236,162.973463 164.274993,163.280421 C164.148001,163.34316 164.029419,163.410531 163.911258,163.482112 C155.112646,160.982239 147.041084,156.742939 140.106984,151.167594 C143.624915,150.117453 147.1214,149.004153 150.58845,147.798218 C158.334122,145.096654 165.915377,141.920547 173.137101,138.034101 C179.944209,134.362399 186.404823,130.06415 192.399939,125.194934 C196.264785,122.056302 199.905083,118.682715 203.409978,115.157966 C204.462919,114.07793 204.458714,114.08214 205.498618,112.989893 Z M224.356091,75.7532763 C223.24428,80.8620792 220.669118,101.179813 249.813364,102.020262 C249.454254,110.196115 247.619177,117.99385 244.562118,125.157038 C241.20524,125.148616 237.860556,124.837869 234.575584,124.090055 C228.981628,122.812959 223.781263,120.300454 219.14269,116.964342 C215.371616,114.258567 211.997498,111.065618 208.839097,107.68361 C207.72266,106.457042 206.606645,105.234265 205.494413,104.011487 C202.703953,107.070116 199.930313,110.120323 196.9624,113.010946 C192.362094,117.493623 187.423702,121.636499 182.168252,125.341886 C174.954937,130.421635 167.158385,134.626829 159.027532,138.071997 C152.478192,140.853564 145.738785,143.118061 138.940087,145.206131 C136.940173,145.798572 136.42001,145.958156 134.804857,146.428488 C129.236552,140.891039 124.63204,134.396084 121.275162,127.207212 C128.547347,125.455574 137.472951,122.875698 144.990289,119.422109 C180.933654,102.898186 187.191164,78.7908519 223.345621,74.7321895 C223.941895,74.6652399 224.483083,75.1734674 224.356091,75.7532763 Z M101.845805,47.8474987 C102.113665,47.8639203 102.379003,47.8959214 102.638033,47.968766 C103.203189,48.1275081 103.717885,48.4378343 104.217023,48.7359496 C104.912956,49.1692273 105.604263,49.6096631 106.297253,50.0471514 C106.39523,50.1397861 106.411209,50.2117885 106.362431,50.3368454 L103.72966,54.4624573 C103.513521,54.8885769 103.27047,55.3012223 103.06989,55.734921 C102.823895,56.2667284 102.622474,56.8330631 102.508518,57.4082403 C102.499267,57.4558208 102.490436,57.5038225 102.482867,57.551403 C102.440396,57.8246753 102.391197,58.2154253 102.62752,58.4196426 C102.761661,58.504277 102.908837,58.5649107 103.054752,58.6263864 C103.196041,58.6798619 103.33733,58.7274424 103.482404,58.7708123 C104.172029,58.9510289 104.877634,59.0626116 105.5681,59.2381964 C105.800639,59.3038828 106.033597,59.3725167 106.251418,59.4777834 C106.815734,59.7518978 107.248432,60.1872808 107.702155,60.6079265 L107.753877,60.6820343 L107.769435,60.7708793 L107.745887,60.8580402 L107.687858,60.9275162 L107.605859,60.9662543 L107.515031,60.9670964 L104.904966,60.4289731 C104.198941,60.2723363 103.490393,60.1241208 102.790676,59.9413779 C102.650227,59.898008 102.514405,59.8491642 102.377741,59.7956888 C102.00097,59.6352623 101.612846,59.4676778 101.312186,59.1838788 C100.641483,58.5518576 100.517855,57.5412974 100.658724,56.6760052 C100.745347,56.1425137 100.933733,55.6292333 101.119595,55.1235321 L101.172579,54.9862644 C100.924482,55.0666881 100.911867,55.0511087 100.757121,55.1361641 C100.662929,55.1879553 100.571259,55.2481679 100.494307,55.3239599 C100.140243,55.6734453 100.324423,56.1732515 100.471179,56.5669489 L100.484635,56.6406356 C100.467815,56.7320071 100.44679,56.7669556 100.373622,56.8246418 L99.8408446,57.1105461 C99.7571644,57.1383365 99.7167961,57.1379155 99.6343774,57.1071776 C99.5254671,57.0170693 99.5351386,57.0099112 99.4434689,56.9025391 C99.2147151,56.6141084 99.0015199,56.315151 98.8652768,55.9711395 C98.7836991,55.76608 98.7281927,55.5471253 98.705065,55.3273284 C98.6861424,55.1433223 98.6920294,54.9563686 98.7298747,54.7748889 C98.760151,54.6300419 98.8093498,54.4847739 98.8820969,54.3550853 C98.9813357,54.1778162 99.0986562,54.0136002 99.2420478,53.8687532 C99.7407648,53.3638942 100.453097,53.1718878 101.137677,53.078832 L102.208278,52.9440907 L104.078677,50.0774682 C103.918466,49.9869389 103.758674,49.9031466 103.591734,49.8256703 C103.430682,49.7599839 103.274254,49.7052452 103.102689,49.6745074 C102.730964,49.6841919 102.732226,49.6837708 102.36008,49.703561 C102.148987,49.7212458 101.941259,49.7448255 101.731007,49.7692474 L101.651952,49.7637735 C101.580467,49.729246 101.580467,49.7296671 101.526642,49.6711388 L100.625924,48.221406 L100.59691,48.1426665 L100.601115,48.0592953 L100.637698,47.9835033 L100.701615,47.9287646 L100.781511,47.9026585 C101.059884,47.8706574 101.057781,47.8706574 101.334893,47.8500251 C101.5914,47.842867 101.589297,47.8424459 101.845805,47.8474987 Z M267.580892,53.0687264 L267.652377,53.1205176 L267.696109,53.1967307 L267.70452,53.2838915 L267.676766,53.3672627 L267.617055,53.4316859 L265.254667,55.0948996 L264.706331,55.4915445 C263.815284,56.0764062 262.930125,56.6675839 262.030247,57.2377083 C260.937359,57.9152047 259.778031,58.6802829 258.455548,58.7699702 C258.161196,58.7897603 257.866003,58.7847075 257.572071,58.7602856 C257.438351,58.7489168 257.261739,58.7577592 257.207074,58.6028067 C257.198243,58.5779637 257.199084,58.5505944 257.1953,58.5244882 L257.207915,58.2179517 C257.229781,58.1227906 257.253329,58.0891052 257.334066,58.0339455 C257.720929,57.8650977 258.110315,57.7038292 258.491712,57.5231915 C258.762516,57.3892923 259.021125,57.2364451 259.282258,57.084861 L259.474008,56.971173 C259.855825,56.7370599 260.243529,56.5117892 260.619459,56.2684126 C262.190039,55.2502732 263.717727,54.1782373 265.2656,53.128939 L265.318584,53.1028328 L265.376193,53.0923061 L266.429133,53.0501995 C266.813052,53.0501995 267.205382,52.9891448 267.580892,53.0687264 Z M108.34973,52.2350142 C108.376642,52.2413302 108.403975,52.2480673 108.430887,52.2543833 L108.498167,52.3036481 L108.541479,52.3748084 L109.065427,53.8451735 L109.077621,53.9264394 C109.05197,54.0266533 109.02674,54.0603386 108.937173,54.113393 L107.864889,54.4915109 L108.334171,55.7757645 L108.346366,55.8570304 L108.326602,55.9370331 L108.277824,56.0027195 L108.206759,56.0452472 L106.59581,56.6208455 C106.463352,56.6406356 106.396912,56.6103188 106.326268,56.4966308 L105.78508,55.0599511 C105.763214,54.9277361 105.79391,54.8607865 105.908287,54.7900473 L106.983514,54.38456 L106.515915,53.1314654 L106.502879,53.0506205 C106.526848,52.9504067 106.551237,52.9163002 106.639122,52.8619826 L108.266891,52.2484884 L108.34973,52.2350142 Z M249.631286,50.1044165 C249.716648,50.107785 249.754073,50.1225224 249.819251,50.1776821 C250.026559,50.5280097 250.122013,50.9330759 250.268769,51.312457 C250.330583,51.4728834 250.398284,51.6303624 250.468508,51.7874203 C250.619889,52.1065889 250.775055,52.4463898 251.00507,52.7188199 C251.28092,53.0455677 251.648861,53.2982078 252.009232,53.5222153 C252.639987,53.9142284 253.326669,54.2308706 254.052037,54.4026659 C254.689941,54.5542499 255.463667,54.6565691 256.08391,54.3803493 C256.291218,54.2877146 256.480865,54.1466573 256.65201,53.999705 C257.275196,53.4632659 257.600665,52.7213463 257.789471,51.9398465 L257.82185,51.8682651 C257.879038,51.8135264 257.878618,51.8135264 257.951785,51.7836307 L259.511853,51.4598304 L259.594692,51.4594093 L259.671644,51.4901472 C259.690987,51.5095162 259.710751,51.5288853 259.730515,51.5482544 L259.762473,51.6240464 L259.762473,51.7065755 C259.62623,52.3895457 259.315057,53.0278829 259.025751,53.6573777 C258.950481,53.8068564 258.948799,53.80433 258.867221,53.9487559 C258.738127,54.1525522 258.609873,54.3571907 258.4484,54.5378283 C257.974913,55.0683724 257.335327,55.4574381 256.712983,55.7917651 C256.33495,55.9947192 255.968692,56.2132529 255.536835,56.2679916 C255.258041,56.3033612 254.975042,56.2886238 254.695407,56.2696758 C254.065493,56.2275691 253.447354,56.113039 252.837624,55.9521915 C252.264057,55.8014496 251.689229,55.6250226 251.161077,55.3517503 C250.875976,55.2039559 250.598864,55.0245814 250.382305,54.7849945 C250.122013,54.4969848 249.951709,54.1125509 249.794441,53.7634865 C249.312965,52.6943981 249.146866,51.5587811 248.937455,50.4130584 L248.939558,50.328424 L248.9753,50.2513688 L249.038796,50.1945248 L249.119533,50.1671555 L249.631286,50.1044165 Z M260.93778,47.99403 L262.489437,48.1704569 C262.618111,48.2113004 262.663946,48.2689866 262.6753,48.4024647 L262.481027,50.1250488 L262.455376,50.2042093 L262.400711,50.2673693 L262.325861,50.3044232 L262.242602,50.3098971 L260.682114,50.0997848 L260.605162,50.0736786 C260.527368,50.006308 260.508446,49.9692541 260.500877,49.8669349 L260.703559,48.1780361 C260.745189,48.0504529 260.803219,48.0049777 260.93778,47.99403 Z M112.027452,33.8718723 C112.121645,33.8786094 112.215838,33.8857675 112.31003,33.8929257 C112.835239,33.9539804 113.358345,34.0482993 113.83856,34.2769385 C114.119877,34.4112588 114.374702,34.6024231 114.617332,34.7948506 C114.915469,35.0310691 115.198888,35.2853934 115.47558,35.5456127 C115.996163,36.0353133 116.515905,36.5262771 117.036488,37.0168199 L117.084005,37.0837695 C117.107133,37.1848255 117.099984,37.225669 117.044478,37.3136719 L113.962188,40.5483067 C112.831875,41.881404 111.612415,43.1441832 110.566623,44.543388 C109.910218,45.4208911 109.281565,46.3198686 108.602032,47.1796869 C108.512044,47.2773744 108.513306,47.2761112 108.414908,47.3674827 C108.276983,47.47696 108.136114,47.5717 107.974641,47.6437024 C107.840921,47.7034939 107.703837,47.7409689 107.561286,47.7712857 C107.296369,47.8281297 107.006642,47.7851809 106.785037,47.6277019 C106.647112,47.5300144 106.531473,47.4041155 106.404902,47.2925328 C106.171522,47.0870522 105.971783,46.8609394 105.769942,46.6234577 L105.732517,46.5586134 C105.720322,46.4853478 105.720322,46.4853478 105.734619,46.4120822 L105.856986,46.0971243 C105.909969,46.0129109 105.943189,45.9884891 106.039905,45.963225 C106.213993,45.9838573 106.371682,46.0680707 106.546191,46.0908083 C106.607584,46.0941768 106.66267,46.0933347 106.722382,46.0794395 C106.773263,46.0617547 106.810267,46.0339643 106.853999,46.0019632 C106.906562,45.9543826 106.949454,45.9051178 106.993186,45.8486949 L108.766449,43.4599832 C108.165549,43.0372322 107.465411,42.6233236 106.714392,42.5614268 C106.371682,42.5332153 106.02729,42.5829012 105.699718,42.6835362 C105.387284,42.7795394 105.093772,42.9214389 104.810353,43.0822864 L104.728355,43.1088136 L104.642572,43.1003922 L104.566882,43.0587066 L103.180062,41.8654035 L103.12876,41.7988749 L103.107735,41.717609 L103.11993,41.6346589 L103.164083,41.5630775 L103.233045,41.5146549 C103.868846,41.2346455 104.530718,41.036323 105.230015,41.0051641 C106.157225,40.9638996 107.050374,41.2123289 107.879187,41.6106581 C108.447287,41.8830883 108.975859,42.2123625 109.45271,42.6233236 L111.617461,40.1192397 C111.345396,39.8960743 111.038008,39.7002783 110.700344,39.5941694 C110.328619,39.5571156 110.32988,39.5571156 109.958996,39.5276409 C109.748744,39.5171142 109.541436,39.509535 109.331185,39.509535 L109.25213,39.4939555 C109.184429,39.4505857 109.184429,39.4510067 109.138174,39.3853203 L108.436353,37.8307419 L108.417851,37.7490549 L108.432989,37.6665259 L108.479245,37.5966288 L108.549048,37.5503114 L108.631888,37.534732 C108.912784,37.5385216 108.910681,37.5381005 109.189054,37.5532589 C109.630163,37.5970499 110.063701,37.6648416 110.473692,37.8387422 C111.201584,38.1478052 111.813836,38.7061397 112.413474,39.2046827 L114.860804,36.6370177 C114.600512,36.3982728 114.307001,36.178897 113.973542,36.0538402 C113.605181,35.9936277 113.606863,35.9936277 113.235979,35.9430997 C113.026989,35.9203621 112.820101,35.900993 112.61069,35.8870978 L112.533318,35.8673077 C112.469401,35.8201482 112.469401,35.8201482 112.427351,35.7527775 L111.814257,34.1560924 L111.80038,34.0731422 L111.820144,33.9918764 L111.870604,33.9245057 L111.943772,33.882399 L112.027452,33.8718723 Z M115.650088,42.909649 L115.728302,42.9395447 L115.788434,42.9972309 L115.821654,43.073444 L116.142918,44.5943371 L116.143759,44.676024 C116.105073,44.7720272 116.076058,44.801923 115.980184,44.8427664 L114.873419,45.0777217 L115.159782,46.4129243 L115.161043,46.4946113 C115.122777,46.5906145 115.093763,46.6205102 114.998729,46.6617748 L113.315874,47.0314714 C113.181313,47.0344189 113.119079,46.9952596 113.063993,46.8731503 L112.721703,45.3775212 C112.717919,45.2432009 112.757446,45.1813041 112.880233,45.1261444 L114.008443,44.8667672 L113.717035,43.5568286 L113.715353,43.4755627 C113.752357,43.3795595 113.780951,43.3492427 113.875144,43.307136 L115.566408,42.9121754 L115.650088,42.909649 Z M258.349161,38.619821 L258.428216,38.6589802 L258.484563,38.7263509 L258.508111,38.8105642 L258.495076,38.897304 L258.447559,38.9714117 L256.4098,41.0211646 L255.93421,41.5024439 C255.161746,42.2351001 254.401055,42.9698615 253.615134,43.6848329 C252.830055,44.3850669 252.025211,45.1450924 251.048382,45.5741594 C250.493738,45.817536 249.902931,45.925329 249.301191,45.9653304 L249.223818,45.956488 C249.137615,45.9105917 249.110703,45.8794328 249.078324,45.7880613 L249.031648,45.489946 C249.035432,45.3897321 249.052253,45.3518361 249.124579,45.2819391 C249.478643,45.0507734 249.834809,44.8238184 250.180043,44.5795997 C250.836028,44.0882148 251.460896,43.5273539 252.056749,42.9719669 C253.423385,41.6965557 254.742083,40.3786168 256.081807,39.0766784 L256.129324,39.0421509 L256.18441,39.0219397 L257.21212,38.7983533 C257.590153,38.7326669 257.965662,38.6055047 258.349161,38.619821 Z M244.286268,31.2338892 L244.367425,31.264627 L244.429659,31.3248396 L244.461618,31.4048423 L244.542354,31.8587522 L244.541934,31.93286 C244.509555,32.0191787 244.483063,32.0494955 244.401906,32.0941285 C244.110918,32.1922371 243.819088,32.2886614 243.529782,32.3909806 C243.196743,32.5328801 242.896084,32.7143599 242.621074,32.9501572 C242.514687,33.0411076 242.4083,33.1324791 242.339337,33.2558517 C242.15768,33.5800731 242.235052,33.9935606 242.336814,34.3295719 C242.56767,35.0912816 243.015086,35.7578303 243.557535,36.3346917 L248.313849,41.3095954 C248.604416,41.0270596 248.897928,40.7150491 249.094303,40.3584056 C249.315488,39.9567079 249.363846,39.4800603 249.331887,39.0312032 L249.345764,38.9402528 L249.397486,38.8640397 L249.476961,38.8168802 L251.13879,38.2749673 L251.224573,38.2652828 L251.306992,38.2905468 L251.37217,38.3465487 L251.409594,38.4240249 L251.412958,38.5095015 C251.342314,38.9242522 251.309935,39.4051105 251.136688,39.8080713 C250.933585,40.2805082 250.604751,40.695259 250.274656,41.0851668 C249.537934,41.9546696 248.678005,42.7163794 247.854239,43.4999846 L247.784435,43.5437755 L247.702857,43.5580918 L247.622121,43.5399859 L247.55484,43.4928264 C245.580577,41.4295994 243.542397,39.4249006 241.638779,37.2972503 C240.98826,36.5330142 240.459267,35.6694063 240.37012,34.651688 C240.330172,34.1969359 240.385258,33.7261832 240.609386,33.3215381 C240.766234,33.0385812 240.999613,32.8259425 241.242664,32.6170934 C241.463429,32.4271923 241.693864,32.24866 241.937336,32.0882336 C242.322517,31.8339093 242.733769,31.6372711 243.177821,31.5080036 L244.199223,31.2385209 L244.286268,31.2338892 Z M242.302333,39.9082852 C242.394423,39.957129 242.420915,39.98913 242.451191,40.0885018 L242.624859,41.8152965 L242.616449,41.8982467 L242.57608,41.9710912 L242.510482,42.0233035 L242.429745,42.04562 L240.861268,42.158887 L240.780111,42.1492025 C240.690543,42.0995166 240.664052,42.0666734 240.635458,41.9685648 L240.47861,40.2796661 C240.492907,40.146609 240.540003,40.0901861 240.668677,40.0514479 C241.212809,39.9983935 241.758201,39.8548097 242.302333,39.9082852 Z M258.863857,35.5755084 C258.948378,35.5847719 259.02491,35.5969828 259.105647,35.6247732 C259.788124,35.8580442 260.008888,36.6467022 260.198955,37.2606175 C260.255723,37.4307285 260.316276,37.5970499 260.389023,37.7608448 C260.604321,38.1899118 261.007163,38.4202353 261.388139,38.6922445 L261.439861,38.7444567 C261.469716,38.8109853 261.469716,38.8097221 261.475183,38.8842509 L261.441543,39.2118408 C261.402436,39.339003 261.345668,39.3857414 261.212368,39.3996366 C261.027767,39.383215 260.845689,39.3604774 260.663611,39.326792 C260.511389,39.2931067 260.359588,39.256895 260.216196,39.194156 C259.597636,38.922568 259.227172,38.4088665 258.97487,37.8046358 C258.818022,37.3915693 258.678836,36.9637655 258.481199,36.5671206 C258.392473,36.4248 258.203246,36.3477448 258.068265,36.2740581 L257.999723,36.2142667 L257.962718,36.1317376 L257.964401,36.0416293 L258.036307,35.7388823 L258.075834,35.6576164 L258.146058,35.5999303 L258.234364,35.5771927 C258.445456,35.5700345 258.653185,35.5658239 258.863857,35.5755084 Z M111.135985,26.703211 L111.224291,26.7070006 L111.303345,26.7465808 L113.563551,28.5474833 L114.098852,28.9567602 C114.913787,29.6435201 115.732928,30.3210165 116.533986,31.0220926 C117.364901,31.7656965 118.266881,32.5362486 118.793351,33.5367032 C119.042709,34.0099822 119.179373,34.525789 119.273145,35.049175 L119.272304,35.1279144 C119.234459,35.219707 119.205444,35.2491817 119.115036,35.2904462 L118.819002,35.3616065 C118.720604,35.3666593 118.681497,35.3536062 118.605806,35.2912883 C118.336684,34.9662248 118.070085,34.6398981 117.791712,34.3224138 C117.541933,34.046615 117.262298,33.7931329 116.985187,33.5434403 C116.652148,33.2427986 116.323735,32.936262 115.983127,32.6436206 C114.174963,31.0919897 114.158563,31.0945161 112.682176,29.9172134 L111.665819,29.075501 C111.625451,29.0317101 111.626712,29.0329733 111.600641,28.9811821 L111.26508,27.9895699 L110.968204,26.968483 L110.961897,26.8809011 L110.992173,26.7983721 L111.053566,26.7356331 L111.135985,26.703211 Z M110.444677,31.9067538 L110.519948,31.9425445 L110.575454,32.0048624 L110.602366,32.0836019 L110.801264,33.6339696 C110.792013,33.7670267 110.747019,33.8251339 110.620027,33.8689249 L108.924558,34.0996694 C108.790838,34.0920902 108.731967,34.0482993 108.686973,33.9228214 L108.45864,32.4019283 C108.464948,32.2680291 108.509101,32.2086587 108.635672,32.1631835 C109.237833,32.0722331 109.836209,31.8772792 110.444677,31.9067538 Z M120.366454,25.3793771 C120.635576,25.4084307 120.901755,25.460643 121.162046,25.5360139 C122.121635,25.8130759 122.974416,26.3992008 123.676656,27.0956452 C123.878498,27.2960729 124.065201,27.5150277 124.255689,27.725561 C124.747258,28.2687371 125.20014,28.8245452 125.673206,29.3913011 L125.712734,29.4633035 C125.723667,29.5664648 125.711472,29.6064662 125.646294,29.6868899 C124.619845,30.5374448 123.629139,31.4330537 122.563163,32.2343438 C122.039637,32.5720393 121.222599,32.7695196 120.738179,32.2633974 C120.57208,32.0608643 120.408504,31.8553837 120.265113,31.63685 C120.150736,31.4338959 120.02038,31.2149412 119.980432,30.9833545 L120.002298,30.89872 L120.056964,30.8300862 L120.302117,30.6283952 L120.382854,30.5871306 L120.473262,30.583341 C120.550634,30.6145 120.550214,30.6128157 120.617915,30.6591331 C120.71421,30.7163981 120.816393,30.7665051 120.930769,30.7719789 C121.000153,30.7378725 121.063228,30.6957659 121.127986,30.6536592 C121.829385,30.160169 122.492098,29.6157297 123.157755,29.0759221 L123.62998,28.6881196 C123.08627,28.0699936 122.433648,27.4278668 121.59937,27.2413343 C121.298289,27.1743847 120.986276,27.1642791 120.679729,27.1950169 C120.40514,27.2223863 120.125085,27.2754407 119.864793,27.3668122 L119.774385,27.3777599 L119.687762,27.3499695 L119.620902,27.2889148 L118.567961,25.7890751 L118.534741,25.7120198 L118.5339,25.6282276 L118.566279,25.5511723 L118.626411,25.4926441 L118.705045,25.4619062 C119.253802,25.365903 119.810128,25.3200067 120.366454,25.3793771 Z M131.683461,11.5237547 C131.755787,11.5603875 131.755367,11.5599665 131.808771,11.6214422 L132.358368,12.5751584 L132.384019,12.654319 L132.646834,12.332624 C132.734298,12.2602005 132.838583,12.2197781 132.941607,12.2997808 C132.963052,12.3166234 132.976929,12.3410453 132.99459,12.3612565 L133.806582,13.7815146 L133.833074,13.8640437 L133.823823,13.9503624 L133.77967,14.0257333 C133.180873,14.6868081 132.579133,15.3394616 131.997156,16.0135895 C131.632159,16.446025 131.253286,16.8767763 130.950103,17.3555292 L130.937067,17.3799511 C130.960615,17.3938463 130.982482,17.4043729 131.008132,17.4132153 L131.472788,17.5096396 L132.530354,17.6519602 C133.000057,17.732805 133.467236,17.8077549 133.932733,17.9062845 C134.429347,18.0094458 134.920075,18.1323973 135.397767,18.3029294 C136.301849,18.6258876 137.159676,19.0734815 137.999421,19.5328653 L138.044835,19.5661296 C138.387125,20.0015126 138.611674,20.5160562 138.891729,20.9931248 L138.918641,21.0710222 L138.913175,21.1535512 L138.876591,21.2272379 L138.813515,21.2815555 C136.798043,22.4209622 134.783411,23.562053 132.767098,24.7001965 C132.762472,24.7023018 132.763734,24.7006175 132.758267,24.7052493 L132.70234,24.7460927 C132.752801,24.8900976 132.751539,24.8879922 132.792748,25.0349445 C132.939925,25.706546 132.912592,26.3903584 132.818399,27.0678548 C132.728411,27.7162976 132.593009,28.3668457 132.385701,28.9887613 C132.252822,29.3866693 132.086303,29.7858406 131.834421,30.1252204 C131.538387,30.5235496 131.085925,30.7690315 130.651966,30.9926179 C129.607015,31.5315834 128.471236,31.7614858 127.335035,32.0372845 L127.249673,32.0406531 L127.170198,32.0099152 L127.109225,31.9505448 L127.076846,31.8722264 L126.979514,31.3597881 C126.977608,31.2473633 127.007463,31.1909404 127.101656,31.1290435 C127.562528,30.9252472 128.025922,30.7302933 128.479225,30.5121808 C128.84296,30.3277535 129.234029,30.1336418 129.533427,29.8523692 C129.84544,29.5588856 130.07924,29.1816098 130.284446,28.8110711 C130.643976,28.1613651 130.917724,27.4628154 131.049342,26.7310014 C131.121668,26.3288826 131.153206,25.9153951 131.116202,25.5073814 C131.091812,25.2357934 131.034624,24.9608368 130.907211,24.7174602 C130.802086,24.5161903 130.647761,24.3363948 130.489652,24.1751262 C129.913982,23.5881592 129.153292,23.3064655 128.356018,23.1670924 L128.281168,23.138881 C128.222718,23.0849844 128.222718,23.0854055 128.188237,23.0134031 L127.782031,21.479878 L127.777405,21.39777 L127.804317,21.3202937 L127.859403,21.2588179 L127.934253,21.2230273 L128.016671,21.2188166 C128.254256,21.2525019 128.252153,21.2525019 128.489317,21.2983982 C129.296684,21.4937732 130.056533,21.8327319 130.775594,22.2466405 C130.860536,22.3009581 130.933703,22.3607496 131.011917,22.4243307 C131.197779,22.5927574 131.366401,22.7717108 131.531659,22.9599276 L131.562776,22.9974025 L136.352309,20.3072071 C136.157196,20.2297308 135.958298,20.1644655 135.757718,20.1029897 C135.247226,19.9602481 134.732951,19.8554025 134.20606,19.7947688 L134.048792,19.7800315 L131.378596,19.9012987 C131.286505,19.8962459 131.197779,19.8751926 131.107371,19.8554025 C130.918985,19.801927 130.740272,19.7337142 130.573332,19.6301318 C130.40513,19.5257072 130.25459,19.3947554 130.124655,19.2465399 C129.458577,18.4865145 129.375738,17.4119521 129.682285,16.4797103 C130.027518,15.4291488 130.821429,14.5697516 131.506429,13.7301445 L130.982902,14.307427 C130.770127,14.5697516 130.562819,14.8316551 130.355511,15.0973482 C130.228098,15.260301 130.096481,15.4165168 129.983786,15.5899963 C129.97033,15.6144182 129.968648,15.6123128 129.965704,15.6422086 C129.867307,15.8759006 129.690275,16.1070663 129.554873,16.3205471 L129.499787,16.3786543 C129.408117,16.4211821 129.366487,16.4232874 129.271033,16.3908653 C129.201229,16.3310738 129.203752,16.3306527 129.146564,16.2590714 C129.085591,16.1651735 129.032607,16.0586436 128.998547,15.9521137 C128.954814,15.8140038 128.915287,15.6716833 128.911923,15.5255731 C128.893841,14.7567052 129.383307,14.1027886 129.850907,13.5335063 L131.462276,11.5919675 L131.524931,11.5410185 C131.602724,11.5165966 131.602303,11.5170177 131.683461,11.5237547 Z M230.416806,21.0032304 L230.495019,21.0297576 L230.557254,21.0840752 L230.593838,21.158183 C230.65439,21.3880854 230.65397,21.3864012 230.704009,21.6205143 C230.759095,21.9497885 230.797361,22.2765363 230.802828,22.6108633 C230.809976,23.0651943 230.764982,23.5228938 230.735127,23.9742774 C230.719568,24.1010185 230.719568,24.0989131 230.692656,24.2256542 C230.609817,24.5149271 230.493337,24.7839887 230.362561,25.0547347 L230.344479,25.0901043 C230.739332,25.3671662 231.069427,25.6067532 231.490771,25.8143391 C231.475213,25.7377049 231.478577,25.6610708 231.480259,25.5835945 C231.492033,25.435379 231.51516,25.271584 231.618604,25.1549485 C231.678736,25.0875779 231.739709,25.0206282 231.800262,24.9532576 L231.873009,24.9014664 L233.658466,24.1216507 C233.785458,24.0749123 233.783355,24.0753334 233.91203,24.0357531 C234.033975,24.0071206 234.152557,23.9822776 234.278708,23.9789091 C234.257683,23.8951168 234.240863,23.8100613 234.237079,23.7241637 C234.250114,23.5081565 234.315292,23.3460458 234.49737,23.2176204 C234.689961,23.1035113 234.88129,22.9894023 235.080188,22.8858198 C235.42458,22.7308673 235.771075,22.5797043 236.117149,22.4268571 L236.194522,22.4091723 C236.322775,22.4281203 236.3766,22.4748587 236.413183,22.5982313 L236.51915,23.6635301 C236.621333,24.9785216 236.697864,26.2985658 236.565406,27.6143994 C236.512002,28.1474699 236.444721,28.696962 236.252972,29.201821 C236.113785,29.5689913 235.871575,29.8624748 235.563767,30.1071146 C235.38253,30.2515404 235.182791,30.3782815 234.975062,30.482285 C234.779948,30.5803936 234.57222,30.6667123 234.355661,30.7054504 C234.127327,30.7462939 233.896891,30.7239224 233.702619,30.5926045 C233.618518,30.5357605 233.542828,30.4532314 233.47765,30.3778605 C233.401959,30.2894365 233.330053,30.1904858 233.265295,30.0940615 C233.04327,29.7618398 232.864135,29.4018278 232.694672,29.0405525 C232.563055,28.759701 232.506287,28.6321177 232.373408,28.3377921 L232.213616,27.9786221 C231.959212,27.9432525 231.706069,27.901988 231.452926,27.8569339 C231.227116,27.8110376 231.004249,27.7609306 230.781803,27.7011392 C230.531183,27.6228207 230.297803,27.5276597 230.068629,27.3983922 C229.82726,27.2623876 229.601029,27.0960662 229.365968,26.9499561 L229.166649,26.8274257 C229.054795,26.9284817 229.056057,26.9263763 228.937054,27.0211164 C228.793663,27.1221724 228.794504,27.1213302 228.646907,27.214386 C228.074602,27.5369231 227.456462,27.7474565 226.81982,27.9066197 C226.261812,28.0459928 225.692451,28.1567334 225.118884,28.2059982 C224.698801,28.2417889 224.264842,28.2481049 223.851907,28.1512595 C223.422573,28.0506246 223.070192,27.7904053 222.727481,27.5242911 C222.276281,27.1743847 221.867132,26.773108 221.49793,26.3389882 C221.078688,25.845498 220.698973,25.3040062 220.313372,24.7907258 L220.277208,24.7145127 L220.274265,24.6302994 L220.304962,24.5515599 L220.363832,24.4913473 L220.799474,24.1970217 C220.863811,24.1679681 220.862549,24.1679681 220.934876,24.1616521 C221.0051,24.1789158 221.003418,24.1789158 221.062709,24.217654 C221.431911,24.5608234 221.791441,24.9090456 222.172838,25.2370566 C222.347346,25.3802192 222.525219,25.5166449 222.708979,25.6475966 C222.86835,25.7549687 223.024777,25.8652881 223.201809,25.9419223 C223.689593,26.1520346 224.243396,26.205089 224.766502,26.2408797 C225.496917,26.2909866 226.246674,26.2253002 226.951858,26.028241 C227.506082,25.8732884 228.115391,25.6315961 228.488798,25.1743176 C228.597708,25.0408395 228.682229,24.8871501 228.757079,24.7334607 C229.14184,23.940592 229.113666,23.0723524 228.918973,22.2335874 L228.916029,22.1544269 C228.942941,22.0798981 228.942521,22.0798981 228.995504,22.0201066 L230.259537,21.0457582 L230.333967,21.0087043 L230.416806,21.0032304 Z M234.771538,27.5769245 C234.695848,27.6232418 234.620157,27.6695592 234.544467,27.7154554 C234.43051,27.776089 234.308144,27.8173536 234.184516,27.8539864 L234.143306,27.8632499 C234.292165,28.1592598 234.434715,28.4594804 234.605019,28.7441215 C234.642864,28.8022287 234.640762,28.8009655 234.68113,28.8569674 C234.733693,28.7693855 234.744626,28.6434865 234.7564,28.545378 C234.791302,28.2556841 234.784574,27.9613584 234.777005,27.6704013 L234.771538,27.5769245 Z M233.566376,25.2783211 C233.470921,25.2859003 233.379252,25.296427 233.303561,25.359587 C233.275387,25.3928513 233.257726,25.4231681 233.24427,25.4644326 C233.21904,25.5953844 233.253521,25.7267572 233.288423,25.8526561 C233.333837,26.0168722 233.392708,26.1764565 233.455783,26.3347776 C233.655522,26.3322512 233.65384,26.3293037 233.851898,26.3099346 C234.12102,26.2438271 234.361548,26.0699266 234.388039,25.7734956 C234.386357,25.725915 234.377527,25.687598 234.358604,25.643386 C234.256001,25.4652747 234.068877,25.3637976 233.875866,25.3086379 C233.772002,25.2871635 233.672343,25.2779 233.566376,25.2783211 Z M211.91592,19.9876174 L211.997918,19.9951966 C212.071086,20.0330926 212.070665,20.0330926 212.123649,20.0962526 L212.675769,21.1068128 L213.869578,20.4764759 L213.948213,20.4528962 C214.051236,20.4630018 214.08824,20.4823708 214.154259,20.5611103 L214.991481,22.0820034 L215.016291,22.161585 L215.008301,22.2445352 L214.968354,22.3178008 L214.902755,22.369592 L213.515935,23.0795105 L213.437301,23.1022481 C213.334278,23.0908793 213.297273,23.0710892 213.232095,22.9906655 L212.699738,21.9860002 L212.585782,22.0457917 L212.641709,22.0761085 L212.693431,22.1401106 L213.501218,23.6774253 L213.524345,23.757428 L213.514674,23.839536 L213.473885,23.9119595 L213.407866,23.9629086 L212.008431,24.6559844 L211.929796,24.6774588 C211.827614,24.6652479 211.79103,24.6450367 211.726693,24.565034 L210.936147,23.0567729 C210.898302,22.9283476 210.920168,22.8580294 211.024873,22.7738161 L211.292734,22.6340219 L211.240171,22.6053894 L211.188029,22.5418083 L210.389072,21.0251259 L210.365945,20.9468075 C210.376457,20.8449093 210.396221,20.8082765 210.475696,20.7425901 L211.837286,20.0116182 L211.91592,19.9876174 Z M206.256786,9.81548694 L206.339625,9.81843441 L206.414895,9.85296188 L206.470822,9.91401656 C206.595291,10.1169707 206.59403,10.1152865 206.709668,10.3249777 C206.856844,10.6247772 206.988041,10.9275242 207.088121,11.2466928 C207.223103,11.6782862 207.31267,12.1330383 207.415273,12.5705267 C207.435877,12.6976888 207.435036,12.6955835 207.444287,12.824851 C207.445969,13.1250716 207.410227,13.4168708 207.363551,13.7133018 L207.3543,13.7621456 L210.756172,15.0468202 C210.809155,14.8720775 210.855831,14.6990191 210.894097,14.5209078 C210.921429,14.3499547 210.939932,14.1870019 210.93026,14.0139435 C210.832703,13.6556157 210.833544,13.6568789 210.728418,13.2989721 C210.664922,13.1019129 210.602267,12.9065379 210.524895,12.7141104 L210.510177,12.6341077 C210.526577,12.5541051 210.526577,12.5545261 210.572412,12.4871555 L211.794394,11.2812203 L211.865039,11.235324 L211.948299,11.2201656 L212.030717,11.2391136 L212.099259,11.2883784 L212.142571,11.3603808 C212.236343,11.6239686 212.235502,11.6218633 212.318342,11.8867143 C212.431036,12.3103074 212.521865,12.7372691 212.502943,13.178126 C212.473928,13.8653069 212.223728,14.5373294 211.998759,15.1802984 L211.93274,15.3647256 L216.905192,17.6106956 C216.740775,17.3125804 216.558277,17.0224654 216.374096,16.73614 C215.964106,16.136962 215.462445,15.5659955 214.828747,15.1920882 C214.554999,15.0303986 214.251816,14.9247109 213.956202,14.8110228 C213.749735,14.7318623 213.752258,14.7289148 213.539483,14.6649127 L213.462531,14.622806 L213.409548,14.55333 L213.389364,14.4686956 L213.405343,14.383219 L213.454962,14.3112166 C213.62064,14.1554219 213.788001,14.0038379 213.974704,13.8733072 C214.395208,13.5798237 214.868274,13.4063442 215.38297,13.3890804 C215.482209,13.3903436 215.480527,13.3903436 215.578504,13.3953964 C215.92584,13.4290818 216.264345,13.5221375 216.574676,13.6842482 C217.403068,14.1166838 217.932482,15.0021871 218.343734,15.8013718 C218.694013,16.5306594 218.996355,17.2822636 219.357147,18.0064984 C219.613654,18.4856723 219.923145,18.9484247 220.425646,19.1951698 L220.489983,19.2440135 C220.541705,19.3307533 220.548013,19.3720178 220.524464,19.4701264 L219.847875,20.9531235 C219.769661,21.0617587 219.701119,21.0878648 219.569922,21.0588112 L211.23092,17.398478 L206.689063,15.7967401 C206.612532,15.9196916 206.612952,15.9167441 206.530113,16.0329585 C206.106666,16.5630816 205.569263,16.9727795 204.992332,17.3277388 C204.496979,17.6325911 203.977658,17.9083898 203.441095,18.1345027 C202.988634,18.3252459 202.505055,18.4915673 202.010123,18.5197787 C201.570276,18.5446217 201.159024,18.3968272 200.754079,18.2401904 C200.221301,18.0342888 199.713333,17.7673325 199.2348,17.4561641 C198.689408,17.1016259 198.172609,16.6864541 197.656231,16.2994938 L197.599463,16.2354916 L197.573392,16.1546468 L197.581381,16.0700124 L197.62217,15.9954836 L197.95647,15.6047336 L198.029638,15.5495739 L198.120046,15.531047 L198.209613,15.5521003 C198.710853,15.7937926 199.211252,16.0502223 199.723846,16.2708612 C200.0531,16.4030762 200.398333,16.5453968 200.753659,16.5883456 C201.179628,16.6392946 201.621157,16.5744504 202.037876,16.4919213 C202.814966,16.338653 203.576077,16.0940132 204.256031,15.6830521 C204.782501,15.3643045 205.354806,14.9428167 205.602903,14.3600603 C205.691209,14.1533166 205.731577,13.922572 205.754705,13.7002488 C205.840488,12.8842214 205.571365,12.1178799 205.175672,11.4151195 L205.150442,11.3405907 C205.155067,11.2618512 205.155067,11.2622723 205.188287,11.1902699 L206.11844,9.90054243 L206.178993,9.84411948 L206.256786,9.81548694 Z M206.349297,17.8928104 C206.425408,17.9243904 206.424987,17.9243904 206.483437,17.9824976 L207.123443,18.9395823 L208.2567,18.2098736 L208.332811,18.1795568 C208.435834,18.1803989 208.47452,18.1968205 208.547688,18.269244 L209.511482,19.7021342 L209.54344,19.7787683 L209.542599,19.8621395 L209.509379,19.9383526 L209.449247,19.9960388 L208.125923,20.8322773 L208.048971,20.861752 C207.944686,20.8596467 207.90642,20.842804 207.834094,20.7678541 L207.224364,19.8191907 L206.066298,20.5568997 L205.989346,20.5867954 C205.885481,20.5851111 205.846795,20.5682685 205.774468,20.4941607 L204.84011,19.0570599 C204.790491,18.9332663 204.805629,18.8616849 204.901504,18.7677871 L206.190767,17.9235482 L206.267298,17.8923893 L206.349297,17.8928104 Z M142.404193,13.247602 C143.101808,13.3191833 143.799003,13.3907647 144.496618,13.462346 C144.979356,13.5280325 145.441069,13.6695109 145.821204,13.9844688 C146.18578,14.2863737 146.41159,14.6981769 146.563392,15.1386128 C146.67903,15.4737819 146.748834,15.827478 146.740844,16.1828583 C146.726547,16.8127741 146.449436,17.4317423 145.98562,17.8624935 C145.699258,18.1286077 145.357388,18.294087 144.994915,18.4334601 C144.41462,18.6570465 143.711959,18.8692641 143.143438,18.4991465 C143.074055,18.4540923 143.009718,18.401459 142.951689,18.3425096 C142.639255,18.0254464 142.516047,17.53743 142.446664,17.1159422 C142.350369,16.5315016 142.385271,15.9335868 142.39284,15.3449355 L142.344902,15.3200925 L142.291078,15.2531429 L142.268791,15.1701928 L142.171655,13.468662 L142.185952,13.3793959 L142.236413,13.3048671 L142.314206,13.2577076 L142.404193,13.247602 Z M164.726193,7.04107815 L164.803145,7.07139495 C165.371666,7.43730195 165.865337,7.87984311 166.289625,8.40491334 C166.554542,8.73292434 166.893888,9.0891468 167.077648,9.48789701 C167.254259,9.87106775 167.326586,10.3578209 167.407323,10.7485709 C167.43844,10.9014181 167.462829,11.0551074 167.48848,11.2087968 C167.560386,11.6349164 167.627666,12.0711415 167.543566,12.5006296 C167.466613,12.8934849 167.307663,13.2716028 167.126847,13.6274042 C166.875386,14.1217366 166.570941,14.58491 166.241267,15.0312407 C165.92673,15.4573603 165.594112,15.8742164 165.205567,16.2367548 C164.960414,16.4658151 164.689189,16.6788749 164.38138,16.8190901 C163.981902,17.001412 163.509256,17.0245707 163.076979,17.0447819 C161.900831,17.1007838 160.773462,16.8346696 159.625067,16.6131885 L159.546012,16.5803453 L159.486721,16.5188696 L159.456445,16.4392879 L159.46065,16.3542325 L159.591847,15.8502156 C159.626749,15.7718971 159.654082,15.7428435 159.730193,15.7032633 C160.240263,15.6253659 160.778928,15.7171585 161.299932,15.7070529 C161.710343,15.6893681 162.148508,15.669999 162.541678,15.5398894 C162.948305,15.4059901 163.319609,15.1605082 163.660217,14.9091314 C164.260696,14.4661692 164.808191,13.9507835 165.236264,13.3385524 C165.62565,12.7823232 166.025969,12.068194 165.950278,11.3637494 C165.840527,10.3430836 165.101703,9.54431996 164.292654,8.98303798 L164.237148,8.92661504 C164.206451,8.85377049 164.206451,8.85377049 164.20519,8.77460994 L164.480199,7.21161018 L164.510054,7.13497603 L164.567243,7.07560562 L164.643354,7.04276241 L164.726193,7.04107815 Z M143.698082,15.4173589 C143.685467,15.4518864 143.672432,15.4864139 143.659816,15.5209414 C143.607674,15.676315 143.535768,15.8409521 143.529881,16.0081156 C143.519789,16.2961252 143.674114,16.660348 143.992435,16.7100339 C144.069387,16.7222448 144.148441,16.7146656 144.223711,16.6961387 C144.322109,16.6717168 144.411256,16.628768 144.499141,16.5799242 C144.727474,16.4291823 144.930998,16.2434919 145.136204,16.0632753 C145.218622,15.9811673 145.299779,15.9015857 145.35907,15.8005297 C145.367481,15.783687 145.37505,15.7676865 145.380096,15.7495806 C145.282959,15.6481035 145.080697,15.6148393 144.952023,15.5845224 C144.541191,15.4880982 144.117745,15.4518864 143.698082,15.4173589 Z M197.980859,7.82215696 C198.175132,7.8444735 198.353425,7.87900097 198.535503,7.94889805 C198.963576,8.11311408 199.338665,8.53291763 199.423606,8.98261692 C199.475328,9.2563103 199.408048,9.52705622 199.357587,9.79611787 L199.321004,9.9603339 C199.220083,10.3106614 199.208729,10.3056086 199.063235,10.7224647 L199.023708,10.7906775 C198.921946,10.8706802 198.850881,10.8778383 198.734822,10.8201522 C198.602363,10.6723578 198.509853,10.4862463 198.385384,10.3291884 C198.261756,10.188131 198.132241,10.0571793 197.976654,9.95107043 C197.865221,9.87485735 197.744957,9.81211841 197.617965,9.7666432 C197.498542,9.72369439 197.366504,9.68579838 197.238251,9.68790372 C197.076357,9.69085119 196.915304,9.74180026 196.765605,9.79948641 C196.523815,9.89254216 196.2938,10.0167568 196.071774,10.1489718 C196.000289,10.1914995 195.929644,10.2352905 195.859841,10.2807657 C195.618051,10.4378236 195.320755,10.6315143 195.195445,10.9039445 C195.177364,10.9569989 195.172318,11.007948 195.174,11.0643709 C195.179046,11.0904771 195.183251,11.1157411 195.198809,11.1380576 C195.222357,11.1624795 195.220675,11.1607952 195.247167,11.1797432 C195.334632,11.2239552 195.437235,11.2361661 195.532689,11.2559563 C196.096163,11.3418539 196.663002,11.418488 197.221851,11.5321761 C197.458174,11.5860726 197.686928,11.651338 197.918625,11.7237614 C197.979598,11.7469201 198.034684,11.7730262 198.091031,11.8058695 C198.339969,11.9801911 198.453085,12.2551477 198.452664,12.5549472 C198.427013,12.8307459 198.38244,13.1044393 198.34039,13.3777116 C198.203306,14.0901566 197.739911,14.6451225 197.184847,15.0935586 C196.911519,15.3137765 196.620531,15.5116779 196.306415,15.6704201 C195.17442,16.2413866 193.823763,16.3786543 192.573607,16.3209682 C192.095495,16.2986516 191.621167,16.244334 191.148521,16.1714895 C190.982843,16.1462255 190.818426,16.1163297 190.65485,16.080118 C189.672134,15.8620054 188.565369,15.3718837 188.151594,14.3886929 C187.911066,13.8168842 187.998951,13.228654 188.129307,12.6416869 C188.276063,11.9806122 188.503134,11.355328 188.799589,10.7464655 L188.870234,10.6087767 C189.016569,10.3763478 189.157438,10.1405505 189.309239,9.91149016 C189.582567,9.49926582 189.96985,8.98724865 190.258315,8.59649871 L190.315083,8.54386537 C190.405492,8.50765363 190.447121,8.50723256 190.538371,8.54133897 L191.011857,8.82682222 C191.103107,8.90766704 191.123711,8.97209025 191.095958,9.08998894 C191.024052,9.19736096 191.016903,9.18851856 190.928598,9.28199537 C190.856271,9.35862952 190.792355,9.443685 190.727177,9.52621409 C190.385728,9.98433471 190.090114,10.4799303 189.855053,11.0003688 C189.697784,11.348591 189.569531,11.7111294 189.491317,12.0850367 C189.458518,12.2412525 189.430765,12.3987314 189.437493,12.5587368 C189.472395,13.3979228 190.347462,13.8977291 191.07283,14.0888934 C191.227155,14.1297368 191.384423,14.162159 191.542533,14.1848966 C192.466379,14.3196379 193.388542,14.2501619 194.307342,14.1074203 C195.158441,13.9747843 195.992299,13.7705669 196.76182,13.3785538 L196.794619,13.3591847 C196.086071,13.2766556 195.37458,13.1701257 194.677806,13.0252788 C194.565952,12.9924355 194.465031,12.9536974 194.361587,12.900643 C194.217354,12.8181139 194.063871,12.7002152 193.976406,12.5566315 C193.814933,12.2909383 193.785918,11.9566114 193.798954,11.6542854 C193.81241,11.3460646 193.864973,11.0534232 193.99617,10.7729927 C194.243846,10.2432908 194.648791,9.78895974 195.054577,9.37420899 C195.731167,8.68281739 196.505734,8.0394274 197.48004,7.84489457 C197.650344,7.8242623 197.809715,7.81626203 197.980859,7.82215696 Z M156.365746,8.25922424 L156.450267,8.26175065 L156.527219,8.29754132 C156.753029,8.46386268 156.751347,8.46259948 156.969588,8.63607898 C157.301366,8.92324651 157.618005,9.22641456 157.853066,9.59863757 C158.163818,10.0908646 158.321927,10.6782527 158.481718,11.2306923 C158.693232,12.0189292 158.900119,12.8084294 159.108689,13.5975085 L159.113735,13.6791954 L159.086823,13.7566717 L159.031737,13.8181474 L158.957728,13.8539381 L154.098392,15.1125066 C153.015595,15.4779926 151.946676,15.8881116 150.847901,16.2030695 C150.631341,16.2493868 150.418567,16.2729666 150.197382,16.2472815 C150.056093,16.2308599 149.917747,16.1980167 149.784027,16.149594 C149.483367,16.0401167 149.212143,15.8447417 149.100709,15.5365208 C149.0431,15.3777787 149.019132,15.209352 148.978763,15.045557 C148.904755,14.7461786 148.879524,14.445958 148.846725,14.1394214 L148.852612,14.0632083 C148.885412,13.9941533 148.885412,13.9941533 148.940918,13.94152 L149.224337,13.7566717 C149.315586,13.7187757 149.357216,13.7183546 149.449727,13.752461 C149.579242,13.8682544 149.66124,14.0244701 149.790335,14.1411056 C149.837852,14.1781595 149.882845,14.2088974 149.939193,14.2312139 C149.991756,14.2455302 150.038011,14.2425827 150.093097,14.2404774 C150.163321,14.231635 150.228079,14.2173187 150.296621,14.1979496 L153.128711,13.2505495 C152.858327,12.5246304 152.504263,11.7477622 151.863837,11.2690094 C151.658631,11.1157411 151.429036,10.9970002 151.188508,10.9089973 C150.831081,10.7776245 150.465663,10.7325703 150.090154,10.6828844 L150.01152,10.6559362 L149.949285,10.6007764 L149.913542,10.5262476 L149.461081,8.76197794 L149.456876,8.67818566 L149.48589,8.59944618 L149.54392,8.5383915 L149.620872,8.50470616 L149.705393,8.50344296 C150.390393,8.63271045 151.048481,8.84577022 151.640549,9.22009856 C152.360031,9.67485065 152.91888,10.3157142 153.352419,11.0391069 C153.71279,11.6399692 153.99663,12.2673586 154.169036,12.9456971 L157.463259,12.1254591 C157.370328,11.7898689 157.23829,11.4517523 157.024254,11.1738483 C156.758075,10.9439458 156.489794,10.7190962 156.213103,10.5018257 C156.080224,10.4045593 156.086111,10.3974012 155.966688,10.3291884 L155.90151,10.2719233 L155.865347,10.1931838 L155.864085,10.1064441 L156.19376,8.42596668 L156.226138,8.3484904 L156.286691,8.28954105 L156.365746,8.25922424 Z M180.815492,5.90040833 L180.89749,5.91304033 L180.968135,5.95598914 C181.144326,6.11809984 181.143064,6.11683664 181.312527,6.28863187 C181.656499,6.67138154 181.952533,7.07897415 182.201471,7.52909451 C182.428964,7.94005565 182.721634,8.3724912 182.819611,8.84619129 C182.844841,8.96745851 182.856616,9.08956787 182.862082,9.21294043 C182.892779,9.90138456 182.90203,9.89885816 182.896143,10.4984572 C182.891938,10.9266821 182.884369,11.36796 182.729624,11.7734473 C182.611883,12.0816682 182.438215,12.3667304 182.249829,12.6370552 C181.89114,13.1511777 181.462226,13.6109826 181.008924,14.042576 C180.624163,14.408483 180.223003,14.761758 179.776849,15.0527151 C179.495953,15.2363002 179.19277,15.3996741 178.866039,15.486835 C178.439648,15.600944 177.970367,15.5428368 177.539351,15.4880982 C176.371192,15.3390405 175.307739,14.8838674 174.216113,14.465327 L174.144207,14.4194308 L174.09669,14.3495337 L174.080711,14.2665835 L174.098792,14.1840544 L174.310305,13.7095122 C174.37296,13.6151933 174.429728,13.5857186 174.543685,13.588245 C175.039879,13.6834061 175.524299,13.7869885 176.020913,13.8606752 C176.42754,13.9124664 176.864022,13.9764685 177.272752,13.9133085 C177.696619,13.8480432 178.104507,13.6674055 178.484222,13.4783466 C179.194452,13.1250716 179.860109,12.6854779 180.406763,12.1077743 C180.841143,11.6483905 181.311266,11.0420544 181.354157,10.3864535 C181.422279,9.35652419 180.839461,8.44617788 180.134277,7.75057561 L180.089283,7.68531027 C180.072042,7.60825505 180.072042,7.60867612 180.084237,7.53035771 L180.625425,6.03893929 L180.668316,5.96862114 L180.735176,5.9197774 L180.815492,5.90040833 Z M172.323848,1.42108547e-14 L172.407948,0.0265272051 L172.473547,0.0850554829 L172.50971,0.165479232 L173.109768,2.97904724 L173.258206,3.63717456 C173.470981,4.79468705 173.70436,5.95219954 173.873402,7.11771229 C174.016794,8.10721915 174.176165,9.14430655 173.960867,10.1359187 C173.847752,10.6588836 173.627829,11.1388997 173.372163,11.6067049 L173.321702,11.6677596 C173.234237,11.7157612 173.193028,11.721235 173.096312,11.6963921 L172.817519,11.5662825 C172.736782,11.5081753 172.714495,11.4732267 172.695993,11.3759603 C172.695993,11.0327909 172.697675,10.6896215 172.691788,10.3464521 C172.658148,9.45294847 172.513915,8.55397097 172.360431,7.6760468 C172.040008,5.83851152 171.660714,4.0190821 171.296137,2.19081029 L171.292773,2.13186094 L171.30623,2.07459586 L171.684262,1.09982634 L172.10855,0.125477891 L172.159851,0.0538965436 L172.235962,0.00968453518 L172.323848,1.42108547e-14 Z M206.250058,5.4006021 C206.275708,5.40986557 206.30178,5.41912904 206.32743,5.42881357 L206.388403,5.48397331 L207.424524,6.87854638 L207.459846,6.95391733 L207.46321,7.03686748 L207.433775,7.11476483 L207.376166,7.17497737 L206.095313,8.07395488 L206.020463,8.10721915 C205.917019,8.11016662 205.877912,8.09585035 205.802222,8.02595327 L204.795957,6.6478018 C204.73961,6.52653458 204.750963,6.4541111 204.841372,6.35516041 L206.09321,5.43934024 C206.167639,5.4043917 206.167219,5.4043917 206.250058,5.4006021 Z M154.476845,5.04690603 C154.503757,5.0523799 154.530669,5.05827483 154.557581,5.06416977 L156.163904,5.75303497 L156.232867,5.80061551 L156.27786,5.87093366 L156.291737,5.95304167 L156.271973,6.03430755 L155.612624,7.44993396 C155.53441,7.55730598 155.465868,7.58299105 155.335512,7.55393744 L153.77124,6.86928291 C153.661068,6.79264876 153.633735,6.72443595 153.66233,6.59348419 L154.279628,5.17364712 C154.338919,5.08817057 154.374242,5.06543297 154.476845,5.04690603 Z M162.692639,3.1491582 C162.719131,3.15715847 162.745622,3.16515874 162.771694,3.17273794 L164.310736,3.98792316 L164.375493,4.04097757 L164.41418,4.11424319 L164.421328,4.19719334 L164.395678,4.27635388 L163.630361,5.62924134 C163.544158,5.72987629 163.473934,5.7500875 163.346522,5.71134936 L161.84154,4.91342787 C161.736835,4.82837239 161.715389,4.75805424 161.754076,4.62962888 L162.485751,3.25989876 L162.537894,3.19631768 L162.610641,3.15715847 L162.692639,3.1491582 Z" id="Shape-1" fill="#FFFFFF"></path>
    </g>
</svg>