<?xml version="1.0" encoding="UTF-8"?>
<svg width="1093px" height="200px" viewBox="0 0 1093 200" version="1.1" xmlns="http://www.w3.org/2000/svg" xmlns:xlink="http://www.w3.org/1999/xlink">
    <!-- Generator: Sketch 57.1 (83088) - https://sketch.com -->
    <title>Electricity / Full / Horizontal / Mono</title>
    <desc>Created with Sketch.</desc>
    <g id="Electricity-/-Full-/-Horizontal-/-Mono" stroke="none" stroke-width="1" fill="none" fill-rule="evenodd">
        <path d="M121.50197,164.9521 L132.766886,152.47321 L144.48717,162.7063 L133.482548,175 L121.50197,164.9521 Z M336.350926,162.735107 L345.423026,152.685444 L357.032846,162.822705 L346.132224,175 L334.375511,165.14023 L325.549603,175 L313.682426,165.046753 L324.840992,152.685444 L336.350926,162.735107 Z M441.9933,162.735107 L451.065987,152.685444 L462.67522,162.822705 L451.774598,175 L440.018473,165.14023 L431.192565,175 L419.324801,165.046753 L430.483954,152.685444 L441.9933,162.735107 Z M473.183345,93.6003137 C472.909536,87.5295975 475.322692,84.0727108 479.357543,75.7608973 C482.565095,78.3612051 489.791634,97.040739 489.980244,106.995162 C490.165917,116.824948 486.393709,132.034662 478.436819,135.819012 C469.627363,140.008429 440.148913,140.641604 439.671806,116.192949 C409.796157,121.86389 406.040402,169.224413 404.153123,167.22906 C402.265257,165.233707 399.664666,127.090373 427.83107,106.043342 C428.601963,102.498269 422.475358,100.951489 419.727287,100.74631 C416.979804,100.540543 411.44547,107.556024 411.513628,104.609439 C411.583549,101.588191 413.667665,85.0221788 421.23852,83.0303537 C428.809376,81.0391164 455.329404,80.9991388 455.319416,91.6731582 C455.305902,106.418426 444.94467,107.895246 444.253686,112.361567 C443.687855,116.021281 448.98246,119.003727 452.625402,119.661594 C458.801951,120.776264 478.116005,123.602327 481.312981,119.051348 C484.510543,114.49978 473.509447,100.815683 473.183345,93.6003137 Z M389.416248,103.243146 C390.812318,98.4875754 391.735392,95.341691 393.338287,89.8782815 C395.246718,91.3797932 401.52903,104.410139 400.866837,112.250452 C400.198181,120.163078 401.063673,138.358177 372.439552,138.750898 C362.516061,138.887293 343.905329,135.346923 342.597983,121.72338 C334.101703,137.404006 316.24835,139.578082 303.564449,137.812601 C302.260629,147.190875 295.385458,160.21887 286.597154,164.295409 C277.809439,168.371361 257.12458,165.958007 251.384596,162.234211 C256.641009,159.891994 289.609632,155.98242 297.530093,140.826794 C300.016107,136.068872 292.883579,132.290401 292.266042,126.956918 C291.584459,121.067277 291.394674,106.376097 293.440009,105.488359 C295.485345,104.600621 298.16702,120.342977 304.201377,121.211902 C317.220193,123.085558 340.150161,119.353531 347.79035,105.35608 C347.630531,120.041969 366.30002,121.578167 373.215734,121.856247 C381.415878,122.18665 402.04668,122.021448 389.416248,103.243146 Z M147.72175,104.130884 C148.349864,99.4346918 149.156599,95.579205 149.8893,87.9329009 C154.353667,92.5579566 158.31801,99.1354477 158.418485,109.183935 C158.575366,124.825172 152.089167,131.432646 142.211507,136.415736 C137.116089,138.986061 109.023719,137.667976 93.5253524,138.252942 C91.4177343,147.677074 82.0900406,161.760947 73.3992741,165.641714 C58.7058797,166.786955 48.7300949,164.960331 40.8736796,163.202492 C36.5755959,160.632756 76.8724078,157.338719 85.6648241,141.191884 C88.773076,135.484493 82.4537472,130.026963 81.1652034,126.989253 C80.757429,120.928531 79.966558,112.195777 82.5360072,104.800509 C83.6700197,111.245721 87.7348376,117.158291 94.0835451,121.84978 C97.0554805,124.045608 114.74255,123.223128 123.975058,123.289561 C133.964357,123.361874 148.4474,121.544657 150.735403,114.152916 C151.61676,111.306863 150.204238,107.005156 147.72175,104.130884 Z M835.579081,103.662911 L839.23965,94.435728 C839.23965,94.435728 845.785194,109.083991 844.921464,121.059634 C844.281011,129.847064 838.323039,134.16876 834.2923,134.434493 C827.964158,134.851907 822.082569,129.142165 822.082569,129.142165 C822.082569,129.142165 819.755787,134.234605 811.529789,134.697875 C804.995997,135.066492 799.114409,125.972176 799.114409,125.972176 C793.174063,134.338665 783.332245,135.586789 773.666698,134.199919 C773.666698,134.199919 769.060139,154.52265 757.31459,160.813831 C748.777179,165.384799 728.118174,161.976709 722.406981,158.750281 C727.983032,157.813159 767.338555,147.107981 767.068272,137.361677 C766.909628,131.587853 764.788496,127.850535 762.038663,122.724584 C759.83527,117.339366 762.896517,103.097933 762.896517,103.097933 C762.896517,103.097933 766.116407,118.397008 781.575407,119.020777 C798.826499,119.716269 803.603453,106.536007 803.603453,106.536007 C803.603453,106.536007 802.945373,121.010838 813.10448,120.225396 C820.813415,119.629259 822.435112,104.909859 822.435112,104.909859 C822.435112,104.909859 822.576129,120.875032 833.816367,120.440569 C845.033103,120.006107 835.579081,103.662911 835.579081,103.662911 Z M592.207067,88.6748381 C591.537235,93.9818646 590.021301,99.2042327 590.37972,103.134384 C590.691133,106.571281 595.585601,110.773045 592.371586,114.766102 C586.737953,121.758654 572.715565,124.035026 564.831534,121.619909 C562.782673,102.796338 551.704605,97.5892552 546.257819,97.3000055 C533.470506,96.6215621 534.478778,122.932115 534.727908,128.266185 C534.857174,131.047568 537.785042,133.52853 540.442039,134.355126 C544.587354,135.644404 547.287832,136.318732 559.600387,136.003614 C556.703661,150.23564 525.75687,153.489699 513.832699,152.610192 C518.961021,158.925477 532.448132,163.936787 541.720594,162.1813 C551.312107,160.366434 564.365003,151.355601 566.029592,136.50745 C570.334139,138.314084 582.747169,138.43872 588.258588,134.481526 C594.05204,130.32268 600.991257,124.968033 600.791483,111.554372 C600.621087,100.01084 594.087295,90.2216186 592.207067,88.6748381 Z M510.770866,94.6226821 C513.24219,97.3194064 518.985112,110.504372 518.554422,120.127803 C517.624884,140.893815 512.360833,148.939895 503.660666,154.361564 C496.339528,155.716687 470.627997,154.921838 465.374523,152.548462 C479.864617,149.684772 509.400649,138.874947 512.155183,129.016941 C514.31627,121.282451 508.207292,112.765458 506.085572,108.398493 C505.845256,104.177329 508.300128,91.9259577 510.770866,94.6226821 Z M64.9018186,106.236175 C65.849571,116.87492 51.6491489,133.97769 30.1857585,131.509662 C2.17682425,128.289113 4.18984337,102.562351 11.3159076,79.8897604 C11.4281337,79.5329015 9.45213155,78.2594973 7.74582462,80.8886125 C5.96607128,83.6317814 -15.438562,136.089448 21.6853651,149.510164 C35.727143,154.586144 48.5814394,146.206721 55.0899662,141.371195 C67.4183863,132.212209 71.6477242,118.285894 70.7317006,97.1459742 C70.2498922,86.0257342 59.6571576,71.3568942 49.6038134,71.9383332 C38.4599369,72.582678 38.3482984,97.8132474 41.7280082,103.052665 C45.1635374,108.37968 54.8525874,107.132144 64.9018186,106.236175 Z M281.176809,119.522848 C273.849208,141.071363 239.214821,140.453474 229.612731,141.765092 C234.310363,148.040399 260.58655,152.744235 270.600527,147.805825 C280.614504,142.866828 287.150059,121.581695 287.007279,110.432647 C286.864499,99.3035888 275.932736,84.6435674 265.878804,85.2250064 C254.734928,85.8693512 254.623877,111.099921 258.003587,116.339926 C261.439116,121.666353 271.128166,120.419405 281.176809,119.522848 Z M248.075983,82.6123526 C251.972168,75.2311941 256.395992,56.5140342 245.914896,56.0631103 C231.628101,55.4481608 212.317571,91.4403475 213.794138,102.547654 C214.269483,106.125649 215.381168,109.474361 218.68038,110.934131 C225.178918,113.809579 230.021093,113.107619 236.276377,112.976516 C237.35457,120.302411 211.807559,131.794208 200.736542,130.126319 C151.563291,122.718117 180.551706,78.699251 181.664566,72.0835459 C173.775247,74.6074259 164.166694,96.8055767 164.06857,109.872961 C163.847055,139.526346 184.397948,148.89933 198.281081,148.707673 C216.078027,148.461928 246.305043,134.844852 247.213428,104.682928 C247.657632,89.944127 223.050735,98.0701622 222.712294,92.699054 C222.373266,87.3273578 234.477821,72.6696881 244.537629,71.9689043 C248.974379,71.6596658 248.075983,82.6123526 248.075983,82.6123526 Z M769.03076,53.0224611 C773.966359,42.7564483 789.84841,23.7182918 780.77631,25.0681237 C771.710085,26.4185436 715.062341,56.2635862 715.091719,63.7252878 C715.126973,70.8559984 714.927199,73.8443241 715.168103,80.4053539 C717.536016,86.8529178 744.011976,102.545302 742.566551,108.728896 C740.016492,119.642193 714.745052,119.084858 705.044251,118.210054 C702.19453,117.953727 698.02865,114.422765 700.954755,100.876825 C697.441079,117.146533 676.176875,121.609914 654.460241,122.100228 C597.177919,123.391857 623.648004,84.7246985 620.810035,88.4990543 C601.214534,114.531527 614.04709,136.02713 633.95988,137.733821 C681.359253,141.796251 691.653502,129.073967 695.378703,125.216717 C695.7665,135.154678 711.771942,135.042976 718.675904,134.283989 C724.904159,133.597903 752.173341,134.810753 748.559778,101.783376 C747.396387,91.1752019 726.719754,76.84382 720.350482,69.1616536 C721.40811,64.0656854 762.267815,43.5995054 770.01788,40.6823164 C774.025116,39.1719861 769.03076,53.0224611 769.03076,53.0224611 Z M813.827193,87.5307733 L821.759405,78.7439318 L831.912636,87.6066131 L822.382231,98.2535889 L812.105609,89.6331248 L804.384923,98.2535889 L794.008415,89.5514058 L803.767973,78.7439318 L813.827193,87.5307733 Z M659.372337,87.5307733 L667.304549,78.7439318 L677.45778,87.6066131 L667.927374,98.2535889 L657.644877,89.6331248 L649.930067,98.2535889 L639.553558,89.5514058 L649.313117,78.7439318 L659.372337,87.5307733 Z M573.357781,72.8184283 L583.402311,81.8956953 L573.27082,93.5121278 L561.100457,82.6047098 L570.954614,70.8418887 L561.100457,62.0109543 L571.048038,50.136431 L583.402311,61.3019398 L573.357781,72.8184283 Z M376.029613,78.2459755 L387.295116,65.767085 L399.014813,76.0007629 L388.01019,88.2938751 L376.029613,78.2459755 Z M805.771591,72.0159368 L815.172731,61.5970685 L824.961668,70.1411049 L815.772054,80.4053539 L805.771591,72.0159368 Z M501.189341,69.0152651 L512.454257,56.5363746 L524.174541,66.7694646 L513.169919,79.0631647 L501.189341,69.0152651 Z M40.5434646,57.1848348 L48.4756766,48.3979933 L58.62597,57.2606746 L49.0949767,67.9076504 L38.8165927,59.2871863 L31.1000194,67.9076504 L20.7240985,59.2054673 L30.4807192,48.3979933 L40.5434646,57.1848348 Z" id="Shape-2" fill="#FFFFFF"></path>
        <path d="M1061.46958,27.14375 L1061.75458,27.4116667 C1062.96875,28.5625 1064.15292,29.7420833 1065.3075,30.9504167 C1065.40792,31.0558333 1065.50708,31.1604167 1065.60625,31.265 C1066.78042,32.5041667 1067.92333,33.7741667 1069.03333,35.0729167 C1069.15,35.2095833 1069.26542,35.345 1069.38042,35.48125 C1071.01125,37.4091667 1072.57,39.3991667 1074.05292,41.4479167 C1074.1525,41.5854167 1074.25292,41.7245833 1074.35292,41.8641667 C1074.77375,42.4520833 1075.1875,43.0429167 1075.595,43.63875 C1075.66083,43.7345833 1075.72667,43.8316667 1075.79292,43.9283333 C1086.6525,59.9254167 1093,79.2270833 1093,99.9995833 C1093,119.500833 1087.40583,137.705417 1077.73625,153.095417 C1077.61917,153.2825 1077.50125,153.46875 1077.3825,153.655 C1076.69667,154.730417 1075.99125,155.79125 1075.26667,156.837917 C1075.10875,157.06625 1074.95,157.2925 1074.79083,157.51875 C1074.61542,157.7675 1074.43917,158.015 1074.26208,158.261667 C1074.08292,158.510833 1073.90333,158.758333 1073.7225,159.005417 L1073.69542,159.0425 C1073.37625,159.4775 1073.05417,159.91 1072.72833,160.339583 C1072.5425,160.584167 1072.35625,160.8275 1072.16917,161.069583 C1071.40125,162.063333 1070.61458,163.042917 1069.81,164.007083 C1069.6475,164.201667 1069.48542,164.394583 1069.3225,164.586667 C1068.43083,165.639583 1067.5175,166.673333 1066.58375,167.687917 C1066.48583,167.794167 1066.38792,167.900417 1066.28958,168.005833 C1065.91792,168.40625 1065.5425,168.804583 1065.16375,169.199167 C1065.0575,169.309583 1064.95083,169.420417 1064.84375,169.530833 C1063.94125,170.463333 1063.02167,171.3775 1062.085,172.273333 C1061.9525,172.4 1061.81917,172.526667 1061.68542,172.652917 L1061.49208,172.835417 C1061.03625,173.264583 1060.57625,173.689167 1060.11208,174.109583 C1060.0275,174.18625 1059.94417,174.26125 1059.86083,174.33625 C1058.88875,175.211667 1057.89792,176.069167 1056.89,176.9075 L1056.56667,177.175417 C1056.41625,177.299167 1056.26583,177.422917 1056.11458,177.545833 C1055.74458,177.847917 1055.37125,178.147917 1054.99583,178.445 C1054.90375,178.5175 1054.81292,178.589167 1054.72208,178.660417 C1054.18208,179.085417 1053.63583,179.505833 1053.08542,179.920417 C1052.9825,179.9975 1052.8825,180.0725 1052.7825,180.147083 C1052.37292,180.45375 1051.95833,180.75875 1051.54125,181.060833 C1051.40917,181.155417 1051.27792,181.250417 1051.14583,181.344583 C1034.75667,193.08625 1014.67958,200 993.000417,200 C989.117083,200 985.285417,199.778333 981.517917,199.34625 L979.069167,199.035 L978.925833,199.015417 C978.0975,198.898333 977.272083,198.77125 976.449583,198.634167 C976.419167,198.629167 976.387083,198.62375 976.355,198.618333 C975.60875,198.492917 974.86625,198.359583 974.127083,198.218333 C974.010417,198.195833 973.89375,198.173333 973.777083,198.150417 C973.044583,198.007917 972.315,197.857083 971.588333,197.698333 C971.4275,197.662917 971.2675,197.6275 971.107917,197.591667 C969.594167,197.253333 968.092917,196.880417 966.605833,196.47375 C966.505417,196.44625 966.405417,196.418333 966.305,196.390833 C965.60375,196.197083 964.905417,195.995417 964.210417,195.786667 C964.144583,195.76625 964.079583,195.746667 964.014167,195.727083 C951.669583,191.98875 940.334167,185.928333 930.514583,178.054167 L928.772083,176.624583 L928.203333,176.14375 C926.94375,175.070833 925.712083,173.967917 924.508333,172.835417 L924.407917,172.740417 C924.288333,172.6275 924.16875,172.514167 924.049583,172.400833 C923.573333,171.9475 923.1,171.487917 922.631667,171.023333 C922.5575,170.949583 922.482083,170.874583 922.40625,170.799167 C921.2,169.596667 920.0275,168.366667 918.886667,167.107917 C918.765,166.972917 918.645,166.839583 918.525,166.70625 C917.46625,165.525417 916.434167,164.317917 915.430833,163.085833 C915.365,163.005 915.299167,162.923333 915.232917,162.841667 C901.33,145.662083 893,123.795833 893,99.9995833 C893,44.8079167 937.80875,0 993.000417,0 C1018.56375,0 1041.89958,9.6125 1059.58708,25.4175 L1059.58542,25.415 L1061.46958,27.14375 Z M979.069167,199.035 L979.203333,199.05375 L979.7575,199.12875 L980.034167,199.165 L980.577917,199.23375 L980.817083,199.26375 L981.517917,199.34625 L981.542083,199.349167 C981.3,199.321667 981.058333,199.293333 980.817083,199.26375 L980.750833,199.255833 L980.577917,199.23375 L980.23125,199.190833 L980.034167,199.165 L979.891667,199.147083 L979.7575,199.12875 L979.577917,199.105 L979.203333,199.05375 L979.035,199.030833 L979.069167,199.035 Z M941.6975,120.9125 L951.9325,104.696667 L976.780417,104.696667 L954.13375,140.615417 L989.46125,196.59 C990.635417,196.632083 991.815417,196.65375 993.000417,196.65375 C1014.3775,196.65375 1034.14292,189.69875 1050.15542,177.93 L1044.65583,120.785417 L1030.41833,156.3275 L1015.39,156.3275 L1011.10708,131.330833 L1005.0975,149.177083 L989.7575,149.177083 L977.7525,104.696667 L981.044583,104.696667 L992.11625,145.72125 L1002.60833,145.72125 L1011.97583,117.90375 L1017.965,152.861667 L1028.03,152.861667 L1046.40458,106.9925 L1052.98208,175.357917 C1062.35792,167.879167 1070.31208,158.691667 1076.3725,148.268333 L1070.455,42.4720833 C1067.4525,38.42 1064.14042,34.61125 1060.55292,31.08125 L1026.95208,113.842083 L1020.9125,78.5941667 L1011.86958,78.5941667 L998.485417,110.035417 L992.228333,86.85 L977.314583,90.875 L978.78375,96.3191667 L896.40625,96.3191667 C896.4,96.4929167 896.395,96.7629167 896.391667,97.1025 L896.389167,97.1025 C896.360833,98.0654167 896.34625,99.0308333 896.34625,99.9995833 C896.34625,122.592083 904.114583,143.384167 917.122917,159.84875 L929.261667,140.615417 L906.611667,104.696667 L931.462917,104.696667 L941.6975,120.9125 Z M941.6975,160.337083 L932.317917,175.21125 C940.872083,182.12375 950.627917,187.6075 961.220417,191.29875 L941.6975,160.337083 Z M928.772083,176.624583 L928.7775,176.629167 L929.346667,177.103333 L929.375417,177.126667 L929.90625,177.562083 L929.97125,177.615 L930.494583,178.037917 L930.514583,178.054167 L930.521667,178.059583 L930.494583,178.037917 L930.1975,177.799167 L929.97125,177.615 L929.936667,177.587083 L929.90625,177.562083 L929.7125,177.404583 L929.375417,177.126667 L929.355417,177.110417 L929.346667,177.103333 C929.147083,176.938333 928.947917,176.7725 928.749167,176.605833 L928.772083,176.624583 Z M1074.27083,47.6908333 L1074.20208,47.8445833 L1079.57375,142.995417 C1086.025,130.0425 1089.65417,115.441667 1089.65417,99.9995833 C1089.65417,80.73125 1084.00333,62.7725 1074.27083,47.6908333 Z M993.000417,3.34583333 C943.474167,3.34583333 902.598333,40.67625 897,88.71 L900.36125,88.6095833 L913.579167,76.3625 L919.72,86.0916667 L963.675417,86.0916667 L969.815833,76.3625 L980.945,86.6766667 L994.659167,82.97625 L999.320417,100.248333 L1009.87917,75.4454167 L1023.83375,75.4454167 L1028.41542,102.1875 L1058.24542,28.715 C1041.04667,12.9629167 1018.13792,3.34583333 993.000417,3.34583333 Z M1059.825,25.6308333 L1059.87625,25.6770833 C1060.24375,26.0075 1060.60833,26.3408333 1060.97,26.6770833 L1061.07875,26.7775 L1061.10583,26.8029167 L1061.2175,26.9066667 L1061.39292,27.07125 L1061.49208,27.1641667 L1061.46958,27.14375 L1061.39292,27.07125 L1061.10583,26.8029167 L1060.97,26.6770833 C1060.60792,26.3408333 1060.24333,26.0075 1059.87625,25.6770833 L1059.58542,25.415 L1059.825,25.6308333 Z" id="Shape-1" fill="#FFFFFF"></path>
    </g>
</svg>