<?xml version="1.0" encoding="UTF-8"?>
<svg width="484px" height="308px" viewBox="0 0 484 308" version="1.1" xmlns="http://www.w3.org/2000/svg" xmlns:xlink="http://www.w3.org/1999/xlink">
    <!-- Generator: Sketch 57.1 (83088) - https://sketch.com -->
    <title>Electricity / Full / Vertical / Mono</title>
    <desc>Created with Sketch.</desc>
    <g id="Electricity-/-Full-/-Vertical-/-Mono" stroke="none" stroke-width="1" fill="none" fill-rule="evenodd">
        <path d="M69.5940279,302.239204 L76.0463585,295.08464 L82.7595152,300.951612 L76.4562761,308 L69.5940279,302.239204 Z M192.655441,300.968128 L197.851769,295.206321 L204.501654,301.018351 L198.257984,308 L191.523961,302.347065 L186.468648,308 L179.671354,302.293472 L186.06277,295.206321 L192.655441,300.968128 Z M253.165393,300.968128 L258.362057,295.206321 L265.011605,301.018351 L258.767936,308 L252.034249,302.347065 L246.978937,308 L240.181306,302.293472 L246.573058,295.206321 L253.165393,300.968128 Z M271.03046,261.330847 C270.873628,257.850303 272.255838,255.868354 274.566924,251.102914 C276.404149,252.593758 280.543374,263.303357 280.651406,269.010559 C280.757756,274.646304 278.597107,283.366539 274.039551,285.536233 C268.993661,287.938166 252.108963,288.301186 251.835685,274.283958 C234.72348,277.535297 232.572254,304.688663 231.491256,303.544661 C230.409922,302.400659 228.920353,280.531814 245.053536,268.464849 C245.495089,266.432341 241.985885,265.54552 240.411842,265.427884 C238.838136,265.309911 235.668175,269.33212 235.707214,267.642745 C235.747264,265.910563 236.941005,256.412716 241.277448,255.270736 C245.613891,254.129093 260.804061,254.106173 260.79834,260.225944 C260.790599,268.679898 254.855882,269.526607 254.4601,272.087298 C254.136002,274.185534 257.168651,275.89547 259.25526,276.272647 C262.79307,276.911724 273.855795,278.532001 275.686962,275.922773 C277.518465,273.313207 271.217245,265.467658 271.03046,261.330847 Z M223.050254,266.859404 C223.849896,264.132877 224.378615,262.329236 225.296723,259.196881 C226.389836,260.057748 229.988225,267.52848 229.608934,272.023593 C229.22594,276.560165 229.721678,286.992022 213.326323,287.217182 C207.642336,287.295381 196.982461,285.265569 196.233638,277.454738 C191.367129,286.444963 181.141067,287.691434 173.875969,286.679224 C173.129165,292.056102 169.191197,299.525485 164.157423,301.862701 C159.123986,304.19958 147.276091,302.815924 143.988337,300.680948 C146.99911,299.338077 165.882914,297.096588 170.419603,288.407362 C171.843545,285.679486 167.758168,283.513163 167.404455,280.4553 C167.014057,277.078572 166.905351,268.655629 168.076881,268.146659 C169.24841,267.637689 170.784423,276.663307 174.240789,277.16149 C181.69772,278.23572 194.831572,276.096025 199.207727,268.070819 C199.116186,276.490729 209.809716,277.371483 213.770905,277.530915 C218.467793,277.720346 230.284726,277.62563 223.050254,266.859404 Z M84.6122213,267.368374 C84.9719929,264.67589 85.4340756,262.465411 85.8537531,258.08153 C88.4108576,260.733228 90.6815584,264.504323 90.7391084,270.265456 C90.8289671,279.233098 87.1137951,283.021384 81.4560583,285.878355 C78.5374994,287.352008 62.4467221,286.596306 53.5695509,286.931687 C52.3623472,292.334856 47.0196209,300.40961 42.0417144,302.634583 C33.6256163,303.291187 27.9116757,302.243923 23.4116698,301.236096 C20.9498088,299.76278 44.0310596,297.874199 49.0671892,288.61668 C50.847537,285.344443 47.2279451,282.215459 46.4898917,280.473838 C46.2563262,276.999025 45.8033303,271.992246 47.2750621,267.752292 C47.924603,271.447547 50.2528537,274.83742 53.8892731,277.527207 C55.5915415,278.786149 65.7223603,278.314593 71.0105655,278.352682 C76.7322468,278.394141 85.0278601,277.35227 86.3383846,273.114338 C86.8432092,271.482602 86.0341437,269.016289 84.6122213,267.368374 Z M478.603876,267.100069 L480.700581,261.809817 C480.700581,261.809817 484.449744,270.208155 483.955016,277.07419 C483.588177,282.112317 480.175563,284.590089 477.866832,284.742443 C474.242192,284.98176 470.87333,281.708174 470.87333,281.708174 C470.87333,281.708174 469.540593,284.62784 464.828897,284.893448 C461.086465,285.104789 457.717602,279.890714 457.717602,279.890714 C454.315085,284.687501 448.677878,285.403092 443.141635,284.607954 C443.141635,284.607954 440.503086,296.259653 433.775457,299.866596 C428.88539,302.487285 417.052303,300.533313 413.78104,298.683495 C416.974897,298.146211 439.516995,292.008576 439.362182,286.420695 C439.271314,283.110369 438.056369,280.96764 436.481317,278.028761 C435.219255,274.941236 436.972679,266.776149 436.972679,266.776149 C436.972679,266.776149 438.816972,275.547618 447.671594,275.905245 C457.552693,276.303994 460.288842,268.747311 460.288842,268.747311 C460.288842,268.747311 459.911906,277.046214 465.73085,276.595894 C470.146382,276.254109 471.075259,267.814986 471.075259,267.814986 C471.075259,267.814986 471.156031,276.968352 477.594227,276.71926 C484.01896,276.470168 478.603876,267.100069 478.603876,267.100069 Z M339.204994,258.506907 C338.821328,261.549602 337.953029,264.54376 338.158325,266.797047 C338.336696,268.767535 341.140155,271.176546 339.299228,273.465898 C336.07239,277.474962 328.040631,278.780082 323.524808,277.395414 C322.351259,266.603234 316.005951,263.61784 312.886135,263.452003 C305.561805,263.063029 306.139324,278.147746 306.282021,281.205946 C306.356062,282.800605 308.033089,284.223024 309.554967,284.696939 C311.929325,285.436125 313.476107,285.82274 320.528506,285.642072 C318.869316,293.801767 301.14358,295.667428 294.313641,295.163177 C297.251046,298.78394 304.976208,301.657091 310.287299,300.650612 C315.781136,299.610089 323.257587,294.443878 324.211033,285.930938 C326.676596,286.966742 333.786544,287.0382 336.94338,284.769408 C340.26176,282.385003 344.236412,279.315005 344.121985,271.624506 C344.024386,265.006215 340.281953,259.393728 339.204994,258.506907 Z M292.55988,261.917004 C293.975408,263.463126 297.264845,271.022507 297.018154,276.539941 C296.485732,288.445788 293.470584,293.058873 288.487293,296.167296 C284.293883,296.944234 269.566806,296.48852 266.557715,295.127785 C274.857367,293.485936 291.775046,287.288303 293.352791,281.636379 C294.590621,277.201938 291.091514,272.318863 289.876233,269.815136 C289.738584,267.395002 291.144689,260.370882 292.55988,261.917004 Z M37.1745328,268.575407 C37.7173874,274.674954 29.5836545,284.480543 17.2898309,283.065539 C1.24684371,281.219091 2.39986295,266.469081 6.48153759,253.470129 C6.54581858,253.26553 5.41400198,252.535445 4.43666168,254.042804 C3.41725266,255.615555 -8.842916,285.691284 12.4209665,293.385827 C20.463831,296.296056 27.8265286,291.491853 31.5544895,288.719485 C38.6159751,283.468333 41.0384598,275.483913 40.5137788,263.363692 C40.2378081,256.988088 34.1704903,248.577953 28.4121251,248.911311 C22.0291236,249.280735 21.9651792,263.746262 23.901013,266.750194 C25.868819,269.80435 31.4185234,269.089096 37.1745328,268.575407 Z M161.052752,276.1931 C156.855641,288.547581 137.01772,288.193325 131.517825,288.945319 C134.208539,292.543162 149.259042,295.240028 154.994858,292.408673 C160.730674,289.576981 164.474117,277.373505 164.392335,270.981384 C164.310553,264.600724 158.049046,256.195645 152.290345,256.529004 C145.907343,256.898428 145.843735,271.363954 147.779569,274.368224 C149.747375,277.422042 155.29708,276.707125 161.052752,276.1931 Z M142.093226,255.031082 C144.324887,250.799218 146.858769,240.068046 140.855396,239.809517 C132.67219,239.456946 121.611485,260.092466 122.457234,266.460655 C122.729503,268.512039 123.366255,270.431967 125.255981,271.268902 C128.978221,272.917492 131.751727,272.515035 135.334635,272.439869 C135.952203,276.640049 121.319359,283.228679 114.97809,282.272423 C86.8125831,278.025054 103.416599,252.787571 104.054024,248.994566 C99.5351711,250.441591 94.031574,263.168531 93.9753702,270.660498 C93.848491,287.661772 105.619653,293.035616 113.571649,292.925732 C123.765403,292.784839 141.078865,284.977715 141.599171,267.684879 C141.853602,259.234633 127.759238,263.89356 127.565385,260.814124 C127.371196,257.734352 134.304456,249.330621 140.066523,248.928838 C142.60781,248.751542 142.093226,255.031082 142.093226,255.031082 Z M440.486258,238.066211 C443.313275,232.180364 452.410214,221.265154 447.213886,222.039058 C442.020925,222.813298 409.574169,239.924456 409.590997,244.202498 C409.611189,248.290772 409.496763,250.004079 409.634748,253.765736 C410.991043,257.46234 426.155972,266.459306 425.32806,270.004567 C423.867434,276.261524 409.392432,275.941985 403.835997,275.440431 C402.203731,275.29347 399.817594,273.269052 401.493611,265.502713 C399.481044,274.830679 387.301311,277.389684 374.862434,277.670797 C342.052205,278.411331 357.213768,256.24216 355.588233,258.406124 C344.364301,273.331409 351.714546,285.655555 363.120215,286.634058 C390.269679,288.963184 396.166029,281.669075 398.299754,279.457584 C398.521877,285.155349 407.689491,285.091306 411.64395,284.656154 C415.211376,284.262798 430.830647,284.958165 428.760867,266.022469 C428.094498,259.940449 416.251315,251.72379 412.603116,247.319348 C413.208906,244.39766 436.612571,232.663716 441.051662,230.991195 C443.34693,230.125272 440.486258,238.066211 440.486258,238.066211 Z M466.144806,257.850977 L470.688227,252.813188 L476.503806,257.894458 L471.04497,263.998724 L465.158716,259.056325 L460.736453,263.998724 L454.792985,259.009473 L460.383076,252.813188 L466.144806,257.850977 Z M377.675989,257.850977 L382.21941,252.813188 L388.034989,257.894458 L382.576153,263.998724 L376.686533,259.056325 L372.267636,263.998724 L366.324168,259.009473 L371.914259,252.813188 L377.675989,257.850977 Z M328.40848,249.415899 L334.161797,254.620199 L328.358671,261.280287 L321.387717,255.0267 L327.031992,248.282683 L321.387717,243.219614 L327.085503,236.411554 L334.161797,242.813112 L328.40848,249.415899 Z M215.382642,252.527693 L221.835309,245.373129 L228.548129,251.240437 L222.24489,258.288488 L215.382642,252.527693 Z M461.53071,248.955804 L466.915505,242.982319 L472.522423,247.8809 L467.258786,253.765736 L461.53071,248.955804 Z M287.071765,247.235419 L293.524095,240.080855 L300.237252,245.947826 L293.934013,252.996214 L287.071765,247.235419 Z M23.2225288,240.452639 L27.7659496,235.414849 L33.5798455,240.49612 L28.120673,246.600386 L22.2334093,241.657987 L17.8135022,246.600386 L11.8703712,241.611135 L17.4587788,235.414849 L23.2225288,240.452639 Z" id="Shape-2" fill="#FFFFFF"></path>
        <path d="M310.469583,27.14375 L310.754583,27.4116667 C311.96875,28.5625 313.152917,29.7420833 314.3075,30.9504167 C314.407917,31.0558333 314.507083,31.1604167 314.60625,31.265 C315.780417,32.5041667 316.923333,33.7741667 318.033333,35.0729167 C318.15,35.2095833 318.265417,35.345 318.380417,35.48125 C320.01125,37.4091667 321.57,39.3991667 323.052917,41.4479167 C323.1525,41.5854167 323.252917,41.7245833 323.352917,41.8641667 C323.77375,42.4520833 324.1875,43.0429167 324.595,43.63875 C324.660833,43.7345833 324.726667,43.8316667 324.792917,43.9283333 C335.6525,59.9254167 342,79.2270833 342,99.9995833 C342,119.500833 336.405833,137.705417 326.73625,153.095417 C326.619167,153.2825 326.50125,153.46875 326.3825,153.655 C325.696667,154.730417 324.99125,155.79125 324.266667,156.837917 C324.10875,157.06625 323.95,157.2925 323.790833,157.51875 C323.615417,157.7675 323.439167,158.015 323.262083,158.261667 C323.082917,158.510833 322.903333,158.758333 322.7225,159.005417 L322.695417,159.0425 C322.37625,159.4775 322.054167,159.91 321.728333,160.339583 C321.5425,160.584167 321.35625,160.8275 321.169167,161.069583 C320.40125,162.063333 319.614583,163.042917 318.81,164.007083 C318.6475,164.201667 318.485417,164.394583 318.3225,164.586667 C317.430833,165.639583 316.5175,166.673333 315.58375,167.687917 C315.485833,167.794167 315.387917,167.900417 315.289583,168.005833 C314.917917,168.40625 314.5425,168.804583 314.16375,169.199167 C314.0575,169.309583 313.950833,169.420417 313.84375,169.530833 C312.94125,170.463333 312.021667,171.3775 311.085,172.273333 C310.9525,172.4 310.819167,172.526667 310.685417,172.652917 L310.492083,172.835417 C310.03625,173.264583 309.57625,173.689167 309.112083,174.109583 C309.0275,174.18625 308.944167,174.26125 308.860833,174.33625 C307.88875,175.211667 306.897917,176.069167 305.89,176.9075 L305.566667,177.175417 C305.41625,177.299167 305.265833,177.422917 305.114583,177.545833 C304.744583,177.847917 304.37125,178.147917 303.995833,178.445 C303.90375,178.5175 303.812917,178.589167 303.722083,178.660417 C303.182083,179.085417 302.635833,179.505833 302.085417,179.920417 C301.9825,179.9975 301.8825,180.0725 301.7825,180.147083 C301.372917,180.45375 300.958333,180.75875 300.54125,181.060833 C300.409167,181.155417 300.277917,181.250417 300.145833,181.344583 C283.756667,193.08625 263.679583,200 242.000417,200 C238.117083,200 234.285417,199.778333 230.517917,199.34625 L228.069167,199.035 L227.925833,199.015417 C227.0975,198.898333 226.272083,198.77125 225.449583,198.634167 C225.419167,198.629167 225.387083,198.62375 225.355,198.618333 C224.60875,198.492917 223.86625,198.359583 223.127083,198.218333 C223.010417,198.195833 222.89375,198.173333 222.777083,198.150417 C222.044583,198.007917 221.315,197.857083 220.588333,197.698333 C220.4275,197.662917 220.2675,197.6275 220.107917,197.591667 C218.594167,197.253333 217.092917,196.880417 215.605833,196.47375 C215.505417,196.44625 215.405417,196.418333 215.305,196.390833 C214.60375,196.197083 213.905417,195.995417 213.210417,195.786667 C213.144583,195.76625 213.079583,195.746667 213.014167,195.727083 C200.669583,191.98875 189.334167,185.928333 179.514583,178.054167 L177.772083,176.624583 L177.203333,176.14375 C175.94375,175.070833 174.712083,173.967917 173.508333,172.835417 L173.407917,172.740417 C173.288333,172.6275 173.16875,172.514167 173.049583,172.400833 C172.573333,171.9475 172.1,171.487917 171.631667,171.023333 C171.5575,170.949583 171.482083,170.874583 171.40625,170.799167 C170.2,169.596667 169.0275,168.366667 167.886667,167.107917 C167.765,166.972917 167.645,166.839583 167.525,166.70625 C166.46625,165.525417 165.434167,164.317917 164.430833,163.085833 C164.365,163.005 164.299167,162.923333 164.232917,162.841667 C150.33,145.662083 142,123.795833 142,99.9995833 C142,44.8079167 186.80875,0 242.000417,0 C267.56375,0 290.899583,9.6125 308.587083,25.4175 L308.585417,25.415 L310.469583,27.14375 Z M228.069167,199.035 L228.203333,199.05375 L228.7575,199.12875 L229.034167,199.165 L229.577917,199.23375 L229.817083,199.26375 L230.517917,199.34625 L230.542083,199.349167 C230.3,199.321667 230.058333,199.293333 229.817083,199.26375 L229.750833,199.255833 L229.577917,199.23375 L229.23125,199.190833 L229.034167,199.165 L228.891667,199.147083 L228.7575,199.12875 L228.577917,199.105 L228.203333,199.05375 L228.035,199.030833 L228.069167,199.035 Z M190.6975,120.9125 L200.9325,104.696667 L225.780417,104.696667 L203.13375,140.615417 L238.46125,196.59 C239.635417,196.632083 240.815417,196.65375 242.000417,196.65375 C263.3775,196.65375 283.142917,189.69875 299.155417,177.93 L293.655833,120.785417 L279.418333,156.3275 L264.39,156.3275 L260.107083,131.330833 L254.0975,149.177083 L238.7575,149.177083 L226.7525,104.696667 L230.044583,104.696667 L241.11625,145.72125 L251.608333,145.72125 L260.975833,117.90375 L266.965,152.861667 L277.03,152.861667 L295.404583,106.9925 L301.982083,175.357917 C311.357917,167.879167 319.312083,158.691667 325.3725,148.268333 L319.455,42.4720833 C316.4525,38.42 313.140417,34.61125 309.552917,31.08125 L275.952083,113.842083 L269.9125,78.5941667 L260.869583,78.5941667 L247.485417,110.035417 L241.228333,86.85 L226.314583,90.875 L227.78375,96.3191667 L145.40625,96.3191667 C145.4,96.4929167 145.395,96.7629167 145.391667,97.1025 L145.389167,97.1025 C145.360833,98.0654167 145.34625,99.0308333 145.34625,99.9995833 C145.34625,122.592083 153.114583,143.384167 166.122917,159.84875 L178.261667,140.615417 L155.611667,104.696667 L180.462917,104.696667 L190.6975,120.9125 Z M190.6975,160.337083 L181.317917,175.21125 C189.872083,182.12375 199.627917,187.6075 210.220417,191.29875 L190.6975,160.337083 Z M177.772083,176.624583 L177.7775,176.629167 L178.346667,177.103333 L178.375417,177.126667 L178.90625,177.562083 L178.97125,177.615 L179.494583,178.037917 L179.514583,178.054167 L179.521667,178.059583 L179.494583,178.037917 L179.1975,177.799167 L178.97125,177.615 L178.936667,177.587083 L178.90625,177.562083 L178.7125,177.404583 L178.375417,177.126667 L178.355417,177.110417 L178.346667,177.103333 C178.147083,176.938333 177.947917,176.7725 177.749167,176.605833 L177.772083,176.624583 Z M323.270833,47.6908333 L323.202083,47.8445833 L328.57375,142.995417 C335.025,130.0425 338.654167,115.441667 338.654167,99.9995833 C338.654167,80.73125 333.003333,62.7725 323.270833,47.6908333 Z M242.000417,3.34583333 C192.474167,3.34583333 151.598333,40.67625 146,88.71 L149.36125,88.6095833 L162.579167,76.3625 L168.72,86.0916667 L212.675417,86.0916667 L218.815833,76.3625 L229.945,86.6766667 L243.659167,82.97625 L248.320417,100.248333 L258.879167,75.4454167 L272.83375,75.4454167 L277.415417,102.1875 L307.245417,28.715 C290.046667,12.9629167 267.137917,3.34583333 242.000417,3.34583333 Z M308.825,25.6308333 L308.87625,25.6770833 C309.24375,26.0075 309.608333,26.3408333 309.97,26.6770833 L310.07875,26.7775 L310.105833,26.8029167 L310.2175,26.9066667 L310.392917,27.07125 L310.492083,27.1641667 L310.469583,27.14375 L310.392917,27.07125 L310.105833,26.8029167 L309.97,26.6770833 C309.607917,26.3408333 309.243333,26.0075 308.87625,25.6770833 L308.585417,25.415 L308.825,25.6308333 Z" id="Shape-1" fill="#FFFFFF"></path>
    </g>
</svg>