<?xml version="1.0" encoding="UTF-8"?>
<svg width="48px" height="48px" viewBox="0 0 48 48" version="1.1" xmlns="http://www.w3.org/2000/svg" xmlns:xlink="http://www.w3.org/1999/xlink">
    <!-- Generator: Sketch 57.1 (83088) - https://sketch.com -->
    <title>Icon/Color/Electricity</title>
    <desc>Created with Sketch.</desc>
    <g id="Ready-For-Export" stroke="none" stroke-width="1" fill="none" fill-rule="evenodd">
        <g id="Artboard" transform="translate(-288.000000, -80.000000)">
            <g id="Service_(Color)" transform="translate(80.000000, 80.000000)">
                <g id="Electricity-/-[Icon]-/-Color" transform="translate(208.000000, 0.000000)">
                    <path d="M24.0000782,0 C37.2460727,0 48,10.7539273 48,23.9999218 C48,37.2459164 37.2460727,48 24.0000782,48 C10.7540836,48 3.55271368e-15,37.2459164 3.55271368e-15,23.9999218 C3.55271368e-15,10.7539273 10.7540836,0 24.0000782,0 Z" id="Shape-1" fill="#FFF400"></path>
                    <path d="M24.0000782,0 C30.1352941,0 35.7358837,2.30705347 39.9809028,6.10021612 L39.9804611,6.0996483 L40.0380186,6.15141549 C40.1727646,6.27258988 40.3061331,6.39526652 40.4380978,6.51941893 L39.9804611,6.0996483 C40.1563379,6.25682969 40.3298892,6.41656016 40.5010568,6.57878161 C40.7924826,6.85502059 41.0767201,7.13811645 41.3537694,7.42813642 C41.3778632,7.45338987 41.4017295,7.47848405 41.4255421,7.50362964 C41.7072463,7.80103645 41.9815558,8.10582869 42.2480265,8.41751894 C42.2759469,8.45025639 42.3036597,8.48284738 42.331287,8.51551306 C42.7226606,8.97818984 43.0967825,9.45585498 43.4527314,9.9475212 C43.4766206,9.98048523 43.5006792,10.0138904 43.524654,10.0473597 C43.625706,10.1885018 43.7249851,10.3303272 43.8227592,10.4732619 C43.838606,10.4963004 43.8544538,10.5195502 43.8702618,10.5428292 C46.4766385,14.3820814 48,19.0144931 48,23.9999218 C48,28.6801732 46.6574319,33.0493234 44.3367405,36.7429138 C44.3086137,36.787745 44.2802654,36.8325301 44.2517734,36.8772147 C44.0872029,37.1352812 43.9179317,37.3899116 43.7439938,37.6410692 C43.7060505,37.6958502 43.668044,37.7502436 43.6298188,37.8044718 C43.5877018,37.8642341 43.5454231,37.9236399 43.5028817,37.9828443 C43.4599174,38.0426152 43.4167981,38.1020456 43.373414,38.1612701 L43.3668739,38.170219 C43.2903339,38.2746081 43.2129707,38.3783566 43.134794,38.4814549 C43.0902055,38.5402216 43.0455332,38.5985764 43.0006002,38.6567195 C42.8163373,38.8952002 42.62753,39.1302774 42.4344517,39.3616692 C42.3954399,39.4083793 42.3565121,39.4546756 42.3174132,39.5008224 C42.1034011,39.7534538 41.8842359,40.0015956 41.6601048,40.245097 C41.6365659,40.2706316 41.6130571,40.2960621 41.5894942,40.3214416 C41.5003068,40.417544 41.4101731,40.5130548 41.3192702,40.6078221 C41.2938028,40.6343357 41.2681979,40.6609075 41.2425324,40.6874202 C41.025934,40.9112001 40.805225,41.1305552 40.5803476,41.3455862 C40.5485537,41.3759513 40.5165706,41.4063669 40.484504,41.4366952 L40.4380978,41.4805076 C40.3286717,41.5834567 40.2182802,41.6853911 40.1069385,41.7862957 C40.0866008,41.8046846 40.0666183,41.8227321 40.0466053,41.8407465 C39.813324,42.0507875 39.5754773,42.2566401 39.33362,42.4578332 L39.2559838,42.5220818 C39.2199222,42.5518253 39.1837723,42.5814656 39.1475347,42.6110022 C39.0586944,42.6834833 38.9691086,42.7554498 38.8789995,42.8267837 C38.8568955,42.8442063 38.8351053,42.8613938 38.8132846,42.8785442 C38.683649,42.9805199 38.5526216,43.0813528 38.4205353,43.1808539 C38.3957574,43.1994213 38.3717897,43.2174035 38.3477873,43.2353419 C38.2495059,43.3089022 38.1499828,43.3821071 38.0498796,43.4545588 C38.0182342,43.4773453 37.9866565,43.5000818 37.9550215,43.5227433 C34.0216258,46.3407326 29.2031048,48 24.0000782,48 C22.8627257,48 21.7437452,47.9207144 20.6483668,47.7673735 L21.2500977,47.8438453 C21.0399619,47.8198294 20.8306476,47.7930954 20.622191,47.7636791 C20.4234001,47.7356433 20.2252579,47.705131 20.0279273,47.6722074 C20.020606,47.6709701 20.0129116,47.6696825 20.0052184,47.6683913 C19.8260527,47.6383341 19.6479348,47.6063451 19.4705078,47.5723999 C19.442493,47.5670212 19.4144677,47.561607 19.3864598,47.5561441 C19.2106672,47.5218766 19.0355737,47.4856716 18.8611866,47.4475682 C18.8226301,47.4391168 18.784231,47.430626 18.7458665,47.4220433 C18.3826047,47.3408123 18.0223524,47.2512839 17.6654066,47.1537135 C17.6412934,47.1470584 17.6172564,47.1404461 17.5932346,47.1337973 C17.4249334,47.0872897 17.2573221,47.0389118 17.0904731,46.9887653 C17.0746839,46.9839232 17.0590658,46.9792104 17.0434545,46.9744822 C13.9015166,46.0230304 11.0320387,44.4447801 8.57984679,42.3854297 L9.00519734,42.7343494 C8.8174148,42.5838146 8.63194026,42.4305167 8.44883587,42.2745178 C8.14649174,42.0170102 7.85087442,41.752295 7.56198506,41.4805076 L7.53788689,41.4577241 C7.50915662,41.4306206 7.48049316,41.403447 7.45189679,41.3762037 C7.33762786,41.2674256 7.22404922,41.1570763 7.11156636,41.0456228 C7.0938033,41.0279439 7.07565712,41.0099074 7.05753963,40.9918422 C6.76800696,40.7031965 6.48661171,40.4080248 6.21280071,40.1058557 C6.18358189,40.0735175 6.15476089,40.0415381 6.12602483,40.0094812 C5.87193659,39.7261416 5.62421197,39.4363046 5.38338467,39.140631 C5.36763283,39.1211576 5.35175756,39.1016036 5.33591247,39.0820242 C1.99915328,34.958913 0,29.711037 0,23.9999218 C0,10.7539273 10.7540836,0 24.0000782,0 Z M20.2706868,24.867966 L14.6720985,33.747714 L23.1506611,47.1815787 C23.4325536,47.1917463 23.7157218,47.1968738 24.0000782,47.1968738 C29.1305729,47.1968738 33.8742761,45.5276941 37.7172932,42.7032316 L36.3973818,28.9885111 L32.980383,37.5185619 L29.3736225,37.5185619 L28.345721,31.5193826 L26.9034388,35.802501 L23.2218445,35.802501 L20.2706868,24.867966 Z M11.687417,38.4808519 L9.43628297,42.0506555 C11.489326,43.7096658 13.8306506,45.0258259 16.372853,45.911732 L11.687417,38.4808519 Z M0.803126221,23.9999218 C0.803126221,29.4220575 2.66745577,34.4121802 5.7895108,38.3636859 L8.70277452,33.747714 L2.11746776,23.3045721 L0.813370427,23.3045721 C0.806556918,23.5355284 0.803126221,23.7673276 0.803126221,23.9999218 Z M43.5049582,11.4457847 L43.4884721,11.4826886 L44.7777219,34.3189336 C46.325975,31.210226 47.1969519,27.7059882 47.1969519,23.9999218 C47.1969519,19.3755224 45.840846,15.0653687 43.5049582,11.4457847 Z M8.08186792,23.3064088 L11.687417,29.0189527 L15.2917155,23.3084799 L8.08186792,23.3064088 Z M24.0000782,0.803048066 C12.1138033,0.803048066 2.30362483,9.76230175 0.959993447,21.2903896 L1.76666667,21.266354 L4.93903869,18.3270418 L6.41277843,20.6619773 L16.9620946,20.6619773 L18.4358343,18.3270418 L21.1068288,20.8024131 L24.3982415,19.9143415 L25.5169207,24.0595936 L28.0509574,18.1068777 L31.4000782,18.1068777 L32.4997265,24.5249707 L39.6589217,6.89163976 C35.5312045,3.11110799 30.0330607,0.803048066 24.0000782,0.803048066 Z" id="Shape-2" fill="#000000"></path>
                    <path d="M40.2126829,7.4595122 C41.0736923,8.30666705 41.8685731,9.22082831 42.5892176,10.1933054 L44.0093659,35.5844293 C42.5549268,38.0859707 40.6458537,40.2910049 38.3957073,42.0858537 L36.8170927,25.6782439 L32.4072195,36.6868293 L29.9916098,36.6868293 L28.5541463,28.2968976 L26.3059512,34.9731122 L23.7879024,34.9731122 L21.1306927,25.1271805 L0.830673171,25.1271805 C0.811629268,24.7428293 0.807141463,23.3988293 0.817482927,23.1166439 L20.5880976,23.1166439 L20.2354732,21.8099902 L23.8147512,20.8440195 L25.3164488,26.4084683 L28.5286634,18.8626341 L30.6990439,18.8626341 L32.1484488,27.3221073 L40.2126829,7.4595122 Z" id="Shape-3" fill="#DC1B1C"></path>
                </g>
            </g>
        </g>
    </g>
</svg>