<?xml version="1.0" encoding="UTF-8"?>
<svg width="48px" height="48px" viewBox="0 0 48 48" version="1.1" xmlns="http://www.w3.org/2000/svg" xmlns:xlink="http://www.w3.org/1999/xlink">
    <!-- Generator: Sketch 57.1 (83088) - https://sketch.com -->
    <title>Icon/Color/Gas</title>
    <desc>Created with Sketch.</desc>
    <g id="Ready-For-Export" stroke="none" stroke-width="1" fill="none" fill-rule="evenodd">
        <g id="Artboard" transform="translate(-184.000000, -80.000000)">
            <g id="Service_(Color)" transform="translate(80.000000, 80.000000)">
                <g id="Gas-/-[Icon]-/-Color" transform="translate(104.000000, 0.000000)">
                    <path d="M24.8964945,33.295817 C25.761323,28.6828905 29.3674629,25.8851097 33.5762701,25.8851097 C38.0117652,25.8851097 41.9413385,29.2691735 41.9477881,34.1512631 C36.2686395,36.5892751 40.6373613,44.05935 44.4440109,40.2523588 C44.4914351,40.2049709 40.5988528,41.4316348 40.3913243,37.7967186 C40.2524661,35.3649617 43.5385871,34.1379945 45.1817425,34.9985586 C46.824898,35.8593122 47.9090162,37.3162054 47.9090162,39.2972085 C47.9090162,42.5918988 45.4404893,44.4450685 42.597121,44.4450685 C41.4557141,44.4450685 39.1315466,44.569168 37.5494736,40.8282165 C35.7828255,42.1536366 32.3458954,41.5289317 31.8980208,42.3341845 C31.8980208,42.3341845 31.1286098,42.6877551 31.6396535,44.1369525 C30.7939842,44.016265 28.9205368,41.8490842 30.9614867,40.226959 C30.0251423,38.3286002 30.5483267,35.062627 34.6435054,34.9993168 C33.2600452,35.8219705 33.1809416,38.3723866 35.4009655,38.2740093 C36.8077584,38.2118364 38.4493962,35.9127657 38.5059259,33.909585 C38.5689052,31.6688961 36.3418626,29.2813049 33.6845871,29.1527888 C31.9966632,29.0710922 30.3808242,29.712345 29.4038847,31.1984291 C28.8429508,32.0516006 28.4937185,33.2078652 28.4612803,34.6410643 C28.0587434,34.9170514 27.8352803,35.3031679 27.6715718,35.6980038 C28.5805997,36.6264272 29.141344,37.8969912 29.141344,39.2972085 C29.141344,42.1383019 26.8329214,44.4449737 23.9895531,44.4449737 C21.1461847,44.4449737 18.8377622,42.1383019 18.8377622,39.2972085 C18.8377622,37.8969912 19.3985065,36.6264272 20.3075344,35.6980038 C20.1438258,35.3031679 19.9203628,34.9170514 19.5178258,34.6410643 C19.4853876,33.2078652 19.1361554,32.0516006 18.5752214,31.1984291 C17.5982819,29.712345 15.982443,29.0710922 14.2945191,29.1527888 C11.6372435,29.2813049 9.41020092,31.6688961 9.47318025,33.909585 C9.52970994,35.9127657 11.1713478,38.2118364 12.5781407,38.2740093 C14.7981645,38.3723866 14.7190609,35.8219705 13.3356007,34.9993168 C17.4307794,35.062627 17.9539638,38.3286002 17.0176194,40.226959 C19.0585694,41.8490842 17.1851219,44.016265 16.3394526,44.1369525 C16.8504964,42.6877551 16.0810853,42.3341845 16.0810853,42.3341845 C15.6332108,41.5289317 12.1962806,42.1536366 10.4296325,40.8282165 C8.84755955,44.569168 6.52339201,44.4450685 5.38198517,44.4450685 C2.53861684,44.4450685 0.0700899866,42.5918988 0.0700899866,39.2972085 C0.0700899866,37.3162054 1.15420818,35.8593122 2.79736361,34.9985586 C4.44051904,34.1379945 7.72664007,35.3649617 7.5877818,37.7967186 C7.38025334,41.4316348 3.48767104,40.2049709 3.53509524,40.2523588 C7.34174482,44.05935 11.7104666,36.5892751 6.03131804,34.1512631 C6.03776769,29.2691735 9.96715127,25.8851097 14.402836,25.8851097 C18.6116432,25.8851097 22.2177831,28.6828905 23.0826117,33.295817 C23.1347785,33.5738891 23.1689239,34.1215036 23.984621,34.1493677 L23.9895531,34.1493677 C24.8101823,34.1215036 24.8443277,33.5738891 24.8964945,33.295817 Z M23.9895531,37.3406576 C25.0702568,37.3406576 25.9476055,38.2173334 25.9476055,39.2972085 C25.9476055,40.3768943 25.0702568,41.253646 23.9895531,41.253646 C22.9088494,41.253646 22.0315007,40.3768943 22.0315007,39.2972085 C22.0315007,38.2173334 22.9088494,37.3406576 23.9895531,37.3406576 L23.9895531,37.3406576 L23.9895531,37.3406576 Z M23.9804476,32.0540649 C23.2042076,28.9465567 21.30572,27.4369682 19.5248446,25.6028675 C19.2220883,25.288591 19.1365349,24.8240002 19.3072622,24.4227196 C19.4781792,24.0212493 19.8725593,23.760616 20.3092416,23.760616 C21.3717345,23.7602368 22.6800747,23.7598578 23.9895531,23.7598578 L24.9676308,23.7598578 C25.9379309,23.7600473 26.8729473,23.7602368 27.6698645,23.760616 C28.1065469,23.760616 28.500927,24.0212493 28.6718439,24.4227196 C28.8425713,24.8240002 28.7570179,25.288591 28.4542615,25.6028675 C26.6663673,27.4441711 24.7601022,28.9584985 23.9895531,32.0906483 L23.9804476,32.0540649 L23.9804476,32.0540649 Z M31.2219408,21.6249386 C31.2219408,21.3121785 31.0974995,21.0121185 30.876123,20.7911014 C30.6547466,20.5698948 30.354646,20.4455489 30.0416459,20.4455489 L17.9374601,20.4455489 C17.6244601,20.4455489 17.3243595,20.5698948 17.102983,20.7911014 C16.8816066,21.0121185 16.7571654,21.3121785 16.7571654,21.6249386 L16.7571654,21.672137 C16.7571654,21.9848971 16.8816066,22.2849571 17.102983,22.5059742 C17.3243595,22.7271808 17.6244601,22.8515267 17.9374601,22.8515267 L30.0416459,22.8515267 C30.354646,22.8515267 30.6547466,22.7271808 30.876123,22.5059742 C31.0974995,22.2849571 31.2219408,21.9848971 31.2219408,21.672137 L31.2219408,21.6249386 L31.2219408,21.6249386 L31.2219408,21.6249386 Z" id="Shape-2" fill="#001A64"></path>
                    <path d="M22.5305812,6.19811323 C22.3767254,6.85361525 21.5778143,10.1514499 23.6457516,11.9623907 C22.2374952,7.46353047 24.3903381,4.07794099 25.437318,3.53887554 C25.4566924,7.5856655 32.26738,10.8238571 32.2755476,15.1827276 C32.2789667,16.9948082 30.935102,19.8859693 28.8329746,19.8948968 L23.8520324,19.8948968 L18.1853868,19.8948968 C16.4775864,19.8876789 15.429467,18.1310624 15.3124603,16.3225909 C15.1270736,13.4551728 17.8545017,11.0935799 18.4127517,10.7993543 C18.1665822,12.4678359 19.0293149,13.8394326 19.6209953,14.096429 C18.1014309,9.80327968 20.7684564,7.02684564 22.5305812,6.19811323 L22.5305812,6.19811323 L22.5305812,6.19811323 Z" id="Shape-1" fill="#E00000"></path>
                </g>
            </g>
        </g>
    </g>
</svg>