<?xml version="1.0" encoding="UTF-8"?>
<svg width="334px" height="286px" viewBox="0 0 334 286" version="1.1" xmlns="http://www.w3.org/2000/svg" xmlns:xlink="http://www.w3.org/1999/xlink">
    <!-- Generator: Sketch 57.1 (83088) - https://sketch.com -->
    <title>Telecom / Full / Vertical / Color</title>
    <desc>Created with Sketch.</desc>
    <g id="Telecom-/-Full-/-Vertical-/-Color" stroke="none" stroke-width="1" fill="none" fill-rule="evenodd">
        <path d="M66.4796142,279.14125 C67.704801,277.529492 69.6307133,274.996278 70.2914545,274.126448 C70.4235694,273.952415 70.6609764,273.99788 70.8897202,274.015367 C72.0087818,274.100635 73.6941217,275.62063 74.2127519,276.441664 C74.9992772,277.689203 75.0732482,279.083461 74.5779422,280.23191 C73.9933379,281.5857 72.4314496,283.464585 71.4971489,284.199352 C71.157282,284.468645 70.6466487,284.483467 70.2891221,284.234492 C69.4169637,283.636453 67.3822607,281.911282 66.3566624,281.199997 C66.2996847,281.371032 66.2333773,281.541401 66.1600727,281.711436 C65.5754684,283.065393 63.8323178,285.052861 62.8981837,285.787629 C62.5581502,286.056921 62.0493495,286.071743 61.6899903,285.822768 C60.6412344,285.103822 58.5262295,283.637952 57.6425756,283.024258 C57.4133321,282.86638 57.3628518,282.580267 57.524122,282.368097 C58.4389304,281.164691 60.9279554,276.539255 61.7611291,275.4426 C61.893244,275.268568 62.1593065,275.219106 62.3593947,275.331353 C63.1829055,275.788001 65.5211563,277.327148 66.0396199,278.148016 C66.2518701,278.48459 66.3943143,278.815168 66.4796142,279.14125 Z M163.251543,281.624503 C163.022299,281.466625 162.755737,280.828783 163.008805,280.012412 C163.594409,278.123868 165.547644,275.063393 166.380817,273.966738 C166.512932,273.792705 166.879955,273.686454 167.101702,273.745075 C170.147009,274.551953 170.710122,276.253809 171.226586,277.074676 C172.012945,278.322381 171.416512,279.529784 170.920039,280.678566 C170.335268,282.032356 169.405633,283.423783 168.470999,284.158384 C168.131132,284.427677 167.622997,284.442498 167.262972,284.19369 C166.214216,283.474578 164.135197,282.238031 163.251543,281.624503 Z M40.53461,236.375206 C40.1982417,234.098627 36.9155275,241.708929 36.2664484,245.174758 C35.5960443,248.754833 37.3636853,253.134458 36.5120189,256.975664 C34.8721612,264.372131 25.748235,272.993488 15.4482693,272.294027 C-1.41329283,271.149076 4.31346406,258.630056 8.05716436,249.299913 C6.37415691,249.568039 1.06890159,261.062682 1.00076161,269.106316 C0.923291956,278.238446 6.76900225,281.930101 12.5297458,282.119289 C23.8506449,282.491335 34.2963867,270.973211 38.201024,258.891854 C40.6047491,251.454586 40.8708116,238.651951 40.53461,236.375206 Z M326.38248,228.356052 C326.477442,228.225652 326.840634,227.856437 327.000571,227.920221 C327.348768,228.059281 326.857294,229.38376 326.665702,230.170654 C325.781049,233.80069 323.140416,237.092986 321.256154,237.539808 C320.186573,237.793779 319.12199,237.88754 317.899136,238.27724 C314.85033,239.247825 310.981845,246.706078 307.816418,248.714197 C307.020064,249.219142 304.64766,248.883567 303.068278,248.780646 C297.580428,248.422755 296.447538,249.582861 293.968509,251.179797 C286.74967,255.830547 281.27848,265.261113 276.15382,269.17926 C269.558071,274.222208 264.659989,276.435169 264.57169,276.470142 C263.375492,276.944277 263.32218,275.966863 263.896955,275.595649 C266.689194,273.790873 271.392352,270.467601 276.013875,266.144932 C284.40892,258.291983 288.004179,249.564542 294.923135,244.454646 C299.153145,241.331053 302.301912,239.967438 305.513987,239.76043 C308.013008,239.599388 310.613656,240.365298 312.149721,239.67383 C314.303877,238.704078 315.081906,236.301429 317.450978,234.203213 C320.421481,231.571741 321.506056,232.342646 323.921777,232.15196 C324.428245,232.112157 325.816035,229.107806 326.38248,228.356052 Z M170.846735,244.938773 C171.203262,245.182086 170.990012,249.173177 170.191991,251.248744 C167.751281,257.593188 162.829875,257.488269 159.410048,262.263423 C156.260781,266.660701 156.875874,268.719614 153.629645,271.363411 C150.38325,274.007373 141.917233,275.466415 142.133148,274.349443 C142.349064,273.232304 151.59161,268.138063 154.663574,264.743678 C157.108782,262.041927 156.464535,259.552679 160.707539,255.029164 C162.660941,252.946769 166.388148,251.446592 168.051163,249.789369 C169.448949,248.398108 170.490208,244.695627 170.846735,244.938773 Z M72.5430726,242.25684 C72.8999328,242.499986 72.6870162,246.491244 71.8888288,248.566644 C69.448618,254.911255 64.5265459,254.806169 61.1065521,259.58149 C57.9574523,263.978768 58.5725447,266.037515 55.3261496,268.681477 C52.0799211,271.32544 43.6139038,272.784482 43.8298193,271.667343 C44.0455681,270.55037 53.2881145,265.456129 56.3602445,262.061745 C58.8054535,259.359827 58.1612058,256.870579 62.4042105,252.347231 C64.3576121,250.264836 68.0846522,248.764658 69.7483339,247.107435 C71.1449535,245.716174 72.186379,242.013527 72.5430726,242.25684 Z M200.958274,240.111993 C201.513056,239.572908 199.640457,239.935296 199.62213,238.340191 C199.607136,237.009051 202.697592,230.82365 204.78844,230.113864 C206.879288,229.404078 211.247577,231.59006 211.799027,233.648973 C212.257181,235.350828 210.039717,238.537206 208.103808,239.948619 C207.074211,240.700373 205.284912,241.193826 202.605962,242.377247 C200.465134,243.322685 198.402608,244.850008 196.383399,245.876384 C193.619482,247.280469 191.725224,249.004807 191.456995,249.566374 C191.068814,250.381079 195.978558,250.268666 199.415545,249.618834 C201.826267,249.163351 203.090772,248.286693 203.517271,248.513352 C204.54187,249.057433 202.864194,252.823697 200.075286,255.904823 C196.043532,263.106273 189.171224,271.634035 181.954051,269.310326 C177.19758,267.779006 174.195423,262.038263 178.618691,236.905797 C178.896915,235.331843 182.572142,225.726245 182.723749,226.543449 C183.440135,230.389985 175.281664,255.886504 184.488058,259.113517 C191.130456,261.44139 198.099393,255.778753 198.5942,253.990132 C196.789906,254.369006 187.490216,255.66201 187.56352,253.30033 C187.79343,245.917686 198.984047,242.031514 200.958274,240.111993 Z M286.629717,221.489177 C287.197828,218.329112 283.034459,226.075809 282.261428,230.210956 C281.486732,234.346602 281.636673,242.788763 279.817385,245.018046 C278.26466,246.91958 275.732319,244.236981 273.778084,244.725105 C271.304053,245.342462 268.631767,250.062325 265.421358,252.187687 C260.136761,255.685991 248.852847,258.627558 235.424774,259.413286 C226.94976,259.909404 215.735819,260.0438 211.485817,257.623498 C207.702299,255.469159 209.46161,250.113452 208.471997,251.166474 C207.482385,252.220329 204.858413,261.913359 207.703965,265.536734 C212.668687,271.85703 237.310701,268.862504 251.110296,264.759499 C258.060907,262.692925 262.264261,260.286446 264.230157,258.373587 C266.767497,255.905822 269.747996,250.837894 270.775927,250.057495 C272.425281,248.805127 275.292491,251.30187 276.781908,250.847553 C283.024463,248.944187 284.182342,239.539601 285.231931,230.276239 C285.645103,226.635544 286.271524,223.47065 286.629717,221.489177 Z M144.366274,245.680368 C144.420752,245.653722 144.48506,245.656387 144.537207,245.68753 C144.589186,245.718672 144.622007,245.77413 144.624172,245.834583 C144.558365,247.89283 142.756571,253.401918 139.341742,257.18467 C128.42735,269.274687 87.7940989,271.685995 82.1729673,266.308806 C78.6841672,262.971377 80.7285331,253.374606 82.3468992,250.987779 C82.4093747,250.937317 82.4963406,250.92999 82.5664798,250.96896 C82.636619,251.008096 82.675937,251.085703 82.6661075,251.165308 C81.5896958,261.992798 102.516832,259.893416 112.56373,258.716656 C143.567087,255.085121 141.949887,247.227343 144.366274,245.680368 Z M17.4171648,256.981993 C17.1879213,256.823948 16.921359,256.186273 17.1744266,255.369902 C17.7600305,253.481357 19.4265444,250.327954 20.2598847,249.231299 C20.391833,249.057266 21.025918,248.771986 21.2503301,248.819283 C24.8535854,249.580363 25.4130329,251.643607 25.9296639,252.464474 C26.7161891,253.712346 26.0989309,255.07313 25.6037915,256.221745 C25.0191872,257.575535 23.7136985,259.087037 22.7795644,259.821804 C22.4395309,260.09093 21.9307302,260.105919 21.571371,259.857111 C20.5226151,259.137832 18.3008187,257.59552 17.4171648,256.981993 Z M150.013728,256.325832 C149.929095,256.22058 150.989346,251.490225 151.607271,245.413907 C152.162553,239.953781 152.239523,233.260772 152.856615,230.327033 C153.693453,226.348266 157.865319,218.027844 157.623248,219.364148 C156.763584,224.108492 155.865269,240.066028 154.561447,246.264585 C153.819238,249.7927 150.691296,257.168183 150.013728,256.325832 Z M48.1497938,255.371234 C48.0651603,255.265982 49.1254117,250.535794 49.7433363,244.459476 C50.2986188,238.999184 50.3755887,232.306175 50.9926803,229.372435 C51.8295192,225.393835 56.0013851,217.073246 55.7593133,218.409717 C54.89965,223.153894 54.0011686,239.111597 52.6973459,245.310154 C51.9553033,248.838102 48.8273618,256.213585 48.1497938,255.371234 Z M109.964415,241.022791 C111.189602,239.411033 113.115514,236.877818 113.776255,236.007989 C113.90837,235.833956 114.145777,235.879421 114.374521,235.896741 C115.493583,235.982009 117.178923,237.502171 117.697553,238.323038 C118.484078,239.570743 118.558049,240.964836 118.062743,242.11345 C117.478305,243.467241 115.91625,245.346126 114.982116,246.080893 C114.642249,246.350186 114.13145,246.365008 113.774089,246.116033 C112.901764,245.517994 110.867061,243.792823 109.841463,243.081538 C109.784486,243.252573 109.718345,243.422941 109.64504,243.592977 C109.060436,244.946934 107.317119,246.934402 106.382985,247.669169 C106.043118,247.938295 105.53415,247.953284 105.174958,247.704142 C104.126202,246.985196 102.01103,245.519326 101.127376,244.905799 C100.898299,244.74792 100.847653,244.461807 101.008923,244.249638 C101.923731,243.046232 104.412756,238.420796 105.246096,237.324141 C105.378045,237.149942 105.644107,237.100647 105.844196,237.212893 C106.667706,237.669542 109.005957,239.208522 109.524587,240.029556 C109.736671,240.36613 109.879115,240.696709 109.964415,241.022791 Z M81.8459287,247.434683 C81.7612952,247.329431 82.8215466,242.599076 83.4394712,236.522759 C83.9947537,231.062466 84.0717236,224.369624 84.6888152,221.435885 C85.5256541,217.457117 89.69752,209.136696 89.4554482,210.472999 C88.5957849,215.217343 87.6973035,231.17488 86.3934808,237.373436 C85.6514382,240.901551 82.5234967,248.277034 81.8459287,247.434683 Z M239.268268,239.333759 C240.492788,237.721835 242.418701,235.188787 243.080108,234.318957 C243.211723,234.144924 243.478286,234.095629 243.678207,234.207709 C244.501218,234.664357 246.482109,235.813139 247.00024,236.634006 C247.786598,237.881711 247.616665,239.048979 247.121859,240.197427 C246.537088,241.551217 244.974366,243.430269 244.039732,244.16487 C243.699866,244.434162 243.190065,244.448984 242.831872,244.200009 C241.960547,243.602137 240.169582,242.103791 239.144983,241.392506 C239.088339,241.563541 239.021698,241.73391 238.948393,241.903945 C238.363622,243.257902 236.620972,244.752917 235.688004,245.487517 C235.348137,245.75681 234.838337,245.771631 234.478478,245.522657 C233.430555,244.803711 231.314717,243.33784 230.431729,242.724313 C230.201819,242.566268 230.151839,242.280322 230.313442,242.068152 C231.228084,240.86458 233.715443,236.731764 234.550116,235.635109 C234.681731,235.46091 234.946627,235.411615 235.148215,235.523862 C235.971226,235.98051 238.308644,237.519491 238.82844,238.340525 C239.040024,238.677099 239.181635,239.007677 239.268268,239.333759 Z M188.103309,224.870238 C187.873399,224.712193 187.606837,224.074518 187.860071,223.25798 C188.446508,221.369602 190.399076,218.309127 191.232083,217.212306 C191.363698,217.038273 191.606937,217.05143 191.830182,217.101058 C195.253841,217.862138 195.500411,219.689897 196.016876,220.510764 C196.803235,221.758469 196.266778,222.775519 195.771972,223.9243 C195.187201,225.277924 193.881046,226.789426 192.948078,227.524193 C192.608211,227.793485 192.098411,227.808307 191.740218,227.559499 C190.690629,226.84022 188.986296,225.483765 188.103309,224.870238 Z M321.466072,217.359859 C322.690592,215.747934 324.616505,213.214886 325.277912,212.345057 C325.409527,212.171024 325.67609,212.121729 325.876011,212.233809 C326.699022,212.690457 328.679913,213.839239 329.198044,214.660106 C329.984402,215.907811 329.814469,217.075078 329.319663,218.223693 C328.734892,219.577317 327.17217,221.456369 326.237536,222.190969 C325.89767,222.460262 325.387869,222.475084 325.029676,222.226109 C324.158351,221.628236 322.367386,220.129891 321.342787,219.418606 C321.284477,219.589641 321.219502,219.760009 321.146197,219.930045 C320.561426,221.284002 318.818776,222.779016 317.884142,223.513617 C317.544275,223.782909 317.036141,223.797731 316.676281,223.548756 C315.628359,222.82981 313.512521,221.36394 312.629533,220.750413 C312.399623,220.592368 312.349643,220.306422 312.511246,220.094252 C313.425888,218.890679 315.913247,214.757864 316.746254,213.661209 C316.879535,213.48701 317.144431,213.437715 317.344353,213.549961 C318.16903,214.00661 320.506448,215.54559 321.024578,216.366624 C321.237828,216.703198 321.379439,217.033777 321.466072,217.359859 Z M288.132462,219.229085 C287.969192,219.328508 287.750945,219.320681 287.597671,219.210266 C287.444398,219.099851 287.396084,218.913662 287.476052,218.75495 C288.472329,216.835596 289.811804,214.882102 291.16794,213.796438 C298.756634,207.718289 328.170113,187.728193 333.594655,182.083709 C333.651299,182.011598 333.756258,181.981954 333.851221,182.011099 C333.946184,182.040243 334.00616,182.121014 333.999496,182.208446 C333.612981,183.927289 331.745379,186.54294 329.842791,188.828678 C324.141691,195.672571 295.589541,214.540865 288.132462,219.229085 Z M316.972832,210.742292 C316.744588,210.584247 316.694608,210.298467 316.854545,210.086131 C317.769187,208.882558 319.791728,205.182743 320.624735,204.086088 C320.75635,203.912055 321.022912,203.862593 321.222834,203.97484 C322.045845,204.431488 324.030068,205.58027 324.546532,206.40097 C325.332891,207.648842 325.161291,208.815943 324.666485,209.964558 C324.081714,211.318348 322.777225,212.82985 321.842591,213.564617 C321.502724,213.833743 320.992924,213.848731 320.634731,213.599923 C319.585142,212.880644 317.857485,211.355819 316.972832,210.742292 Z" id="Shape-2" fill="#27318C"></path>
        <path d="M161.908271,100.000335 L161.890681,100.000335 L152.642115,119.851801 L201.685028,119.851801 L216.125516,88.8561439 L269.170126,88.8561439 C269.538668,92.0749063 269.749742,95.3392749 269.794973,98.6423754 C265.303784,97.4886376 260.59817,96.8753005 255.74849,96.8753005 C224.609189,96.8753005 199.327363,122.179733 199.327363,153.347923 C199.327363,167.111289 204.257285,179.731312 212.444617,189.533975 C208.431863,191.462349 204.271356,193.144583 199.983871,194.560053 C200.011009,194.550664 200.038482,194.541442 200.065955,194.532388 C193.132337,185.16181 188.503112,173.982911 187.018389,161.836053 L138.149864,161.836053 C138.170637,171.591433 143.15517,185.561704 165.644953,187.411775 L165.645121,187.411775 C167.259671,191.683338 169.169222,195.810537 171.348311,199.768389 L171.390861,199.766712 C169.868949,199.831601 168.338327,199.864296 166.799998,199.864296 C116.950816,199.864296 75.3248145,165.459068 65.8286553,119.826483 L122.251457,119.527863 L136.691945,88.5323729 L167.251127,88.5323729 L161.908271,100.000335 Z M220.547017,185.189141 C212.9326,176.762378 208.292989,165.593204 208.292989,153.347923 C208.292989,127.132539 229.557538,105.849003 255.74849,105.849003 C260.526137,105.849003 265.13794,106.556738 269.488412,107.873619 C269.11987,112.459563 268.429691,116.95899 267.441328,121.350772 C263.794436,120.013771 259.85606,119.284071 255.74849,119.284071 C236.966241,119.284071 221.716133,134.54758 221.716133,153.347923 C221.716133,162.778526 225.553327,171.319137 231.749694,177.489731 C228.20281,180.287809 224.461269,182.861712 220.547017,185.189141 Z M238.941292,171.254416 C234.173696,166.770918 231.19621,160.404821 231.19621,153.347923 C231.19621,139.784588 242.197864,128.772688 255.74849,128.772688 C258.979935,128.772688 262.065638,129.398768 264.891686,130.536409 C263.78606,133.876565 262.502863,137.140263 261.052147,140.317108 C259.415485,139.648272 257.624705,139.279565 255.74849,139.279565 C247.992352,139.279565 241.693632,145.583457 241.693632,153.347923 C241.693632,157.405874 243.414053,161.064938 246.163043,163.633476 C243.891483,166.293394 241.480882,168.837284 238.941292,171.254416 Z M117.464932,111.144359 L64.4209917,111.144359 C64.0516119,107.925764 63.8405377,104.661228 63.7949725,101.358295 C68.285994,102.511865 72.9924451,103.12537 77.84112,103.12537 C108.981091,103.12537 134.262917,77.8207702 134.262917,46.6527478 C134.262917,32.8893821 129.332995,20.2695263 121.145663,10.4675338 C125.158418,8.5376512 129.319091,6.85592035 133.606577,5.44078492 C133.579271,5.44916843 133.551798,5.45922863 133.524325,5.46761214 C140.458111,14.8386926 145.087503,26.0189331 146.571891,38.164618 L195.440416,38.164618 C195.419978,28.4099084 190.435948,14.4396378 167.945327,12.5885602 L167.945159,12.5885602 C166.330609,8.3180034 164.421226,4.18996617 162.241969,0.232952418 L162.199419,0.234629118 C163.721331,0.169237789 165.251953,0.135703775 166.79045,0.135703775 C216.639464,0.135703775 258.266303,34.5414353 267.76129,80.1741874 L211.338823,80.4726401 L196.898335,111.468298 L166.339153,111.468298 L171.682009,100.000335 L171.699599,100.000335 L180.948165,80.1488692 L131.905252,80.1488692 L117.464932,111.144359 Z M113.043264,14.8118654 C120.65768,23.2389633 125.297291,34.407467 125.297291,46.6527478 C125.297291,72.8681316 104.03291,94.1516678 77.84112,94.1516678 C73.0644783,94.1516678 68.451838,93.4437648 64.1020352,92.1270517 C64.4710799,87.5411075 65.1609239,83.041681 66.149287,78.6498988 C69.7960118,79.9868999 73.7340525,80.7166001 77.84112,80.7166001 C96.6245421,80.7166001 111.874147,65.4530902 111.874147,46.6527478 C111.874147,37.2221445 108.037121,28.6815339 101.841257,22.5112752 C105.38747,19.7128616 109.129011,17.139126 113.043264,14.8118654 Z M94.6498261,28.7469252 C99.4159141,33.2297524 102.39407,39.5958497 102.39407,46.6527478 C102.39407,60.2160831 91.3922483,71.2279829 77.84112,71.2279829 C74.6101777,71.2279829 71.5241396,70.6019029 68.6979236,69.4642614 C69.8047228,66.1241059 71.0882547,62.8604079 72.5376306,59.683563 C74.1744604,60.3523989 75.9650728,60.7211054 77.84112,60.7211054 C85.5985978,60.7211054 91.8966485,54.4172136 91.8966485,46.6527478 C91.8966485,42.5947967 90.1763942,38.9357326 87.426567,36.3670271 C89.698462,33.7072767 92.1099004,31.163051 94.6498261,28.7469252 Z" id="Shape-1" fill="#27318C"></path>
    </g>
</svg>