<?xml version="1.0" encoding="UTF-8"?>
<svg width="889px" height="200px" viewBox="0 0 889 200" version="1.1" xmlns="http://www.w3.org/2000/svg" xmlns:xlink="http://www.w3.org/1999/xlink" style="background: #616161;">
    <!-- Generator: Sketch 57.1 (83088) - https://sketch.com -->
    <title>Telecom / Full / Horizontal / Mono</title>
    <desc>Created with Sketch.</desc>
    <g id="Telecom-/-Full-/-Horizontal-/-Mono" stroke="none" stroke-width="1" fill="none" fill-rule="evenodd">
        <rect fill="#616161" x="0" y="0" width="889" height="200"></rect>
        <path d="M126.846706,186.810097 C129.201419,183.710562 132.902872,178.838996 134.172765,177.166246 C134.42668,176.831568 134.882958,176.919001 135.322585,176.952629 C137.473334,177.116605 140.712426,180.039673 141.709193,181.618584 C143.220833,184.017697 143.363,186.698964 142.41106,188.907519 C141.287496,191.510961 138.285669,195.124203 136.490016,196.537216 C135.836818,197.055086 134.855421,197.08359 134.168283,196.604792 C132.492062,195.454717 128.581522,192.137081 126.610402,190.769225 C126.500896,191.098138 126.373458,191.425771 126.232572,191.752762 C125.109008,194.356525 121.758809,198.17858 119.963476,199.591593 C119.309958,200.109464 118.332083,200.137967 117.641423,199.65917 C115.625796,198.276581 111.560922,195.4576 109.862608,194.277419 C109.42202,193.973807 109.325001,193.42359 109.634949,193.015571 C111.393139,190.701329 116.176851,181.80626 117.778146,179.697309 C118.032061,179.362631 118.543412,179.267512 118.927966,179.483371 C120.510689,180.36154 125.004625,183.321439 126.001071,184.90003 C126.409,185.547288 126.682766,186.183016 126.846706,186.810097 Z M312.834797,191.585583 C312.394209,191.281971 311.881897,190.055352 312.368273,188.485408 C313.493758,184.853592 317.247724,178.968063 318.849018,176.859111 C319.102933,176.524433 319.808322,176.320103 320.234502,176.432837 C326.087344,177.984526 327.169603,181.257324 328.162207,182.835916 C329.673527,185.235349 328.527229,187.557277 327.573049,189.766472 C326.449164,192.369915 324.662477,195.045737 322.866184,196.458431 C322.212986,196.976301 321.236391,197.004805 320.54445,196.526327 C318.528823,195.143419 314.533111,192.765443 312.834797,191.585583 Z M76.9824335,104.567703 C76.33596,100.189667 70.0268397,114.824863 68.7793603,121.489919 C67.490896,128.374678 70.8881639,136.797034 69.2513276,144.18397 C66.0996492,158.407945 48.5641753,174.987476 28.7684456,173.642359 C-3.63816039,171.44053 7.36821922,147.365493 14.5633189,129.422909 C11.32871,129.938537 1.13242347,152.043618 1.00146376,167.512147 C0.852573128,185.073935 12.0875719,192.173271 23.1592713,192.537094 C44.9171553,193.252568 64.9930556,171.102329 72.4974635,147.868951 C77.1172356,133.566511 77.6285869,108.94606 76.9824335,104.567703 Z M626.359721,89.1462536 C626.542232,88.8954853 627.240257,88.1854556 627.547644,88.3081175 C628.216851,88.5755396 627.272276,91.1226153 626.904052,92.6358722 C625.203817,99.6167108 620.128728,105.94805 616.507324,106.807324 C614.451672,107.295729 612.405627,107.476039 610.055396,108.225461 C604.195829,110.091972 596.760904,124.434766 590.677201,128.296533 C589.146669,129.26758 584.587094,128.622244 581.551646,128.424319 C571.004426,127.736068 568.8271,129.967041 564.0626,133.038072 C550.188555,141.981821 539.673355,160.117525 529.824159,167.652424 C517.147643,177.350399 507.733913,181.606094 507.56421,181.67335 C505.26521,182.585147 505.162748,180.705506 506.26742,179.991633 C511.633887,176.52091 520.672989,170.130002 529.555196,161.817177 C545.689817,146.715353 552.599623,129.931812 565.897317,120.105089 C574.027066,114.09818 580.078749,111.475841 586.252107,111.077751 C591.055031,110.768053 596.053273,112.240957 599.00547,110.911212 C603.14559,109.046303 604.6409,104.425825 609.194072,100.390794 C614.903147,95.3302703 616.987616,96.8127817 621.630442,96.4460771 C622.603834,96.3695335 625.271058,90.5919345 626.359721,89.1462536 Z M327.432163,121.036102 C328.11738,121.504011 327.70753,129.179186 326.173797,133.170662 C321.482942,145.371516 312.024384,145.169749 305.451743,154.352736 C299.399099,162.809041 300.581259,166.768489 294.342261,171.852713 C288.102943,176.937256 271.831919,179.743107 272.246891,177.595082 C272.661864,175.446738 290.425317,165.65012 296.329391,159.122458 C301.028891,153.926783 299.790697,149.139766 307.945421,140.440701 C311.699706,136.436094 318.863107,133.551138 322.059292,130.364171 C324.745728,127.688668 326.746946,120.568514 327.432163,121.036102 Z M138.5002,115.878538 C139.186057,116.346127 138.776848,124.021622 137.242794,128.012778 C132.552899,140.213952 123.093061,140.011864 116.5201,149.195172 C110.467776,157.651476 111.649936,161.610605 105.410618,166.695148 C99.1716201,171.779692 82.9005959,174.585543 83.3155685,172.437198 C83.7302209,170.289174 101.493674,160.492556 107.398068,153.964894 C112.097568,148.768898 110.859375,143.981882 119.014098,135.283137 C122.768384,131.27853 129.931464,128.393574 133.12893,125.206607 C135.813124,122.531104 137.814662,115.41063 138.5002,115.878538 Z M385.30419,111.753832 C386.370439,110.717131 382.771448,111.41403 382.736227,108.346522 C382.707409,105.786636 388.647024,93.8916353 392.66547,92.5266615 C396.683917,91.1616877 405.079427,95.3654996 406.139272,99.3249484 C407.019808,102.597747 402.758014,108.725397 399.037349,111.439651 C397.058545,112.885332 393.619651,113.83428 388.470917,116.110091 C384.356413,117.928241 380.3924,120.865401 376.511638,122.8392 C371.199604,125.539363 367.558988,128.855397 367.043474,129.935334 C366.29742,131.502076 375.733564,131.285896 382.339185,130.036218 C386.972405,129.160291 389.402684,127.47441 390.222383,127.910292 C392.191582,128.956602 388.967219,136.199418 383.607157,142.124659 C375.85844,155.973603 362.6504,172.373145 348.779557,167.904473 C339.637993,164.959627 333.86808,153.919737 342.369255,105.588071 C342.903981,102.561237 349.96748,84.0889329 350.258857,85.6604782 C351.635696,93.0576626 335.955751,142.08943 353.649722,148.295225 C366.415892,152.771903 379.809645,141.882218 380.760624,138.442561 C377.292913,139.171166 359.419634,141.657711 359.560519,137.116019 C360.002388,122.918626 381.50988,115.445218 385.30419,111.753832 Z M549.958015,75.9407247 C551.049879,69.8636769 543.048209,84.7611712 541.562504,92.7133766 C540.073598,100.666543 540.361774,116.901468 536.865245,121.188549 C533.881029,124.845347 529.014066,119.686501 525.25818,120.625201 C520.503286,121.812427 515.367359,130.889087 509.197204,134.976322 C499.040621,141.70383 477.35382,147.360689 451.546111,148.871704 C435.257797,149.825776 413.705478,150.084231 405.537306,145.429805 C398.265679,141.286843 401.646938,130.987408 399.74498,133.01245 C397.843022,135.039094 392.799952,153.679537 398.268881,160.647565 C407.810689,172.801981 455.170718,167.043278 481.692461,159.152884 C495.050993,155.178703 503.12951,150.550858 506.90781,146.872283 C511.784378,142.126581 517.512665,132.380566 519.488268,130.879799 C522.658197,128.471398 528.168752,133.272827 531.031294,132.399141 C543.028997,128.738821 545.254352,110.653078 547.27158,92.8389209 C548.065663,85.8375853 549.269596,79.7512498 549.958015,75.9407247 Z M276.538784,122.462247 C276.643488,122.411005 276.767083,122.416129 276.867304,122.476019 C276.967205,122.535908 277.030283,122.642557 277.034446,122.758813 C276.907969,126.716981 273.445061,137.311381 266.882026,144.585904 C245.905417,167.835936 167.811481,172.473068 157.008105,162.132318 C150.302904,155.714187 154.232016,137.258858 157.342389,132.668805 C157.462462,132.571764 157.629604,132.557673 157.764406,132.632615 C157.899208,132.707877 157.974774,132.857121 157.955882,133.010209 C155.887103,153.832304 196.107425,149.795031 215.416779,147.532031 C275.002809,140.54831 271.894677,125.437198 276.538784,122.462247 Z M32.5525089,144.19614 C32.1119208,143.892208 31.5996089,142.665909 32.085985,141.095965 C33.2114701,137.464148 36.4143797,131.399911 38.0159946,129.290959 C38.2695889,128.956281 39.4882507,128.407666 39.9195533,128.498621 C46.8447287,129.962237 47.9199431,133.930013 48.9128675,135.508604 C50.4245077,137.908357 49.2381856,140.525251 48.2865663,142.734126 C47.1630024,145.337568 44.6539551,148.244303 42.8586223,149.657316 C42.2051045,150.174866 41.2272293,150.20369 40.5365689,149.725213 C38.5209419,148.341984 34.2508227,145.376 32.5525089,144.19614 Z M287.392751,142.934292 C287.230092,142.731884 289.267812,133.635048 290.455415,121.949821 C291.522625,111.44958 291.670555,98.5784083 292.856557,92.936602 C294.464896,85.2851265 302.482896,69.2843156 302.017653,71.8541302 C300.365447,80.9778687 298.638956,111.665439 296.133111,123.58574 C294.706643,130.370576 288.694983,144.554197 287.392751,142.934292 Z M91.6182224,141.098527 C91.4555634,140.896119 93.4932837,131.799603 94.6808866,120.114377 C95.7480962,109.613815 95.8960263,96.7426435 97.0820282,91.1008372 C98.6903672,83.4496819 106.708368,67.4485508 106.243125,70.0186856 C104.590919,79.1421038 102.864108,109.829994 100.358262,121.750296 C98.9321144,128.534811 92.920455,142.718433 91.6182224,141.098527 Z M210.421098,113.505367 C212.775811,110.405833 216.477264,105.534266 217.747157,103.861517 C218.001072,103.526839 218.45735,103.614271 218.896977,103.647579 C221.047726,103.811555 224.286818,106.734943 225.283585,108.313535 C226.795225,110.712968 226.937391,113.393915 225.985452,115.602789 C224.862208,118.206232 221.860061,121.819473 220.064728,123.232487 C219.41153,123.750357 218.429813,123.778861 217.742995,123.300063 C216.066454,122.149988 212.155914,118.832352 210.184794,117.464496 C210.075287,117.793409 209.94817,118.121041 209.807284,118.448033 C208.68372,121.051795 205.333201,124.87385 203.537868,126.286864 C202.884671,126.804414 201.906475,126.833238 201.216135,126.35412 C199.200508,124.971531 195.135313,122.15255 193.437,120.97269 C192.996732,120.669078 192.899392,120.118861 193.209341,119.710842 C194.967531,117.396599 199.751243,108.501531 201.352858,106.392579 C201.606452,106.057581 202.117804,105.962782 202.502358,106.178641 C204.085081,107.056811 208.579017,110.016389 209.575783,111.595301 C209.983392,112.242558 210.257158,112.878286 210.421098,113.505367 Z M156.379563,125.835929 C156.216904,125.633521 158.254624,116.536685 159.442227,104.851459 C160.509437,94.3508968 160.657367,81.4800458 161.843369,75.8382395 C163.451708,68.186764 171.469708,52.1859531 171.004465,54.7557677 C169.352259,63.8795062 167.625448,94.5670764 165.119603,106.487378 C163.693455,113.272214 157.681795,127.455835 156.379563,125.835929 Z M458.933008,110.257229 C461.28644,107.157374 464.987893,102.286128 466.259067,100.613379 C466.512021,100.278701 467.024333,100.183902 467.408567,100.399441 C468.99033,101.27761 472.797447,103.486805 473.793253,105.065397 C475.304573,107.46483 474.977974,109.709574 474.026995,111.918129 C472.903111,114.521571 469.899683,118.135133 468.10339,119.547826 C467.450192,120.065696 466.470396,120.0942 465.781977,119.615402 C464.107357,118.465647 460.665262,115.584214 458.696063,114.216358 C458.587197,114.545271 458.459119,114.872903 458.318233,115.199895 C457.194349,117.803657 453.845111,120.678686 452.052019,122.091379 C451.398822,122.609249 450.419025,122.637753 449.727404,122.158955 C447.713378,120.776367 443.646903,117.957385 441.94987,116.777525 C441.508001,116.473593 441.411943,115.923696 441.722532,115.515677 C443.480402,113.201114 448.260912,105.253393 449.865088,103.144441 C450.118042,102.809443 450.627152,102.714644 451.014588,102.930503 C452.596351,103.808673 457.088685,106.768251 458.087693,108.347163 C458.494341,108.99442 458.766506,109.630148 458.933008,110.257229 Z M360.597951,82.4427655 C360.156082,82.138833 359.64377,80.9125344 360.130466,79.3422701 C361.257552,75.7107737 365.010237,69.8252449 366.611211,67.7159729 C366.864165,67.3812949 367.33165,67.4065959 367.760711,67.5020352 C374.340716,68.9656509 374.814605,72.4805705 375.807209,74.0591618 C377.318529,76.4585948 376.287501,78.4144594 375.336522,80.6236545 C374.212638,83.2267767 371.70231,86.1335111 369.909219,87.5465248 C369.256021,88.064395 368.276225,88.0928987 367.587806,87.6144212 C365.570578,86.2311923 362.294984,83.6226255 360.597951,82.4427655 Z M616.910769,67.9997286 C619.264202,64.8998737 622.965655,60.0286275 624.236828,58.3558781 C624.489782,58.0212001 625.002094,57.9264013 625.386328,58.1419404 C626.968091,59.0201098 630.775208,61.2293048 631.771015,62.8078961 C633.282335,65.2073291 632.955736,67.4520737 632.004757,69.6609485 C630.880873,72.2640707 627.877445,75.8776323 626.081151,77.2903257 C625.427954,77.8081959 624.448157,77.8366995 623.759738,77.3579018 C622.085119,76.2081468 618.643024,73.3267134 616.673825,71.9588572 C616.561757,72.2877704 616.436881,72.6154025 616.295995,72.9423941 C615.172111,75.5461569 611.822872,78.421185 610.026579,79.8338785 C609.373381,80.3517486 608.396787,80.3802523 607.705166,79.9014546 C605.69114,78.5188662 601.624664,75.6998846 599.927631,74.5200246 C599.485762,74.2160921 599.389704,73.6661954 599.700293,73.2581764 C601.458163,70.9436139 606.238673,62.9958922 607.839647,60.8869405 C608.095803,60.5519422 608.604913,60.4571435 608.989147,60.6730028 C610.574112,61.5511722 615.066446,64.5107505 616.062253,66.089662 C616.472102,66.7369197 616.744268,67.3726477 616.910769,67.9997286 Z M552.846173,71.5943944 C552.532382,71.7855933 552.112927,71.7705408 551.818347,71.5582044 C551.523768,71.345868 551.430911,70.9878106 551.584605,70.6825971 C553.49937,66.9915312 556.073737,63.2348107 558.680124,61.1469965 C573.265002,49.4582474 629.795412,11.0157557 640.220958,0.160979354 C640.329824,0.0223041654 640.531547,-0.0347031869 640.714058,0.0213433674 C640.896569,0.0773899216 641.011839,0.232718943 640.999032,0.400858606 C640.256179,3.70632424 636.666795,8.73642242 633.010169,13.1320736 C622.053099,26.2934059 567.178097,62.5785856 552.846173,71.5943944 Z M608.275113,55.2736379 C607.836446,54.9697054 607.740387,54.4201289 608.047774,54.0117897 C609.805644,51.6972272 613.69281,44.5821972 615.293785,42.4732454 C615.546739,42.1385674 616.059051,42.0434484 616.443285,42.2593077 C618.025047,43.1374771 621.838569,45.3466722 622.831173,46.9249431 C624.342493,49.3246965 624.012692,51.5691208 623.061713,53.7779955 C621.937829,56.381438 619.430703,59.2881725 617.63441,60.7011862 C616.981212,61.2187361 616.001416,61.24756 615.312997,60.7690826 C613.295769,59.3858536 609.975347,56.4534979 608.275113,55.2736379 Z" id="Shape-2" fill="#FFFFFF"></path>
        <path d="M784.255629,100.000325 L784.238552,100.000325 L775.259362,119.256247 L822.87384,119.256247 L836.893731,89.1904595 L888.393353,89.1904595 C888.751161,92.3126591 888.956087,95.4790967 889,98.6831041 C884.639622,97.5639785 880.071066,96.9690415 875.362638,96.9690415 C845.130307,96.9690415 820.584845,121.514341 820.584845,151.747485 C820.584845,165.09795 825.371177,177.339373 833.320043,186.847956 C829.424165,188.718478 825.384839,190.350245 821.222231,191.723252 C821.248579,191.714144 821.275252,191.705199 821.301925,191.696416 C814.570256,182.606956 810.075863,171.763424 808.634385,159.980971 L761.189215,159.980971 C761.209383,169.44369 766.048735,182.994852 787.883477,184.789422 L787.883639,184.789422 C789.451163,188.932838 791.305096,192.936221 793.420717,196.775337 L793.462028,196.773711 C791.984443,196.836653 790.498402,196.868367 789.004879,196.868367 C740.607615,196.868367 700.194021,163.495296 690.974449,119.231689 L745.753869,118.942027 L759.77376,88.8764018 L789.442869,88.8764018 L784.255629,100.000325 Z M841.18645,182.633466 C833.793813,174.459507 829.289337,163.625408 829.289337,151.747485 C829.289337,126.318563 849.934529,105.673533 875.362638,105.673533 C880.00113,105.673533 884.478609,106.360036 888.702369,107.63741 C888.344561,112.085776 887.674484,116.45022 886.714908,120.710249 C883.174236,119.413358 879.35057,118.705548 875.362638,118.705548 C857.127445,118.705548 842.321515,133.511153 842.321515,151.747485 C842.321515,160.89517 846.046946,169.179563 852.062836,175.165039 C848.61926,177.879175 844.986696,180.375861 841.18645,182.633466 Z M859.04497,169.116784 C854.416236,164.767791 851.525473,158.592676 851.525473,151.747485 C851.525473,138.59105 862.206691,127.909507 875.362638,127.909507 C878.499963,127.909507 881.495792,128.516805 884.239528,129.620317 C883.166104,132.860268 881.920282,136.026055 880.51182,139.107594 C878.922827,138.458824 877.184206,138.101178 875.362638,138.101178 C867.832408,138.101178 861.717145,144.215953 861.717145,151.747485 C861.717145,155.683698 863.387457,159.23299 866.056379,161.724472 C863.850981,164.304592 861.510592,166.772166 859.04497,169.116784 Z M741.106757,110.810028 L689.607786,110.810028 C689.249164,107.687991 689.044238,104.521391 689,101.317546 C693.360215,102.436509 697.929585,103.031609 702.637036,103.031609 C732.870018,103.031609 757.41548,78.4861471 757.41548,48.2531654 C757.41548,34.9027006 752.629148,22.6614405 744.680282,13.1535077 C748.57616,11.2815217 752.615649,9.65024274 756.778257,8.27756138 C756.751746,8.28569337 756.725073,8.29545177 756.6984,8.30358377 C763.430232,17.3935318 767.924787,28.2383651 769.36594,40.0196794 L816.81111,40.0196794 C816.791268,30.5576111 811.952403,17.0064487 790.116849,15.2109034 L790.116686,15.2109034 C788.549162,11.0684633 786.695392,7.06426718 784.579608,3.22596385 L784.538298,3.22759024 C786.015882,3.16416066 787.501923,3.13163266 788.995609,3.13163266 C837.39271,3.13163266 877.807117,36.5051923 887.025551,80.7689618 L832.246456,81.0584609 L818.226566,111.124249 L788.557457,111.124249 L793.744696,100.000325 L793.761773,100.000325 L802.740963,80.7444032 L755.126485,80.7444032 L741.106757,110.810028 Z M736.813875,17.3675094 C744.206512,25.5417944 748.710989,36.3752429 748.710989,48.2531654 C748.710989,73.6820876 728.065959,94.3271178 702.637036,94.3271178 C697.99952,94.3271178 693.521229,93.6404518 689.298119,92.3632401 C689.656415,87.9148742 690.326166,83.5504306 691.285742,79.2904018 C694.826252,80.5872929 698.649592,81.2951021 702.637036,81.2951021 C720.873369,81.2951021 735.67881,66.4894975 735.67881,48.2531654 C735.67881,39.1054802 731.953542,30.8210879 725.93814,24.8359369 C729.381065,22.1214758 733.013629,19.6249522 736.813875,17.3675094 Z M718.956169,30.8845175 C723.583438,35.2328598 726.474852,41.4079742 726.474852,48.2531654 C726.474852,61.4096006 715.793472,72.0911434 702.637036,72.0911434 C699.500199,72.0911434 696.504046,71.4838458 693.760147,70.3803336 C694.834709,67.1403827 696.080856,63.9745956 697.488018,60.8930561 C699.077173,61.5418269 700.815631,61.8994722 702.637036,61.8994722 C710.168568,61.8994722 716.283181,55.7846972 716.283181,48.2531654 C716.283181,44.3169528 714.613031,40.7676607 711.943296,38.2760163 C714.149019,35.6960584 716.490221,33.2281595 718.956169,30.8845175 Z" id="Shape-1" fill="#FFFFFF"></path>
    </g>
</svg>