<?xml version="1.0" encoding="UTF-8"?>
<svg width="365px" height="333px" viewBox="0 0 365 333" version="1.1" xmlns="http://www.w3.org/2000/svg" xmlns:xlink="http://www.w3.org/1999/xlink">
    <!-- Generator: Sketch 57.1 (83088) - https://sketch.com -->
    <title>Gas / Full / Vertical / Color</title>
    <desc>Created with Sketch.</desc>
    <g id="Gas-/-Full-/-Vertical-/-Color" stroke="none" stroke-width="1" fill="none" fill-rule="evenodd">
        <path d="M8.19741772,290.083604 C8.67777046,289.23918 8.82194984,290.665662 8.27808951,292.244273 C5.52249783,300.24487 -5.11367413,318.187727 17.875091,321.19233 C23.1165511,321.877522 45.9638341,316.830818 43.5593731,288.721795 C43.208978,284.62314 49.45528,270.793637 48.4266533,276.724696 C47.5498073,281.781444 48.2557468,301.727941 38.2220387,317.805568 C33.3530421,325.607737 23.2163487,334.730804 13.2211375,332.716875 C-10.7567767,327.885748 4.47155763,296.629303 8.19741772,290.083604 Z M217.911725,271.220871 C217.616256,272.365143 216.253417,277.588718 215.240729,277.239386 C212.900266,276.431462 210.424451,275.269062 210.941093,266.715314 C211.40796,258.982718 213.625576,250.322406 213.004722,249.331487 C212.383868,248.340813 208.563605,258.858026 207.371673,263.634279 C206.066702,268.864223 206.424454,275.775423 205.943856,278.803298 C205.554718,281.255485 199.707117,288.447425 198.985974,292.152408 C198.404108,295.142557 197.285982,299.216961 201.617984,301.032951 C203.935643,302.004272 207.853742,302.356054 208.589842,303.98317 C210.715997,308.682501 197.705524,320.81899 185.308549,319.040971 C166.208459,316.301674 179.264785,293.562477 183.4249,282.662125 C183.456531,282.56536 183.412639,282.460021 183.321669,282.413966 C183.230454,282.368156 183.119622,282.395838 183.060528,282.478884 C178.233706,290.488791 159.512945,326.040851 181.320567,330.34259 C204.462829,334.90743 214.470301,300.891846 210.483299,293.52769 C209.073137,290.923374 204.471657,291.29304 203.946187,289.918002 C203.273104,288.156396 205.916638,284.707656 206.863367,283.106997 C207.394722,284.427895 208.625641,288.294806 213.030223,288.761971 C215.772574,289.052755 221.269045,285.226265 221.277874,274.770296 C221.279589,272.988601 219.041621,270.868599 217.911725,271.220871 Z M355.458612,267.144753 C355.566501,266.975966 355.777376,266.906148 355.96373,266.978171 C356.150084,267.049948 356.260426,267.243477 356.226097,267.440681 C355.215861,272.139522 351.802635,276.570118 350.552099,276.608089 C349.29666,276.646059 348.529174,276.936843 347.119257,277.394209 C343.728099,278.493896 338.000156,290.03412 332.355582,294.320425 C331.727862,294.737126 330.994705,294.970096 330.23948,294.992633 C325.014203,295.129819 321.654922,296.690056 318.508967,298.048436 C311.376011,301.127756 304.843802,314.61748 298.993257,319.689171 C291.463072,326.216742 285.024041,329.140993 282.015399,330.265423 C281.900154,330.294575 281.780004,330.235536 281.730964,330.125788 C281.684375,330.016285 281.7751,329.826675 281.875634,329.761267 C285.153998,327.58982 291.958382,323.071524 296.869799,317.065258 C304.309259,307.968893 310.468759,295.010761 318.369201,288.39647 C326.953759,281.208695 335.861985,283.382837 338.274783,282.00927 C340.685129,280.635702 343.051338,274.575786 346.091856,272.362694 C347.977467,270.988146 350.039625,270.584184 352.798159,270.337496 C353.376838,270.285806 354.811276,268.117788 355.458612,267.144753 Z M72.996978,324.479388 C72.7093549,324.253277 72.6446213,323.843926 72.848385,323.540159 C74.0035365,321.817258 77.5952705,316.460907 78.6479271,314.890871 C78.8141748,314.641732 79.1491221,314.570935 79.4019265,314.731638 C80.4418325,315.385228 82.9446199,317.029491 83.5975956,318.204386 C84.5904226,319.990489 84.3751344,321.66121 83.749131,323.305229 C83.0113151,325.242971 80.8130699,327.383062 79.6333981,328.434734 C79.204538,328.820078 78.5603896,328.841146 78.1072544,328.484954 C76.7834033,327.455819 74.114123,325.357374 72.996978,324.479388 Z M84.4231942,322.793969 C84.135571,322.567858 84.0708374,322.158752 84.2746011,321.854984 C85.4297526,320.132084 89.0214866,314.775488 90.0741433,313.205696 C90.2403909,312.956558 90.5753383,312.885761 90.8281426,313.046463 C91.8680486,313.700053 94.370836,315.344317 95.0238117,316.519211 C96.0166388,318.305315 95.8013505,319.976036 95.1753472,321.620055 C94.4375312,323.557797 92.239286,325.697887 91.0596142,326.749315 C90.6307541,327.134903 89.9866058,327.155971 89.5334706,326.799779 C88.2096194,325.7704 85.5403392,323.6722 84.4231942,322.793969 Z M92.2853842,280.256483 C92.8174748,280.901988 90.7881745,288.027295 88.7816781,290.91872 C85.6470025,295.436281 82.1128912,294.723162 79.6400186,297.578331 C75.6630706,302.169629 76.130918,308.630812 72.2596525,311.806406 C70.3240198,313.394081 67.9546229,314.370791 63.726587,314.993025 C60.6166769,315.45035 57.9738786,315.754648 57.8480895,314.953339 C57.5844962,313.275024 68.8380894,308.016417 73.0477351,302.953545 C74.9436449,300.673329 77.6416139,293.323872 80.1576422,290.368754 C82.2099916,287.957722 85.3986118,287.521914 88.1434146,285.221365 C89.663183,283.947747 91.2474398,278.997562 92.2853842,280.256483 Z M311.405435,250.632542 C311.439763,250.51569 311.557461,250.442933 311.680062,250.461061 C311.800212,250.479189 312.004514,250.711914 312.004514,250.834156 C312.013538,253.536216 311.927717,258.661312 311.94243,263.632319 C311.969402,272.062111 311.621214,281.413004 309.568864,284.840431 C307.94562,287.550331 306.398389,291.308473 304.086124,292.244518 C301.396247,293.331711 301.094647,291.210239 295.874275,293.214614 C293.397724,294.165357 291.27917,298.473955 289.95017,300.450648 C282.334163,311.794892 262.965576,313.244157 254.148075,313.881579 C247.404991,314.368832 236.901719,314.747806 233.504922,311.129789 C230.184628,307.593593 231.407455,298.753225 232.352958,293.927242 C232.395868,293.714605 232.58443,293.562477 232.801679,293.565416 C233.018929,293.568356 233.203322,293.725384 233.240348,293.939246 C233.570146,296.093545 234.02794,297.734379 235.004338,299.093249 C238.189281,303.526784 252.29434,302.539294 260.773461,301.805843 C275.598436,300.523895 285.887155,297.9137 291.865205,292.687675 C294.094101,290.737194 294.920435,286.181418 300.744007,285.262521 C303.325995,284.85513 304.368108,286.166719 305.645616,285.564574 C309.831231,283.58984 307.283572,268.348799 307.656281,264.428239 C308.462999,260.474608 310.478567,253.759632 311.405435,250.632542 Z M59.6640631,269.774301 C59.0439446,267.810591 55.6961876,278.149953 54.7394054,281.278023 C53.6948405,284.693692 54.3171658,301.006249 53.2878034,307.018884 C52.8405531,309.631284 51.4578532,314.3338 52.0382488,314.084172 C53.6426122,313.394081 56.9320109,305.417736 57.7355413,300.119934 C58.7852554,293.197466 58.7322916,272.132908 59.6640631,269.774301 Z M192.770078,239.515144 C194.926638,237.357415 192.234309,244.600554 190.551971,247.144851 C185.438997,254.877447 160.132328,276.861636 154.667488,283.048203 C156.313045,282.527389 160.923353,282.851244 162.52036,285.107453 C166.235431,290.35626 161.683973,302.742378 159.095609,307.281006 C156.194612,312.368131 152.069316,313.892113 149.126144,313.651059 C146.863656,313.465613 142.487518,311.140078 142.356579,301.78502 C142.25531,294.541637 145.911778,272.061866 146.605703,270.259594 C147.452143,268.062424 149.919376,260.700963 150.139078,262.538021 C150.418119,264.875071 148.414565,274.448155 147.537719,284.375961 C153.404692,279.041903 186.384745,247.369492 192.770078,239.515144 Z M134.777844,282.953399 C135.479124,283.620952 130.418869,302.954035 126.256303,307.939986 C123.304058,311.476427 111.853812,312.989384 111.312649,312.18685 C110.771731,311.384072 115.357764,309.1553 123.493355,302.864865 C129.824988,297.969554 132.968,281.230498 134.777844,282.953399 Z M105.340484,267.392666 C104.720366,265.428957 101.372609,275.768564 100.415826,278.896633 C99.3712615,282.312057 99.9935868,298.624614 98.9642244,304.637495 C98.5169741,307.249895 97.1342742,311.952166 97.7144246,311.702537 C99.3190332,311.012446 102.608432,303.036101 103.411717,297.738299 C104.461676,290.815831 104.408467,269.751518 105.340484,267.392666 Z M18.1394199,299.997692 C17.8515515,299.771581 17.7868179,299.36223 17.9905816,299.058462 C19.1457331,297.335562 22.7374672,291.979211 23.7901238,290.409174 C23.9563714,290.160036 24.2913188,290.089484 24.5443683,290.249942 C25.5840292,290.903531 28.0868165,292.547795 28.7400374,293.722934 C29.7326193,295.508793 29.517331,297.179514 28.8913277,298.823533 C28.153757,300.761275 25.9552666,302.901366 24.7755948,303.953038 C24.3467347,304.338382 23.7025863,304.359694 23.2494511,304.003258 C21.9255999,302.974123 19.2565649,300.875923 18.1394199,299.997692 Z M147.333956,297.169715 C147.445768,295.662636 150.067724,292.907907 154.107199,293.163169 C158.284968,293.427006 159.873884,295.814765 159.890312,297.743933 C159.919492,301.140739 155.477884,302.194616 153.437059,302.205395 C148.030823,302.234057 147.222143,298.676793 147.333956,297.169715 Z M249.300411,281.857141 C249.011071,281.63103 248.947318,281.221924 249.150837,280.918157 C250.305743,279.195256 253.897968,273.83866 254.949889,272.268869 C255.116627,272.01973 255.452555,271.948933 255.705114,272.109636 C256.744775,272.763226 259.248298,274.407489 259.900538,275.582383 C260.89361,277.368487 260.677831,279.039208 260.052564,280.683227 C259.314503,282.620969 257.115031,284.76106 255.935605,285.812487 C255.5065,286.198076 254.864068,286.219144 254.410442,285.862952 C253.086346,284.833572 250.416085,282.735372 249.300411,281.857141 Z M260.726872,280.171967 C260.437533,279.945856 260.37378,279.53675 260.577298,279.232982 C261.732205,277.510082 265.324429,272.153486 266.37635,270.583694 C266.543088,270.334556 266.879016,270.263758 267.131575,270.424461 C268.171236,271.078051 270.672307,272.722315 271.326999,273.897209 C272.320071,275.683313 272.104293,277.353789 271.479025,278.998052 C270.740964,280.935795 268.541493,283.07564 267.362066,284.127313 C266.932961,284.512656 266.288077,284.533969 265.836903,284.177777 C264.512807,283.148398 261.842546,281.050197 260.726872,280.171967 Z M130.114573,272.236777 C129.826949,272.010666 129.761971,271.60156 129.965734,271.297793 C131.120886,269.574892 134.71262,264.218296 135.765276,262.648505 C135.931524,262.399366 136.266471,262.328569 136.519521,262.489272 C137.559182,263.142862 140.061969,264.787125 140.71519,265.96202 C141.708017,267.748123 141.492484,269.418599 140.866726,271.062863 C140.12891,273.000605 137.930419,275.140451 136.750747,276.192123 C136.322133,276.577467 135.677984,276.59878 135.224604,276.242588 C133.900998,275.213208 131.231718,273.115008 130.114573,272.236777 Z M336.489705,256.827928 C336.200366,256.601818 336.136613,256.192467 336.340131,255.888699 C337.495038,254.166044 341.087262,248.809448 342.139183,247.239656 C342.305921,246.990518 342.641849,246.91972 342.894408,247.080423 C343.934069,247.734013 346.43514,249.378032 347.089832,250.553171 C348.082905,252.33903 347.867126,254.00975 347.241858,255.653769 C346.503797,257.591757 344.304326,259.731602 343.124899,260.783275 C342.695794,261.168618 342.053362,261.189931 341.599736,260.833494 C340.27564,259.804359 337.605379,257.706159 336.489705,256.827928 Z M347.916167,255.142754 C347.626827,254.916643 347.563074,254.507292 347.766593,254.203525 C348.921499,252.480624 352.513723,247.124273 353.565644,245.554237 C353.732382,245.305098 354.068311,245.234546 354.32087,245.395004 C355.360531,246.048594 357.861602,247.692857 358.516294,248.867997 C359.509366,250.653855 359.293587,252.324576 358.66832,253.968595 C357.930258,255.906337 355.730787,258.046428 354.551361,259.0981 C354.122255,259.483444 353.477371,259.504757 353.026198,259.14832 C351.702101,258.119185 349.03184,256.020985 347.916167,255.142754 Z M172.030805,256.958254 C171.505825,257.440608 172.451083,254.891411 173.101116,254.141301 C175.44256,251.439731 183.441573,243.167212 185.662132,241.140055 C186.481355,240.39215 184.730851,243.861468 184.009954,244.699523 C181.564544,247.542199 173.964721,255.182685 172.030805,256.958254 Z M342.516796,244.495215 C342.227456,244.269104 342.163703,243.859998 342.367222,243.556231 C343.522128,241.83333 347.114353,236.476735 348.166274,234.906943 C348.333012,234.657804 348.66894,234.587007 348.921499,234.74771 C349.96116,235.4013 352.464683,237.045564 353.116923,238.220458 C354.109995,240.006561 353.894216,241.677037 353.268949,243.321301 C352.530888,245.259043 350.331416,247.398889 349.15199,248.450561 C348.722885,248.835905 348.080453,248.857218 347.626827,248.501026 C346.302731,247.471646 343.63247,245.373446 342.516796,244.495215 Z M312.633902,248.189419 C312.447548,248.31803 312.197441,248.307987 312.023347,248.165167 C311.849252,248.022102 311.792856,247.781048 311.883581,247.57576 C313.021323,245.091236 314.55139,242.562617 316.098621,241.157448 C324.764096,233.289871 358.344652,207.414764 364.53848,200.108422 C364.602233,200.015087 364.722382,199.976626 364.830272,200.014352 C364.938161,200.052078 365.006818,200.156682 364.999462,200.26986 C364.558096,202.494711 362.427282,205.880494 360.254783,208.839042 C353.744643,217.697782 321.147351,242.12093 312.633902,248.189419 Z" id="Shape-3" fill="#000000"></path>
        <path d="M186.917268,145.189805 C191.129424,122.701788 208.693167,109.062607 229.192208,109.062607 C250.795334,109.062607 269.934362,125.559918 269.965775,149.360105 C242.305421,161.245413 263.583328,197.662028 282.123655,179.102946 C282.354635,178.871931 263.395771,184.851917 262.385002,167.1317 C261.708691,155.276886 277.713779,149.29542 285.716785,153.49067 C293.719791,157.686844 299,164.789198 299,174.446589 C299,190.508204 286.977014,199.542406 273.128358,199.542406 C267.569124,199.542406 256.249241,200.147391 248.543738,181.910253 C239.939259,188.371676 223.199654,185.326239 221.018276,189.251847 C221.018276,189.251847 217.270852,190.975503 219.759896,198.040341 C215.641054,197.451989 206.516409,186.886983 216.456877,178.979122 C211.896402,169.724623 214.444577,153.803004 234.390188,153.494367 C227.652031,157.504803 227.266756,169.938082 238.079406,169.458492 C244.931206,169.1554 252.92682,157.94743 253.202149,148.181924 C253.50889,137.258565 242.662055,125.619058 229.719767,124.992543 C221.498715,124.594272 213.628754,127.720379 208.87056,134.965039 C206.138525,139.12425 204.437586,144.76104 204.279595,151.747886 C202.319035,153.093323 201.230656,154.975641 200.433311,156.900466 C204.860741,161.42653 207.591853,167.620529 207.591853,174.446589 C207.591853,188.296919 196.348656,199.541944 182.5,199.541944 C168.651344,199.541944 157.408147,188.296919 157.408147,174.446589 C157.408147,167.620529 160.139259,161.42653 164.566689,156.900466 C163.769344,154.975641 162.680965,153.093323 160.720405,151.747886 C160.562414,144.76104 158.861475,139.12425 156.12944,134.965039 C151.371246,127.720379 143.501285,124.594272 135.280233,124.992543 C122.337945,125.619058 111.49111,137.258565 111.797851,148.181924 C112.07318,157.94743 120.068794,169.1554 126.920594,169.458492 C137.733244,169.938082 137.347969,157.504803 130.609812,153.494367 C150.555423,153.803004 153.103598,169.724623 148.543123,178.979122 C158.483591,186.886983 149.358946,197.451989 145.240104,198.040341 C147.729148,190.975503 143.981724,189.251847 143.981724,189.251847 C141.800346,185.326239 125.060741,188.371676 116.456262,181.910253 C108.750759,200.147391 97.4308763,199.542406 91.8716421,199.542406 C78.0229864,199.542406 66,190.508204 66,174.446589 C66,164.789198 71.2802092,157.686844 79.2832153,153.49067 C87.2862213,149.29542 103.291309,155.276886 102.614998,167.1317 C101.604229,184.851917 82.645365,178.871931 82.876345,179.102946 C101.416672,197.662028 122.694579,161.245413 95.0342248,149.360105 C95.0656379,125.559918 114.203743,109.062607 135.807792,109.062607 C156.306833,109.062607 173.870576,122.701788 178.082732,145.189805 C178.336811,146.545407 178.503117,149.215027 182.475978,149.350865 L182.5,149.350865 C186.496883,149.215027 186.663189,146.545407 186.917268,145.189805 Z M182.5,164.908403 C187.763579,164.908403 192.036715,169.182198 192.036715,174.446589 C192.036715,179.710057 187.763579,183.984221 182.5,183.984221 C177.236421,183.984221 172.963285,179.710057 172.963285,174.446589 C172.963285,169.182198 177.236421,164.908403 182.5,164.908403 L182.5,164.908403 L182.5,164.908403 Z M182.455652,139.136264 C178.674966,123.987161 169.428363,116.627917 160.75459,107.686676 C159.280012,106.154578 158.863323,103.889698 159.694852,101.933455 C160.527305,99.9762877 162.448138,98.7057002 164.575004,98.7057002 C169.749887,98.7038517 176.122172,98.7020039 182.5,98.7020039 L187.263738,98.7020039 C191.989595,98.7029278 196.543603,98.7038517 200.424996,98.7057002 C202.551862,98.7057002 204.472695,99.9762877 205.305148,101.933455 C206.136677,103.889698 205.719988,106.154578 204.24541,107.686676 C195.537452,116.663031 186.252968,124.045378 182.5,139.314608 L182.455652,139.136264 L182.455652,139.136264 Z M217.725421,88.2942731 C217.725421,86.7695676 217.119329,85.3067748 216.041112,84.2293165 C214.962896,83.1509342 213.501253,82.5447483 211.976783,82.5447483 L153.023217,82.5447483 C151.498747,82.5447483 150.037104,83.1509342 148.958887,84.2293165 C147.880671,85.3067748 147.274579,86.7695676 147.274579,88.2942731 L147.274579,88.5243649 C147.274579,90.0490704 147.880671,91.5118632 148.958887,92.5893216 C150.037104,93.6677038 151.498747,94.2738897 153.023217,94.2738897 L211.976783,94.2738897 C213.501253,94.2738897 214.962896,93.6677038 216.041112,92.5893216 C217.119329,91.5118632 217.725421,90.0490704 217.725421,88.5243649 L217.725421,88.2942731 L217.725421,88.2942731 L217.725421,88.2942731 Z" id="Shape-2" fill="#001A64"></path>
        <path d="M176.380517,13.0067705 C175.632637,16.2129391 171.749198,32.3431929 181.801265,41.2008032 C174.955851,19.1961351 185.420637,2.6366581 190.509917,0 C190.604094,19.7935177 223.710266,35.6320475 223.749968,56.9520027 C223.766588,65.8151877 217.234177,79.956334 207.015914,80 L182.803979,80 L155.258897,80 C146.957425,79.9646962 141.862606,71.3727947 141.293847,62.527262 C140.392697,48.502247 153.650493,36.9513062 156.364099,35.5121999 C155.16749,43.6730189 159.36116,50.3817252 162.237268,51.6387367 C154.850795,30.6402347 167.814978,17.0602375 176.380517,13.0067705 L176.380517,13.0067705 L176.380517,13.0067705 Z" id="Shape-1" fill="#E00000"></path>
    </g>
</svg>