<?xml version="1.0" encoding="UTF-8"?>
<svg width="811px" height="200px" viewBox="0 0 811 200" version="1.1" xmlns="http://www.w3.org/2000/svg" xmlns:xlink="http://www.w3.org/1999/xlink">
    <!-- Generator: Sketch 57.1 (83088) - https://sketch.com -->
    <title>Gas / Full / Horizontal / Color</title>
    <desc>Created with Sketch.</desc>
    <g id="Gas-/-Full-/-Horizontal-/-Color" stroke="none" stroke-width="1" fill="none" fill-rule="evenodd">
        <path d="M12.3073559,135.464067 C13.028543,134.194255 13.2450096,136.339341 12.4284741,138.713192 C8.29131181,150.744166 -7.67751623,177.725906 26.837123,182.244106 C34.7064931,183.274469 69.0087152,175.68544 65.39873,133.416234 C64.8726573,127.252841 74.250667,106.456597 72.7063179,115.375483 C71.3898476,122.979615 72.449724,152.974348 57.385417,177.151231 C50.0752522,188.883815 34.8563262,202.602713 19.8498173,199.574248 C-16.1499004,192.309395 6.71346187,145.307222 12.3073559,135.464067 Z M327.166097,107.099054 C326.722488,108.819764 324.676363,116.674765 323.155943,116.149452 C319.642043,114.93453 315.924929,113.186559 316.700601,100.32378 C317.40154,88.6958158 320.731002,75.6727905 319.798871,74.182687 C318.866739,72.6929519 313.131111,88.5083096 311.34158,95.6906451 C309.382337,103.555223 309.919454,113.948004 309.197898,118.5012 C308.613659,122.1887 299.834246,133.003646 298.751545,138.575049 C297.877948,143.071515 296.199227,149.198437 302.703165,151.929249 C306.182828,153.389882 312.065344,153.918878 313.170502,156.365669 C316.362648,163.432332 296.829116,181.682692 278.216671,179.008979 C249.540371,174.889736 269.142746,140.695453 275.388616,124.303947 C275.436106,124.158436 275.370209,124.000032 275.233629,123.930776 C275.096681,123.861889 274.930281,123.903516 274.84156,124.028398 C267.594715,136.07337 239.487928,189.535114 272.229235,196.003894 C306.97433,202.868316 321.999246,151.717062 316.013282,140.643143 C313.896107,136.726879 306.987583,137.282767 306.198658,135.215041 C305.188113,132.566009 309.157035,127.379933 310.578425,124.972928 C311.376185,126.959241 313.22425,132.774144 319.837157,133.476648 C323.95444,133.913917 332.206676,128.159797 332.219931,112.436535 C332.222506,109.757295 328.862488,106.569321 327.166097,107.099054 Z M533.674847,100.969553 C533.836829,100.715738 534.15343,100.610749 534.433217,100.719054 C534.713003,100.826989 534.878667,101.118011 534.827127,101.414558 C533.310388,108.480485 528.185873,115.143034 526.308357,115.200133 C524.423478,115.257232 523.271198,115.694501 521.154391,116.38227 C516.063009,118.035935 507.463248,135.389654 498.988655,141.835226 C498.046215,142.461843 496.945475,142.812174 495.811603,142.846065 C487.96653,143.052359 482.923006,145.398581 478.199764,147.441257 C467.490558,152.071813 457.683297,172.357113 448.899466,179.983716 C437.593873,189.799612 427.926505,194.196983 423.409422,195.887854 C423.236396,195.931691 423.056007,195.842912 422.982379,195.677877 C422.912432,195.51321 423.048644,195.228083 423.199582,195.129725 C428.121619,191.864391 438.337517,185.069961 445.71137,176.037981 C456.880751,162.359237 466.128439,142.873325 477.989924,132.927023 C490.878521,122.118339 504.253063,125.387726 507.875565,123.32221 C511.494386,121.256695 515.046941,112.14404 519.611882,108.816081 C522.442882,106.749092 525.538944,106.14163 529.680524,105.77067 C530.549335,105.692942 532.702957,102.432765 533.674847,100.969553 Z M109.595463,187.18705 C109.163634,186.847034 109.066445,186.231468 109.37237,185.774675 C111.106679,183.183847 116.499201,175.129184 118.079628,172.768227 C118.329227,172.393583 118.832107,172.28712 119.211659,172.528779 C120.772943,173.511621 124.530553,175.984198 125.510911,177.750956 C127.001511,180.436826 126.678284,182.949188 125.738421,185.421397 C124.630687,188.335295 121.330308,191.553476 119.559184,193.134939 C118.915306,193.714403 117.948201,193.746084 117.267878,193.210457 C115.280288,191.662886 111.272711,188.507329 109.595463,187.18705 Z M126.750439,184.652585 C126.318611,184.312568 126.221422,183.697371 126.527346,183.240578 C128.261656,180.64975 133.654177,172.594719 135.234604,170.23413 C135.484203,169.859486 135.987083,169.753023 136.366636,169.994682 C137.92792,170.977524 141.685529,173.450101 142.665887,175.216859 C144.156488,177.902729 143.83326,180.415091 142.893398,182.8873 C141.785663,185.801198 138.485284,189.01938 136.714161,190.600473 C136.070283,191.180306 135.103178,191.211987 134.422854,190.67636 C132.435264,189.128421 128.427687,185.973232 126.750439,184.652585 Z M138.554495,120.68644 C139.353359,121.657125 136.306629,132.371872 133.294136,136.719879 C128.587828,143.513204 123.28182,142.440845 119.569124,146.734333 C113.598254,153.63854 114.300666,163.354604 108.488465,168.129934 C105.582364,170.517415 102.025023,171.986153 95.6771771,172.921842 C91.0080519,173.609549 87.0402342,174.06714 86.8513781,172.862164 C86.4556272,170.338382 103.351433,162.430703 109.671668,154.817361 C112.51813,151.388465 116.568779,140.33665 120.346268,135.892863 C123.427604,132.267251 128.214902,131.611901 132.335866,128.152429 C134.617601,126.237213 136.996156,118.793327 138.554495,120.68644 Z M467.534735,76.1391615 C467.586275,75.9634435 467.762982,75.8540342 467.947052,75.8812944 C468.127441,75.9085547 468.434174,76.2585172 468.434174,76.4423396 C468.447723,80.5055883 468.318874,88.2124992 468.340963,95.687698 C468.381458,108.364076 467.858699,122.425569 464.777363,127.579596 C462.340274,131.654633 460.017307,137.305975 456.545743,138.713561 C452.507242,140.348438 452.05443,137.158254 444.216719,140.172352 C440.498501,141.60204 437.317768,148.081136 435.322446,151.053606 C423.888004,168.11262 394.80859,170.291966 381.57026,171.250495 C371.446398,171.983205 355.677102,172.553092 350.577252,167.112464 C345.592263,161.794876 347.428179,148.501091 348.847729,141.243974 C348.912153,140.924218 349.195253,140.695453 349.521426,140.699874 C349.847598,140.704295 350.12444,140.940427 350.180029,141.262024 C350.675178,144.501572 351.362496,146.968992 352.828431,149.012404 C357.610207,155.679374 378.787118,154.194428 391.517415,153.091493 C413.775186,151.163753 429.222359,147.238647 438.197623,139.379963 C441.54402,136.446909 442.784653,129.596117 451.527989,128.214317 C455.404508,127.601699 456.969104,129.574014 458.887116,128.668532 C465.171274,125.699008 461.346294,102.780148 461.905868,96.8845698 C463.11705,90.9392596 466.143164,80.8415523 467.534735,76.1391615 Z M89.5778263,104.923761 C88.6467991,101.970814 83.6205776,117.518727 82.1840936,122.222591 C80.6158153,127.358935 81.5501557,151.889096 80.0047022,160.930653 C79.333214,164.859074 77.25727,171.930527 78.1286585,171.555146 C80.5374014,170.517415 85.4760054,158.522911 86.6824017,150.556291 C88.2584109,140.146565 88.1788926,108.470539 89.5778263,104.923761 Z M289.419185,59.421269 C292.65698,56.1765641 288.614798,67.0685021 286.088986,70.8945131 C278.412522,82.5224774 240.417851,115.581408 232.213105,124.884516 C234.683696,124.101337 241.605472,124.588338 244.003171,127.981132 C249.580867,135.874075 242.747444,154.499816 238.861353,161.324821 C234.505884,168.974633 228.312289,171.266335 223.893499,170.903847 C220.496667,170.624983 213.926465,167.127936 213.729878,153.060181 C213.577836,142.167875 219.067546,108.363708 220.109383,105.653525 C221.380204,102.34951 225.084433,91.2796442 225.414287,94.0421376 C225.833231,97.5564978 222.825156,111.952113 221.508685,126.881144 C230.317182,118.860004 279.83244,71.232319 289.419185,59.421269 Z M202.351393,124.741953 C203.404275,125.745792 195.80696,154.818098 189.557408,162.315768 C185.124997,167.633724 167.933943,169.908849 167.121457,168.702031 C166.309339,167.494844 173.19467,164.143309 185.409202,154.684007 C194.915324,147.322638 199.634148,122.151125 202.351393,124.741953 Z M158.155028,101.342355 C157.224001,98.3894085 152.19778,113.93769 150.761295,118.641554 C149.193017,123.77753 150.127358,148.30769 148.581904,157.349616 C147.910416,161.278037 145.834472,168.349121 146.705492,167.97374 C149.114603,166.93601 154.053207,154.941506 155.259235,146.974886 C156.835613,136.565159 156.755726,104.889501 158.155028,101.342355 Z M27.2339784,150.372469 C26.8017815,150.032453 26.7045924,149.416887 27.0105171,148.960094 C28.7448267,146.369266 34.137348,138.314603 35.7177749,135.953646 C35.9673741,135.579002 36.470254,135.472908 36.8501749,135.714198 C38.4110904,136.69704 42.1686999,139.169617 43.149426,140.936743 C44.6396585,143.622245 44.3164312,146.134607 43.3765687,148.606816 C42.2692022,151.520714 38.968455,154.738896 37.1973313,156.320358 C36.5534537,156.899822 35.5863487,156.931871 34.9060252,156.395876 C32.918435,154.848305 28.9112262,151.693117 27.2339784,150.372469 Z M221.202761,146.119872 C221.370633,143.853589 225.307158,139.711138 231.371904,140.094991 C237.644281,140.491738 240.029831,144.082354 240.054496,146.983358 C240.098305,152.091337 233.429809,153.676115 230.365776,153.692324 C222.249016,153.735424 221.034889,148.386155 221.202761,146.119872 Z M374.292124,123.093445 C373.857718,122.753429 373.762001,122.138232 374.067558,121.681439 C375.801499,119.090611 381.194757,111.035579 382.774079,108.67499 C383.024415,108.300346 383.528767,108.193884 383.907952,108.435542 C385.468867,109.418384 389.227581,111.890962 390.206835,113.65772 C391.697804,116.34359 391.37384,118.855952 390.435082,121.328161 C389.326979,124.242059 386.024759,127.46024 384.254004,129.041334 C383.609758,129.621167 382.64523,129.652847 381.96417,129.117221 C379.976212,127.569281 375.967163,124.414093 374.292124,123.093445 Z M391.447468,120.559348 C391.013063,120.219332 390.917346,119.604135 391.222903,119.147342 C392.956844,116.556514 398.350102,108.501483 399.929424,106.140894 C400.17976,105.766249 400.684112,105.659787 401.063297,105.901446 C402.624212,106.884288 406.379245,109.356865 407.36218,111.123623 C408.853148,113.809493 408.529185,116.321487 407.590427,118.794064 C406.482324,121.707962 403.180104,124.925775 401.409349,126.507237 C400.765103,127.086701 399.796893,127.118751 399.119515,126.583124 C397.131557,125.035184 393.122507,121.879996 391.447468,120.559348 Z M195.350098,108.626732 C194.918269,108.286716 194.820712,107.671519 195.126637,107.214726 C196.860946,104.623898 202.253468,96.5688668 203.833894,94.2082777 C204.083494,93.8336336 204.586374,93.7271713 204.966294,93.9688296 C206.52721,94.9516717 210.284819,97.4242488 211.265546,99.1910068 C212.756146,101.876877 212.432551,104.388871 211.493056,106.861448 C210.385322,109.775346 207.084575,112.993159 205.313451,114.574621 C204.669941,115.154085 203.702836,115.186135 203.022145,114.650508 C201.034923,113.102568 197.027346,109.94738 195.350098,108.626732 Z M505.195503,85.4555315 C504.761097,85.1155153 504.66538,84.4999497 504.970937,84.0431565 C506.704878,81.4526973 512.098136,73.3976659 513.677458,71.0370768 C513.927794,70.6624327 514.432146,70.5559704 514.811331,70.7976287 C516.372246,71.7804708 520.127279,74.2526795 521.110214,76.0198059 C522.601183,78.7053076 522.277219,81.2176699 521.338461,83.6898786 C520.230358,86.6041452 516.928139,89.8219583 515.157383,91.4034204 C514.513137,91.9828846 513.548609,92.0149338 512.867549,91.4789386 C510.879591,89.9313676 506.870542,86.7761794 505.195503,85.4555315 Z M522.350847,82.9214347 C521.916442,82.5814185 521.820725,81.9658529 522.126282,81.5090597 C523.860223,78.9182321 529.253481,70.863569 530.832803,68.5026115 C531.083139,68.1279675 531.587491,68.0218736 531.966676,68.2631635 C533.527591,69.2460056 537.282624,71.7185827 538.265559,73.4857091 C539.756527,76.1712107 539.432564,78.6835731 538.493806,81.1557818 C537.385703,84.06968 534.083483,87.2878614 532.312728,88.8693235 C531.668482,89.4487877 530.700273,89.4808369 530.022894,88.9448417 C528.034936,87.3972708 524.025886,84.2420826 522.350847,82.9214347 Z M258.281866,85.6515105 C257.493677,86.3768538 258.912859,82.5434752 259.888799,81.4154908 C263.404172,77.3529788 275.41365,64.9131015 278.74753,61.864744 C279.977487,60.7400751 277.349332,65.9570949 276.266999,67.2173282 C272.595535,71.492028 261.18539,82.9814809 258.281866,85.6515105 Z M514.244395,66.910098 C513.809989,66.5700818 513.714272,65.9548846 514.019829,65.4980914 C515.753771,62.9072638 521.147028,54.8522324 522.726351,52.4916433 C522.976686,52.1169992 523.481038,52.0105369 523.860223,52.2521952 C525.421139,53.2350373 529.179853,55.7076144 530.159106,57.4743724 C531.650075,60.1602425 531.326111,62.6722364 530.387353,65.1448135 C529.27925,68.0587117 525.977031,71.2765248 524.206275,72.8579869 C523.562029,73.4374511 522.597501,73.4695003 521.916442,72.9338735 C519.928483,71.3859341 515.919434,68.2307459 514.244395,66.910098 Z M469.379119,72.4652921 C469.099332,72.6586924 468.723829,72.6435888 468.462449,72.4288223 C468.201069,72.2136875 468.116397,71.8512 468.252609,71.5424963 C469.960781,67.8063704 472.257977,64.0039358 474.580943,61.8908991 C487.591027,50.0599565 538.00786,11.1500213 547.307088,0.163040933 C547.402805,0.0226875537 547.583193,-0.0351483531 547.745175,0.021582409 C547.907157,0.0783131711 548.010236,0.235612102 547.999192,0.405804389 C547.336539,3.75144583 544.137399,8.84284754 540.875674,13.2917918 C531.101546,26.6132062 482.160955,63.3397438 469.379119,72.4652921 Z" id="Shape-3" fill="#000000"></path>
        <path d="M698.917268,145.645057 C703.129424,123.15704 720.693167,109.517859 741.192208,109.517859 C762.795334,109.517859 781.934362,126.01517 781.965775,149.815357 C754.305421,161.700665 775.583328,198.11728 794.123655,179.558198 C794.354635,179.327182 775.395771,185.307169 774.385002,167.586952 C773.708691,155.732137 789.713779,149.750672 797.716785,153.945922 C805.719791,158.142096 811,165.24445 811,174.901841 C811,190.963455 798.977014,199.997658 785.128358,199.997658 C779.569124,199.997658 768.249241,200.602643 760.543738,182.365504 C751.939259,188.826928 735.199654,185.781491 733.018276,189.707098 C733.018276,189.707098 729.270852,191.430755 731.759896,198.495592 C727.641054,197.907241 718.516409,187.342235 728.456877,179.434374 C723.896402,170.179875 726.444577,154.258256 746.390188,153.949618 C739.652031,157.960055 739.266756,170.393334 750.079406,169.913744 C756.931206,169.610652 764.92682,158.402682 765.202149,148.637176 C765.50889,137.713817 754.662055,126.07431 741.719767,125.447794 C733.498715,125.049523 725.628754,128.175631 720.87056,135.420291 C718.138525,139.579502 716.437586,145.216292 716.279595,152.203138 C714.319035,153.548574 713.230656,155.430893 712.433311,157.355717 C716.860741,161.881782 719.591853,168.075781 719.591853,174.901841 C719.591853,188.752171 708.348656,199.997196 694.5,199.997196 C680.651344,199.997196 669.408147,188.752171 669.408147,174.901841 C669.408147,168.075781 672.139259,161.881782 676.566689,157.355717 C675.769344,155.430893 674.680965,153.548574 672.720405,152.203138 C672.562414,145.216292 670.861475,139.579502 668.12944,135.420291 C663.371246,128.175631 655.501285,125.049523 647.280233,125.447794 C634.337945,126.07431 623.49111,137.713817 623.797851,148.637176 C624.07318,158.402682 632.068794,169.610652 638.920594,169.913744 C649.733244,170.393334 649.347969,157.960055 642.609812,153.949618 C662.555423,154.258256 665.103598,170.179875 660.543123,179.434374 C670.483591,187.342235 661.358946,197.907241 657.240104,198.495592 C659.729148,191.430755 655.981724,189.707098 655.981724,189.707098 C653.800346,185.781491 637.060741,188.826928 628.456262,182.365504 C620.750759,200.602643 609.430876,199.997658 603.871642,199.997658 C590.022986,199.997658 578,190.963455 578,174.901841 C578,165.24445 583.280209,158.142096 591.283215,153.945922 C599.286221,149.750672 615.291309,155.732137 614.614998,167.586952 C613.604229,185.307169 594.645365,179.327182 594.876345,179.558198 C613.416672,198.11728 634.694579,161.700665 607.034225,149.815357 C607.065638,126.01517 626.203743,109.517859 647.807792,109.517859 C668.306833,109.517859 685.870576,123.15704 690.082732,145.645057 C690.336811,147.000658 690.503117,149.670279 694.475978,149.806116 L694.5,149.806116 C698.496883,149.670279 698.663189,147.000658 698.917268,145.645057 Z M694.5,165.363655 C699.763579,165.363655 704.036715,169.637449 704.036715,174.901841 C704.036715,180.165309 699.763579,184.439473 694.5,184.439473 C689.236421,184.439473 684.963285,180.165309 684.963285,174.901841 C684.963285,169.637449 689.236421,165.363655 694.5,165.363655 L694.5,165.363655 L694.5,165.363655 Z M694.455652,139.591515 C690.674966,124.442413 681.428363,117.083169 672.75459,108.141928 C671.280012,106.60983 670.863323,104.34495 671.694852,102.388707 C672.527305,100.431539 674.448138,99.1609519 676.575004,99.1609519 C681.749887,99.1591034 688.122172,99.1572557 694.5,99.1572557 L699.263738,99.1572557 C703.989595,99.1581795 708.543603,99.1591034 712.424996,99.1609519 C714.551862,99.1609519 716.472695,100.431539 717.305148,102.388707 C718.136677,104.34495 717.719988,106.60983 716.24541,108.141928 C707.537452,117.118283 698.252968,124.500629 694.5,139.769859 L694.455652,139.591515 L694.455652,139.591515 Z M729.725421,88.7495248 C729.725421,87.2248193 729.119329,85.7620266 728.041112,84.6845682 C726.962896,83.6061859 725.501253,83 723.976783,83 L665.023217,83 C663.498747,83 662.037104,83.6061859 660.958887,84.6845682 C659.880671,85.7620266 659.274579,87.2248193 659.274579,88.7495248 L659.274579,88.9796166 C659.274579,90.5043221 659.880671,91.9671149 660.958887,93.0445733 C662.037104,94.1229555 663.498747,94.7291415 665.023217,94.7291415 L723.976783,94.7291415 C725.501253,94.7291415 726.962896,94.1229555 728.041112,93.0445733 C729.119329,91.9671149 729.725421,90.5043221 729.725421,88.9796166 L729.725421,88.7495248 L729.725421,88.7495248 L729.725421,88.7495248 Z" id="Shape-2" fill="#001A64"></path>
        <path d="M688.380517,13.4620223 C687.632637,16.6681908 683.749198,32.7984447 693.801265,41.6560549 C686.955851,19.6513868 697.420637,3.09190983 702.509917,0.455251727 C702.604094,20.2487695 735.710266,36.0872992 735.749968,57.4072544 C735.766588,66.2704394 729.234177,80.4115858 719.015914,80.4552517 L694.803979,80.4552517 L667.258897,80.4552517 C658.957425,80.4199479 653.862606,71.8280464 653.293847,62.9825137 C652.392697,48.9574987 665.650493,37.4065579 668.364099,35.9674516 C667.16749,44.1282706 671.36116,50.8369769 674.237268,52.0939885 C666.850795,31.0954865 679.814978,17.5154892 688.380517,13.4620223 L688.380517,13.4620223 L688.380517,13.4620223 Z" id="Shape-1" fill="#E00000"></path>
    </g>
</svg>