<?xml version="1.0" encoding="UTF-8"?>
<svg width="403px" height="274px" viewBox="0 0 403 274" version="1.1" xmlns="http://www.w3.org/2000/svg" xmlns:xlink="http://www.w3.org/1999/xlink">
    <!-- Generator: Sketch 57.1 (83088) - https://sketch.com -->
    <title>Post / Full / Vertical / Mono</title>
    <desc>Created with Sketch.</desc>
    <g id="Post-/-Full-/-Vertical-/-Mono" stroke="none" stroke-width="1" fill="none" fill-rule="evenodd">
        <path d="M117.813519,262.890378 L117.813519,274 L111.04119,274 L111.04119,269.663565 L101.832162,269.663565 L101.832162,262.890378 L117.813519,262.890378 Z M188.590052,219 L188.590052,247.084258 C188.590052,250.144534 191.023432,252.637078 194.06175,252.730047 L194.237696,252.732735 L203.361251,252.732735 L203.361251,243.114653 C203.361251,238.200528 207.2861,234.203328 212.172089,234.086826 L212.391497,234.084212 L229.868635,234.084212 L229.868635,250.474769 C229.868635,255.388894 225.943786,259.386094 221.057797,259.502596 L220.838389,259.505209 L214.00979,259.505209 C211.109399,259.505209 208.746776,257.3085 208.429813,254.492809 C208.117502,257.249289 205.847703,259.411482 203.030082,259.502242 L202.845562,259.505209 L191.144277,259.505209 C188.162491,259.505209 185.737984,257.184988 185.540016,254.254114 L185.530823,254.077543 L185.487374,254.077543 C185.371455,257.032857 183.001087,259.410341 180.040162,259.50244 L179.861811,259.505209 L172.439886,259.505209 L172.439886,263.825262 C172.439886,269.352744 168.003452,273.862973 162.504882,273.982264 L162.281393,273.984686 L137.734907,273.984686 C133.183348,273.984686 129.46871,270.339303 129.355491,265.815134 L129.352832,265.602431 L129.352832,249.452629 L136.125161,247.613491 L136.125161,265.602431 C136.125161,266.452285 136.788476,267.151025 137.62487,267.207778 L137.734907,267.211499 L162.281393,267.211499 C164.096413,267.211499 165.582884,265.776087 165.664066,263.980065 L165.667557,263.825262 L165.667557,259.505209 L150.298047,259.505209 L150.298047,252.732735 L176.168656,252.732735 C179.229565,252.732735 181.721383,250.297932 181.814324,247.260169 L181.817011,247.084258 L181.817011,221.819965 L188.590052,219 Z M348.914678,235.87634 L348.914678,252.732735 L403,252.732735 L403,259.505209 L353.468977,259.505209 C351.66164,259.505209 350.06368,258.647211 349.031272,257.324925 L348.914678,257.170316 L348.914678,259.368449 C348.914678,261.471594 348.057651,263.910536 346.554353,265.404746 L346.384671,265.566816 L337.125071,272.277321 L329.757279,269.771477 L341.806155,260.577922 C342.001378,260.397712 342.120591,259.774594 342.139104,259.449243 L342.141637,259.368449 L342.141637,238.696304 L348.914678,235.87634 Z M310.557784,219.000712 L314.849252,224.753184 L309.666726,232.444516 L325.051194,232.444516 C330.372078,232.444516 334.700042,236.698296 334.817618,241.991738 L334.820072,242.212891 L334.820072,249.735409 C334.820072,255.05711 330.564997,259.385177 325.271631,259.502756 L325.050482,259.505209 L292.567806,259.505209 C289.775062,259.505209 287.478554,257.4725 287.021273,254.810783 L286.993527,254.632418 L286.838251,254.632418 C286.467557,257.320702 284.227112,259.412534 281.459236,259.502212 L281.273944,259.505209 L238.372794,259.505209 L238.372794,252.732735 L282.322416,252.732735 L282.322416,238.696304 L289.095457,235.87634 L289.095457,252.732735 L325.051194,252.732735 C326.655674,252.732735 327.966127,251.470875 328.044075,249.885655 L328.047743,249.736122 L328.047743,242.213603 C328.047743,240.608399 326.785241,239.297896 325.200014,239.219946 L325.050482,239.216278 L296.936201,239.216278 L310.557784,219.000712 Z M120.122649,235.799768 L120.122649,250.807765 C120.122649,255.531666 116.33883,259.38645 111.643111,259.502177 L111.425749,259.504853 L73.5319054,259.504853 L73.5319054,259.428638 L54.1836158,259.428638 C51.3936582,259.428638 49.0992564,257.395247 48.6474002,254.7335 L48.620021,254.555135 L48.4647446,254.555135 C48.0954445,257.244115 45.8543474,259.335962 43.0864424,259.425641 L42.9011498,259.428638 L0,259.428638 L0,252.655451 L45.1562184,252.655451 L45.1562184,238.619733 L51.9292594,235.799768 L51.9292594,252.655451 L97.0854778,252.655451 L97.0854778,252.732379 L111.425749,252.732379 C112.446222,252.732379 113.283622,251.93487 113.346527,250.929384 L113.350321,250.807765 L113.350321,238.619733 L120.122649,235.799768 Z M223.095594,240.856687 L212.391497,240.856687 C211.190058,240.856687 210.204419,241.801581 210.137873,242.98678 L210.134292,243.114653 L210.134292,252.732735 L220.838389,252.732735 C222.039828,252.732735 223.025467,251.787841 223.092013,250.602642 L223.095594,250.474769 L223.095594,240.856687 Z M271.102274,237.88365 L271.102274,244.656837 L252.806017,244.656837 L252.806017,237.88365 L271.102274,237.88365 Z M390.788084,233.547429 L390.788084,244.657051 L374.806727,244.657051 L374.806727,237.883864 L384.015755,237.883864 L384.015755,233.547429 L390.788084,233.547429 Z M32.7295508,237.806723 L32.7295508,244.579909 L14.4340064,244.579909 L14.4340064,237.806723 L32.7295508,237.806723 Z" id="Shape-2" fill="#FFFFFF"></path>
        <path d="M194.624845,94.052226 L284.297441,38.9176185 L278.310992,71.1958156 C275.02613,83.6099759 262.726124,102.549187 252.84001,110.363867 C247.73734,114.397409 235.188063,122.552243 217.504589,133.325774 C212.870904,136.148564 206.86869,134.836258 203.829158,130.339316 L172.57075,83.2027764 C165.269962,72.1936021 154.117786,64.7042874 141.170464,62.1151694 C128.222156,59.5270374 115.05118,62.1516497 104.082263,69.5078605 L92,77.6114252 L157.699212,173.225404 C168.832667,189.427604 187.205825,199.435048 206.847015,199.996056 L294.021973,200 L257.81361,144.621862 L241.783404,155.118339 L258.594923,180.82909 L207.262795,180.82909 C193.761756,180.401185 181.14154,173.505415 173.485073,162.363137 L118.988285,83.0529113 C124.716596,80.4154815 131.109958,79.6533382 137.416617,80.9143747 C145.330238,82.4968326 152.146278,87.0736361 156.608527,93.8027794 L187.886641,140.967912 L187.92014,141.018196 C196.684041,154.056466 214.055188,157.871126 227.466569,149.69953 C246.324475,138.211182 258.857002,130.037614 264.715367,125.406583 C277.976003,114.924895 292.737192,92.1404592 296.947214,75.6513466 L297.02702,75.3417567 L311,8.52651283e-14 L184.595867,77.7179084 L194.624845,94.052226 Z" id="Shape-1" fill="#FFFFFF"></path>
    </g>
</svg>