<?xml version="1.0" encoding="UTF-8"?>
<svg width="830px" height="200px" viewBox="0 0 830 200" version="1.1" xmlns="http://www.w3.org/2000/svg" xmlns:xlink="http://www.w3.org/1999/xlink">
    <!-- Generator: Sketch 57.1 (83088) - https://sketch.com -->
    <title>Post / Full / Horizontal / Yellow</title>
    <desc>Created with Sketch.</desc>
    <g id="Post-/-Full-/-Horizontal-/-Yellow" stroke="none" stroke-width="1" fill="none" fill-rule="evenodd">
        <path d="M435.83407,160.57335 L435.83407,175.924828 L426.473804,175.924828 L426.473804,169.932663 L413.745693,169.932663 L413.745693,160.57335 L435.83407,160.57335 Z M533.656723,99.9248276 L533.656723,138.732165 C533.656723,142.960911 537.019979,146.405153 541.219342,146.533619 L541.462523,146.537334 L554.072498,146.537334 L554.072498,133.246894 C554.072498,126.456467 559.497166,120.933062 566.250257,120.772077 L566.553509,120.768466 L590.709255,120.768466 L590.709255,143.417235 C590.709255,150.207662 585.284587,155.731067 578.531496,155.892052 L578.228245,155.895662 L568.790207,155.895662 C564.781477,155.895662 561.516016,152.86021 561.07793,148.969437 C560.646275,152.778391 557.509108,155.766148 553.614779,155.891562 L553.359747,155.895662 L537.187004,155.895662 C533.065775,155.895662 529.714781,152.689538 529.441164,148.639604 L529.428458,148.395614 L529.368406,148.395614 C529.208189,152.479321 525.932024,155.764572 521.839629,155.891835 L521.593124,155.895662 L511.335029,155.895662 L511.335029,161.865189 C511.335029,169.503165 505.203283,175.735482 497.603521,175.900319 L497.29463,175.903666 L463.368097,175.903666 C457.077232,175.903666 451.943106,170.86641 451.786621,164.614831 L451.782947,164.320914 L451.782947,142.004824 L461.143212,139.463469 L461.143212,164.320914 C461.143212,165.495257 462.060003,166.460789 463.216012,166.539211 L463.368097,166.544353 L497.29463,166.544353 C499.803231,166.544353 501.857733,164.560875 501.969937,162.079099 L501.974763,161.865189 L501.974763,155.895662 L480.732039,155.895662 L480.732039,146.537334 L516.488688,146.537334 C520.719274,146.537334 524.163301,143.172879 524.291758,138.975243 L524.295472,138.732165 L524.295472,103.821506 L533.656723,99.9248276 Z M755.246838,123.24486 L755.246838,146.537334 L830,146.537334 L830,155.895662 L761.541489,155.895662 C759.043508,155.895662 756.834912,154.710065 755.407987,152.882906 L755.246838,152.669264 L755.246838,155.706685 C755.246838,158.612848 754.062312,161.983023 751.984552,164.047749 L751.750029,164.271701 L738.952022,173.544399 L728.768745,170.081778 L745.421907,157.377956 C745.691731,157.128938 745.856499,156.267903 745.882086,155.818326 L745.885588,155.706685 L745.885588,127.141539 L755.246838,123.24486 Z M702.232471,99.9258118 L708.163855,107.874682 L701.000909,118.502704 L722.264306,118.502704 C729.618481,118.502704 735.600307,124.380655 735.762812,131.695229 L735.766204,132.000823 L735.766204,142.395575 C735.766204,149.749198 729.88512,155.7298 722.568979,155.892272 L722.263321,155.895662 L677.367911,155.895662 C673.507964,155.895662 670.333883,153.086828 669.701859,149.408818 L669.663511,149.162351 L669.448898,149.162351 C668.93655,152.877071 665.839953,155.767601 662.014378,155.891521 L661.75828,155.895662 L602.463142,155.895662 L602.463142,146.537334 L663.207408,146.537334 L663.207408,127.141539 L672.568658,123.24486 L672.568658,146.537334 L722.264306,146.537334 C724.481911,146.537334 726.293133,144.793673 726.400868,142.603187 L726.405938,142.396559 L726.405938,132.001807 C726.405938,129.783706 724.66099,127.97283 722.469994,127.865117 L722.263321,127.860048 L683.405617,127.860048 L702.232471,99.9258118 Z M439.025597,123.139053 L439.025597,143.877376 C439.025597,150.404947 433.795852,155.731559 427.305739,155.891473 L427.005315,155.89517 L374.630946,155.89517 L374.630946,155.789855 L347.889017,155.789855 C344.032922,155.789855 340.861751,152.980079 340.237226,149.302028 L340.199384,149.055559 L339.984771,149.055559 C339.474349,152.771241 336.376852,155.661793 332.551237,155.785713 L332.295137,155.789855 L273,155.789855 L273,146.430542 L335.411945,146.430542 L335.411945,127.035731 L344.773195,123.139053 L344.773195,146.430542 L407.185139,146.430542 L407.185139,146.536842 L427.005315,146.536842 C428.415746,146.536842 429.573145,145.434829 429.660089,144.045431 L429.665332,143.877376 L429.665332,127.035731 L439.025597,123.139053 Z M581.348005,130.126795 L566.553509,130.126795 C564.892959,130.126795 563.530674,131.432467 563.438698,133.070196 L563.433748,133.246894 L563.433748,146.537334 L578.228245,146.537334 C579.888795,146.537334 581.25108,145.231662 581.343056,143.593933 L581.348005,143.417235 L581.348005,130.126795 Z M647.699669,126.018599 L647.699669,135.377911 L622.41179,135.377911 L622.41179,126.018599 L647.699669,126.018599 Z M813.121496,120.026729 L813.121496,135.378207 L791.033119,135.378207 L791.033119,126.018894 L803.76123,126.018894 L803.76123,120.026729 L813.121496,120.026729 Z M318.236625,125.912299 L318.236625,135.271612 L292.949731,135.271612 L292.949731,125.912299 L318.236625,125.912299 Z" id="Shape-2" fill="#FFC600"></path>
        <path d="M102.624845,94.052226 L192.297441,38.9176185 L186.310992,71.1958156 C183.02613,83.6099759 170.726124,102.549187 160.84001,110.363867 C155.73734,114.397409 143.188063,122.552243 125.504589,133.325774 C120.870904,136.148564 114.86869,134.836258 111.829158,130.339316 L80.5707499,83.2027764 C73.2699617,72.1936021 62.117786,64.7042874 49.1704637,62.1151694 C36.2221562,59.5270374 23.0511796,62.1516497 12.0822626,69.5078605 L-8.52651283e-14,77.6114252 L65.6992118,173.225404 C76.8326675,189.427604 95.2058252,199.435048 114.847015,199.996056 L202.021973,200 L165.81361,144.621862 L149.783404,155.118339 L166.594923,180.82909 L115.262795,180.82909 C101.761756,180.401185 89.1415402,173.505415 81.4850726,162.363137 L26.9882848,83.0529113 C32.7165956,80.4154815 39.1099579,79.6533382 45.4166172,80.9143747 C53.3302381,82.4968326 60.1462776,87.0736361 64.6085272,93.8027794 L95.8866409,140.967912 L95.9201398,141.018196 C104.684041,154.056466 122.055188,157.871126 135.466569,149.69953 C154.324475,138.211182 166.857002,130.037614 172.715367,125.406583 C185.976003,114.924895 200.737192,92.1404592 204.947214,75.6513466 L205.02702,75.3417567 L219,8.52651283e-14 L92.5958673,77.7179084 L102.624845,94.052226 Z" id="Shape-1" fill="#FFC600"></path>
    </g>
</svg>