<?xml version="1.0" encoding="UTF-8"?>
<svg width="48px" height="48px" viewBox="0 0 48 48" version="1.1" xmlns="http://www.w3.org/2000/svg" xmlns:xlink="http://www.w3.org/1999/xlink">
    <!-- Generator: Sketch 57.1 (83088) - https://sketch.com -->
    <title>Icon/Mono/Electricity</title>
    <desc>Created with Sketch.</desc>
    <g id="Ready-For-Export" stroke="none" stroke-width="1" fill="none" fill-rule="evenodd">
        <g id="Artboard" transform="translate(-288.000000, -184.000000)" fill="#FFFFFF">
            <g id="Service_(Mono)" transform="translate(80.000000, 184.000000)">
                <g id="Electricity-/-[Icon]-/-Mono" transform="translate(208.000000, 0.000000)">
                    <path d="M40.4327,6.5145 L40.5011,6.5788 C40.7925,6.855 41.0767,7.1381 41.3538,7.4281 C41.3779,7.4534 41.4017,7.4785 41.4255,7.5036 C41.7073,7.801 41.9816,8.1058 42.248,8.4175 C42.276,8.4503 42.3037,8.4828 42.3313,8.5155 C42.7227,8.9782 43.0968,9.4558 43.4527,9.9475 C43.4766,9.9805 43.5007,10.0139 43.5247,10.0474 C43.6257,10.1885 43.725,10.3303 43.8228,10.4733 C43.8386,10.4963 43.8544,10.5196 43.8703,10.5428 C46.4766,14.3821 48,19.0145 48,23.9999 C48,28.6802 46.6574,33.0493 44.3367,36.7429 C44.3086,36.7878 44.2803,36.8325 44.2518,36.8772 C44.0872,37.1353 43.9179,37.3899 43.744,37.6411 C43.7061,37.6959 43.668,37.7502 43.6298,37.8045 C43.5877,37.8642 43.5454,37.9236 43.5029,37.9828 C43.4599,38.0426 43.4168,38.102 43.3734,38.1613 L43.3669,38.1702 C43.2903,38.2746 43.213,38.3784 43.1348,38.4815 C43.0902,38.5402 43.0455,38.5986 43.0006,38.6567 C42.8163,38.8952 42.6275,39.1303 42.4344,39.3617 C42.3954,39.4084 42.3565,39.4547 42.3174,39.5008 C42.1034,39.7535 41.8842,40.0016 41.6601,40.2451 C41.6366,40.2706 41.6131,40.2961 41.5895,40.3214 C41.5003,40.4175 41.4102,40.5131 41.3193,40.6078 C41.2938,40.6343 41.2682,40.6609 41.2425,40.6874 C41.0259,40.9112 40.8052,41.1306 40.5804,41.3456 C40.5486,41.376 40.5166,41.4064 40.4845,41.4367 L40.4381,41.4805 C40.3287,41.5835 40.2183,41.6854 40.1069,41.7863 C40.0866,41.8047 40.0666,41.8227 40.0466,41.8407 C39.8133,42.0508 39.5755,42.2566 39.3336,42.4578 L39.256,42.5221 C39.2199,42.5518 39.1838,42.5815 39.1475,42.611 C39.0587,42.6835 38.9691,42.7555 38.879,42.8268 C38.8569,42.8442 38.8351,42.8614 38.8133,42.8785 C38.6837,42.9805 38.5526,43.0814 38.4205,43.1809 C38.3958,43.1994 38.3718,43.2174 38.3478,43.2353 C38.2495,43.3089 38.15,43.3821 38.0499,43.4546 C38.0182,43.4773 37.9867,43.5001 37.955,43.5227 C34.0216,46.3407 29.2031,48 24.0001,48 C23.0681,48 22.1485,47.9468 21.2443,47.8431 L20.6566,47.7684 L20.6222,47.7637 C20.4234,47.7356 20.2253,47.7051 20.0279,47.6722 C20.0206,47.671 20.0129,47.6697 20.0052,47.6684 C19.8261,47.6383 19.6479,47.6063 19.4705,47.5724 C19.4425,47.567 19.4145,47.5616 19.3865,47.5561 C19.2107,47.5219 19.0356,47.4857 18.8612,47.4476 C18.8226,47.4391 18.7842,47.4306 18.7459,47.422 C18.3826,47.3408 18.0223,47.2513 17.6654,47.1537 C17.6413,47.1471 17.6173,47.1404 17.5932,47.1338 C17.4249,47.0873 17.2573,47.0389 17.0905,46.9888 C17.0747,46.9839 17.0591,46.9792 17.0434,46.9745 C14.0807,46.0773 11.3602,44.6228 9.0035,42.733 L8.5853,42.3899 L8.4488,42.2745 C8.1465,42.017 7.8509,41.7523 7.562,41.4805 L7.5379,41.4577 C7.5092,41.4306 7.4805,41.4034 7.4519,41.3762 C7.3376,41.2674 7.224,41.1571 7.1116,41.0456 C7.0938,41.0279 7.0757,41.0099 7.0575,40.9918 C6.768,40.7032 6.4866,40.408 6.2128,40.1059 C6.1836,40.0735 6.1548,40.0415 6.126,40.0095 C5.8719,39.7261 5.6242,39.4363 5.3834,39.1406 C5.3676,39.1212 5.3518,39.1016 5.3359,39.082 C1.9992,34.9589 0,29.711 0,23.9999 C0,10.7539 10.7541,0 24.0001,0 C30.1353,0 35.7359,2.307 39.9809,6.1002 L39.9805,6.0996 L40.4327,6.5145 Z M20.6566,47.7684 L20.6888,47.7729 L20.8218,47.7909 L20.8882,47.7996 L21.0187,47.8161 L21.0761,47.8233 L21.2443,47.8431 L21.2501,47.8438 C21.192,47.8372 21.134,47.8304 21.0761,47.8233 L21.0602,47.8214 L21.0187,47.8161 L20.9355,47.8058 L20.8882,47.7996 L20.854,47.7953 L20.8218,47.7909 L20.7787,47.7852 L20.6888,47.7729 L20.6484,47.7674 L20.6566,47.7684 Z M11.6874,29.019 L14.1438,25.1272 L20.1073,25.1272 L14.6721,33.7477 L23.1507,47.1816 C23.4325,47.1917 23.7157,47.1969 24.0001,47.1969 C29.1306,47.1969 33.8743,45.5277 37.7173,42.7032 L36.3974,28.9885 L32.9804,37.5186 L29.3736,37.5186 L28.3457,31.5194 L26.9034,35.8025 L23.2218,35.8025 L20.3406,25.1272 L21.1307,25.1272 L23.7879,34.9731 L26.306,34.9731 L28.5542,28.2969 L29.9916,36.6868 L32.4072,36.6868 L36.8171,25.6782 L38.3957,42.0859 C40.6459,40.291 42.5549,38.086 44.0094,35.5844 L42.5892,10.1933 C41.8686,9.2208 41.0737,8.3067 40.2127,7.4595 L32.1485,27.3221 L30.699,18.8626 L28.5287,18.8626 L25.3165,26.4085 L23.8148,20.844 L20.2355,21.81 L20.5881,23.1166 L0.8175,23.1166 C0.816,23.1583 0.8148,23.2231 0.814,23.3046 L0.8134,23.3046 C0.8066,23.5357 0.8031,23.7674 0.8031,23.9999 C0.8031,29.4221 2.6675,34.4122 5.7895,38.3637 L8.7028,33.7477 L3.2668,25.1272 L9.2311,25.1272 L11.6874,29.019 Z M11.6874,38.4809 L9.4363,42.0507 C11.4893,43.7097 13.8307,45.0258 16.3729,45.9117 L11.6874,38.4809 Z M8.5853,42.3899 L8.5866,42.391 L8.7232,42.5048 L8.7301,42.5104 L8.8575,42.6149 L8.8731,42.6276 L8.9987,42.7291 L9.0035,42.733 L9.0052,42.7343 L8.9987,42.7291 L8.9274,42.6718 L8.8731,42.6276 L8.8648,42.6209 L8.8575,42.6149 L8.811,42.5771 L8.7301,42.5104 L8.7253,42.5065 L8.7232,42.5048 C8.6753,42.4652 8.6275,42.4254 8.5798,42.3854 L8.5853,42.3899 Z M43.505,11.4458 L43.4885,11.4827 L44.7777,34.3189 C46.326,31.2102 47.197,27.706 47.197,23.9999 C47.197,19.3755 45.8408,15.0654 43.505,11.4458 Z M24.0001,0.803 C12.1138,0.803 2.3036,9.7623 0.96,21.2904 L1.7667,21.2663 L4.939,18.327 L6.4128,20.662 L16.9621,20.662 L18.4358,18.327 L21.1068,20.8024 L24.3982,19.9143 L25.5169,24.0596 L28.051,18.1069 L31.4001,18.1069 L32.4997,24.525 L39.6589,6.8916 C35.5312,3.1111 30.0331,0.803 24.0001,0.803 Z M40.038,6.1514 L40.0503,6.1625 C40.1385,6.2418 40.226,6.3218 40.3128,6.4025 L40.3389,6.4266 L40.3454,6.4327 L40.3722,6.4576 L40.4143,6.4971 L40.4381,6.5194 L40.4327,6.5145 L40.4143,6.4971 L40.3454,6.4327 L40.3128,6.4025 C40.2259,6.3218 40.1384,6.2418 40.0503,6.1625 L39.9805,6.0996 L40.038,6.1514 Z" id="Shape"></path>
                </g>
            </g>
        </g>
    </g>
</svg>