<?xml version="1.0" encoding="UTF-8"?>
<svg width="48px" height="48px" viewBox="0 0 48 48" version="1.1" xmlns="http://www.w3.org/2000/svg" xmlns:xlink="http://www.w3.org/1999/xlink">
    <!-- Generator: Sketch 57.1 (83088) - https://sketch.com -->
    <title>Icon/Mono/Post</title>
    <desc>Created with Sketch.</desc>
    <g id="Ready-For-Export" stroke="none" stroke-width="1" fill="none" fill-rule="evenodd">
        <g id="Artboard" transform="translate(-80.000000, -184.000000)" fill="#FFFFFF">
            <g id="Service_(Mono)" transform="translate(80.000000, 184.000000)">
                <g id="Post-/-[Icon]-/-Mono">
                    <path d="M22.4931167,22.6972953 L42.1473843,10.6214976 L40.8352859,17.6911947 C40.1153161,20.4101927 37.4194245,24.5583329 35.2526049,26.2699347 C34.1342115,27.1533769 31.3836851,28.9394806 27.5078551,31.2991416 C26.4922529,31.9174 25.1766992,31.6299735 24.5105005,30.6450359 L17.6593424,20.3210063 C16.0591697,17.9097338 13.6148572,16.2693948 10.7770879,15.702316 C7.93910274,15.1354532 5.05231334,15.7103061 2.64816714,17.3214922 L0,19.0963667 L14.3998272,40.0381148 C16.8400367,43.586784 20.8670302,45.7786536 25.1719484,45.9015278 L44.2787885,45.9023916 L36.3427091,33.7732549 L32.8292393,36.0722345 L36.5139556,41.7035038 L25.2630783,41.7035038 C22.3039464,41.6097824 19.5378718,40.0994439 17.8597419,37.6590185 L5.91524051,20.2881823 C7.17076068,19.7105221 8.57204556,19.5435945 9.95432705,19.8197916 C11.6888193,20.1663877 13.1827458,21.1688171 14.1607731,22.6426605 L21.0162501,32.9729525 L21.0235923,32.9839659 C22.9444474,35.8396588 26.7518221,36.6751606 29.6913027,34.8853857 C33.8245425,32.3691627 36.5713977,30.5789559 37.855423,29.5646494 C40.7618636,27.2689089 43.9971927,22.2785726 44.9199374,18.6670626 L44.9374291,18.599255 L48,2.09760838 L20.2949846,19.119689 L22.4931167,22.6972953 Z" id="Shape"></path>
                </g>
            </g>
        </g>
    </g>
</svg>