<?xml version="1.0" encoding="UTF-8"?>
<svg width="48px" height="48px" viewBox="0 0 48 48" version="1.1" xmlns="http://www.w3.org/2000/svg" xmlns:xlink="http://www.w3.org/1999/xlink">
    <!-- Generator: Sketch 57.1 (83088) - https://sketch.com -->
    <title>Icon/Mono/Telecom</title>
    <desc>Created with Sketch.</desc>
    <g id="Ready-For-Export" stroke="none" stroke-width="1" fill="none" fill-rule="evenodd">
        <g id="Artboard" transform="translate(-392.000000, -184.000000)" fill="#FFFFFF">
            <g id="Service_(Mono)" transform="translate(80.000000, 184.000000)">
                <g id="Telecom-/-[Icon]-/-Mono" transform="translate(312.000000, 0.000000)">
                    <path d="M22.8613511,24.0000781 L22.8572525,24.0000781 L20.7022469,28.6214994 L32.1297216,28.6214994 L35.4944955,21.4057103 L47.8544047,21.4057103 C47.9402786,22.1550382 47.9894609,22.9149832 48,23.683945 C46.9535094,23.4153548 45.8570557,23.27257 44.7270332,23.27257 C37.4712737,23.27257 31.5803628,29.1634418 31.5803628,36.4193964 C31.5803628,39.623508 32.7290825,42.5614494 34.6368103,44.8435094 C33.7017996,45.2924348 32.7323613,45.6840588 31.7333355,46.0135804 C31.7396589,46.0113946 31.7460605,46.0092477 31.752462,46.0071399 C30.1368615,43.8256695 29.0582072,41.2232217 28.7122525,38.3954331 L17.3254117,38.3954331 C17.3302518,40.6664856 18.4916964,43.9187646 23.7320344,44.3494613 L23.7320734,44.3494613 C24.1082792,45.3438811 24.5532231,46.304693 25.0609721,47.2260809 L25.0708866,47.2256906 C24.7162664,47.2407966 24.3596165,47.2484082 24.001171,47.2484082 C12.3858276,47.2484082 2.68656513,39.238871 0.473867822,28.6156053 L13.6209285,28.5460865 L16.9857023,21.3303364 L24.1062885,21.3303364 L22.8613511,24.0000781 Z M36.5247481,43.8320319 C34.7505152,41.8702816 33.6694408,39.2700978 33.6694408,36.4193964 C33.6694408,30.3164551 38.624287,25.3616479 44.7270332,25.3616479 C45.8402713,25.3616479 46.9148661,25.5264087 47.9285685,25.8329785 C47.8426946,26.9005863 47.6818762,27.9480528 47.451578,28.9704597 C46.6018167,28.6592058 45.6841369,28.4893316 44.7270332,28.4893316 C40.3505867,28.4893316 36.7971636,32.0426767 36.7971636,36.4193964 C36.7971636,38.6148409 37.691267,40.603095 39.1350806,42.0396093 C38.3086224,42.6910019 37.4368071,43.2902066 36.5247481,43.8320319 Z M40.8107928,40.5880281 C39.6998967,39.5442698 39.0061136,38.0622423 39.0061136,36.4193964 C39.0061136,33.261852 41.5696058,30.6982817 44.7270332,30.6982817 C45.4799912,30.6982817 46.19899,30.8440331 46.8574867,31.1088761 C46.599865,31.8864643 46.3008677,32.6462532 45.9628368,33.3858227 C45.5814786,33.2301177 45.1642094,33.1442828 44.7270332,33.1442828 C42.9197778,33.1442828 41.4521147,34.6118288 41.4521147,36.4193964 C41.4521147,37.3640875 41.8529897,38.2159176 42.493531,38.8138732 C41.9642355,39.4331021 41.4025421,40.0253198 40.8107928,40.5880281 Z M12.5056217,26.5944068 L0.145868538,26.5944068 C0.0597994649,25.845118 0.0106171374,25.0851339 0,24.3162111 C1.0464516,24.5847623 2.14310041,24.7275862 3.27288873,24.7275862 C10.5288044,24.7275862 16.4197152,18.8366753 16.4197152,11.5807597 C16.4197152,8.37664815 15.2709956,5.43874572 13.3632678,3.15684186 C14.2982785,2.7075652 15.2677558,2.31605826 16.2667816,1.98661473 C16.2604191,1.98856641 16.2540176,1.99090843 16.2476161,1.99286011 C17.8632556,4.17444763 18.9419489,6.77720763 19.2878256,9.60472306 L30.6746664,9.60472306 C30.6699043,7.33382667 29.5085768,4.08154768 24.2680437,3.65061681 L24.2680047,3.65061681 C23.8917989,2.65643119 23.446894,1.69542412 22.939106,0.774231323 L22.9291914,0.774621659 C23.2838116,0.759398557 23.6404616,0.751591839 23.9989461,0.751591839 C35.6142505,0.751591839 45.3137081,8.76124615 47.5261322,19.3845508 L34.3791496,19.4540306 L31.0143757,26.6698197 L23.8937896,26.6698197 L25.138727,24.0000781 L25.1428255,24.0000781 L27.2978312,19.3786568 L15.8703564,19.3786568 L12.5056217,26.5944068 Z M11.47533,4.16820226 C13.2495629,6.13003066 14.3306373,8.73005831 14.3306373,11.5807597 C14.3306373,17.683701 9.37583007,22.6385083 3.27288873,22.6385083 C2.15988485,22.6385083 1.08509486,22.4737084 0.0715485765,22.1671776 C0.157539583,21.0995698 0.31827992,20.0521033 0.54857812,19.0296964 C1.39830041,19.3409503 2.31590212,19.5108245 3.27288873,19.5108245 C7.64960844,19.5108245 11.2029145,15.9574794 11.2029145,11.5807597 C11.2029145,9.38531524 10.3088501,7.3970611 8.86515357,5.96062486 C9.69145571,5.30915419 10.563271,4.70998853 11.47533,4.16820226 Z M7.18948045,7.4122842 C8.30002521,8.45588635 8.99396443,9.93791382 8.99396443,11.5807597 C8.99396443,14.7383042 6.43043319,17.3018744 3.27288873,17.3018744 C2.52004782,17.3018744 1.80097096,17.156123 1.14243521,16.8912801 C1.40033016,16.1136918 1.69940555,15.353903 2.0371242,14.6143335 C2.41852144,14.7700385 2.83575152,14.8558733 3.27288873,14.8558733 C5.08045637,14.8558733 6.54796334,13.3883273 6.54796334,11.5807597 C6.54796334,10.6360687 6.14712737,9.78423856 5.50639094,9.18624391 C6.03576453,8.56705402 6.59765311,7.97475828 7.18948045,7.4122842 Z" id="Shape"></path>
                </g>
            </g>
        </g>
    </g>
</svg>