<?xml version="1.0" encoding="UTF-8"?>
<svg width="48px" height="48px" viewBox="0 0 48 48" version="1.1" xmlns="http://www.w3.org/2000/svg" xmlns:xlink="http://www.w3.org/1999/xlink">
    <!-- Generator: Sketch 57.1 (83088) - https://sketch.com -->
    <title>Icon/Mono/Water</title>
    <desc>Created with Sketch.</desc>
    <g id="Ready-For-Export" stroke="none" stroke-width="1" fill="none" fill-rule="evenodd">
        <g id="Artboard" transform="translate(-496.000000, -184.000000)" fill="#FFFFFF">
            <g id="Service_(Mono)" transform="translate(80.000000, 184.000000)">
                <g id="Water-/-[Icon]-/-Mono" transform="translate(416.000000, 0.000000)">
                    <path d="M1.8552979,14.5865533 L7.38884024,16.8843581 C5.54929759,21.2603327 5.5333889,26.1818106 7.34588676,30.568737 C11.1169442,39.6973313 21.6372668,44.0664361 30.8240428,40.3183032 C39.9110226,36.6121696 44.3079538,26.3624193 40.7634014,17.3040928 L40.6365278,16.9886001 L46.1840897,14.7256422 C51.2159115,26.9050332 45.3593231,40.8318469 33.101373,45.8317802 C20.8524709,50.8287265 6.82607005,45.0032204 1.79733058,32.8317945 C-0.619101231,26.9834885 -0.598121636,20.4199249 1.8552979,14.5865533 Z M29.0891993,35.1421442 L29.1241984,35.172909 C29.932062,35.8494367 30.7898391,36.4633396 31.7615623,36.8875758 C32.0044682,36.992913 32.2534393,37.0871987 32.5053934,37.1697361 C30.0420309,38.7194277 27.1206968,39.6184778 23.9904616,39.6184778 C23.3907036,39.6184778 22.7988006,39.5857217 22.2159457,39.5211056 C22.884807,39.2270973 23.5426317,38.9042158 24.1864368,38.5585345 C25.5771553,37.8144038 26.9167671,36.9670267 28.1444215,35.9775738 C28.3194172,35.8325111 28.4924243,35.6865523 28.6633433,35.5365115 C28.8073171,35.4073789 28.9493022,35.2772506 29.0891993,35.1421442 Z M29.4380969,27.0715018 C30.2159328,27.8761666 31.0467646,28.6321453 31.9674805,29.2749213 C33.1321961,30.0895423 34.4298487,30.7084233 35.8154963,31.049226 C36.5293991,31.2230623 37.255134,31.3214301 37.9870336,31.3611556 C36.9892599,33.1750862 35.6435829,34.7755547 34.0409804,36.0709635 L33.9529855,36.0570247 C33.5740601,35.9905169 33.2012,35.8961316 32.8382829,35.7709814 C32.1834411,35.5444765 31.5716522,35.2156213 31.0057003,34.821254 C30.5808386,34.5241592 30.1849109,34.1924167 29.7930598,33.8555965 C29.5260919,33.6212262 29.2602178,33.384765 28.9942443,33.1502952 L28.4214317,33.7741543 L28.3284652,33.8725221 C27.3556484,34.8699401 26.2089295,35.6914309 25.0262172,36.4236141 C23.5226464,37.3535286 21.9309812,38.1482371 20.2704114,38.76214 C20.0775184,38.8307386 19.8815431,38.8902771 19.6906388,38.9628582 C19.6606111,38.977693 19.632572,38.993623 19.6046324,39.0105487 C17.5241724,38.4194456 15.6156257,37.4170496 13.9760355,36.0987414 C14.8078616,35.8504324 15.6346167,35.5871889 16.4544118,35.3020417 C18.2859007,34.6632481 20.0785127,33.9122476 21.7861126,32.993285 C23.3956751,32.1250993 24.9233078,31.1087644 26.3408723,29.9574228 C27.2547276,29.2152833 28.1154875,28.4175879 28.9442313,27.5841495 C29.1932024,27.3287715 29.1922081,27.3297671 29.4380969,27.0715018 Z M33.658078,18.0253453 C33.7990688,18.0095148 33.9270344,18.1296869 33.8970067,18.2667846 C33.6341155,19.4747773 33.0252101,24.2789705 39.9164604,24.4776975 C39.8315477,26.4109041 39.3976379,28.2547035 38.6747865,29.9484621 C37.8810419,29.9464709 37.0901807,29.8729937 36.3134385,29.6961706 C34.9907297,29.3941972 33.7610868,28.8001073 32.6642815,28.011273 C31.7725989,27.3714839 30.9747777,26.6165008 30.2279638,25.8168142 C29.9639788,25.5267884 29.7000933,25.2376586 29.4371026,24.9485289 C28.7772894,25.6717515 28.1214533,26.3929828 27.4196809,27.0764799 C26.3319236,28.1364232 25.1642252,29.1160194 23.921557,29.9921701 C22.2159457,31.1932931 20.3724259,32.1876246 18.4498597,33.0022456 C16.9012474,33.659956 15.307693,34.1954036 13.7001191,34.6891344 C13.227233,34.829219 13.1042389,34.8669532 12.7223307,34.9781646 C11.4056871,33.6688171 10.3169356,32.1330643 9.52319095,30.4332323 C11.2427224,30.019052 13.35321,29.4090321 15.1307087,28.5924198 C23.6296324,24.6852854 25.1092408,18.985029 33.658078,18.0253453 Z M4.92905723,11.6683741 C4.99239373,11.672257 5.05513366,11.6798238 5.11638215,11.6970481 C5.25001521,11.7345832 5.37171675,11.8079608 5.48973941,11.8784511 L5.98161646,12.188489 C6.00478351,12.2103928 6.00856182,12.227418 5.99702802,12.2569881 L5.37450077,13.2325022 C5.32339408,13.3332596 5.26592391,13.4308309 5.2184961,13.5333803 C5.16032993,13.6591279 5.11270326,13.7930396 5.0857579,13.929042 L5.07969271,13.9628933 C5.06965035,14.0275094 5.05801711,14.1199035 5.11389641,14.1681914 C5.14561438,14.1882034 5.18041466,14.2025405 5.21491665,14.2170766 C5.24832491,14.229721 5.28173318,14.2409716 5.31603631,14.2512266 C5.47910046,14.2938393 5.64594294,14.3202234 5.80920595,14.361741 C5.86419039,14.3772728 5.91927425,14.3935015 5.97077866,14.4183921 C6.10421287,14.4832074 6.20652568,14.5861551 6.31380997,14.6856181 L6.32603978,14.7031411 L6.32971866,14.7241488 L6.32415062,14.7447583 L6.31042937,14.7611861 L6.29104064,14.7703458 L6.2695639,14.770545 L5.65240584,14.643304 C5.48546394,14.6062667 5.31792547,14.5712207 5.15247501,14.5280105 C5.1192656,14.5177556 5.08714991,14.5062063 5.05483537,14.4935619 C4.96574666,14.4556285 4.87397336,14.4160026 4.80288137,14.3488974 C4.64429153,14.199454 4.6150593,13.9605038 4.64836814,13.7559027 C4.66885058,13.6297569 4.71339494,13.5083901 4.75734272,13.3888155 L4.76987082,13.3563581 C4.71120749,13.3753745 4.70822461,13.3716907 4.67163461,13.3918024 C4.64936243,13.4040486 4.62768683,13.418286 4.60949125,13.4362073 C4.52577173,13.5188442 4.56932179,13.637025 4.60402264,13.730116 L4.60720438,13.7475395 C4.6032272,13.7691445 4.59825574,13.7774082 4.58095503,13.7910483 L4.45497802,13.8586513 C4.43519158,13.8652224 4.42564636,13.8651229 4.40615821,13.8578548 C4.380406,13.8365484 4.38269288,13.8348558 4.36101728,13.8094674 C4.3069277,13.741267 4.25651702,13.6705776 4.2243019,13.589235 C4.20501261,13.540748 4.19188793,13.4889754 4.18641931,13.4370038 C4.18194499,13.3934949 4.183337,13.3492891 4.19228565,13.3063777 C4.19944456,13.2721281 4.2110778,13.237779 4.22827908,13.2071138 C4.25174441,13.1651979 4.2794852,13.1263685 4.31339061,13.092119 C4.43131384,12.9727435 4.59974718,12.9273429 4.76161818,12.9053396 L5.01476534,12.8734796 L5.45702715,12.1956575 C5.41914456,12.1742516 5.3813614,12.1544386 5.34188794,12.1361191 C5.3038065,12.1205873 5.26681877,12.1076442 5.22625159,12.1003761 C5.13835604,12.1026661 5.13865432,12.1025665 5.05065934,12.1072459 C5.0007458,12.1114276 4.95162769,12.1170031 4.90191301,12.1227777 L4.88322029,12.1214834 C4.8663173,12.1133193 4.8663173,12.1134188 4.85359034,12.0995796 L4.64061265,11.7567857 L4.63375202,11.7381675 L4.63474631,11.7184541 L4.64339667,11.7005328 L4.65850993,11.6875897 L4.67740151,11.6814168 C4.74322375,11.67385 4.7427266,11.67385 4.80825055,11.6689715 C4.86890246,11.6672789 4.86840532,11.6671793 4.92905723,11.6683741 Z M44.1176492,12.9029501 L44.1345522,12.9151963 L44.1448929,12.9332171 L44.1468815,12.9538266 L44.1403191,12.97354 L44.1262002,12.988773 L43.567606,13.3820452 L43.4379501,13.4758332 C43.2272593,13.6141256 43.0179605,13.7539115 42.8051816,13.8887192 C42.5467647,14.0489154 42.272638,14.2298206 41.9599326,14.2510274 C41.8903321,14.2557069 41.8205327,14.2545121 41.7510315,14.2487375 C41.719413,14.2460493 41.6776527,14.2481401 41.6647269,14.2115011 C41.6626388,14.2056269 41.6628377,14.1991553 41.6619428,14.1929824 L41.6649257,14.1205009 C41.670096,14.0979997 41.6756641,14.0900347 41.6947545,14.076992 C41.7862295,14.0370674 41.8783011,13.998935 41.9684836,13.9562226 C42.0325161,13.9245617 42.0936651,13.8884205 42.1554108,13.852578 L42.2007505,13.8256961 C42.2910324,13.7703393 42.3827063,13.7170733 42.4715961,13.6595261 C42.8429648,13.4187838 43.2041917,13.1652975 43.5701912,12.9171875 L43.5827193,12.9110147 L43.5963411,12.9085256 L43.8453122,12.8985693 C43.9360912,12.8985693 44.0288588,12.8841328 44.1176492,12.9029501 Z M6.46693119,12.7058162 L6.48612105,12.7103961 L6.50202975,12.7220449 L6.51227098,12.738871 L6.63615996,13.0865435 L6.63904341,13.1057591 C6.63297822,13.129455 6.62701246,13.13742 6.60583401,13.1499648 L6.35228913,13.239372 L6.4632523,13.5430379 L6.46613575,13.5622535 L6.46146257,13.5811704 L6.44992876,13.5967021 L6.4331252,13.606758 L6.05221131,13.74286 C6.02089106,13.7475395 6.00518122,13.740371 5.98847709,13.7134891 L5.8605115,13.3737815 C5.85534117,13.3425189 5.86259952,13.3266884 5.8896443,13.3099619 L6.14388519,13.2140832 L6.03331973,12.9177849 L6.03023742,12.8986689 C6.0359049,12.874973 6.0416718,12.8669084 6.06245254,12.8540649 L6.4473436,12.7090022 L6.46693119,12.7058162 Z M39.8734074,12.2020295 C39.8935916,12.202826 39.9024408,12.2063107 39.9178524,12.2193534 C39.966871,12.3021895 39.9894415,12.3979687 40.0241424,12.4876746 C40.0387585,12.5256079 40.0547666,12.5628443 40.0713713,12.5999812 C40.1071659,12.6754496 40.1438553,12.7557966 40.1982432,12.8202136 C40.2634688,12.8974741 40.3504695,12.9572117 40.4356805,13.010179 C40.5848245,13.1028717 40.7471927,13.1777428 40.9187083,13.2183643 C41.0695427,13.2542069 41.2524927,13.2784006 41.399151,13.2130875 C41.4481697,13.1911838 41.4930123,13.1578303 41.5334801,13.123083 C41.6808344,12.9962402 41.7577927,12.820811 41.8024365,12.6360228 L41.8100926,12.6190972 C41.823615,12.606154 41.8235155,12.606154 41.8408163,12.5990851 L42.2096992,12.5225215 L42.2292868,12.5224219 L42.2474823,12.52969 C42.2520561,12.5342699 42.2567293,12.5388497 42.2614025,12.5434296 L42.2689591,12.5613509 L42.2689591,12.5808651 C42.236744,12.7423556 42.1631662,12.8932925 42.0947588,13.0421386 C42.076961,13.0774833 42.0765633,13.0768859 42.057274,13.1110359 C42.0267492,13.1592242 41.9964232,13.2076116 41.9582423,13.2503239 C41.8462849,13.3757728 41.6950528,13.4677686 41.5478974,13.5468213 C41.4585104,13.5948105 41.3719074,13.6464834 41.2697934,13.6594266 C41.2038718,13.6677898 41.1369558,13.6643051 41.0708353,13.6598248 C40.9218901,13.6498686 40.7757289,13.6227875 40.6315563,13.5847546 C40.4959347,13.5491112 40.3600147,13.5073945 40.2351315,13.4427784 C40.1677184,13.4078319 40.1021944,13.3654183 40.0509883,13.3087672 C39.9894415,13.2406664 39.9491726,13.1497657 39.911986,13.0672283 C39.7981394,12.814439 39.7588648,12.5459187 39.709349,12.2750089 L39.7098461,12.2549968 L39.7182976,12.2367769 L39.7333115,12.2233359 L39.7524019,12.2168643 L39.8734074,12.2020295 Z M42.5468642,11.7030219 C42.6691623,11.7169606 42.7914604,11.7308994 42.9137585,11.7447386 C42.9441839,11.7543962 42.9550217,11.7680362 42.9577063,11.7995976 L42.9117699,12.2069081 L42.9057047,12.2256259 L42.8927789,12.2405602 L42.8750805,12.2493217 L42.8553935,12.2506161 L42.4864111,12.2009343 L42.4682155,12.1947615 C42.4498211,12.1788314 42.4453468,12.1700699 42.4435571,12.1458762 L42.491482,11.7465307 C42.5013255,11.7163633 42.5150468,11.7056105 42.5468642,11.7030219 Z M7.3365404,8.36379247 C7.35881257,8.36538548 7.38108475,8.36707804 7.40335693,8.3687706 C7.5275442,8.38320718 7.65123433,8.4055092 7.76478266,8.45957168 C7.83130091,8.49133214 7.8915551,8.53653355 7.94892584,8.58203365 C8.01942126,8.63788826 8.08643665,8.69802406 8.15186117,8.75955373 C8.27495472,8.87534501 8.39784942,8.99143498 8.52094297,9.10742539 L8.53217849,9.12325584 C8.5376471,9.14715086 8.5359568,9.15680843 8.52283213,9.17761701 L7.79401489,9.94245675 C7.52674877,10.2576719 7.23840361,10.5562601 6.99112279,10.8871065 C6.83591355,11.0945949 6.68726665,11.307161 6.5265888,11.5104678 C6.50531092,11.5335664 6.50560921,11.5332677 6.48234274,11.5548727 C6.44972991,11.580759 6.41642107,11.6031606 6.37824019,11.6201858 C6.34662166,11.6343237 6.31420768,11.6431848 6.28050113,11.6503533 C6.21786063,11.6637942 6.1493538,11.6536388 6.09695453,11.6164024 C6.06434169,11.5933039 6.03699862,11.5635347 6.00707038,11.5371506 C5.95188709,11.4885641 5.90465814,11.435099 5.85693204,11.3789457 L5.84808283,11.363613 C5.84519938,11.3462891 5.84519938,11.3462891 5.84857998,11.3289652 L5.87751392,11.2544924 C5.89004202,11.2345799 5.89789694,11.2288053 5.92076569,11.2228315 L6.04047865,11.252999 C6.05499533,11.2537955 6.06802058,11.2535964 6.08213955,11.2503108 C6.0941705,11.2461292 6.10292029,11.2395581 6.11326094,11.2319913 C6.12568961,11.2207407 6.13583141,11.2090919 6.14617206,11.1957505 L6.56546568,10.630932 C6.42338112,10.5309712 6.25783124,10.4331011 6.08025039,10.4184655 C5.99921546,10.4117948 5.91778281,10.4235431 5.84032734,10.4473386 C5.76645132,10.4700389 5.69704963,10.5035915 5.63003424,10.5416244 L5.61064551,10.5478968 L5.59036192,10.5459056 L5.57246464,10.5360489 L5.2445466,10.2538885 L5.23241621,10.2381576 L5.22744475,10.218942 L5.2303282,10.1993282 L5.24076828,10.1824026 L5.2570747,10.1709529 C5.40741189,10.1047438 5.56391371,10.0578498 5.72926474,10.0504822 C5.94850649,10.040725 6.15969445,10.0994669 6.35566973,10.1936531 C6.4899988,10.2580701 6.61498151,10.3359281 6.72773441,10.4331011 L7.23959677,9.84100248 C7.17526597,9.78823431 7.1025831,9.74193771 7.02274133,9.71684794 C6.93484577,9.70808644 6.93514406,9.70808644 6.84744736,9.70111706 C6.79773268,9.69862799 6.748714,9.69683587 6.69899932,9.69683587 L6.6803066,9.69315205 C6.66429847,9.6828971 6.66429847,9.68299667 6.65336124,9.6674649 L6.48741363,9.29987986 L6.48303874,9.28056472 L6.4866182,9.26105045 L6.49755543,9.24452306 L6.5140607,9.23357118 L6.53364829,9.22988736 C6.6000671,9.23078343 6.59956996,9.23068386 6.66539219,9.23426812 C6.7696936,9.24462262 6.87220527,9.2606522 6.9691489,9.30177155 C7.14126113,9.37485048 7.28603028,9.50687046 7.42781655,9.62475256 L8.00649544,9.01761994 C7.94494867,8.96116796 7.87554697,8.90929585 7.79669949,8.87972577 C7.70959937,8.86548832 7.70999708,8.86548832 7.62230038,8.85354081 C7.57288399,8.84816443 7.52396474,8.84358455 7.47444892,8.84029899 L7.45615392,8.83561954 C7.44104066,8.82446853 7.44104066,8.82446853 7.43109772,8.80853852 L7.28612971,8.43099722 L7.28284854,8.41138339 L7.28752172,8.39216781 L7.29945324,8.3762378 L7.31675395,8.36628154 L7.3365404,8.36379247 Z M8.19312436,10.5008037 C8.19928898,10.5030936 8.2054536,10.5054831 8.21161822,10.5078726 L8.22583662,10.5215127 L8.23369154,10.5395335 L8.30965557,10.8991536 L8.30985443,10.9184687 C8.30070693,10.941169 8.2938463,10.9482379 8.27117641,10.9578955 L8.00947832,11.0134514 L8.07718972,11.3291644 L8.07748801,11.3484795 C8.06843994,11.3711798 8.06157931,11.3782487 8.03910827,11.3880059 L7.64119196,11.4754218 C7.60937457,11.4761187 7.59465902,11.4668594 7.58163378,11.4379863 L7.50069827,11.08434 C7.49980341,11.0525795 7.50914977,11.0379438 7.53818314,11.0249011 L7.80495212,10.9635706 L7.73604758,10.6538314 L7.73564986,10.6346158 C7.74439964,10.6119155 7.75116084,10.604747 7.77343302,10.5947908 L8.17333791,10.5014011 L8.19312436,10.5008037 Z M41.934777,9.48646013 L41.9534697,9.49571945 L41.9667933,9.51164947 L41.9723613,9.53156198 L41.969279,9.55207187 L41.9580435,9.56959489 L41.4762088,10.0542655 L41.3637542,10.1680656 C41.1811024,10.3413045 41.0012347,10.5150412 40.8154012,10.6840984 C40.6297666,10.849671 40.4394588,11.0293814 40.2084844,11.1308357 C40.0773371,11.1883829 39.9376388,11.2138709 39.7953554,11.2233294 L39.7770604,11.2212385 C39.7566774,11.2103862 39.7503139,11.2030186 39.7426578,11.1814135 L39.7316212,11.1109232 C39.732516,11.0872273 39.7364932,11.0782667 39.7535951,11.0617393 C39.8373146,11.0070794 39.9215313,10.9534152 40.0031628,10.8956689 C40.1582726,10.7794794 40.3060246,10.646862 40.446916,10.515539 C40.7700614,10.2139639 41.0818719,9.90233303 41.3986539,9.59448553 L41.4098894,9.5863214 L41.4229146,9.5815424 L41.66592,9.52867467 C41.755307,9.5131429 41.8440974,9.48307501 41.934777,9.48646013 Z M38.6095608,7.74003291 L38.6287507,7.74730098 L38.6434662,7.76153842 L38.6510229,7.78045531 L38.6701133,7.88778378 L38.6700139,7.90530679 C38.6623578,7.92571712 38.6560938,7.93288563 38.6369039,7.94343926 L38.4306874,8.01363088 C38.3519393,8.04718347 38.2808473,8.09009494 38.2158205,8.14584999 C38.1906649,8.1673555 38.1655093,8.18896058 38.1492029,8.21813242 C38.1062494,8.29479561 38.1245444,8.39256606 38.1486063,8.472017 C38.203193,8.65212571 38.3089858,8.80973327 38.4372497,8.94613401 L39.5618953,10.1224659 C39.6306009,10.0556594 39.7000026,9.98188353 39.7464362,9.89755403 C39.798736,9.80257133 39.8101704,9.68986649 39.8026137,9.58373277 L39.8058949,9.56222726 L39.8181247,9.54420643 L39.8369169,9.53305542 L40.2298617,9.40491838 L40.2501453,9.40262844 L40.2696335,9.4086022 L40.285045,9.42184402 L40.2938942,9.44016353 L40.2946897,9.46037474 C40.2779855,9.55844388 40.2703295,9.67214435 40.2293646,9.76742574 C40.1813402,9.87913495 40.1035864,9.97720409 40.0255344,10.069399 C39.8513341,10.2749958 39.6480011,10.4551045 39.453219,10.6403904 L39.4367137,10.650745 L39.4174244,10.6541301 L39.398334,10.6498489 L39.3824253,10.6386979 L38.4425379,9.66872234 C38.2871666,9.50589696 38.1335925,9.34143064 37.9835535,9.17373407 C37.8297363,8.99302798 37.7046542,8.78882513 37.6835752,8.54818237 C37.6741294,8.44065479 37.6871546,8.32934382 37.7401505,8.23366418 C37.7772376,8.16675813 37.8324209,8.11647902 37.8898911,8.06709598 C37.9420915,8.02219326 37.9965788,7.97997873 38.0541484,7.94204538 C38.1452257,7.88190958 38.2424676,7.83541386 38.347465,7.80484815 L38.5889789,7.7411281 L38.6095608,7.74003291 Z M38.1404531,9.79112163 C38.1622281,9.80267089 38.1684922,9.81023765 38.1756511,9.83373441 L38.2167154,10.2420406 L38.2147268,10.2616544 L38.2051816,10.2788787 L38.1896706,10.2912245 L38.1705802,10.2965013 L37.7997087,10.3232836 L37.7805188,10.3209937 C37.7593403,10.3092453 37.7530763,10.3014794 37.7463151,10.2782813 L37.7092279,9.87893583 C37.7126085,9.84747405 37.7237446,9.83413266 37.75417,9.82497291 C37.8828316,9.81242802 38.0117915,9.77847718 38.1404531,9.79112163 Z M42.0564785,8.76662268 C42.0764638,8.76881305 42.09456,8.77170037 42.1136504,8.7782715 C42.2750243,8.83342917 42.3272247,9.01990988 42.3721668,9.16507212 C42.3855897,9.20529541 42.3999076,9.24462262 42.4171088,9.28335247 C42.4680167,9.38480674 42.56327,9.43926747 42.653353,9.5035849 L42.6655828,9.51593066 C42.6726423,9.53166154 42.6726423,9.53136286 42.6739349,9.54898543 L42.6659805,9.62644512 C42.6567336,9.65651302 42.6433106,9.66756447 42.6117915,9.67085003 C42.568142,9.66696709 42.5250891,9.66159071 42.4820362,9.65362571 C42.4460428,9.6456607 42.4101488,9.63709832 42.3762434,9.62226349 C42.2299828,9.55804563 42.1423855,9.43657928 42.0827279,9.29370698 C42.0456407,9.19603609 42.0127296,9.0948805 41.9659978,9.00109255 C41.9450182,8.9674404 41.900275,8.94922045 41.8683582,8.931797 L41.8521512,8.91765911 L41.8434014,8.89814484 L41.8437991,8.87683845 L41.8608016,8.80525296 L41.8701479,8.78603738 L41.8867526,8.77239731 L41.9076328,8.76702093 C41.9575463,8.76532836 42.0066644,8.76433274 42.0564785,8.76662268 Z M7.14663031,6.6696356 L7.16532303,6.67899449 L7.69975586,7.10482364 L7.82632944,7.20159847 C8.01902354,7.36398504 8.21271194,7.52418123 8.40212488,7.68995293 C8.5985973,7.86578045 8.81187328,8.04797997 8.93635885,8.28454066 C8.99532046,8.396449 9.027635,8.51841316 9.04980775,8.64216945 L9.04960889,8.66078765 C9.04066025,8.68249229 9.03379962,8.68946168 9.01242231,8.69921881 L8.94242404,8.71604488 C8.91915757,8.71723964 8.90991064,8.7141532 8.89201335,8.69941793 C8.82837856,8.62255562 8.76534034,8.54539462 8.6995181,8.47032444 C8.64045706,8.40511095 8.57433654,8.34517427 8.50881259,8.28613366 C8.43006453,8.21504598 8.3524102,8.14256442 8.27187241,8.07336843 C7.84432615,7.70648032 7.84044841,7.70707769 7.49135191,7.42870072 L7.25103114,7.22967512 C7.24148592,7.21932061 7.24178421,7.2196193 7.23561959,7.2073731 L7.15627496,6.97290322 L7.08607783,6.73146397 L7.08458639,6.71075495 L7.0917453,6.69124068 L7.10626199,6.67640586 L7.12575015,6.66873954 L7.14663031,6.6696356 Z M6.96228827,7.89913391 L6.98008613,7.90759673 L6.9932108,7.92233199 L6.99957428,7.94095019 L7.04660437,8.30753962 C7.04441693,8.33900139 7.03377798,8.35274103 7.00375032,8.36309554 L6.60285113,8.41765583 C6.57123259,8.4158637 6.55731248,8.4055092 6.54667354,8.37583955 L6.49268339,8.01621951 C6.49417483,7.9845586 6.50461491,7.97052028 6.53454315,7.95976752 C6.676926,7.938262 6.81841398,7.89216453 6.96228827,7.89913391 Z M9.30832409,6.35571479 C9.37195889,6.3625846 9.43489767,6.37493036 9.49644445,6.39275207 C9.72334226,6.45826424 9.924985,6.59685536 10.091032,6.76153186 C10.1387581,6.80892365 10.1829048,6.86069619 10.2279463,6.91047749 C10.3441792,7.03891321 10.4512646,7.17033582 10.5631227,7.30434705 L10.572469,7.32137226 C10.5750542,7.34576509 10.5721707,7.35522353 10.5567592,7.37423999 C10.3140521,7.5753564 10.0797965,7.78712601 9.82774309,7.9765936 C9.70395353,8.05644279 9.51076228,8.10313764 9.39621965,7.98346342 C9.35694505,7.93557382 9.31826703,7.88698728 9.28436162,7.8353143 C9.25731683,7.78732513 9.22649373,7.73555259 9.21704794,7.68079317 L9.22221827,7.66078109 L9.23514408,7.64455239 L9.2931114,7.59686192 L9.31220184,7.58710478 L9.33357915,7.58620872 C9.35187416,7.59357635 9.35177473,7.5931781 9.36778285,7.60412998 C9.39055218,7.6176705 9.41471351,7.62951844 9.4417583,7.63081276 C9.45816414,7.62274819 9.47307855,7.61279193 9.48839067,7.60283567 C9.65423885,7.48614833 9.81093952,7.35741391 9.96833621,7.22977468 L10.0799954,7.13807754 C9.95143321,6.99191968 9.79711884,6.84008674 9.59985099,6.79598052 C9.52865956,6.78015007 9.45488298,6.77776057 9.38239897,6.78502863 C9.3174716,6.7915002 9.25125164,6.80404509 9.18970486,6.82565017 L9.16832755,6.82823879 L9.1478451,6.82166766 L9.13203583,6.80723109 L8.88306471,6.45258918 L8.87520979,6.43436922 L8.87501093,6.41455627 L8.88266699,6.39633632 L8.89688539,6.38249712 L8.91547868,6.37522905 C9.045234,6.35252878 9.17677905,6.34167646 9.30832409,6.35571479 Z M11.9842665,3.07950851 C12.0013684,3.08817045 12.001269,3.08807089 12.0138965,3.10260703 L12.1438507,3.32811627 L12.1499159,3.34683404 L12.2120592,3.27076823 C12.2327405,3.25364346 12.257399,3.24408545 12.2817592,3.26300234 C12.2868301,3.26698485 12.2901113,3.27275948 12.2942873,3.27753848 L12.4862854,3.61336307 L12.4925494,3.63287733 L12.490362,3.65328766 L12.4799219,3.67110936 C12.3383345,3.82742261 12.1960511,3.98174461 12.0584408,4.14114431 C11.9721362,4.24339508 11.8825503,4.3452476 11.8108617,4.45845025 L11.8077794,4.46422488 C11.8133475,4.46751045 11.8185178,4.46999951 11.824583,4.47209032 L11.9344524,4.49489015 L12.1845173,4.52854231 C12.2955799,4.54765832 12.4060459,4.56538046 12.5161142,4.58867811 C12.6335403,4.61307094 12.7495743,4.64214321 12.8625261,4.68246606 C13.0762992,4.75883056 13.2791351,4.86466558 13.4776956,4.97328835 L13.4884339,4.9811538 C13.5693694,5.08410151 13.6224647,5.20576698 13.6886847,5.31857138 L13.6950482,5.33699046 L13.6937556,5.35650473 L13.6851052,5.37392818 L13.6701908,5.38677175 L12.240496,6.19512034 C12.2394023,6.19561816 12.2397006,6.19521991 12.238408,6.19631509 L12.2251839,6.20597266 C12.2371154,6.24002307 12.2368171,6.23952525 12.2465612,6.2742726 C12.2813615,6.43307491 12.2748986,6.59476454 12.2526264,6.75496073 C12.2313485,6.90828711 12.1993323,7.0621113 12.1503136,7.20916523 C12.1188939,7.30325187 12.0795199,7.39763719 12.0199617,7.47788463 C11.9499634,7.57207083 11.8429774,7.63011582 11.7403663,7.68298355 C11.4932843,7.81042365 11.2247256,7.86478482 10.9560675,7.92999831 L10.9358833,7.93079481 L10.9170912,7.92352674 L10.9026739,7.90948842 L10.8950179,7.89096978 L10.8720034,7.76980212 C10.8715525,7.74321891 10.878612,7.72987752 10.9008842,7.71524182 C11.0098588,7.66705354 11.1194299,7.62095606 11.2266148,7.56938264 C11.3126212,7.52577423 11.4050905,7.47987588 11.4758842,7.41336808 C11.5496608,7.34397296 11.6049435,7.25476489 11.6534651,7.16714982 C11.7384772,7.01352476 11.8032057,6.84835043 11.8343271,6.67531067 C11.8514289,6.58022841 11.8588861,6.48245795 11.8501363,6.38598181 C11.8443694,6.32176395 11.830847,6.25674958 11.8007199,6.19920241 C11.7758626,6.1516115 11.739372,6.10909827 11.7019866,6.07096581 C11.5658678,5.93217557 11.3860001,5.8655682 11.197482,5.83261299 L11.1797836,5.82594229 C11.1659629,5.81319828 11.1659629,5.81329785 11.1578097,5.79627265 L11.0617609,5.43366573 L11.0606672,5.41425102 L11.0670307,5.39593151 L11.0800559,5.38139537 L11.0977543,5.37293255 L11.1172425,5.37193693 C11.1734201,5.37990193 11.1729229,5.37990193 11.2290011,5.39075425 C11.4199055,5.43695129 11.5995743,5.51709917 11.7695985,5.61496919 C11.7896833,5.62781276 11.806984,5.64195065 11.8254778,5.6569846 C11.8694256,5.69680963 11.9092968,5.73912372 11.9483725,5.7836282 L11.9557303,5.79248927 L13.0882308,5.15638394 C13.0420955,5.13806443 12.9950654,5.12263223 12.9476376,5.10809609 C12.8269304,5.07434437 12.7053283,5.04955329 12.5807433,5.03521628 L12.5435567,5.03173159 L11.9121803,5.06040561 C11.8904052,5.05921086 11.8694256,5.05423273 11.8480483,5.04955329 C11.803504,5.03690884 11.7612465,5.02077971 11.721773,4.99628731 C11.6820013,4.97159579 11.6464056,4.94063183 11.6156819,4.9055858 C11.4581858,4.72587534 11.4385982,4.47179164 11.5110822,4.25136008 C11.5763874,4.05263317 11.7095909,3.88283516 11.843189,3.72121881 L11.935,3.6086798 L11.8186172,3.73771673 C11.768306,3.79974422 11.7192873,3.86167214 11.6702686,3.92449613 C11.6401415,3.96302685 11.6090201,3.99996457 11.5823731,4.04098435 C11.5791913,4.04675898 11.5787936,4.04626117 11.5780976,4.05333011 C11.5548311,4.10858734 11.5129714,4.1632472 11.4809551,4.21372543 L11.4679299,4.22746506 C11.4462543,4.23752088 11.4364108,4.2380187 11.4138403,4.23035238 C11.397335,4.21621449 11.3979316,4.21611493 11.3844092,4.19918929 C11.3699919,4.17698683 11.3574638,4.1517975 11.3494101,4.12660817 C11.3390694,4.09395164 11.329723,4.06029949 11.3289276,4.02575127 C11.3246521,3.84395 11.4403879,3.68932932 11.5509534,3.55472071 L11.9319667,3.09563765 L11.9467817,3.08359057 C11.9651761,3.07781594 11.9650767,3.07791551 11.9842665,3.07950851 Z M35.3300821,5.32096089 L35.348576,5.32723333 L35.3632915,5.3400769 L35.3719419,5.35759992 C35.3862597,5.41196108 35.3861603,5.41156283 35.3979924,5.46691963 C35.4110176,5.54477757 35.4200657,5.62203813 35.4213583,5.70109082 C35.4230486,5.80851884 35.4124096,5.91674337 35.4053502,6.02347445 C35.4016713,6.05344279 35.4016713,6.05294498 35.3953078,6.08291332 C35.3757202,6.15131281 35.3481783,6.2149333 35.3172557,6.27895204 L35.3129803,6.28731529 C35.4063445,6.35282747 35.4843965,6.40947858 35.5840247,6.45856293 C35.5803458,6.44044254 35.5811413,6.42232215 35.581539,6.40400264 C35.584323,6.36895661 35.5897916,6.33022677 35.6142513,6.30264793 C35.6284696,6.28671792 35.6428869,6.27088747 35.6572047,6.25495745 L35.674406,6.24271126 L36.0965831,6.05832136 C36.1266108,6.04726991 36.1261136,6.04736947 36.156539,6.03801059 C36.1853735,6.03124034 36.2134126,6.02536614 36.2432414,6.02456964 C36.2382699,6.00475669 36.2342928,5.98464505 36.2333979,5.96433428 C36.2364802,5.91325868 36.2518918,5.87492708 36.2949447,5.8445605 C36.3404833,5.81757904 36.3857237,5.79059758 36.4327538,5.76610518 C36.5141864,5.72946615 36.5961162,5.69372319 36.6779466,5.65758197 L36.6962416,5.65340034 C36.7265675,5.65788066 36.7392945,5.66893211 36.7479448,5.69810394 L36.773001,5.94999727 C36.7971624,6.26093121 36.8152585,6.5730599 36.7839383,6.88419296 C36.7713107,7.01023919 36.7554021,7.14016836 36.7100623,7.25954389 C36.6771511,7.34636246 36.6198798,7.41575758 36.5470975,7.47360344 C36.5042435,7.50775341 36.4570145,7.53772174 36.4078964,7.5623137 C36.3617612,7.58551178 36.3126431,7.60592211 36.261437,7.61508187 C36.2074468,7.62473944 36.1529595,7.61944962 36.1070232,7.5883991 C36.0871373,7.57495815 36.06924,7.55544388 36.0538285,7.53762218 C36.0359312,7.51671404 36.0189288,7.49331683 36.0036166,7.470517 C35.9511179,7.39196212 35.908761,7.30683612 35.868691,7.22141142 C35.8375696,7.15500318 35.8241466,7.12483572 35.792727,7.05524148 L35.7549438,6.9703146 C35.694789,6.96195134 35.6349326,6.95219421 35.5750761,6.94154101 C35.5216825,6.93068869 35.468985,6.91884074 35.4163868,6.90470286 C35.3571269,6.88618422 35.3019436,6.86368307 35.2477546,6.83311736 C35.1906822,6.80095865 35.1371892,6.76163143 35.0816082,6.72708321 L35.0344786,6.6981105 C35.0080304,6.72200552 35.0083287,6.72150771 34.9801902,6.74390929 C34.9462848,6.76780431 34.9464836,6.76760518 34.9115839,6.78960851 C34.7762606,6.86587345 34.6300994,6.91565474 34.4795634,6.95328939 C34.3476206,6.98624461 34.2129932,7.01242957 34.0773716,7.02407839 C33.9780417,7.03254121 33.8754305,7.03403465 33.7777909,7.01113525 C33.6762735,6.9873398 33.5929517,6.92581012 33.5119168,6.86288657 C33.4052291,6.78015007 33.3084843,6.68526693 33.2211853,6.58261791 C33.1220543,6.46593056 33.0322696,6.33789308 32.9410928,6.2165263 L32.9325419,6.19850547 L32.9318459,6.17859296 L32.9391042,6.15997475 L32.9530243,6.1457373 L33.0560332,6.07614306 C33.0712459,6.06927324 33.0709476,6.06927324 33.0880494,6.0677798 C33.1046541,6.07186187 33.1042564,6.07186187 33.1182759,6.08102163 C33.2055749,6.16216513 33.290587,6.24450338 33.3807695,6.32206263 C33.4220327,6.35591391 33.4640913,6.38817219 33.5075419,6.41913615 C33.5452256,6.44452461 33.5822134,6.47061 33.6240731,6.48873039 C33.7394112,6.53841212 33.8703597,6.55095701 33.9940498,6.55941983 C34.1667586,6.57126777 34.3440411,6.55573601 34.5107842,6.50914072 C34.6418321,6.47250169 34.7859052,6.41535277 34.8741985,6.30722781 C34.8999507,6.27566647 34.919936,6.23932613 34.9376344,6.20298579 C35.0286123,6.01550945 35.0219505,5.81021141 34.9759147,5.61188275 L34.9752187,5.59316498 C34.9815822,5.5755424 34.9814828,5.5755424 34.9940109,5.56140452 L35.2928955,5.33101671 L35.3104945,5.3222552 L35.3300821,5.32096089 Z M36.3597726,6.87533189 C36.3418753,6.88628378 36.323978,6.89723566 36.3060808,6.90808798 C36.2791354,6.92242499 36.2502015,6.93218213 36.2209692,6.94084407 L36.2112251,6.94303445 C36.2464231,7.01302694 36.2801297,7.08401506 36.3203986,7.15131937 C36.3293472,7.165059 36.3288501,7.16476032 36.3383953,7.17800214 C36.350824,7.15729312 36.3534091,7.12752391 36.3561932,7.10432583 C36.3644458,7.03582677 36.3628549,6.96623253 36.3610652,6.89743479 L36.3597726,6.87533189 Z M36.0748081,6.33181977 C36.0522376,6.33361189 36.030562,6.33610096 36.0126647,6.35103534 C36.0060029,6.35890079 36.0018269,6.36606929 35.9986452,6.37582643 C35.9926794,6.40679039 36.0008326,6.43785392 36.0090853,6.46762313 C36.0198236,6.50645253 36.0337437,6.54418675 36.0486581,6.58162228 C36.0958871,6.58102491 36.0954894,6.58032797 36.1423206,6.57574809 C36.2059554,6.56011676 36.262829,6.51899742 36.269093,6.44890536 C36.2686953,6.43765479 36.2666073,6.4285946 36.262133,6.41814052 C36.2378722,6.37602555 36.1936261,6.35203097 36.1479881,6.33898827 C36.123429,6.33391058 36.0998643,6.3317202 36.0748081,6.33181977 Z M30.9554884,5.08081594 L30.9748772,5.08260807 C30.9921779,5.0915687 30.9920784,5.0915687 31.0046065,5.10650309 L31.1351573,5.34545328 L31.4174373,5.1964081 L31.4360306,5.19083259 C31.4603907,5.1932221 31.4691405,5.19780197 31.4847509,5.21642018 L31.6827148,5.57604022 L31.6885811,5.59485755 L31.686692,5.61447137 L31.6772462,5.63179526 L31.6617352,5.64404146 L31.3338172,5.81190397 L31.3152239,5.81728035 C31.2908637,5.81459216 31.2821139,5.80991272 31.2667024,5.79089627 L31.1408248,5.55333995 L31.1138794,5.56747784 L31.1271035,5.57464634 L31.1393333,5.58977985 L31.3303371,5.95328284 L31.3358058,5.97219973 L31.3335189,5.99161443 L31.3238742,6.00873919 L31.3082638,6.02078626 L30.9773629,6.18466627 L30.9587696,6.18974396 C30.9346083,6.18685665 30.9259579,6.18207765 30.9107452,6.16316076 L30.723818,5.80652759 C30.7148694,5.776161 30.7200397,5.75953405 30.7447976,5.73962154 L30.8081341,5.70656676 L30.7957055,5.69979651 L30.7833762,5.68476256 L30.5944604,5.32613814 L30.5889918,5.3076195 C30.5914775,5.28352536 30.5961507,5.27486341 30.6149429,5.25933165 L30.9368952,5.08649101 L30.9554884,5.08081594 Z M29.6173681,2.67558312 L29.6369557,2.67628006 L29.6547535,2.68444419 L29.6679776,2.69888076 C29.6974087,2.74686993 29.6971104,2.74647168 29.7244535,2.79605384 C29.7592538,2.8669424 29.7902757,2.93852789 29.8139399,3.01399633 C29.8458568,3.11604798 29.8670352,3.22357556 29.891296,3.32702108 C29.896168,3.35708898 29.8959692,3.35659117 29.8981566,3.38715688 C29.8985543,3.458145 29.8901028,3.52714187 29.8790662,3.59723393 L29.8768787,3.60878319 L30.6812623,3.91254862 C30.6937904,3.87123015 30.704827,3.83030993 30.7138751,3.78819496 C30.720338,3.74777255 30.7247129,3.70924183 30.722426,3.66832161 C30.6993584,3.58359385 30.6995573,3.58389254 30.6746999,3.49926435 C30.6596861,3.45266906 30.6448711,3.40647202 30.6265761,3.36097192 L30.6230961,3.34205503 C30.6269738,3.32313814 30.6269738,3.32323771 30.6378116,3.30730769 L30.9267534,3.02216046 L30.9434575,3.01130814 L30.9631445,3.00772389 L30.9826327,3.0122042 L30.9988396,3.02385303 L31.0090809,3.04087823 C31.0312536,3.1032044 31.0310548,3.10270659 31.0506423,3.16533145 C31.0772894,3.26549141 31.0987662,3.36644787 31.0942918,3.47068989 C31.0874312,3.63317602 31.0282707,3.7920779 30.975076,3.94410996 L30.9594656,3.98771837 L32.1352178,4.51878517 C32.096341,4.44829487 32.0531886,4.37969625 32.0096386,4.31199369 C31.9126949,4.17031614 31.7940757,4.03530928 31.6442356,3.94689771 C31.5795071,3.90866568 31.5078186,3.88367547 31.4379197,3.85679358 C31.3890999,3.83807581 31.3896965,3.83737887 31.3393852,3.82224536 L31.3211896,3.8122891 L31.3086615,3.79586128 L31.3038889,3.7758492 L31.3076672,3.75563799 L31.3193999,3.73861279 C31.3585751,3.70177464 31.398148,3.66593211 31.4422946,3.63506771 C31.541724,3.56567259 31.653582,3.52465281 31.7752835,3.52057074 L31.8215182,3.52206418 C31.9036469,3.53002919 31.9836875,3.55203252 32.0570664,3.59036411 C32.2529422,3.69261488 32.3781238,3.90199499 32.4753657,4.09096477 C32.5581903,4.26340715 32.6296801,4.44112636 32.7149905,4.612374 C32.7756424,4.72567622 32.8488224,4.83509549 32.9676405,4.89343916 L32.9828532,4.90498842 C32.995083,4.92549832 32.9965744,4.93525545 32.9910064,4.95845353 L32.8310245,5.30911294 C32.8125307,5.33480008 32.7963237,5.34097296 32.7653017,5.33410315 L30.793518,4.46860563 L29.7195815,4.08986958 C29.7014853,4.11894185 29.7015847,4.11824491 29.6819972,4.14572418 C29.5818718,4.27107347 29.4548011,4.36794786 29.318384,4.45187912 C29.2012562,4.52396243 29.0784609,4.58917592 28.9515891,4.64264102 C28.8446031,4.68774287 28.7302593,4.72707009 28.6132309,4.73374079 C28.5092278,4.73961498 28.4119859,4.70466851 28.3162354,4.66763123 C28.1902584,4.61894513 28.0701478,4.55582245 27.9569971,4.48224571 C27.8280373,4.39841401 27.7058386,4.30024531 27.5837393,4.2087473 L27.5703163,4.19361379 L27.5641517,4.17449777 L27.5660409,4.15448569 L27.5756855,4.13686311 L27.6547319,4.04446904 L27.6720326,4.03142634 L27.6934099,4.02704559 L27.7145884,4.03202372 C27.8331082,4.08917264 27.9514291,4.14980625 28.0726335,4.20197704 C28.1504867,4.23323969 28.2321182,4.26689185 28.316136,4.27704723 C28.4168579,4.2890943 28.5212588,4.27376166 28.6197933,4.2542474 C28.8035387,4.21800662 28.9835059,4.16016076 29.1442832,4.06298768 C29.2687687,3.98761881 29.4040921,3.88795666 29.4627554,3.75016205 C29.4836356,3.70127682 29.4931808,3.64671653 29.4986494,3.59414749 C29.518933,3.40119521 29.4552982,3.21999131 29.3617352,3.05382136 L29.3557694,3.03619879 C29.3568631,3.01758058 29.3568631,3.01768015 29.3647181,3.00065495 L29.5846558,2.69569476 L29.5989736,2.68235337 L29.6173681,2.67558312 Z M29.6392425,4.5854921 C29.6572393,4.5929593 29.6571398,4.5929593 29.6709605,4.60669893 L29.822292,4.83300468 L30.0902541,4.66046273 L30.1082508,4.65329422 C30.132611,4.65349335 30.1417585,4.65737629 30.1590592,4.67450105 L30.3869513,5.01331251 L30.394508,5.0314329 L30.3943091,5.05114629 L30.3864542,5.06916712 L30.3722358,5.08280719 L30.0593316,5.28053848 L30.041136,5.28750786 C30.0164775,5.28701005 30.0074295,5.28302754 29.9903276,5.2653054 L29.846155,5.04099091 L29.5723266,5.21542455 L29.554131,5.22249349 C29.5295719,5.22209524 29.5204244,5.21811274 29.5033226,5.20058973 L29.2823906,4.86078264 C29.2706579,4.83151124 29.2742373,4.8145856 29.2969072,4.79238315 L29.6017577,4.59276017 L29.6198538,4.58539254 L29.6392425,4.5854921 Z M14.5192182,3.48711771 C14.6841715,3.50404335 14.8490254,3.52096899 15.0139787,3.53789463 C15.1281236,3.55342639 15.237297,3.58687942 15.3271812,3.66135223 C15.4133864,3.7327386 15.46678,3.8301108 15.502674,3.93425326 C15.5300171,4.01350508 15.5465223,4.09713765 15.5446332,4.18116846 C15.5412526,4.33011408 15.4757286,4.47647108 15.366058,4.5783236 C15.2983466,4.64124715 15.2175106,4.68037524 15.1318025,4.71333046 C14.9945899,4.76619819 14.8284435,4.81637773 14.694015,4.72886222 C14.6776091,4.71820902 14.6623964,4.7057637 14.6486752,4.69182494 C14.5747992,4.61685432 14.5456664,4.50146128 14.5292605,4.40179914 C14.5064912,4.26360628 14.5147438,4.12222742 14.5165336,3.98303893 L14.5051986,3.97716474 L14.4924717,3.96133429 L14.4872019,3.94172046 L14.4642337,3.53938807 L14.4676143,3.5182808 L14.4795458,3.50065822 L14.4979403,3.48950722 L14.5192182,3.48711771 Z M19.7973265,2.01956528 L19.815522,2.02673378 C19.9499505,2.11325366 20.0666806,2.21789394 20.1670048,2.34204847 C20.2296453,2.41960772 20.3098848,2.50383767 20.3533355,2.59812343 C20.3950958,2.68872538 20.4121976,2.80381972 20.4312881,2.8962138 C20.4386459,2.93235501 20.4444128,2.96869536 20.4504779,3.0050357 C20.4674804,3.10579303 20.4833891,3.20893986 20.4635032,3.3104937 C20.4453076,3.40338558 20.4077233,3.49279278 20.3649687,3.57692316 C20.3055099,3.69380963 20.2335231,3.80332847 20.1555705,3.90886481 C20.0811973,4.00962214 20.0025487,4.10818909 19.9106759,4.19391247 C19.8527086,4.24807452 19.7885767,4.29845318 19.7157944,4.33160752 C19.6213365,4.37471812 19.5095779,4.38019406 19.4073645,4.38497307 C19.1292606,4.39821489 18.8626904,4.33529134 18.5911489,4.28292142 L18.5724561,4.27515554 L18.5584366,4.2606194 L18.5512777,4.24180207 L18.552272,4.22169043 L18.5832939,4.10251402 C18.5915466,4.08399538 18.5980095,4.07712557 18.6160062,4.06776668 C18.736614,4.04934761 18.863983,4.07105225 18.987176,4.06866275 C19.0842191,4.06448112 19.1878245,4.05990124 19.2807909,4.0291364 C19.3769391,3.9974755 19.4647352,3.93943052 19.545273,3.87999166 C19.6872582,3.77525182 19.8167152,3.65338722 19.9179343,3.50862323 C20.0100059,3.37710106 20.1046626,3.20824293 20.0867653,3.04167473 C20.0608143,2.80033503 19.8861169,2.61146482 19.6948148,2.4787479 L19.6816901,2.46540651 C19.6744318,2.44818219 19.6744318,2.44818219 19.6741335,2.42946442 L19.7391603,2.05988812 L19.7462198,2.04176773 L19.7597422,2.02772941 L19.7777389,2.01996353 L19.7973265,2.01956528 Z M14.8251623,4.00016369 C14.8221794,4.00832782 14.8190971,4.01649195 14.8161142,4.02465609 C14.803785,4.06139468 14.7867826,4.10032365 14.7853906,4.13984999 C14.7830043,4.2079508 14.8194948,4.29407243 14.8947629,4.30582081 C14.9129584,4.30870813 14.9316512,4.306916 14.949449,4.30253525 C14.9727155,4.29676062 14.9937945,4.28660524 15.0145752,4.27505598 C15.0685654,4.23941257 15.1166892,4.19550547 15.1652107,4.15289269 C15.1846989,4.13347799 15.2038887,4.11466066 15.2179083,4.09076564 C15.2198969,4.08678314 15.2216866,4.08299976 15.2228798,4.07871857 C15.1999116,4.05472399 15.152086,4.04685854 15.1216607,4.03969004 C15.0245182,4.01689021 14.9243928,4.00832782 14.8251623,4.00016369 Z M27.6604988,2.20425386 C27.7064351,2.20953068 27.7485932,2.21769481 27.7916461,2.2342222 C27.8928652,2.27305161 27.9815562,2.3723155 28.0016409,2.47864833 C28.0138707,2.54336401 27.997962,2.60738275 27.9860305,2.67100324 L27.9773802,2.70983265 C27.9535171,2.79266871 27.9508325,2.79147396 27.91643,2.89004092 L27.9070836,2.90617006 C27.8830217,2.92508695 27.8662181,2.92677951 27.8387756,2.91313944 C27.8074554,2.87819297 27.7855809,2.83418631 27.7561498,2.79704947 C27.7269176,2.763696 27.6962934,2.73273204 27.6595045,2.70764227 C27.6331557,2.68962144 27.6047189,2.67478662 27.5746912,2.66403386 C27.5464533,2.65387848 27.5152325,2.64491784 27.4849065,2.64541566 C27.4466262,2.6461126 27.4085448,2.65815967 27.3731479,2.67179974 C27.315976,2.69380307 27.2615882,2.72317403 27.2090895,2.75443668 C27.1921865,2.7644925 27.1754823,2.77484701 27.1589771,2.78559977 C27.1018052,2.82273661 27.0315086,2.8685354 27.0018787,2.93295239 C26.9976032,2.94549728 26.9964101,2.95754435 26.9968078,2.97088573 C26.9980009,2.97705861 26.9989952,2.98303237 27.0026741,2.98830919 C27.0082422,2.99408381 27.0078444,2.99368556 27.0141085,2.99816588 C27.0347898,3.00861995 27.0590506,3.01150727 27.081621,3.01618671 C27.2148564,3.03649747 27.3488872,3.05461786 27.4810288,3.08149976 C27.5369081,3.09424377 27.5909977,3.10967597 27.6457832,3.12680073 C27.6602005,3.13227668 27.6732257,3.13844956 27.6865493,3.14621544 C27.7454115,3.18743435 27.772158,3.25244871 27.7720585,3.32333727 C27.7659933,3.38855076 27.7554538,3.45326644 27.7455109,3.51788255 C27.7130969,3.68634244 27.6035258,3.81756592 27.472279,3.92360007 C27.4076499,3.9756713 27.3388448,4.02246571 27.2645711,4.0600008 C26.9969072,4.19500766 26.6775401,4.22746506 26.3819366,4.21382499 C26.2688854,4.20854817 26.1567291,4.1957046 26.0449705,4.17848027 C26.0057953,4.17250652 25.9669184,4.16543758 25.9282404,4.15687519 C25.695874,4.10530178 25.4341759,3.98941093 25.3363374,3.75693231 C25.2794638,3.62172632 25.3002446,3.4826374 25.3310677,3.34384716 C25.3657685,3.18753391 25.4194604,3.03968348 25.4895581,2.89571599 L25.5062622,2.86315902 C25.5408636,2.80820048 25.5741725,2.75244543 25.6100665,2.69828339 C25.6746955,2.60081162 25.76627,2.47974352 25.8344785,2.38734945 L25.8479015,2.37490413 C25.8692788,2.36634174 25.8791223,2.36624218 25.9006985,2.37430675 L26.0126559,2.44181018 C26.0342321,2.4609262 26.0391042,2.47615927 26.0325418,2.50403679 C26.0155394,2.52942525 26.0138491,2.52733444 25.9929689,2.54943733 C25.9758671,2.56755772 25.9607538,2.58766936 25.9453423,2.60718363 C25.8646056,2.71550771 25.7947068,2.83269287 25.7391258,2.95575222 C25.7019392,3.03809048 25.6716132,3.12381386 25.6531194,3.21222543 C25.6453639,3.24916315 25.6388015,3.28639955 25.6403924,3.32423333 C25.648645,3.52266156 25.8555576,3.64084234 26.0270732,3.68604375 C26.0635638,3.69570132 26.1007504,3.70336764 26.1381358,3.70874402 C26.3565821,3.74060404 26.5746307,3.72417622 26.7918839,3.6904245 C26.9931289,3.65906229 27.1902973,3.61077444 27.3722531,3.51808168 L27.3800085,3.5135018 C27.2124701,3.49398753 27.0442356,3.4687982 26.8794811,3.43454867 C26.8530329,3.42678279 26.8291699,3.41762303 26.8047103,3.40507815 C26.770606,3.38556388 26.7343143,3.35768636 26.713633,3.32373552 C26.6754521,3.26091153 26.6685915,3.18185884 26.6716738,3.11037291 C26.6748555,3.0374931 26.6872842,2.96829711 26.7183061,2.90198843 C26.77687,2.7767387 26.8726205,2.66931068 26.9685698,2.57124153 C27.1285517,2.40775978 27.3117006,2.25562815 27.5420784,2.20963024 C27.5823473,2.20475168 27.620031,2.20285999 27.6604988,2.20425386 Z M17.8204719,2.30759982 L17.8404572,2.3081972 L17.8586527,2.31666002 C17.9120463,2.35598724 17.9116486,2.35568855 17.9632524,2.39670833 C18.0417022,2.46461001 18.1165725,2.53629507 18.1721535,2.62430839 C18.2456318,2.74069705 18.2830173,2.87958685 18.3208004,3.01021295 C18.3708134,3.1965941 18.4197326,3.38327394 18.4690496,3.56985422 L18.4702428,3.58916936 L18.4638793,3.60748887 L18.450854,3.62202501 L18.4333545,3.63048783 L17.2843487,3.92808038 C17.0283181,4.0145007 16.7755687,4.11147466 16.5157598,4.18594747 C16.4645536,4.19689935 16.4142424,4.20247486 16.3619425,4.19640154 C16.3285343,4.1925186 16.295822,4.18475272 16.2642035,4.17330302 C16.1931115,4.14741675 16.1289795,4.10121971 16.1026308,4.0283399 C16.0890089,3.99080481 16.0833415,3.95097978 16.0737962,3.91224993 C16.0562967,3.84146094 16.0503309,3.77047282 16.0425754,3.69799126 L16.0439674,3.67997043 C16.0517229,3.66364217 16.0517229,3.66364217 16.0648476,3.65119685 L16.131863,3.60748887 C16.1534392,3.59852824 16.1632827,3.59842868 16.1851571,3.60649325 L16.2656949,3.69838951 C16.2769304,3.70715102 16.2875694,3.71441909 16.3008929,3.7196959 C16.3133216,3.72308103 16.3242588,3.72238409 16.3372841,3.72188628 C16.3538888,3.71979546 16.3692009,3.71641034 16.3854079,3.71183046 L17.0550646,3.48781465 C16.9911315,3.31616876 16.907412,3.1324758 16.7559811,3.01927315 C16.7074596,2.98303237 16.6531711,2.95495572 16.5962975,2.93414714 C16.5117826,2.90308362 16.4253785,2.89243042 16.3365881,2.88068204 L16.3179948,2.87431003 L16.3032792,2.86126733 L16.2948277,2.84364476 L16.1878417,2.42647754 L16.1868474,2.40666459 L16.1937081,2.38804639 L16.2074293,2.37360981 L16.2256249,2.36564481 L16.2456102,2.36534612 C16.4075806,2.39591183 16.5631876,2.4462905 16.7031841,2.53480163 C16.8733078,2.64232922 17.0054494,2.79386347 17.1079611,2.96491198 C17.193172,3.10698778 17.2602868,3.25533603 17.3010529,3.41573134 L18.0799825,3.22178344 C18.0580086,3.14243206 18.0267878,3.06248331 17.9761782,2.996772 C17.9132395,2.94241084 17.8498035,2.88924442 17.784379,2.83787013 C17.7529593,2.81487117 17.7543513,2.81317861 17.7261134,2.79704947 L17.7107018,2.78350896 L17.7021509,2.76489075 L17.7018526,2.74438086 L17.7798053,2.3470266 L17.7874613,2.32870709 L17.8017791,2.31476833 L17.8204719,2.30759982 Z M23.6016928,1.74985024 L23.6210815,1.75283712 L23.6377856,1.76299251 C23.6794465,1.8013241 23.6791482,1.80102541 23.7192183,1.84164694 C23.8005515,1.93214933 23.8705497,2.02852591 23.9294119,2.13495831 C23.9832032,2.23213139 24.0524061,2.33438216 24.0755731,2.44639006 C24.0815389,2.47506408 24.0843229,2.50393723 24.0856155,2.53310907 C24.0928738,2.69589389 24.0950613,2.69529651 24.0936692,2.83707363 C24.0926749,2.93832877 24.0908852,3.04267035 24.0542952,3.13854912 C24.026455,3.21142893 23.9853907,3.2788328 23.9408463,3.34275197 C23.8560331,3.46431788 23.7546151,3.57304022 23.6474303,3.67509187 C23.5564524,3.76161175 23.4615968,3.84514475 23.3561022,3.9139425 C23.2896834,3.95735178 23.2179948,3.99598206 23.1407382,4.01659152 C23.0399169,4.04357298 22.9289537,4.02983334 22.8270386,4.01689021 C22.5508238,3.98164505 22.299367,3.8740179 22.0412483,3.7750527 L22.0242459,3.76420038 L22.0130104,3.74767299 L22.0092321,3.72805916 L22.0135075,3.70854489 L22.0635205,3.59633786 C22.0783355,3.57403585 22.0917584,3.56706647 22.1187038,3.56766384 C22.2360305,3.59016498 22.3505731,3.61465738 22.4679992,3.63208083 C22.5641473,3.64432703 22.667355,3.65946054 22.7640004,3.64452615 C22.8642252,3.62909395 22.9606716,3.58638161 23.0504564,3.54167801 C23.2183926,3.458145 23.3757892,3.35420167 23.5050474,3.21760181 C23.6077579,3.10897903 23.71892,2.96560892 23.7290618,2.81058998 C23.7451693,2.56705991 23.6073602,2.35180561 23.4406172,2.18732822 L23.4299782,2.17189602 C23.4259016,2.15367607 23.4259016,2.15377563 23.4287851,2.13525699 L23.5567507,1.78260633 L23.5668925,1.76597938 L23.5827017,1.75443012 L23.6016928,1.74985024 Z M21.5938162,0.354679803 L21.6137021,0.360952246 L21.629213,0.374791444 L21.637764,0.393807897 L21.7796497,1.05908506 L21.8147482,1.21470137 C21.8650595,1.48839891 21.9202428,1.76209644 21.9602134,2.03768567 C21.9941188,2.27165773 22.0318025,2.51688037 21.9808947,2.75135024 C21.9541482,2.87500697 21.9021466,2.98850831 21.8416936,3.09912234 L21.8297621,3.11355891 C21.8090808,3.12490905 21.7993367,3.12620336 21.7764679,3.12032917 L21.7105463,3.08956433 C21.6914558,3.07582469 21.6861861,3.067561 21.6818112,3.04456204 C21.6818112,2.96341854 21.6822089,2.88227504 21.6808169,2.80113153 C21.6728625,2.58985974 21.6387583,2.37729363 21.6024665,2.16970565 C21.5267014,1.73521455 21.4370161,1.30500463 21.3508108,0.87270391 L21.3500154,0.858765149 L21.3531971,0.845224638 L21.4425841,0.614737263 L21.5429084,0.384349452 L21.5550387,0.367423813 L21.5730355,0.356969742 L21.5938162,0.354679803 Z M29.6157772,1.63166946 C29.6218424,1.63385984 29.628007,1.63605022 29.6340722,1.63834015 L29.6484895,1.65138285 L29.8934834,1.98113412 L29.9018355,1.99895582 L29.9026309,2.01856965 L29.8956709,2.03698873 L29.882049,2.05122618 L29.5791872,2.26379229 L29.5614888,2.27165773 C29.5370292,2.27235467 29.5277822,2.26896954 29.5098849,2.25244215 L29.2719505,1.92657383 C29.2586269,1.8978998 29.2613115,1.88077504 29.2826888,1.85737783 L29.5786901,1.64082922 C29.5962891,1.63256552 29.5961896,1.63256552 29.6157772,1.63166946 Z M17.3738352,1.54803689 C17.3801986,1.54933121 17.3865621,1.55072508 17.3929256,1.55211896 L17.7727458,1.71500334 L17.7890522,1.72625391 L17.7996911,1.74288086 L17.8029723,1.76229557 L17.7982991,1.78151115 L17.6423939,2.11624054 C17.6239,2.141629 17.607693,2.14770232 17.5768699,2.1408325 L17.2069927,1.97894374 C17.1809422,1.96082335 17.1744793,1.94469422 17.1812405,1.91373025 L17.3272028,1.57800523 C17.3412223,1.55779403 17.3495744,1.55241765 17.3738352,1.54803689 Z M19.3164861,1.09930834 C19.3227501,1.10120003 19.3290142,1.10309172 19.3351788,1.10488385 L19.6990903,1.297637 L19.7144024,1.31018189 L19.7235499,1.32750578 L19.7252402,1.34711961 L19.719175,1.36583737 L19.5382135,1.68573194 C19.5178305,1.7095274 19.5012258,1.7143064 19.4710987,1.70514665 L19.115241,1.51647556 C19.0904831,1.49636391 19.0854122,1.47973696 19.0945597,1.44937038 L19.2675668,1.1254933 L19.2798961,1.11045935 L19.2970973,1.10120003 L19.3164861,1.09930834 Z" id="Shape"></path>
                </g>
            </g>
        </g>
    </g>
</svg>